%TF.GenerationSoftware,KiCad,Pcbnew,9.0.6-rc2*%
%TF.CreationDate,2025-11-20T00:12:21-08:00*%
%TF.ProjectId,Latte_Main_Board,4c617474-655f-44d6-9169-6e5f426f6172,rev?*%
%TF.SameCoordinates,Original*%
%TF.FileFunction,Legend,Bot*%
%TF.FilePolarity,Positive*%
%FSLAX46Y46*%
G04 Gerber Fmt 4.6, Leading zero omitted, Abs format (unit mm)*
G04 Created by KiCad (PCBNEW 9.0.6-rc2) date 2025-11-20 00:12:21*
%MOMM*%
%LPD*%
G01*
G04 APERTURE LIST*
%ADD10C,0.100000*%
%ADD11C,0.120000*%
%ADD12C,0.191421*%
%ADD13C,0.127000*%
%ADD14C,0.200000*%
%ADD15C,0.152400*%
G04 APERTURE END LIST*
D10*
X61468000Y-51181000D02*
X64312800Y-51155600D01*
X30911800Y-61747400D02*
X30539037Y-61053047D01*
X64671279Y-46925107D02*
X65100200Y-47091600D01*
X80822800Y-47498000D02*
X81251555Y-47029699D01*
X126390400Y-59309000D02*
X125247161Y-59164231D01*
X31572200Y-56845200D02*
X30454600Y-58166000D01*
X61239400Y-46050200D02*
X60782200Y-46405800D01*
X64643000Y-53873400D02*
X65565606Y-52136348D01*
X65659000Y-50849677D02*
X64473628Y-51416828D01*
X64592272Y-45779518D02*
X65151000Y-46151800D01*
X64312800Y-51155600D02*
X64668322Y-50849677D01*
X125501400Y-60579000D02*
X125170977Y-60569412D01*
X64473628Y-51416828D02*
X62425112Y-51577662D01*
D11*
X32848542Y-57783274D02*
X32905685Y-57754702D01*
X32905685Y-57754702D02*
X32962828Y-57697560D01*
X32962828Y-57697560D02*
X33048542Y-57611845D01*
X33048542Y-57611845D02*
X33105685Y-57583274D01*
X33105685Y-57583274D02*
X33162828Y-57583274D01*
X33134257Y-57726131D02*
X33191400Y-57697560D01*
X33191400Y-57697560D02*
X33248542Y-57640417D01*
X33248542Y-57640417D02*
X33277114Y-57526131D01*
X33277114Y-57526131D02*
X33277114Y-57326131D01*
X33277114Y-57326131D02*
X33248542Y-57211845D01*
X33248542Y-57211845D02*
X33191400Y-57154702D01*
X33191400Y-57154702D02*
X33134257Y-57126131D01*
X33134257Y-57126131D02*
X33019971Y-57126131D01*
X33019971Y-57126131D02*
X32962828Y-57154702D01*
X32962828Y-57154702D02*
X32905685Y-57211845D01*
X32905685Y-57211845D02*
X32877114Y-57326131D01*
X32877114Y-57326131D02*
X32877114Y-57526131D01*
X32877114Y-57526131D02*
X32905685Y-57640417D01*
X32905685Y-57640417D02*
X32962828Y-57697560D01*
X32962828Y-57697560D02*
X33019971Y-57726131D01*
X33019971Y-57726131D02*
X33134257Y-57726131D01*
X32305686Y-57726131D02*
X32648543Y-57726131D01*
X32477114Y-57726131D02*
X32477114Y-57126131D01*
X32477114Y-57126131D02*
X32534257Y-57211845D01*
X32534257Y-57211845D02*
X32591400Y-57268988D01*
X32591400Y-57268988D02*
X32648543Y-57297560D01*
X131794885Y-61261807D02*
X132219149Y-60837543D01*
X132219149Y-60837543D02*
X132118134Y-60736528D01*
X132118134Y-60736528D02*
X132037322Y-60696121D01*
X132037322Y-60696121D02*
X131956510Y-60696121D01*
X131956510Y-60696121D02*
X131895901Y-60716325D01*
X131895901Y-60716325D02*
X131794885Y-60776934D01*
X131794885Y-60776934D02*
X131734276Y-60837543D01*
X131734276Y-60837543D02*
X131673667Y-60938558D01*
X131673667Y-60938558D02*
X131653464Y-60999167D01*
X131653464Y-60999167D02*
X131653464Y-61079979D01*
X131653464Y-61079979D02*
X131693870Y-61160792D01*
X131693870Y-61160792D02*
X131794885Y-61261807D01*
X131592855Y-60211248D02*
X131794885Y-60413279D01*
X131794885Y-60413279D02*
X131613058Y-60635512D01*
X131613058Y-60635512D02*
X131613058Y-60595106D01*
X131613058Y-60595106D02*
X131592855Y-60534497D01*
X131592855Y-60534497D02*
X131491840Y-60433482D01*
X131491840Y-60433482D02*
X131431230Y-60413279D01*
X131431230Y-60413279D02*
X131390824Y-60413279D01*
X131390824Y-60413279D02*
X131330215Y-60433482D01*
X131330215Y-60433482D02*
X131229200Y-60534497D01*
X131229200Y-60534497D02*
X131208997Y-60595106D01*
X131208997Y-60595106D02*
X131208997Y-60635512D01*
X131208997Y-60635512D02*
X131229200Y-60696121D01*
X131229200Y-60696121D02*
X131330215Y-60797137D01*
X131330215Y-60797137D02*
X131390824Y-60817340D01*
X131390824Y-60817340D02*
X131431230Y-60817340D01*
X101725714Y-70291331D02*
X101925714Y-70005617D01*
X102068571Y-70291331D02*
X102068571Y-69691331D01*
X102068571Y-69691331D02*
X101840000Y-69691331D01*
X101840000Y-69691331D02*
X101782857Y-69719902D01*
X101782857Y-69719902D02*
X101754286Y-69748474D01*
X101754286Y-69748474D02*
X101725714Y-69805617D01*
X101725714Y-69805617D02*
X101725714Y-69891331D01*
X101725714Y-69891331D02*
X101754286Y-69948474D01*
X101754286Y-69948474D02*
X101782857Y-69977045D01*
X101782857Y-69977045D02*
X101840000Y-70005617D01*
X101840000Y-70005617D02*
X102068571Y-70005617D01*
X101497143Y-69748474D02*
X101468571Y-69719902D01*
X101468571Y-69719902D02*
X101411429Y-69691331D01*
X101411429Y-69691331D02*
X101268571Y-69691331D01*
X101268571Y-69691331D02*
X101211429Y-69719902D01*
X101211429Y-69719902D02*
X101182857Y-69748474D01*
X101182857Y-69748474D02*
X101154286Y-69805617D01*
X101154286Y-69805617D02*
X101154286Y-69862760D01*
X101154286Y-69862760D02*
X101182857Y-69948474D01*
X101182857Y-69948474D02*
X101525714Y-70291331D01*
X101525714Y-70291331D02*
X101154286Y-70291331D01*
X100582857Y-70291331D02*
X100925714Y-70291331D01*
X100754285Y-70291331D02*
X100754285Y-69691331D01*
X100754285Y-69691331D02*
X100811428Y-69777045D01*
X100811428Y-69777045D02*
X100868571Y-69834188D01*
X100868571Y-69834188D02*
X100925714Y-69862760D01*
X27900256Y-61993331D02*
X27900256Y-61393331D01*
X27900256Y-61393331D02*
X27757399Y-61393331D01*
X27757399Y-61393331D02*
X27671685Y-61421902D01*
X27671685Y-61421902D02*
X27614542Y-61479045D01*
X27614542Y-61479045D02*
X27585971Y-61536188D01*
X27585971Y-61536188D02*
X27557399Y-61650474D01*
X27557399Y-61650474D02*
X27557399Y-61736188D01*
X27557399Y-61736188D02*
X27585971Y-61850474D01*
X27585971Y-61850474D02*
X27614542Y-61907617D01*
X27614542Y-61907617D02*
X27671685Y-61964760D01*
X27671685Y-61964760D02*
X27757399Y-61993331D01*
X27757399Y-61993331D02*
X27900256Y-61993331D01*
X27043114Y-61593331D02*
X27043114Y-61993331D01*
X27185971Y-61364760D02*
X27328828Y-61793331D01*
X27328828Y-61793331D02*
X26957399Y-61793331D01*
X32211914Y-62418788D02*
X32240486Y-62447360D01*
X32240486Y-62447360D02*
X32326200Y-62475931D01*
X32326200Y-62475931D02*
X32383343Y-62475931D01*
X32383343Y-62475931D02*
X32469057Y-62447360D01*
X32469057Y-62447360D02*
X32526200Y-62390217D01*
X32526200Y-62390217D02*
X32554771Y-62333074D01*
X32554771Y-62333074D02*
X32583343Y-62218788D01*
X32583343Y-62218788D02*
X32583343Y-62133074D01*
X32583343Y-62133074D02*
X32554771Y-62018788D01*
X32554771Y-62018788D02*
X32526200Y-61961645D01*
X32526200Y-61961645D02*
X32469057Y-61904502D01*
X32469057Y-61904502D02*
X32383343Y-61875931D01*
X32383343Y-61875931D02*
X32326200Y-61875931D01*
X32326200Y-61875931D02*
X32240486Y-61904502D01*
X32240486Y-61904502D02*
X32211914Y-61933074D01*
X31640486Y-62475931D02*
X31983343Y-62475931D01*
X31811914Y-62475931D02*
X31811914Y-61875931D01*
X31811914Y-61875931D02*
X31869057Y-61961645D01*
X31869057Y-61961645D02*
X31926200Y-62018788D01*
X31926200Y-62018788D02*
X31983343Y-62047360D01*
X31411914Y-61933074D02*
X31383342Y-61904502D01*
X31383342Y-61904502D02*
X31326200Y-61875931D01*
X31326200Y-61875931D02*
X31183342Y-61875931D01*
X31183342Y-61875931D02*
X31126200Y-61904502D01*
X31126200Y-61904502D02*
X31097628Y-61933074D01*
X31097628Y-61933074D02*
X31069057Y-61990217D01*
X31069057Y-61990217D02*
X31069057Y-62047360D01*
X31069057Y-62047360D02*
X31097628Y-62133074D01*
X31097628Y-62133074D02*
X31440485Y-62475931D01*
X31440485Y-62475931D02*
X31069057Y-62475931D01*
X93806914Y-44772131D02*
X94006914Y-44486417D01*
X94149771Y-44772131D02*
X94149771Y-44172131D01*
X94149771Y-44172131D02*
X93921200Y-44172131D01*
X93921200Y-44172131D02*
X93864057Y-44200702D01*
X93864057Y-44200702D02*
X93835486Y-44229274D01*
X93835486Y-44229274D02*
X93806914Y-44286417D01*
X93806914Y-44286417D02*
X93806914Y-44372131D01*
X93806914Y-44372131D02*
X93835486Y-44429274D01*
X93835486Y-44429274D02*
X93864057Y-44457845D01*
X93864057Y-44457845D02*
X93921200Y-44486417D01*
X93921200Y-44486417D02*
X94149771Y-44486417D01*
X93606914Y-44172131D02*
X93235486Y-44172131D01*
X93235486Y-44172131D02*
X93435486Y-44400702D01*
X93435486Y-44400702D02*
X93349771Y-44400702D01*
X93349771Y-44400702D02*
X93292629Y-44429274D01*
X93292629Y-44429274D02*
X93264057Y-44457845D01*
X93264057Y-44457845D02*
X93235486Y-44514988D01*
X93235486Y-44514988D02*
X93235486Y-44657845D01*
X93235486Y-44657845D02*
X93264057Y-44714988D01*
X93264057Y-44714988D02*
X93292629Y-44743560D01*
X93292629Y-44743560D02*
X93349771Y-44772131D01*
X93349771Y-44772131D02*
X93521200Y-44772131D01*
X93521200Y-44772131D02*
X93578343Y-44743560D01*
X93578343Y-44743560D02*
X93606914Y-44714988D01*
X92664057Y-44772131D02*
X93006914Y-44772131D01*
X92835485Y-44772131D02*
X92835485Y-44172131D01*
X92835485Y-44172131D02*
X92892628Y-44257845D01*
X92892628Y-44257845D02*
X92949771Y-44314988D01*
X92949771Y-44314988D02*
X93006914Y-44343560D01*
X61224988Y-51404885D02*
X61253560Y-51376313D01*
X61253560Y-51376313D02*
X61282131Y-51290599D01*
X61282131Y-51290599D02*
X61282131Y-51233456D01*
X61282131Y-51233456D02*
X61253560Y-51147742D01*
X61253560Y-51147742D02*
X61196417Y-51090599D01*
X61196417Y-51090599D02*
X61139274Y-51062028D01*
X61139274Y-51062028D02*
X61024988Y-51033456D01*
X61024988Y-51033456D02*
X60939274Y-51033456D01*
X60939274Y-51033456D02*
X60824988Y-51062028D01*
X60824988Y-51062028D02*
X60767845Y-51090599D01*
X60767845Y-51090599D02*
X60710702Y-51147742D01*
X60710702Y-51147742D02*
X60682131Y-51233456D01*
X60682131Y-51233456D02*
X60682131Y-51290599D01*
X60682131Y-51290599D02*
X60710702Y-51376313D01*
X60710702Y-51376313D02*
X60739274Y-51404885D01*
X60882131Y-51919171D02*
X61282131Y-51919171D01*
X60653560Y-51776313D02*
X61082131Y-51633456D01*
X61082131Y-51633456D02*
X61082131Y-52004885D01*
X60682131Y-52347742D02*
X60682131Y-52404885D01*
X60682131Y-52404885D02*
X60710702Y-52462028D01*
X60710702Y-52462028D02*
X60739274Y-52490600D01*
X60739274Y-52490600D02*
X60796417Y-52519171D01*
X60796417Y-52519171D02*
X60910702Y-52547742D01*
X60910702Y-52547742D02*
X61053560Y-52547742D01*
X61053560Y-52547742D02*
X61167845Y-52519171D01*
X61167845Y-52519171D02*
X61224988Y-52490600D01*
X61224988Y-52490600D02*
X61253560Y-52462028D01*
X61253560Y-52462028D02*
X61282131Y-52404885D01*
X61282131Y-52404885D02*
X61282131Y-52347742D01*
X61282131Y-52347742D02*
X61253560Y-52290600D01*
X61253560Y-52290600D02*
X61224988Y-52262028D01*
X61224988Y-52262028D02*
X61167845Y-52233457D01*
X61167845Y-52233457D02*
X61053560Y-52204885D01*
X61053560Y-52204885D02*
X60910702Y-52204885D01*
X60910702Y-52204885D02*
X60796417Y-52233457D01*
X60796417Y-52233457D02*
X60739274Y-52262028D01*
X60739274Y-52262028D02*
X60710702Y-52290600D01*
X60710702Y-52290600D02*
X60682131Y-52347742D01*
X79595994Y-42271312D02*
X79636400Y-42271312D01*
X79636400Y-42271312D02*
X79717212Y-42230906D01*
X79717212Y-42230906D02*
X79757619Y-42190500D01*
X79757619Y-42190500D02*
X79798025Y-42109688D01*
X79798025Y-42109688D02*
X79798025Y-42028876D01*
X79798025Y-42028876D02*
X79777822Y-41968266D01*
X79777822Y-41968266D02*
X79717212Y-41867251D01*
X79717212Y-41867251D02*
X79656603Y-41806642D01*
X79656603Y-41806642D02*
X79555588Y-41746033D01*
X79555588Y-41746033D02*
X79494979Y-41725830D01*
X79494979Y-41725830D02*
X79414167Y-41725830D01*
X79414167Y-41725830D02*
X79333355Y-41766236D01*
X79333355Y-41766236D02*
X79292948Y-41806642D01*
X79292948Y-41806642D02*
X79252542Y-41887454D01*
X79252542Y-41887454D02*
X79252542Y-41927860D01*
X79070715Y-42028876D02*
X78808075Y-42291515D01*
X78808075Y-42291515D02*
X79111121Y-42311718D01*
X79111121Y-42311718D02*
X79050512Y-42372327D01*
X79050512Y-42372327D02*
X79030309Y-42432937D01*
X79030309Y-42432937D02*
X79030309Y-42473343D01*
X79030309Y-42473343D02*
X79050512Y-42533952D01*
X79050512Y-42533952D02*
X79151527Y-42634967D01*
X79151527Y-42634967D02*
X79212136Y-42655170D01*
X79212136Y-42655170D02*
X79252542Y-42655170D01*
X79252542Y-42655170D02*
X79313151Y-42634967D01*
X79313151Y-42634967D02*
X79434370Y-42513749D01*
X79434370Y-42513749D02*
X79454573Y-42453140D01*
X79454573Y-42453140D02*
X79454573Y-42412734D01*
X78666654Y-42432937D02*
X78383811Y-42715780D01*
X78383811Y-42715780D02*
X78989902Y-42958216D01*
X61981331Y-49980000D02*
X61981331Y-49694286D01*
X61981331Y-49694286D02*
X61381331Y-49694286D01*
X61981331Y-50494285D02*
X61981331Y-50151428D01*
X61981331Y-50322857D02*
X61381331Y-50322857D01*
X61381331Y-50322857D02*
X61467045Y-50265714D01*
X61467045Y-50265714D02*
X61524188Y-50208571D01*
X61524188Y-50208571D02*
X61552760Y-50151428D01*
X55038419Y-67547063D02*
X55381871Y-67486454D01*
X55280855Y-67789500D02*
X55705119Y-67365236D01*
X55705119Y-67365236D02*
X55543495Y-67203611D01*
X55543495Y-67203611D02*
X55482886Y-67183408D01*
X55482886Y-67183408D02*
X55442480Y-67183408D01*
X55442480Y-67183408D02*
X55381871Y-67203611D01*
X55381871Y-67203611D02*
X55321261Y-67264221D01*
X55321261Y-67264221D02*
X55301058Y-67324830D01*
X55301058Y-67324830D02*
X55301058Y-67365236D01*
X55301058Y-67365236D02*
X55321261Y-67425845D01*
X55321261Y-67425845D02*
X55482886Y-67587469D01*
X55260652Y-67001581D02*
X55260652Y-66961175D01*
X55260652Y-66961175D02*
X55240449Y-66900566D01*
X55240449Y-66900566D02*
X55139434Y-66799550D01*
X55139434Y-66799550D02*
X55078825Y-66779347D01*
X55078825Y-66779347D02*
X55038419Y-66779347D01*
X55038419Y-66779347D02*
X54977810Y-66799550D01*
X54977810Y-66799550D02*
X54937403Y-66839957D01*
X54937403Y-66839957D02*
X54896997Y-66920769D01*
X54896997Y-66920769D02*
X54896997Y-67405642D01*
X54896997Y-67405642D02*
X54634358Y-67143002D01*
X54856591Y-66597520D02*
X54856591Y-66557113D01*
X54856591Y-66557113D02*
X54836388Y-66496504D01*
X54836388Y-66496504D02*
X54735373Y-66395489D01*
X54735373Y-66395489D02*
X54674763Y-66375286D01*
X54674763Y-66375286D02*
X54634357Y-66375286D01*
X54634357Y-66375286D02*
X54573748Y-66395489D01*
X54573748Y-66395489D02*
X54533342Y-66435895D01*
X54533342Y-66435895D02*
X54492936Y-66516707D01*
X54492936Y-66516707D02*
X54492936Y-67001581D01*
X54492936Y-67001581D02*
X54230296Y-66738941D01*
X35971114Y-63085531D02*
X36171114Y-62799817D01*
X36313971Y-63085531D02*
X36313971Y-62485531D01*
X36313971Y-62485531D02*
X36085400Y-62485531D01*
X36085400Y-62485531D02*
X36028257Y-62514102D01*
X36028257Y-62514102D02*
X35999686Y-62542674D01*
X35999686Y-62542674D02*
X35971114Y-62599817D01*
X35971114Y-62599817D02*
X35971114Y-62685531D01*
X35971114Y-62685531D02*
X35999686Y-62742674D01*
X35999686Y-62742674D02*
X36028257Y-62771245D01*
X36028257Y-62771245D02*
X36085400Y-62799817D01*
X36085400Y-62799817D02*
X36313971Y-62799817D01*
X35399686Y-63085531D02*
X35742543Y-63085531D01*
X35571114Y-63085531D02*
X35571114Y-62485531D01*
X35571114Y-62485531D02*
X35628257Y-62571245D01*
X35628257Y-62571245D02*
X35685400Y-62628388D01*
X35685400Y-62628388D02*
X35742543Y-62656960D01*
X34885400Y-62485531D02*
X34999685Y-62485531D01*
X34999685Y-62485531D02*
X35056828Y-62514102D01*
X35056828Y-62514102D02*
X35085400Y-62542674D01*
X35085400Y-62542674D02*
X35142542Y-62628388D01*
X35142542Y-62628388D02*
X35171114Y-62742674D01*
X35171114Y-62742674D02*
X35171114Y-62971245D01*
X35171114Y-62971245D02*
X35142542Y-63028388D01*
X35142542Y-63028388D02*
X35113971Y-63056960D01*
X35113971Y-63056960D02*
X35056828Y-63085531D01*
X35056828Y-63085531D02*
X34942542Y-63085531D01*
X34942542Y-63085531D02*
X34885400Y-63056960D01*
X34885400Y-63056960D02*
X34856828Y-63028388D01*
X34856828Y-63028388D02*
X34828257Y-62971245D01*
X34828257Y-62971245D02*
X34828257Y-62828388D01*
X34828257Y-62828388D02*
X34856828Y-62771245D01*
X34856828Y-62771245D02*
X34885400Y-62742674D01*
X34885400Y-62742674D02*
X34942542Y-62714102D01*
X34942542Y-62714102D02*
X35056828Y-62714102D01*
X35056828Y-62714102D02*
X35113971Y-62742674D01*
X35113971Y-62742674D02*
X35142542Y-62771245D01*
X35142542Y-62771245D02*
X35171114Y-62828388D01*
X129456624Y-60716617D02*
X129153578Y-61019663D01*
X129153578Y-61019663D02*
X129113172Y-61100475D01*
X129113172Y-61100475D02*
X129113172Y-61181287D01*
X129113172Y-61181287D02*
X129153578Y-61262100D01*
X129153578Y-61262100D02*
X129193984Y-61302506D01*
X128608096Y-60716617D02*
X128850532Y-60959054D01*
X128729314Y-60837835D02*
X129153578Y-60413571D01*
X129153578Y-60413571D02*
X129133375Y-60514587D01*
X129133375Y-60514587D02*
X129133375Y-60595399D01*
X129133375Y-60595399D02*
X129153578Y-60656008D01*
X66654314Y-54011388D02*
X66682886Y-54039960D01*
X66682886Y-54039960D02*
X66768600Y-54068531D01*
X66768600Y-54068531D02*
X66825743Y-54068531D01*
X66825743Y-54068531D02*
X66911457Y-54039960D01*
X66911457Y-54039960D02*
X66968600Y-53982817D01*
X66968600Y-53982817D02*
X66997171Y-53925674D01*
X66997171Y-53925674D02*
X67025743Y-53811388D01*
X67025743Y-53811388D02*
X67025743Y-53725674D01*
X67025743Y-53725674D02*
X66997171Y-53611388D01*
X66997171Y-53611388D02*
X66968600Y-53554245D01*
X66968600Y-53554245D02*
X66911457Y-53497102D01*
X66911457Y-53497102D02*
X66825743Y-53468531D01*
X66825743Y-53468531D02*
X66768600Y-53468531D01*
X66768600Y-53468531D02*
X66682886Y-53497102D01*
X66682886Y-53497102D02*
X66654314Y-53525674D01*
X66454314Y-53468531D02*
X66082886Y-53468531D01*
X66082886Y-53468531D02*
X66282886Y-53697102D01*
X66282886Y-53697102D02*
X66197171Y-53697102D01*
X66197171Y-53697102D02*
X66140029Y-53725674D01*
X66140029Y-53725674D02*
X66111457Y-53754245D01*
X66111457Y-53754245D02*
X66082886Y-53811388D01*
X66082886Y-53811388D02*
X66082886Y-53954245D01*
X66082886Y-53954245D02*
X66111457Y-54011388D01*
X66111457Y-54011388D02*
X66140029Y-54039960D01*
X66140029Y-54039960D02*
X66197171Y-54068531D01*
X66197171Y-54068531D02*
X66368600Y-54068531D01*
X66368600Y-54068531D02*
X66425743Y-54039960D01*
X66425743Y-54039960D02*
X66454314Y-54011388D01*
X65511457Y-54068531D02*
X65854314Y-54068531D01*
X65682885Y-54068531D02*
X65682885Y-53468531D01*
X65682885Y-53468531D02*
X65740028Y-53554245D01*
X65740028Y-53554245D02*
X65797171Y-53611388D01*
X65797171Y-53611388D02*
X65854314Y-53639960D01*
X73196988Y-40178085D02*
X73225560Y-40149513D01*
X73225560Y-40149513D02*
X73254131Y-40063799D01*
X73254131Y-40063799D02*
X73254131Y-40006656D01*
X73254131Y-40006656D02*
X73225560Y-39920942D01*
X73225560Y-39920942D02*
X73168417Y-39863799D01*
X73168417Y-39863799D02*
X73111274Y-39835228D01*
X73111274Y-39835228D02*
X72996988Y-39806656D01*
X72996988Y-39806656D02*
X72911274Y-39806656D01*
X72911274Y-39806656D02*
X72796988Y-39835228D01*
X72796988Y-39835228D02*
X72739845Y-39863799D01*
X72739845Y-39863799D02*
X72682702Y-39920942D01*
X72682702Y-39920942D02*
X72654131Y-40006656D01*
X72654131Y-40006656D02*
X72654131Y-40063799D01*
X72654131Y-40063799D02*
X72682702Y-40149513D01*
X72682702Y-40149513D02*
X72711274Y-40178085D01*
X73254131Y-40749513D02*
X73254131Y-40406656D01*
X73254131Y-40578085D02*
X72654131Y-40578085D01*
X72654131Y-40578085D02*
X72739845Y-40520942D01*
X72739845Y-40520942D02*
X72796988Y-40463799D01*
X72796988Y-40463799D02*
X72825560Y-40406656D01*
X73254131Y-41035228D02*
X73254131Y-41149514D01*
X73254131Y-41149514D02*
X73225560Y-41206657D01*
X73225560Y-41206657D02*
X73196988Y-41235228D01*
X73196988Y-41235228D02*
X73111274Y-41292371D01*
X73111274Y-41292371D02*
X72996988Y-41320942D01*
X72996988Y-41320942D02*
X72768417Y-41320942D01*
X72768417Y-41320942D02*
X72711274Y-41292371D01*
X72711274Y-41292371D02*
X72682702Y-41263800D01*
X72682702Y-41263800D02*
X72654131Y-41206657D01*
X72654131Y-41206657D02*
X72654131Y-41092371D01*
X72654131Y-41092371D02*
X72682702Y-41035228D01*
X72682702Y-41035228D02*
X72711274Y-41006657D01*
X72711274Y-41006657D02*
X72768417Y-40978085D01*
X72768417Y-40978085D02*
X72911274Y-40978085D01*
X72911274Y-40978085D02*
X72968417Y-41006657D01*
X72968417Y-41006657D02*
X72996988Y-41035228D01*
X72996988Y-41035228D02*
X73025560Y-41092371D01*
X73025560Y-41092371D02*
X73025560Y-41206657D01*
X73025560Y-41206657D02*
X72996988Y-41263800D01*
X72996988Y-41263800D02*
X72968417Y-41292371D01*
X72968417Y-41292371D02*
X72911274Y-41320942D01*
X80922799Y-48226531D02*
X81122799Y-47940817D01*
X81265656Y-48226531D02*
X81265656Y-47626531D01*
X81265656Y-47626531D02*
X81037085Y-47626531D01*
X81037085Y-47626531D02*
X80979942Y-47655102D01*
X80979942Y-47655102D02*
X80951371Y-47683674D01*
X80951371Y-47683674D02*
X80922799Y-47740817D01*
X80922799Y-47740817D02*
X80922799Y-47826531D01*
X80922799Y-47826531D02*
X80951371Y-47883674D01*
X80951371Y-47883674D02*
X80979942Y-47912245D01*
X80979942Y-47912245D02*
X81037085Y-47940817D01*
X81037085Y-47940817D02*
X81265656Y-47940817D01*
X80351371Y-48226531D02*
X80694228Y-48226531D01*
X80522799Y-48226531D02*
X80522799Y-47626531D01*
X80522799Y-47626531D02*
X80579942Y-47712245D01*
X80579942Y-47712245D02*
X80637085Y-47769388D01*
X80637085Y-47769388D02*
X80694228Y-47797960D01*
X64063514Y-46950188D02*
X64092086Y-46978760D01*
X64092086Y-46978760D02*
X64177800Y-47007331D01*
X64177800Y-47007331D02*
X64234943Y-47007331D01*
X64234943Y-47007331D02*
X64320657Y-46978760D01*
X64320657Y-46978760D02*
X64377800Y-46921617D01*
X64377800Y-46921617D02*
X64406371Y-46864474D01*
X64406371Y-46864474D02*
X64434943Y-46750188D01*
X64434943Y-46750188D02*
X64434943Y-46664474D01*
X64434943Y-46664474D02*
X64406371Y-46550188D01*
X64406371Y-46550188D02*
X64377800Y-46493045D01*
X64377800Y-46493045D02*
X64320657Y-46435902D01*
X64320657Y-46435902D02*
X64234943Y-46407331D01*
X64234943Y-46407331D02*
X64177800Y-46407331D01*
X64177800Y-46407331D02*
X64092086Y-46435902D01*
X64092086Y-46435902D02*
X64063514Y-46464474D01*
X63863514Y-46407331D02*
X63492086Y-46407331D01*
X63492086Y-46407331D02*
X63692086Y-46635902D01*
X63692086Y-46635902D02*
X63606371Y-46635902D01*
X63606371Y-46635902D02*
X63549229Y-46664474D01*
X63549229Y-46664474D02*
X63520657Y-46693045D01*
X63520657Y-46693045D02*
X63492086Y-46750188D01*
X63492086Y-46750188D02*
X63492086Y-46893045D01*
X63492086Y-46893045D02*
X63520657Y-46950188D01*
X63520657Y-46950188D02*
X63549229Y-46978760D01*
X63549229Y-46978760D02*
X63606371Y-47007331D01*
X63606371Y-47007331D02*
X63777800Y-47007331D01*
X63777800Y-47007331D02*
X63834943Y-46978760D01*
X63834943Y-46978760D02*
X63863514Y-46950188D01*
X62977800Y-46607331D02*
X62977800Y-47007331D01*
X63120657Y-46378760D02*
X63263514Y-46807331D01*
X63263514Y-46807331D02*
X62892085Y-46807331D01*
X82230788Y-49506200D02*
X82259360Y-49477628D01*
X82259360Y-49477628D02*
X82287931Y-49391914D01*
X82287931Y-49391914D02*
X82287931Y-49334771D01*
X82287931Y-49334771D02*
X82259360Y-49249057D01*
X82259360Y-49249057D02*
X82202217Y-49191914D01*
X82202217Y-49191914D02*
X82145074Y-49163343D01*
X82145074Y-49163343D02*
X82030788Y-49134771D01*
X82030788Y-49134771D02*
X81945074Y-49134771D01*
X81945074Y-49134771D02*
X81830788Y-49163343D01*
X81830788Y-49163343D02*
X81773645Y-49191914D01*
X81773645Y-49191914D02*
X81716502Y-49249057D01*
X81716502Y-49249057D02*
X81687931Y-49334771D01*
X81687931Y-49334771D02*
X81687931Y-49391914D01*
X81687931Y-49391914D02*
X81716502Y-49477628D01*
X81716502Y-49477628D02*
X81745074Y-49506200D01*
X81745074Y-49734771D02*
X81716502Y-49763343D01*
X81716502Y-49763343D02*
X81687931Y-49820486D01*
X81687931Y-49820486D02*
X81687931Y-49963343D01*
X81687931Y-49963343D02*
X81716502Y-50020486D01*
X81716502Y-50020486D02*
X81745074Y-50049057D01*
X81745074Y-50049057D02*
X81802217Y-50077628D01*
X81802217Y-50077628D02*
X81859360Y-50077628D01*
X81859360Y-50077628D02*
X81945074Y-50049057D01*
X81945074Y-50049057D02*
X82287931Y-49706200D01*
X82287931Y-49706200D02*
X82287931Y-50077628D01*
X93292599Y-43933931D02*
X93492599Y-43648217D01*
X93635456Y-43933931D02*
X93635456Y-43333931D01*
X93635456Y-43333931D02*
X93406885Y-43333931D01*
X93406885Y-43333931D02*
X93349742Y-43362502D01*
X93349742Y-43362502D02*
X93321171Y-43391074D01*
X93321171Y-43391074D02*
X93292599Y-43448217D01*
X93292599Y-43448217D02*
X93292599Y-43533931D01*
X93292599Y-43533931D02*
X93321171Y-43591074D01*
X93321171Y-43591074D02*
X93349742Y-43619645D01*
X93349742Y-43619645D02*
X93406885Y-43648217D01*
X93406885Y-43648217D02*
X93635456Y-43648217D01*
X93064028Y-43391074D02*
X93035456Y-43362502D01*
X93035456Y-43362502D02*
X92978314Y-43333931D01*
X92978314Y-43333931D02*
X92835456Y-43333931D01*
X92835456Y-43333931D02*
X92778314Y-43362502D01*
X92778314Y-43362502D02*
X92749742Y-43391074D01*
X92749742Y-43391074D02*
X92721171Y-43448217D01*
X92721171Y-43448217D02*
X92721171Y-43505360D01*
X92721171Y-43505360D02*
X92749742Y-43591074D01*
X92749742Y-43591074D02*
X93092599Y-43933931D01*
X93092599Y-43933931D02*
X92721171Y-43933931D01*
X58284931Y-48458485D02*
X57999217Y-48258485D01*
X58284931Y-48115628D02*
X57684931Y-48115628D01*
X57684931Y-48115628D02*
X57684931Y-48344199D01*
X57684931Y-48344199D02*
X57713502Y-48401342D01*
X57713502Y-48401342D02*
X57742074Y-48429913D01*
X57742074Y-48429913D02*
X57799217Y-48458485D01*
X57799217Y-48458485D02*
X57884931Y-48458485D01*
X57884931Y-48458485D02*
X57942074Y-48429913D01*
X57942074Y-48429913D02*
X57970645Y-48401342D01*
X57970645Y-48401342D02*
X57999217Y-48344199D01*
X57999217Y-48344199D02*
X57999217Y-48115628D01*
X58284931Y-49029913D02*
X58284931Y-48687056D01*
X58284931Y-48858485D02*
X57684931Y-48858485D01*
X57684931Y-48858485D02*
X57770645Y-48801342D01*
X57770645Y-48801342D02*
X57827788Y-48744199D01*
X57827788Y-48744199D02*
X57856360Y-48687056D01*
X57684931Y-49229914D02*
X57684931Y-49601342D01*
X57684931Y-49601342D02*
X57913502Y-49401342D01*
X57913502Y-49401342D02*
X57913502Y-49487057D01*
X57913502Y-49487057D02*
X57942074Y-49544200D01*
X57942074Y-49544200D02*
X57970645Y-49572771D01*
X57970645Y-49572771D02*
X58027788Y-49601342D01*
X58027788Y-49601342D02*
X58170645Y-49601342D01*
X58170645Y-49601342D02*
X58227788Y-49572771D01*
X58227788Y-49572771D02*
X58256360Y-49544200D01*
X58256360Y-49544200D02*
X58284931Y-49487057D01*
X58284931Y-49487057D02*
X58284931Y-49315628D01*
X58284931Y-49315628D02*
X58256360Y-49258485D01*
X58256360Y-49258485D02*
X58227788Y-49229914D01*
X86339314Y-51249131D02*
X86539314Y-50963417D01*
X86682171Y-51249131D02*
X86682171Y-50649131D01*
X86682171Y-50649131D02*
X86453600Y-50649131D01*
X86453600Y-50649131D02*
X86396457Y-50677702D01*
X86396457Y-50677702D02*
X86367886Y-50706274D01*
X86367886Y-50706274D02*
X86339314Y-50763417D01*
X86339314Y-50763417D02*
X86339314Y-50849131D01*
X86339314Y-50849131D02*
X86367886Y-50906274D01*
X86367886Y-50906274D02*
X86396457Y-50934845D01*
X86396457Y-50934845D02*
X86453600Y-50963417D01*
X86453600Y-50963417D02*
X86682171Y-50963417D01*
X86110743Y-50706274D02*
X86082171Y-50677702D01*
X86082171Y-50677702D02*
X86025029Y-50649131D01*
X86025029Y-50649131D02*
X85882171Y-50649131D01*
X85882171Y-50649131D02*
X85825029Y-50677702D01*
X85825029Y-50677702D02*
X85796457Y-50706274D01*
X85796457Y-50706274D02*
X85767886Y-50763417D01*
X85767886Y-50763417D02*
X85767886Y-50820560D01*
X85767886Y-50820560D02*
X85796457Y-50906274D01*
X85796457Y-50906274D02*
X86139314Y-51249131D01*
X86139314Y-51249131D02*
X85767886Y-51249131D01*
X85253600Y-50849131D02*
X85253600Y-51249131D01*
X85396457Y-50620560D02*
X85539314Y-51049131D01*
X85539314Y-51049131D02*
X85167885Y-51049131D01*
X116954200Y-71743760D02*
X116868486Y-71772331D01*
X116868486Y-71772331D02*
X116725628Y-71772331D01*
X116725628Y-71772331D02*
X116668486Y-71743760D01*
X116668486Y-71743760D02*
X116639914Y-71715188D01*
X116639914Y-71715188D02*
X116611343Y-71658045D01*
X116611343Y-71658045D02*
X116611343Y-71600902D01*
X116611343Y-71600902D02*
X116639914Y-71543760D01*
X116639914Y-71543760D02*
X116668486Y-71515188D01*
X116668486Y-71515188D02*
X116725628Y-71486617D01*
X116725628Y-71486617D02*
X116839914Y-71458045D01*
X116839914Y-71458045D02*
X116897057Y-71429474D01*
X116897057Y-71429474D02*
X116925628Y-71400902D01*
X116925628Y-71400902D02*
X116954200Y-71343760D01*
X116954200Y-71343760D02*
X116954200Y-71286617D01*
X116954200Y-71286617D02*
X116925628Y-71229474D01*
X116925628Y-71229474D02*
X116897057Y-71200902D01*
X116897057Y-71200902D02*
X116839914Y-71172331D01*
X116839914Y-71172331D02*
X116697057Y-71172331D01*
X116697057Y-71172331D02*
X116611343Y-71200902D01*
X116411342Y-71172331D02*
X116268485Y-71772331D01*
X116268485Y-71772331D02*
X116154199Y-71343760D01*
X116154199Y-71343760D02*
X116039914Y-71772331D01*
X116039914Y-71772331D02*
X115897057Y-71172331D01*
X115725628Y-71172331D02*
X115354200Y-71172331D01*
X115354200Y-71172331D02*
X115554200Y-71400902D01*
X115554200Y-71400902D02*
X115468485Y-71400902D01*
X115468485Y-71400902D02*
X115411343Y-71429474D01*
X115411343Y-71429474D02*
X115382771Y-71458045D01*
X115382771Y-71458045D02*
X115354200Y-71515188D01*
X115354200Y-71515188D02*
X115354200Y-71658045D01*
X115354200Y-71658045D02*
X115382771Y-71715188D01*
X115382771Y-71715188D02*
X115411343Y-71743760D01*
X115411343Y-71743760D02*
X115468485Y-71772331D01*
X115468485Y-71772331D02*
X115639914Y-71772331D01*
X115639914Y-71772331D02*
X115697057Y-71743760D01*
X115697057Y-71743760D02*
X115725628Y-71715188D01*
X126598314Y-58253188D02*
X126626886Y-58281760D01*
X126626886Y-58281760D02*
X126712600Y-58310331D01*
X126712600Y-58310331D02*
X126769743Y-58310331D01*
X126769743Y-58310331D02*
X126855457Y-58281760D01*
X126855457Y-58281760D02*
X126912600Y-58224617D01*
X126912600Y-58224617D02*
X126941171Y-58167474D01*
X126941171Y-58167474D02*
X126969743Y-58053188D01*
X126969743Y-58053188D02*
X126969743Y-57967474D01*
X126969743Y-57967474D02*
X126941171Y-57853188D01*
X126941171Y-57853188D02*
X126912600Y-57796045D01*
X126912600Y-57796045D02*
X126855457Y-57738902D01*
X126855457Y-57738902D02*
X126769743Y-57710331D01*
X126769743Y-57710331D02*
X126712600Y-57710331D01*
X126712600Y-57710331D02*
X126626886Y-57738902D01*
X126626886Y-57738902D02*
X126598314Y-57767474D01*
X126026886Y-58310331D02*
X126369743Y-58310331D01*
X126198314Y-58310331D02*
X126198314Y-57710331D01*
X126198314Y-57710331D02*
X126255457Y-57796045D01*
X126255457Y-57796045D02*
X126312600Y-57853188D01*
X126312600Y-57853188D02*
X126369743Y-57881760D01*
X125655457Y-57710331D02*
X125598314Y-57710331D01*
X125598314Y-57710331D02*
X125541171Y-57738902D01*
X125541171Y-57738902D02*
X125512600Y-57767474D01*
X125512600Y-57767474D02*
X125484028Y-57824617D01*
X125484028Y-57824617D02*
X125455457Y-57938902D01*
X125455457Y-57938902D02*
X125455457Y-58081760D01*
X125455457Y-58081760D02*
X125484028Y-58196045D01*
X125484028Y-58196045D02*
X125512600Y-58253188D01*
X125512600Y-58253188D02*
X125541171Y-58281760D01*
X125541171Y-58281760D02*
X125598314Y-58310331D01*
X125598314Y-58310331D02*
X125655457Y-58310331D01*
X125655457Y-58310331D02*
X125712600Y-58281760D01*
X125712600Y-58281760D02*
X125741171Y-58253188D01*
X125741171Y-58253188D02*
X125769742Y-58196045D01*
X125769742Y-58196045D02*
X125798314Y-58081760D01*
X125798314Y-58081760D02*
X125798314Y-57938902D01*
X125798314Y-57938902D02*
X125769742Y-57824617D01*
X125769742Y-57824617D02*
X125741171Y-57767474D01*
X125741171Y-57767474D02*
X125712600Y-57738902D01*
X125712600Y-57738902D02*
X125655457Y-57710331D01*
X63987314Y-45934188D02*
X64015886Y-45962760D01*
X64015886Y-45962760D02*
X64101600Y-45991331D01*
X64101600Y-45991331D02*
X64158743Y-45991331D01*
X64158743Y-45991331D02*
X64244457Y-45962760D01*
X64244457Y-45962760D02*
X64301600Y-45905617D01*
X64301600Y-45905617D02*
X64330171Y-45848474D01*
X64330171Y-45848474D02*
X64358743Y-45734188D01*
X64358743Y-45734188D02*
X64358743Y-45648474D01*
X64358743Y-45648474D02*
X64330171Y-45534188D01*
X64330171Y-45534188D02*
X64301600Y-45477045D01*
X64301600Y-45477045D02*
X64244457Y-45419902D01*
X64244457Y-45419902D02*
X64158743Y-45391331D01*
X64158743Y-45391331D02*
X64101600Y-45391331D01*
X64101600Y-45391331D02*
X64015886Y-45419902D01*
X64015886Y-45419902D02*
X63987314Y-45448474D01*
X63787314Y-45391331D02*
X63415886Y-45391331D01*
X63415886Y-45391331D02*
X63615886Y-45619902D01*
X63615886Y-45619902D02*
X63530171Y-45619902D01*
X63530171Y-45619902D02*
X63473029Y-45648474D01*
X63473029Y-45648474D02*
X63444457Y-45677045D01*
X63444457Y-45677045D02*
X63415886Y-45734188D01*
X63415886Y-45734188D02*
X63415886Y-45877045D01*
X63415886Y-45877045D02*
X63444457Y-45934188D01*
X63444457Y-45934188D02*
X63473029Y-45962760D01*
X63473029Y-45962760D02*
X63530171Y-45991331D01*
X63530171Y-45991331D02*
X63701600Y-45991331D01*
X63701600Y-45991331D02*
X63758743Y-45962760D01*
X63758743Y-45962760D02*
X63787314Y-45934188D01*
X62873028Y-45391331D02*
X63158742Y-45391331D01*
X63158742Y-45391331D02*
X63187314Y-45677045D01*
X63187314Y-45677045D02*
X63158742Y-45648474D01*
X63158742Y-45648474D02*
X63101600Y-45619902D01*
X63101600Y-45619902D02*
X62958742Y-45619902D01*
X62958742Y-45619902D02*
X62901600Y-45648474D01*
X62901600Y-45648474D02*
X62873028Y-45677045D01*
X62873028Y-45677045D02*
X62844457Y-45734188D01*
X62844457Y-45734188D02*
X62844457Y-45877045D01*
X62844457Y-45877045D02*
X62873028Y-45934188D01*
X62873028Y-45934188D02*
X62901600Y-45962760D01*
X62901600Y-45962760D02*
X62958742Y-45991331D01*
X62958742Y-45991331D02*
X63101600Y-45991331D01*
X63101600Y-45991331D02*
X63158742Y-45962760D01*
X63158742Y-45962760D02*
X63187314Y-45934188D01*
X37147400Y-71921560D02*
X37061686Y-71950131D01*
X37061686Y-71950131D02*
X36918828Y-71950131D01*
X36918828Y-71950131D02*
X36861686Y-71921560D01*
X36861686Y-71921560D02*
X36833114Y-71892988D01*
X36833114Y-71892988D02*
X36804543Y-71835845D01*
X36804543Y-71835845D02*
X36804543Y-71778702D01*
X36804543Y-71778702D02*
X36833114Y-71721560D01*
X36833114Y-71721560D02*
X36861686Y-71692988D01*
X36861686Y-71692988D02*
X36918828Y-71664417D01*
X36918828Y-71664417D02*
X37033114Y-71635845D01*
X37033114Y-71635845D02*
X37090257Y-71607274D01*
X37090257Y-71607274D02*
X37118828Y-71578702D01*
X37118828Y-71578702D02*
X37147400Y-71521560D01*
X37147400Y-71521560D02*
X37147400Y-71464417D01*
X37147400Y-71464417D02*
X37118828Y-71407274D01*
X37118828Y-71407274D02*
X37090257Y-71378702D01*
X37090257Y-71378702D02*
X37033114Y-71350131D01*
X37033114Y-71350131D02*
X36890257Y-71350131D01*
X36890257Y-71350131D02*
X36804543Y-71378702D01*
X36604542Y-71350131D02*
X36461685Y-71950131D01*
X36461685Y-71950131D02*
X36347399Y-71521560D01*
X36347399Y-71521560D02*
X36233114Y-71950131D01*
X36233114Y-71950131D02*
X36090257Y-71350131D01*
X35604543Y-71550131D02*
X35604543Y-71950131D01*
X35747400Y-71321560D02*
X35890257Y-71750131D01*
X35890257Y-71750131D02*
X35518828Y-71750131D01*
X67854388Y-54452885D02*
X67882960Y-54424313D01*
X67882960Y-54424313D02*
X67911531Y-54338599D01*
X67911531Y-54338599D02*
X67911531Y-54281456D01*
X67911531Y-54281456D02*
X67882960Y-54195742D01*
X67882960Y-54195742D02*
X67825817Y-54138599D01*
X67825817Y-54138599D02*
X67768674Y-54110028D01*
X67768674Y-54110028D02*
X67654388Y-54081456D01*
X67654388Y-54081456D02*
X67568674Y-54081456D01*
X67568674Y-54081456D02*
X67454388Y-54110028D01*
X67454388Y-54110028D02*
X67397245Y-54138599D01*
X67397245Y-54138599D02*
X67340102Y-54195742D01*
X67340102Y-54195742D02*
X67311531Y-54281456D01*
X67311531Y-54281456D02*
X67311531Y-54338599D01*
X67311531Y-54338599D02*
X67340102Y-54424313D01*
X67340102Y-54424313D02*
X67368674Y-54452885D01*
X67311531Y-54652885D02*
X67311531Y-55024313D01*
X67311531Y-55024313D02*
X67540102Y-54824313D01*
X67540102Y-54824313D02*
X67540102Y-54910028D01*
X67540102Y-54910028D02*
X67568674Y-54967171D01*
X67568674Y-54967171D02*
X67597245Y-54995742D01*
X67597245Y-54995742D02*
X67654388Y-55024313D01*
X67654388Y-55024313D02*
X67797245Y-55024313D01*
X67797245Y-55024313D02*
X67854388Y-54995742D01*
X67854388Y-54995742D02*
X67882960Y-54967171D01*
X67882960Y-54967171D02*
X67911531Y-54910028D01*
X67911531Y-54910028D02*
X67911531Y-54738599D01*
X67911531Y-54738599D02*
X67882960Y-54681456D01*
X67882960Y-54681456D02*
X67854388Y-54652885D01*
X67368674Y-55252885D02*
X67340102Y-55281457D01*
X67340102Y-55281457D02*
X67311531Y-55338600D01*
X67311531Y-55338600D02*
X67311531Y-55481457D01*
X67311531Y-55481457D02*
X67340102Y-55538600D01*
X67340102Y-55538600D02*
X67368674Y-55567171D01*
X67368674Y-55567171D02*
X67425817Y-55595742D01*
X67425817Y-55595742D02*
X67482960Y-55595742D01*
X67482960Y-55595742D02*
X67568674Y-55567171D01*
X67568674Y-55567171D02*
X67911531Y-55224314D01*
X67911531Y-55224314D02*
X67911531Y-55595742D01*
X73010588Y-55468885D02*
X73039160Y-55440313D01*
X73039160Y-55440313D02*
X73067731Y-55354599D01*
X73067731Y-55354599D02*
X73067731Y-55297456D01*
X73067731Y-55297456D02*
X73039160Y-55211742D01*
X73039160Y-55211742D02*
X72982017Y-55154599D01*
X72982017Y-55154599D02*
X72924874Y-55126028D01*
X72924874Y-55126028D02*
X72810588Y-55097456D01*
X72810588Y-55097456D02*
X72724874Y-55097456D01*
X72724874Y-55097456D02*
X72610588Y-55126028D01*
X72610588Y-55126028D02*
X72553445Y-55154599D01*
X72553445Y-55154599D02*
X72496302Y-55211742D01*
X72496302Y-55211742D02*
X72467731Y-55297456D01*
X72467731Y-55297456D02*
X72467731Y-55354599D01*
X72467731Y-55354599D02*
X72496302Y-55440313D01*
X72496302Y-55440313D02*
X72524874Y-55468885D01*
X72467731Y-55668885D02*
X72467731Y-56040313D01*
X72467731Y-56040313D02*
X72696302Y-55840313D01*
X72696302Y-55840313D02*
X72696302Y-55926028D01*
X72696302Y-55926028D02*
X72724874Y-55983171D01*
X72724874Y-55983171D02*
X72753445Y-56011742D01*
X72753445Y-56011742D02*
X72810588Y-56040313D01*
X72810588Y-56040313D02*
X72953445Y-56040313D01*
X72953445Y-56040313D02*
X73010588Y-56011742D01*
X73010588Y-56011742D02*
X73039160Y-55983171D01*
X73039160Y-55983171D02*
X73067731Y-55926028D01*
X73067731Y-55926028D02*
X73067731Y-55754599D01*
X73067731Y-55754599D02*
X73039160Y-55697456D01*
X73039160Y-55697456D02*
X73010588Y-55668885D01*
X72467731Y-56411742D02*
X72467731Y-56468885D01*
X72467731Y-56468885D02*
X72496302Y-56526028D01*
X72496302Y-56526028D02*
X72524874Y-56554600D01*
X72524874Y-56554600D02*
X72582017Y-56583171D01*
X72582017Y-56583171D02*
X72696302Y-56611742D01*
X72696302Y-56611742D02*
X72839160Y-56611742D01*
X72839160Y-56611742D02*
X72953445Y-56583171D01*
X72953445Y-56583171D02*
X73010588Y-56554600D01*
X73010588Y-56554600D02*
X73039160Y-56526028D01*
X73039160Y-56526028D02*
X73067731Y-56468885D01*
X73067731Y-56468885D02*
X73067731Y-56411742D01*
X73067731Y-56411742D02*
X73039160Y-56354600D01*
X73039160Y-56354600D02*
X73010588Y-56326028D01*
X73010588Y-56326028D02*
X72953445Y-56297457D01*
X72953445Y-56297457D02*
X72839160Y-56268885D01*
X72839160Y-56268885D02*
X72696302Y-56268885D01*
X72696302Y-56268885D02*
X72582017Y-56297457D01*
X72582017Y-56297457D02*
X72524874Y-56326028D01*
X72524874Y-56326028D02*
X72496302Y-56354600D01*
X72496302Y-56354600D02*
X72467731Y-56411742D01*
X28325714Y-55643331D02*
X28525714Y-55357617D01*
X28668571Y-55643331D02*
X28668571Y-55043331D01*
X28668571Y-55043331D02*
X28440000Y-55043331D01*
X28440000Y-55043331D02*
X28382857Y-55071902D01*
X28382857Y-55071902D02*
X28354286Y-55100474D01*
X28354286Y-55100474D02*
X28325714Y-55157617D01*
X28325714Y-55157617D02*
X28325714Y-55243331D01*
X28325714Y-55243331D02*
X28354286Y-55300474D01*
X28354286Y-55300474D02*
X28382857Y-55329045D01*
X28382857Y-55329045D02*
X28440000Y-55357617D01*
X28440000Y-55357617D02*
X28668571Y-55357617D01*
X28097143Y-55100474D02*
X28068571Y-55071902D01*
X28068571Y-55071902D02*
X28011429Y-55043331D01*
X28011429Y-55043331D02*
X27868571Y-55043331D01*
X27868571Y-55043331D02*
X27811429Y-55071902D01*
X27811429Y-55071902D02*
X27782857Y-55100474D01*
X27782857Y-55100474D02*
X27754286Y-55157617D01*
X27754286Y-55157617D02*
X27754286Y-55214760D01*
X27754286Y-55214760D02*
X27782857Y-55300474D01*
X27782857Y-55300474D02*
X28125714Y-55643331D01*
X28125714Y-55643331D02*
X27754286Y-55643331D01*
X27411428Y-55300474D02*
X27468571Y-55271902D01*
X27468571Y-55271902D02*
X27497142Y-55243331D01*
X27497142Y-55243331D02*
X27525714Y-55186188D01*
X27525714Y-55186188D02*
X27525714Y-55157617D01*
X27525714Y-55157617D02*
X27497142Y-55100474D01*
X27497142Y-55100474D02*
X27468571Y-55071902D01*
X27468571Y-55071902D02*
X27411428Y-55043331D01*
X27411428Y-55043331D02*
X27297142Y-55043331D01*
X27297142Y-55043331D02*
X27240000Y-55071902D01*
X27240000Y-55071902D02*
X27211428Y-55100474D01*
X27211428Y-55100474D02*
X27182857Y-55157617D01*
X27182857Y-55157617D02*
X27182857Y-55186188D01*
X27182857Y-55186188D02*
X27211428Y-55243331D01*
X27211428Y-55243331D02*
X27240000Y-55271902D01*
X27240000Y-55271902D02*
X27297142Y-55300474D01*
X27297142Y-55300474D02*
X27411428Y-55300474D01*
X27411428Y-55300474D02*
X27468571Y-55329045D01*
X27468571Y-55329045D02*
X27497142Y-55357617D01*
X27497142Y-55357617D02*
X27525714Y-55414760D01*
X27525714Y-55414760D02*
X27525714Y-55529045D01*
X27525714Y-55529045D02*
X27497142Y-55586188D01*
X27497142Y-55586188D02*
X27468571Y-55614760D01*
X27468571Y-55614760D02*
X27411428Y-55643331D01*
X27411428Y-55643331D02*
X27297142Y-55643331D01*
X27297142Y-55643331D02*
X27240000Y-55614760D01*
X27240000Y-55614760D02*
X27211428Y-55586188D01*
X27211428Y-55586188D02*
X27182857Y-55529045D01*
X27182857Y-55529045D02*
X27182857Y-55414760D01*
X27182857Y-55414760D02*
X27211428Y-55357617D01*
X27211428Y-55357617D02*
X27240000Y-55329045D01*
X27240000Y-55329045D02*
X27297142Y-55300474D01*
X124921914Y-53433531D02*
X125121914Y-53147817D01*
X125264771Y-53433531D02*
X125264771Y-52833531D01*
X125264771Y-52833531D02*
X125036200Y-52833531D01*
X125036200Y-52833531D02*
X124979057Y-52862102D01*
X124979057Y-52862102D02*
X124950486Y-52890674D01*
X124950486Y-52890674D02*
X124921914Y-52947817D01*
X124921914Y-52947817D02*
X124921914Y-53033531D01*
X124921914Y-53033531D02*
X124950486Y-53090674D01*
X124950486Y-53090674D02*
X124979057Y-53119245D01*
X124979057Y-53119245D02*
X125036200Y-53147817D01*
X125036200Y-53147817D02*
X125264771Y-53147817D01*
X124693343Y-52890674D02*
X124664771Y-52862102D01*
X124664771Y-52862102D02*
X124607629Y-52833531D01*
X124607629Y-52833531D02*
X124464771Y-52833531D01*
X124464771Y-52833531D02*
X124407629Y-52862102D01*
X124407629Y-52862102D02*
X124379057Y-52890674D01*
X124379057Y-52890674D02*
X124350486Y-52947817D01*
X124350486Y-52947817D02*
X124350486Y-53004960D01*
X124350486Y-53004960D02*
X124379057Y-53090674D01*
X124379057Y-53090674D02*
X124721914Y-53433531D01*
X124721914Y-53433531D02*
X124350486Y-53433531D01*
X124064771Y-53433531D02*
X123950485Y-53433531D01*
X123950485Y-53433531D02*
X123893342Y-53404960D01*
X123893342Y-53404960D02*
X123864771Y-53376388D01*
X123864771Y-53376388D02*
X123807628Y-53290674D01*
X123807628Y-53290674D02*
X123779057Y-53176388D01*
X123779057Y-53176388D02*
X123779057Y-52947817D01*
X123779057Y-52947817D02*
X123807628Y-52890674D01*
X123807628Y-52890674D02*
X123836200Y-52862102D01*
X123836200Y-52862102D02*
X123893342Y-52833531D01*
X123893342Y-52833531D02*
X124007628Y-52833531D01*
X124007628Y-52833531D02*
X124064771Y-52862102D01*
X124064771Y-52862102D02*
X124093342Y-52890674D01*
X124093342Y-52890674D02*
X124121914Y-52947817D01*
X124121914Y-52947817D02*
X124121914Y-53090674D01*
X124121914Y-53090674D02*
X124093342Y-53147817D01*
X124093342Y-53147817D02*
X124064771Y-53176388D01*
X124064771Y-53176388D02*
X124007628Y-53204960D01*
X124007628Y-53204960D02*
X123893342Y-53204960D01*
X123893342Y-53204960D02*
X123836200Y-53176388D01*
X123836200Y-53176388D02*
X123807628Y-53147817D01*
X123807628Y-53147817D02*
X123779057Y-53090674D01*
X34281931Y-57481800D02*
X33996217Y-57281800D01*
X34281931Y-57138943D02*
X33681931Y-57138943D01*
X33681931Y-57138943D02*
X33681931Y-57367514D01*
X33681931Y-57367514D02*
X33710502Y-57424657D01*
X33710502Y-57424657D02*
X33739074Y-57453228D01*
X33739074Y-57453228D02*
X33796217Y-57481800D01*
X33796217Y-57481800D02*
X33881931Y-57481800D01*
X33881931Y-57481800D02*
X33939074Y-57453228D01*
X33939074Y-57453228D02*
X33967645Y-57424657D01*
X33967645Y-57424657D02*
X33996217Y-57367514D01*
X33996217Y-57367514D02*
X33996217Y-57138943D01*
X33681931Y-57681800D02*
X33681931Y-58081800D01*
X33681931Y-58081800D02*
X34281931Y-57824657D01*
X81831195Y-43769912D02*
X81871601Y-43769912D01*
X81871601Y-43769912D02*
X81952413Y-43729506D01*
X81952413Y-43729506D02*
X81992820Y-43689100D01*
X81992820Y-43689100D02*
X82033226Y-43608288D01*
X82033226Y-43608288D02*
X82033226Y-43527476D01*
X82033226Y-43527476D02*
X82013023Y-43466866D01*
X82013023Y-43466866D02*
X81952413Y-43365851D01*
X81952413Y-43365851D02*
X81891804Y-43305242D01*
X81891804Y-43305242D02*
X81790789Y-43244633D01*
X81790789Y-43244633D02*
X81730180Y-43224430D01*
X81730180Y-43224430D02*
X81649368Y-43224430D01*
X81649368Y-43224430D02*
X81568556Y-43264836D01*
X81568556Y-43264836D02*
X81528149Y-43305242D01*
X81528149Y-43305242D02*
X81487743Y-43386054D01*
X81487743Y-43386054D02*
X81487743Y-43426460D01*
X81305916Y-43527476D02*
X81043276Y-43790115D01*
X81043276Y-43790115D02*
X81346322Y-43810318D01*
X81346322Y-43810318D02*
X81285713Y-43870927D01*
X81285713Y-43870927D02*
X81265510Y-43931537D01*
X81265510Y-43931537D02*
X81265510Y-43971943D01*
X81265510Y-43971943D02*
X81285713Y-44032552D01*
X81285713Y-44032552D02*
X81386728Y-44133567D01*
X81386728Y-44133567D02*
X81447337Y-44153770D01*
X81447337Y-44153770D02*
X81487743Y-44153770D01*
X81487743Y-44153770D02*
X81548352Y-44133567D01*
X81548352Y-44133567D02*
X81669571Y-44012349D01*
X81669571Y-44012349D02*
X81689774Y-43951740D01*
X81689774Y-43951740D02*
X81689774Y-43911334D01*
X80982667Y-44214380D02*
X81002870Y-44153770D01*
X81002870Y-44153770D02*
X81002870Y-44113364D01*
X81002870Y-44113364D02*
X80982667Y-44052755D01*
X80982667Y-44052755D02*
X80962464Y-44032552D01*
X80962464Y-44032552D02*
X80901855Y-44012349D01*
X80901855Y-44012349D02*
X80861448Y-44012349D01*
X80861448Y-44012349D02*
X80800839Y-44032552D01*
X80800839Y-44032552D02*
X80720027Y-44113364D01*
X80720027Y-44113364D02*
X80699824Y-44173974D01*
X80699824Y-44173974D02*
X80699824Y-44214380D01*
X80699824Y-44214380D02*
X80720027Y-44274989D01*
X80720027Y-44274989D02*
X80740230Y-44295192D01*
X80740230Y-44295192D02*
X80800839Y-44315395D01*
X80800839Y-44315395D02*
X80841245Y-44315395D01*
X80841245Y-44315395D02*
X80901855Y-44295192D01*
X80901855Y-44295192D02*
X80982667Y-44214380D01*
X80982667Y-44214380D02*
X81043276Y-44194177D01*
X81043276Y-44194177D02*
X81083682Y-44194177D01*
X81083682Y-44194177D02*
X81144291Y-44214380D01*
X81144291Y-44214380D02*
X81225103Y-44295192D01*
X81225103Y-44295192D02*
X81245306Y-44355801D01*
X81245306Y-44355801D02*
X81245306Y-44396207D01*
X81245306Y-44396207D02*
X81225103Y-44456816D01*
X81225103Y-44456816D02*
X81144291Y-44537628D01*
X81144291Y-44537628D02*
X81083682Y-44557831D01*
X81083682Y-44557831D02*
X81043276Y-44557831D01*
X81043276Y-44557831D02*
X80982667Y-44537628D01*
X80982667Y-44537628D02*
X80901855Y-44456816D01*
X80901855Y-44456816D02*
X80881651Y-44396207D01*
X80881651Y-44396207D02*
X80881651Y-44355801D01*
X80881651Y-44355801D02*
X80901855Y-44295192D01*
X127112588Y-58948685D02*
X127141160Y-58920113D01*
X127141160Y-58920113D02*
X127169731Y-58834399D01*
X127169731Y-58834399D02*
X127169731Y-58777256D01*
X127169731Y-58777256D02*
X127141160Y-58691542D01*
X127141160Y-58691542D02*
X127084017Y-58634399D01*
X127084017Y-58634399D02*
X127026874Y-58605828D01*
X127026874Y-58605828D02*
X126912588Y-58577256D01*
X126912588Y-58577256D02*
X126826874Y-58577256D01*
X126826874Y-58577256D02*
X126712588Y-58605828D01*
X126712588Y-58605828D02*
X126655445Y-58634399D01*
X126655445Y-58634399D02*
X126598302Y-58691542D01*
X126598302Y-58691542D02*
X126569731Y-58777256D01*
X126569731Y-58777256D02*
X126569731Y-58834399D01*
X126569731Y-58834399D02*
X126598302Y-58920113D01*
X126598302Y-58920113D02*
X126626874Y-58948685D01*
X127169731Y-59520113D02*
X127169731Y-59177256D01*
X127169731Y-59348685D02*
X126569731Y-59348685D01*
X126569731Y-59348685D02*
X126655445Y-59291542D01*
X126655445Y-59291542D02*
X126712588Y-59234399D01*
X126712588Y-59234399D02*
X126741160Y-59177256D01*
X126569731Y-59720114D02*
X126569731Y-60091542D01*
X126569731Y-60091542D02*
X126798302Y-59891542D01*
X126798302Y-59891542D02*
X126798302Y-59977257D01*
X126798302Y-59977257D02*
X126826874Y-60034400D01*
X126826874Y-60034400D02*
X126855445Y-60062971D01*
X126855445Y-60062971D02*
X126912588Y-60091542D01*
X126912588Y-60091542D02*
X127055445Y-60091542D01*
X127055445Y-60091542D02*
X127112588Y-60062971D01*
X127112588Y-60062971D02*
X127141160Y-60034400D01*
X127141160Y-60034400D02*
X127169731Y-59977257D01*
X127169731Y-59977257D02*
X127169731Y-59805828D01*
X127169731Y-59805828D02*
X127141160Y-59748685D01*
X127141160Y-59748685D02*
X127112588Y-59720114D01*
X64622314Y-45019788D02*
X64650886Y-45048360D01*
X64650886Y-45048360D02*
X64736600Y-45076931D01*
X64736600Y-45076931D02*
X64793743Y-45076931D01*
X64793743Y-45076931D02*
X64879457Y-45048360D01*
X64879457Y-45048360D02*
X64936600Y-44991217D01*
X64936600Y-44991217D02*
X64965171Y-44934074D01*
X64965171Y-44934074D02*
X64993743Y-44819788D01*
X64993743Y-44819788D02*
X64993743Y-44734074D01*
X64993743Y-44734074D02*
X64965171Y-44619788D01*
X64965171Y-44619788D02*
X64936600Y-44562645D01*
X64936600Y-44562645D02*
X64879457Y-44505502D01*
X64879457Y-44505502D02*
X64793743Y-44476931D01*
X64793743Y-44476931D02*
X64736600Y-44476931D01*
X64736600Y-44476931D02*
X64650886Y-44505502D01*
X64650886Y-44505502D02*
X64622314Y-44534074D01*
X64422314Y-44476931D02*
X64050886Y-44476931D01*
X64050886Y-44476931D02*
X64250886Y-44705502D01*
X64250886Y-44705502D02*
X64165171Y-44705502D01*
X64165171Y-44705502D02*
X64108029Y-44734074D01*
X64108029Y-44734074D02*
X64079457Y-44762645D01*
X64079457Y-44762645D02*
X64050886Y-44819788D01*
X64050886Y-44819788D02*
X64050886Y-44962645D01*
X64050886Y-44962645D02*
X64079457Y-45019788D01*
X64079457Y-45019788D02*
X64108029Y-45048360D01*
X64108029Y-45048360D02*
X64165171Y-45076931D01*
X64165171Y-45076931D02*
X64336600Y-45076931D01*
X64336600Y-45076931D02*
X64393743Y-45048360D01*
X64393743Y-45048360D02*
X64422314Y-45019788D01*
X63850885Y-44476931D02*
X63479457Y-44476931D01*
X63479457Y-44476931D02*
X63679457Y-44705502D01*
X63679457Y-44705502D02*
X63593742Y-44705502D01*
X63593742Y-44705502D02*
X63536600Y-44734074D01*
X63536600Y-44734074D02*
X63508028Y-44762645D01*
X63508028Y-44762645D02*
X63479457Y-44819788D01*
X63479457Y-44819788D02*
X63479457Y-44962645D01*
X63479457Y-44962645D02*
X63508028Y-45019788D01*
X63508028Y-45019788D02*
X63536600Y-45048360D01*
X63536600Y-45048360D02*
X63593742Y-45076931D01*
X63593742Y-45076931D02*
X63765171Y-45076931D01*
X63765171Y-45076931D02*
X63822314Y-45048360D01*
X63822314Y-45048360D02*
X63850885Y-45019788D01*
X83145188Y-44400800D02*
X83173760Y-44372228D01*
X83173760Y-44372228D02*
X83202331Y-44286514D01*
X83202331Y-44286514D02*
X83202331Y-44229371D01*
X83202331Y-44229371D02*
X83173760Y-44143657D01*
X83173760Y-44143657D02*
X83116617Y-44086514D01*
X83116617Y-44086514D02*
X83059474Y-44057943D01*
X83059474Y-44057943D02*
X82945188Y-44029371D01*
X82945188Y-44029371D02*
X82859474Y-44029371D01*
X82859474Y-44029371D02*
X82745188Y-44057943D01*
X82745188Y-44057943D02*
X82688045Y-44086514D01*
X82688045Y-44086514D02*
X82630902Y-44143657D01*
X82630902Y-44143657D02*
X82602331Y-44229371D01*
X82602331Y-44229371D02*
X82602331Y-44286514D01*
X82602331Y-44286514D02*
X82630902Y-44372228D01*
X82630902Y-44372228D02*
X82659474Y-44400800D01*
X83202331Y-44972228D02*
X83202331Y-44629371D01*
X83202331Y-44800800D02*
X82602331Y-44800800D01*
X82602331Y-44800800D02*
X82688045Y-44743657D01*
X82688045Y-44743657D02*
X82745188Y-44686514D01*
X82745188Y-44686514D02*
X82773760Y-44629371D01*
X79786114Y-50201388D02*
X79814686Y-50229960D01*
X79814686Y-50229960D02*
X79900400Y-50258531D01*
X79900400Y-50258531D02*
X79957543Y-50258531D01*
X79957543Y-50258531D02*
X80043257Y-50229960D01*
X80043257Y-50229960D02*
X80100400Y-50172817D01*
X80100400Y-50172817D02*
X80128971Y-50115674D01*
X80128971Y-50115674D02*
X80157543Y-50001388D01*
X80157543Y-50001388D02*
X80157543Y-49915674D01*
X80157543Y-49915674D02*
X80128971Y-49801388D01*
X80128971Y-49801388D02*
X80100400Y-49744245D01*
X80100400Y-49744245D02*
X80043257Y-49687102D01*
X80043257Y-49687102D02*
X79957543Y-49658531D01*
X79957543Y-49658531D02*
X79900400Y-49658531D01*
X79900400Y-49658531D02*
X79814686Y-49687102D01*
X79814686Y-49687102D02*
X79786114Y-49715674D01*
X79557543Y-49715674D02*
X79528971Y-49687102D01*
X79528971Y-49687102D02*
X79471829Y-49658531D01*
X79471829Y-49658531D02*
X79328971Y-49658531D01*
X79328971Y-49658531D02*
X79271829Y-49687102D01*
X79271829Y-49687102D02*
X79243257Y-49715674D01*
X79243257Y-49715674D02*
X79214686Y-49772817D01*
X79214686Y-49772817D02*
X79214686Y-49829960D01*
X79214686Y-49829960D02*
X79243257Y-49915674D01*
X79243257Y-49915674D02*
X79586114Y-50258531D01*
X79586114Y-50258531D02*
X79214686Y-50258531D01*
X79014685Y-49658531D02*
X78643257Y-49658531D01*
X78643257Y-49658531D02*
X78843257Y-49887102D01*
X78843257Y-49887102D02*
X78757542Y-49887102D01*
X78757542Y-49887102D02*
X78700400Y-49915674D01*
X78700400Y-49915674D02*
X78671828Y-49944245D01*
X78671828Y-49944245D02*
X78643257Y-50001388D01*
X78643257Y-50001388D02*
X78643257Y-50144245D01*
X78643257Y-50144245D02*
X78671828Y-50201388D01*
X78671828Y-50201388D02*
X78700400Y-50229960D01*
X78700400Y-50229960D02*
X78757542Y-50258531D01*
X78757542Y-50258531D02*
X78928971Y-50258531D01*
X78928971Y-50258531D02*
X78986114Y-50229960D01*
X78986114Y-50229960D02*
X79014685Y-50201388D01*
X125036131Y-55500600D02*
X124750417Y-55300600D01*
X125036131Y-55157743D02*
X124436131Y-55157743D01*
X124436131Y-55157743D02*
X124436131Y-55386314D01*
X124436131Y-55386314D02*
X124464702Y-55443457D01*
X124464702Y-55443457D02*
X124493274Y-55472028D01*
X124493274Y-55472028D02*
X124550417Y-55500600D01*
X124550417Y-55500600D02*
X124636131Y-55500600D01*
X124636131Y-55500600D02*
X124693274Y-55472028D01*
X124693274Y-55472028D02*
X124721845Y-55443457D01*
X124721845Y-55443457D02*
X124750417Y-55386314D01*
X124750417Y-55386314D02*
X124750417Y-55157743D01*
X124436131Y-56014886D02*
X124436131Y-55900600D01*
X124436131Y-55900600D02*
X124464702Y-55843457D01*
X124464702Y-55843457D02*
X124493274Y-55814886D01*
X124493274Y-55814886D02*
X124578988Y-55757743D01*
X124578988Y-55757743D02*
X124693274Y-55729171D01*
X124693274Y-55729171D02*
X124921845Y-55729171D01*
X124921845Y-55729171D02*
X124978988Y-55757743D01*
X124978988Y-55757743D02*
X125007560Y-55786314D01*
X125007560Y-55786314D02*
X125036131Y-55843457D01*
X125036131Y-55843457D02*
X125036131Y-55957743D01*
X125036131Y-55957743D02*
X125007560Y-56014886D01*
X125007560Y-56014886D02*
X124978988Y-56043457D01*
X124978988Y-56043457D02*
X124921845Y-56072028D01*
X124921845Y-56072028D02*
X124778988Y-56072028D01*
X124778988Y-56072028D02*
X124721845Y-56043457D01*
X124721845Y-56043457D02*
X124693274Y-56014886D01*
X124693274Y-56014886D02*
X124664702Y-55957743D01*
X124664702Y-55957743D02*
X124664702Y-55843457D01*
X124664702Y-55843457D02*
X124693274Y-55786314D01*
X124693274Y-55786314D02*
X124721845Y-55757743D01*
X124721845Y-55757743D02*
X124778988Y-55729171D01*
X62406199Y-47642331D02*
X62606199Y-47356617D01*
X62749056Y-47642331D02*
X62749056Y-47042331D01*
X62749056Y-47042331D02*
X62520485Y-47042331D01*
X62520485Y-47042331D02*
X62463342Y-47070902D01*
X62463342Y-47070902D02*
X62434771Y-47099474D01*
X62434771Y-47099474D02*
X62406199Y-47156617D01*
X62406199Y-47156617D02*
X62406199Y-47242331D01*
X62406199Y-47242331D02*
X62434771Y-47299474D01*
X62434771Y-47299474D02*
X62463342Y-47328045D01*
X62463342Y-47328045D02*
X62520485Y-47356617D01*
X62520485Y-47356617D02*
X62749056Y-47356617D01*
X62206199Y-47042331D02*
X61834771Y-47042331D01*
X61834771Y-47042331D02*
X62034771Y-47270902D01*
X62034771Y-47270902D02*
X61949056Y-47270902D01*
X61949056Y-47270902D02*
X61891914Y-47299474D01*
X61891914Y-47299474D02*
X61863342Y-47328045D01*
X61863342Y-47328045D02*
X61834771Y-47385188D01*
X61834771Y-47385188D02*
X61834771Y-47528045D01*
X61834771Y-47528045D02*
X61863342Y-47585188D01*
X61863342Y-47585188D02*
X61891914Y-47613760D01*
X61891914Y-47613760D02*
X61949056Y-47642331D01*
X61949056Y-47642331D02*
X62120485Y-47642331D01*
X62120485Y-47642331D02*
X62177628Y-47613760D01*
X62177628Y-47613760D02*
X62206199Y-47585188D01*
X32694514Y-56551388D02*
X32723086Y-56579960D01*
X32723086Y-56579960D02*
X32808800Y-56608531D01*
X32808800Y-56608531D02*
X32865943Y-56608531D01*
X32865943Y-56608531D02*
X32951657Y-56579960D01*
X32951657Y-56579960D02*
X33008800Y-56522817D01*
X33008800Y-56522817D02*
X33037371Y-56465674D01*
X33037371Y-56465674D02*
X33065943Y-56351388D01*
X33065943Y-56351388D02*
X33065943Y-56265674D01*
X33065943Y-56265674D02*
X33037371Y-56151388D01*
X33037371Y-56151388D02*
X33008800Y-56094245D01*
X33008800Y-56094245D02*
X32951657Y-56037102D01*
X32951657Y-56037102D02*
X32865943Y-56008531D01*
X32865943Y-56008531D02*
X32808800Y-56008531D01*
X32808800Y-56008531D02*
X32723086Y-56037102D01*
X32723086Y-56037102D02*
X32694514Y-56065674D01*
X32123086Y-56608531D02*
X32465943Y-56608531D01*
X32294514Y-56608531D02*
X32294514Y-56008531D01*
X32294514Y-56008531D02*
X32351657Y-56094245D01*
X32351657Y-56094245D02*
X32408800Y-56151388D01*
X32408800Y-56151388D02*
X32465943Y-56179960D01*
X31551657Y-56608531D02*
X31894514Y-56608531D01*
X31723085Y-56608531D02*
X31723085Y-56008531D01*
X31723085Y-56008531D02*
X31780228Y-56094245D01*
X31780228Y-56094245D02*
X31837371Y-56151388D01*
X31837371Y-56151388D02*
X31894514Y-56179960D01*
X21005460Y-61693658D02*
X21308506Y-61996704D01*
X21308506Y-61996704D02*
X21389318Y-62037110D01*
X21389318Y-62037110D02*
X21470130Y-62037110D01*
X21470130Y-62037110D02*
X21550943Y-61996704D01*
X21550943Y-61996704D02*
X21591349Y-61956298D01*
X20864039Y-61915892D02*
X20823633Y-61915892D01*
X20823633Y-61915892D02*
X20763024Y-61936095D01*
X20763024Y-61936095D02*
X20662008Y-62037110D01*
X20662008Y-62037110D02*
X20641805Y-62097719D01*
X20641805Y-62097719D02*
X20641805Y-62138125D01*
X20641805Y-62138125D02*
X20662008Y-62198735D01*
X20662008Y-62198735D02*
X20702414Y-62239141D01*
X20702414Y-62239141D02*
X20783227Y-62279547D01*
X20783227Y-62279547D02*
X21268100Y-62279547D01*
X21268100Y-62279547D02*
X21005460Y-62542186D01*
X69850149Y-39432733D02*
X69850149Y-39473139D01*
X69850149Y-39473139D02*
X69890555Y-39553951D01*
X69890555Y-39553951D02*
X69930961Y-39594358D01*
X69930961Y-39594358D02*
X70011773Y-39634764D01*
X70011773Y-39634764D02*
X70092585Y-39634764D01*
X70092585Y-39634764D02*
X70153195Y-39614561D01*
X70153195Y-39614561D02*
X70254210Y-39553951D01*
X70254210Y-39553951D02*
X70314819Y-39493342D01*
X70314819Y-39493342D02*
X70375428Y-39392327D01*
X70375428Y-39392327D02*
X70395631Y-39331718D01*
X70395631Y-39331718D02*
X70395631Y-39250906D01*
X70395631Y-39250906D02*
X70355225Y-39170094D01*
X70355225Y-39170094D02*
X70314819Y-39129687D01*
X70314819Y-39129687D02*
X70234007Y-39089281D01*
X70234007Y-39089281D02*
X70193601Y-39089281D01*
X70092585Y-38907454D02*
X69829946Y-38644814D01*
X69829946Y-38644814D02*
X69809743Y-38947860D01*
X69809743Y-38947860D02*
X69749134Y-38887251D01*
X69749134Y-38887251D02*
X69688524Y-38867048D01*
X69688524Y-38867048D02*
X69648118Y-38867048D01*
X69648118Y-38867048D02*
X69587509Y-38887251D01*
X69587509Y-38887251D02*
X69486494Y-38988266D01*
X69486494Y-38988266D02*
X69466291Y-39048875D01*
X69466291Y-39048875D02*
X69466291Y-39089281D01*
X69466291Y-39089281D02*
X69486494Y-39149890D01*
X69486494Y-39149890D02*
X69607712Y-39271109D01*
X69607712Y-39271109D02*
X69668321Y-39291312D01*
X69668321Y-39291312D02*
X69708727Y-39291312D01*
X69466291Y-38281159D02*
X69547103Y-38361971D01*
X69547103Y-38361971D02*
X69567306Y-38422580D01*
X69567306Y-38422580D02*
X69567306Y-38462986D01*
X69567306Y-38462986D02*
X69547103Y-38564002D01*
X69547103Y-38564002D02*
X69486494Y-38665017D01*
X69486494Y-38665017D02*
X69324869Y-38826641D01*
X69324869Y-38826641D02*
X69264260Y-38846844D01*
X69264260Y-38846844D02*
X69223854Y-38846844D01*
X69223854Y-38846844D02*
X69163245Y-38826641D01*
X69163245Y-38826641D02*
X69082433Y-38745829D01*
X69082433Y-38745829D02*
X69062230Y-38685220D01*
X69062230Y-38685220D02*
X69062230Y-38644814D01*
X69062230Y-38644814D02*
X69082433Y-38584205D01*
X69082433Y-38584205D02*
X69183448Y-38483189D01*
X69183448Y-38483189D02*
X69244057Y-38462986D01*
X69244057Y-38462986D02*
X69284463Y-38462986D01*
X69284463Y-38462986D02*
X69345072Y-38483189D01*
X69345072Y-38483189D02*
X69425884Y-38564002D01*
X69425884Y-38564002D02*
X69446087Y-38624611D01*
X69446087Y-38624611D02*
X69446087Y-38665017D01*
X69446087Y-38665017D02*
X69425884Y-38725626D01*
X122077114Y-63079188D02*
X122105686Y-63107760D01*
X122105686Y-63107760D02*
X122191400Y-63136331D01*
X122191400Y-63136331D02*
X122248543Y-63136331D01*
X122248543Y-63136331D02*
X122334257Y-63107760D01*
X122334257Y-63107760D02*
X122391400Y-63050617D01*
X122391400Y-63050617D02*
X122419971Y-62993474D01*
X122419971Y-62993474D02*
X122448543Y-62879188D01*
X122448543Y-62879188D02*
X122448543Y-62793474D01*
X122448543Y-62793474D02*
X122419971Y-62679188D01*
X122419971Y-62679188D02*
X122391400Y-62622045D01*
X122391400Y-62622045D02*
X122334257Y-62564902D01*
X122334257Y-62564902D02*
X122248543Y-62536331D01*
X122248543Y-62536331D02*
X122191400Y-62536331D01*
X122191400Y-62536331D02*
X122105686Y-62564902D01*
X122105686Y-62564902D02*
X122077114Y-62593474D01*
X121505686Y-63136331D02*
X121848543Y-63136331D01*
X121677114Y-63136331D02*
X121677114Y-62536331D01*
X121677114Y-62536331D02*
X121734257Y-62622045D01*
X121734257Y-62622045D02*
X121791400Y-62679188D01*
X121791400Y-62679188D02*
X121848543Y-62707760D01*
X120991400Y-62736331D02*
X120991400Y-63136331D01*
X121134257Y-62507760D02*
X121277114Y-62936331D01*
X121277114Y-62936331D02*
X120905685Y-62936331D01*
X74781331Y-57129285D02*
X74495617Y-56929285D01*
X74781331Y-56786428D02*
X74181331Y-56786428D01*
X74181331Y-56786428D02*
X74181331Y-57014999D01*
X74181331Y-57014999D02*
X74209902Y-57072142D01*
X74209902Y-57072142D02*
X74238474Y-57100713D01*
X74238474Y-57100713D02*
X74295617Y-57129285D01*
X74295617Y-57129285D02*
X74381331Y-57129285D01*
X74381331Y-57129285D02*
X74438474Y-57100713D01*
X74438474Y-57100713D02*
X74467045Y-57072142D01*
X74467045Y-57072142D02*
X74495617Y-57014999D01*
X74495617Y-57014999D02*
X74495617Y-56786428D01*
X74238474Y-57357856D02*
X74209902Y-57386428D01*
X74209902Y-57386428D02*
X74181331Y-57443571D01*
X74181331Y-57443571D02*
X74181331Y-57586428D01*
X74181331Y-57586428D02*
X74209902Y-57643571D01*
X74209902Y-57643571D02*
X74238474Y-57672142D01*
X74238474Y-57672142D02*
X74295617Y-57700713D01*
X74295617Y-57700713D02*
X74352760Y-57700713D01*
X74352760Y-57700713D02*
X74438474Y-57672142D01*
X74438474Y-57672142D02*
X74781331Y-57329285D01*
X74781331Y-57329285D02*
X74781331Y-57700713D01*
X74181331Y-57900714D02*
X74181331Y-58272142D01*
X74181331Y-58272142D02*
X74409902Y-58072142D01*
X74409902Y-58072142D02*
X74409902Y-58157857D01*
X74409902Y-58157857D02*
X74438474Y-58215000D01*
X74438474Y-58215000D02*
X74467045Y-58243571D01*
X74467045Y-58243571D02*
X74524188Y-58272142D01*
X74524188Y-58272142D02*
X74667045Y-58272142D01*
X74667045Y-58272142D02*
X74724188Y-58243571D01*
X74724188Y-58243571D02*
X74752760Y-58215000D01*
X74752760Y-58215000D02*
X74781331Y-58157857D01*
X74781331Y-58157857D02*
X74781331Y-57986428D01*
X74781331Y-57986428D02*
X74752760Y-57929285D01*
X74752760Y-57929285D02*
X74724188Y-57900714D01*
X65812931Y-41351257D02*
X66298645Y-41351257D01*
X66298645Y-41351257D02*
X66355788Y-41379828D01*
X66355788Y-41379828D02*
X66384360Y-41408400D01*
X66384360Y-41408400D02*
X66412931Y-41465542D01*
X66412931Y-41465542D02*
X66412931Y-41579828D01*
X66412931Y-41579828D02*
X66384360Y-41636971D01*
X66384360Y-41636971D02*
X66355788Y-41665542D01*
X66355788Y-41665542D02*
X66298645Y-41694114D01*
X66298645Y-41694114D02*
X65812931Y-41694114D01*
X65870074Y-41951256D02*
X65841502Y-41979828D01*
X65841502Y-41979828D02*
X65812931Y-42036971D01*
X65812931Y-42036971D02*
X65812931Y-42179828D01*
X65812931Y-42179828D02*
X65841502Y-42236971D01*
X65841502Y-42236971D02*
X65870074Y-42265542D01*
X65870074Y-42265542D02*
X65927217Y-42294113D01*
X65927217Y-42294113D02*
X65984360Y-42294113D01*
X65984360Y-42294113D02*
X66070074Y-42265542D01*
X66070074Y-42265542D02*
X66412931Y-41922685D01*
X66412931Y-41922685D02*
X66412931Y-42294113D01*
X56176731Y-48407685D02*
X55891017Y-48207685D01*
X56176731Y-48064828D02*
X55576731Y-48064828D01*
X55576731Y-48064828D02*
X55576731Y-48293399D01*
X55576731Y-48293399D02*
X55605302Y-48350542D01*
X55605302Y-48350542D02*
X55633874Y-48379113D01*
X55633874Y-48379113D02*
X55691017Y-48407685D01*
X55691017Y-48407685D02*
X55776731Y-48407685D01*
X55776731Y-48407685D02*
X55833874Y-48379113D01*
X55833874Y-48379113D02*
X55862445Y-48350542D01*
X55862445Y-48350542D02*
X55891017Y-48293399D01*
X55891017Y-48293399D02*
X55891017Y-48064828D01*
X55576731Y-48607685D02*
X55576731Y-48979113D01*
X55576731Y-48979113D02*
X55805302Y-48779113D01*
X55805302Y-48779113D02*
X55805302Y-48864828D01*
X55805302Y-48864828D02*
X55833874Y-48921971D01*
X55833874Y-48921971D02*
X55862445Y-48950542D01*
X55862445Y-48950542D02*
X55919588Y-48979113D01*
X55919588Y-48979113D02*
X56062445Y-48979113D01*
X56062445Y-48979113D02*
X56119588Y-48950542D01*
X56119588Y-48950542D02*
X56148160Y-48921971D01*
X56148160Y-48921971D02*
X56176731Y-48864828D01*
X56176731Y-48864828D02*
X56176731Y-48693399D01*
X56176731Y-48693399D02*
X56148160Y-48636256D01*
X56148160Y-48636256D02*
X56119588Y-48607685D01*
X55576731Y-49350542D02*
X55576731Y-49407685D01*
X55576731Y-49407685D02*
X55605302Y-49464828D01*
X55605302Y-49464828D02*
X55633874Y-49493400D01*
X55633874Y-49493400D02*
X55691017Y-49521971D01*
X55691017Y-49521971D02*
X55805302Y-49550542D01*
X55805302Y-49550542D02*
X55948160Y-49550542D01*
X55948160Y-49550542D02*
X56062445Y-49521971D01*
X56062445Y-49521971D02*
X56119588Y-49493400D01*
X56119588Y-49493400D02*
X56148160Y-49464828D01*
X56148160Y-49464828D02*
X56176731Y-49407685D01*
X56176731Y-49407685D02*
X56176731Y-49350542D01*
X56176731Y-49350542D02*
X56148160Y-49293400D01*
X56148160Y-49293400D02*
X56119588Y-49264828D01*
X56119588Y-49264828D02*
X56062445Y-49236257D01*
X56062445Y-49236257D02*
X55948160Y-49207685D01*
X55948160Y-49207685D02*
X55805302Y-49207685D01*
X55805302Y-49207685D02*
X55691017Y-49236257D01*
X55691017Y-49236257D02*
X55633874Y-49264828D01*
X55633874Y-49264828D02*
X55605302Y-49293400D01*
X55605302Y-49293400D02*
X55576731Y-49350542D01*
X125283856Y-63491931D02*
X125283856Y-62891931D01*
X125283856Y-62891931D02*
X125140999Y-62891931D01*
X125140999Y-62891931D02*
X125055285Y-62920502D01*
X125055285Y-62920502D02*
X124998142Y-62977645D01*
X124998142Y-62977645D02*
X124969571Y-63034788D01*
X124969571Y-63034788D02*
X124940999Y-63149074D01*
X124940999Y-63149074D02*
X124940999Y-63234788D01*
X124940999Y-63234788D02*
X124969571Y-63349074D01*
X124969571Y-63349074D02*
X124998142Y-63406217D01*
X124998142Y-63406217D02*
X125055285Y-63463360D01*
X125055285Y-63463360D02*
X125140999Y-63491931D01*
X125140999Y-63491931D02*
X125283856Y-63491931D01*
X124712428Y-62949074D02*
X124683856Y-62920502D01*
X124683856Y-62920502D02*
X124626714Y-62891931D01*
X124626714Y-62891931D02*
X124483856Y-62891931D01*
X124483856Y-62891931D02*
X124426714Y-62920502D01*
X124426714Y-62920502D02*
X124398142Y-62949074D01*
X124398142Y-62949074D02*
X124369571Y-63006217D01*
X124369571Y-63006217D02*
X124369571Y-63063360D01*
X124369571Y-63063360D02*
X124398142Y-63149074D01*
X124398142Y-63149074D02*
X124740999Y-63491931D01*
X124740999Y-63491931D02*
X124369571Y-63491931D01*
X72770000Y-65436331D02*
X72770000Y-65864902D01*
X72770000Y-65864902D02*
X72798571Y-65950617D01*
X72798571Y-65950617D02*
X72855714Y-66007760D01*
X72855714Y-66007760D02*
X72941428Y-66036331D01*
X72941428Y-66036331D02*
X72998571Y-66036331D01*
X72455714Y-66036331D02*
X72341428Y-66036331D01*
X72341428Y-66036331D02*
X72284285Y-66007760D01*
X72284285Y-66007760D02*
X72255714Y-65979188D01*
X72255714Y-65979188D02*
X72198571Y-65893474D01*
X72198571Y-65893474D02*
X72170000Y-65779188D01*
X72170000Y-65779188D02*
X72170000Y-65550617D01*
X72170000Y-65550617D02*
X72198571Y-65493474D01*
X72198571Y-65493474D02*
X72227143Y-65464902D01*
X72227143Y-65464902D02*
X72284285Y-65436331D01*
X72284285Y-65436331D02*
X72398571Y-65436331D01*
X72398571Y-65436331D02*
X72455714Y-65464902D01*
X72455714Y-65464902D02*
X72484285Y-65493474D01*
X72484285Y-65493474D02*
X72512857Y-65550617D01*
X72512857Y-65550617D02*
X72512857Y-65693474D01*
X72512857Y-65693474D02*
X72484285Y-65750617D01*
X72484285Y-65750617D02*
X72455714Y-65779188D01*
X72455714Y-65779188D02*
X72398571Y-65807760D01*
X72398571Y-65807760D02*
X72284285Y-65807760D01*
X72284285Y-65807760D02*
X72227143Y-65779188D01*
X72227143Y-65779188D02*
X72198571Y-65750617D01*
X72198571Y-65750617D02*
X72170000Y-65693474D01*
X60101330Y-66849999D02*
X60529901Y-66849999D01*
X60529901Y-66849999D02*
X60615616Y-66821428D01*
X60615616Y-66821428D02*
X60672759Y-66764285D01*
X60672759Y-66764285D02*
X60701330Y-66678571D01*
X60701330Y-66678571D02*
X60701330Y-66621428D01*
X60101330Y-67421428D02*
X60101330Y-67135714D01*
X60101330Y-67135714D02*
X60387044Y-67107142D01*
X60387044Y-67107142D02*
X60358473Y-67135714D01*
X60358473Y-67135714D02*
X60329901Y-67192857D01*
X60329901Y-67192857D02*
X60329901Y-67335714D01*
X60329901Y-67335714D02*
X60358473Y-67392857D01*
X60358473Y-67392857D02*
X60387044Y-67421428D01*
X60387044Y-67421428D02*
X60444187Y-67449999D01*
X60444187Y-67449999D02*
X60587044Y-67449999D01*
X60587044Y-67449999D02*
X60644187Y-67421428D01*
X60644187Y-67421428D02*
X60672759Y-67392857D01*
X60672759Y-67392857D02*
X60701330Y-67335714D01*
X60701330Y-67335714D02*
X60701330Y-67192857D01*
X60701330Y-67192857D02*
X60672759Y-67135714D01*
X60672759Y-67135714D02*
X60644187Y-67107142D01*
X62406199Y-48455131D02*
X62606199Y-48169417D01*
X62749056Y-48455131D02*
X62749056Y-47855131D01*
X62749056Y-47855131D02*
X62520485Y-47855131D01*
X62520485Y-47855131D02*
X62463342Y-47883702D01*
X62463342Y-47883702D02*
X62434771Y-47912274D01*
X62434771Y-47912274D02*
X62406199Y-47969417D01*
X62406199Y-47969417D02*
X62406199Y-48055131D01*
X62406199Y-48055131D02*
X62434771Y-48112274D01*
X62434771Y-48112274D02*
X62463342Y-48140845D01*
X62463342Y-48140845D02*
X62520485Y-48169417D01*
X62520485Y-48169417D02*
X62749056Y-48169417D01*
X61891914Y-48055131D02*
X61891914Y-48455131D01*
X62034771Y-47826560D02*
X62177628Y-48255131D01*
X62177628Y-48255131D02*
X61806199Y-48255131D01*
X59097731Y-45105685D02*
X58812017Y-44905685D01*
X59097731Y-44762828D02*
X58497731Y-44762828D01*
X58497731Y-44762828D02*
X58497731Y-44991399D01*
X58497731Y-44991399D02*
X58526302Y-45048542D01*
X58526302Y-45048542D02*
X58554874Y-45077113D01*
X58554874Y-45077113D02*
X58612017Y-45105685D01*
X58612017Y-45105685D02*
X58697731Y-45105685D01*
X58697731Y-45105685D02*
X58754874Y-45077113D01*
X58754874Y-45077113D02*
X58783445Y-45048542D01*
X58783445Y-45048542D02*
X58812017Y-44991399D01*
X58812017Y-44991399D02*
X58812017Y-44762828D01*
X59097731Y-45677113D02*
X59097731Y-45334256D01*
X59097731Y-45505685D02*
X58497731Y-45505685D01*
X58497731Y-45505685D02*
X58583445Y-45448542D01*
X58583445Y-45448542D02*
X58640588Y-45391399D01*
X58640588Y-45391399D02*
X58669160Y-45334256D01*
X58554874Y-45905685D02*
X58526302Y-45934257D01*
X58526302Y-45934257D02*
X58497731Y-45991400D01*
X58497731Y-45991400D02*
X58497731Y-46134257D01*
X58497731Y-46134257D02*
X58526302Y-46191400D01*
X58526302Y-46191400D02*
X58554874Y-46219971D01*
X58554874Y-46219971D02*
X58612017Y-46248542D01*
X58612017Y-46248542D02*
X58669160Y-46248542D01*
X58669160Y-46248542D02*
X58754874Y-46219971D01*
X58754874Y-46219971D02*
X59097731Y-45877114D01*
X59097731Y-45877114D02*
X59097731Y-46248542D01*
X64825514Y-54620988D02*
X64854086Y-54649560D01*
X64854086Y-54649560D02*
X64939800Y-54678131D01*
X64939800Y-54678131D02*
X64996943Y-54678131D01*
X64996943Y-54678131D02*
X65082657Y-54649560D01*
X65082657Y-54649560D02*
X65139800Y-54592417D01*
X65139800Y-54592417D02*
X65168371Y-54535274D01*
X65168371Y-54535274D02*
X65196943Y-54420988D01*
X65196943Y-54420988D02*
X65196943Y-54335274D01*
X65196943Y-54335274D02*
X65168371Y-54220988D01*
X65168371Y-54220988D02*
X65139800Y-54163845D01*
X65139800Y-54163845D02*
X65082657Y-54106702D01*
X65082657Y-54106702D02*
X64996943Y-54078131D01*
X64996943Y-54078131D02*
X64939800Y-54078131D01*
X64939800Y-54078131D02*
X64854086Y-54106702D01*
X64854086Y-54106702D02*
X64825514Y-54135274D01*
X64311229Y-54278131D02*
X64311229Y-54678131D01*
X64454086Y-54049560D02*
X64596943Y-54478131D01*
X64596943Y-54478131D02*
X64225514Y-54478131D01*
X63682657Y-54678131D02*
X64025514Y-54678131D01*
X63854085Y-54678131D02*
X63854085Y-54078131D01*
X63854085Y-54078131D02*
X63911228Y-54163845D01*
X63911228Y-54163845D02*
X63968371Y-54220988D01*
X63968371Y-54220988D02*
X64025514Y-54249560D01*
X61294881Y-45829000D02*
X61638333Y-45768391D01*
X61537317Y-46071437D02*
X61961581Y-45647173D01*
X61961581Y-45647173D02*
X61799957Y-45485548D01*
X61799957Y-45485548D02*
X61739348Y-45465345D01*
X61739348Y-45465345D02*
X61698942Y-45465345D01*
X61698942Y-45465345D02*
X61638333Y-45485548D01*
X61638333Y-45485548D02*
X61577723Y-45546158D01*
X61577723Y-45546158D02*
X61557520Y-45606767D01*
X61557520Y-45606767D02*
X61557520Y-45647173D01*
X61557520Y-45647173D02*
X61577723Y-45707782D01*
X61577723Y-45707782D02*
X61739348Y-45869406D01*
X61517114Y-45283518D02*
X61517114Y-45243112D01*
X61517114Y-45243112D02*
X61496911Y-45182503D01*
X61496911Y-45182503D02*
X61395896Y-45081487D01*
X61395896Y-45081487D02*
X61335287Y-45061284D01*
X61335287Y-45061284D02*
X61294881Y-45061284D01*
X61294881Y-45061284D02*
X61234272Y-45081487D01*
X61234272Y-45081487D02*
X61193865Y-45121894D01*
X61193865Y-45121894D02*
X61153459Y-45202706D01*
X61153459Y-45202706D02*
X61153459Y-45687579D01*
X61153459Y-45687579D02*
X60890820Y-45424939D01*
X61173662Y-44859254D02*
X60890819Y-44576411D01*
X60890819Y-44576411D02*
X60648383Y-45182502D01*
X71765988Y-55468885D02*
X71794560Y-55440313D01*
X71794560Y-55440313D02*
X71823131Y-55354599D01*
X71823131Y-55354599D02*
X71823131Y-55297456D01*
X71823131Y-55297456D02*
X71794560Y-55211742D01*
X71794560Y-55211742D02*
X71737417Y-55154599D01*
X71737417Y-55154599D02*
X71680274Y-55126028D01*
X71680274Y-55126028D02*
X71565988Y-55097456D01*
X71565988Y-55097456D02*
X71480274Y-55097456D01*
X71480274Y-55097456D02*
X71365988Y-55126028D01*
X71365988Y-55126028D02*
X71308845Y-55154599D01*
X71308845Y-55154599D02*
X71251702Y-55211742D01*
X71251702Y-55211742D02*
X71223131Y-55297456D01*
X71223131Y-55297456D02*
X71223131Y-55354599D01*
X71223131Y-55354599D02*
X71251702Y-55440313D01*
X71251702Y-55440313D02*
X71280274Y-55468885D01*
X71280274Y-55697456D02*
X71251702Y-55726028D01*
X71251702Y-55726028D02*
X71223131Y-55783171D01*
X71223131Y-55783171D02*
X71223131Y-55926028D01*
X71223131Y-55926028D02*
X71251702Y-55983171D01*
X71251702Y-55983171D02*
X71280274Y-56011742D01*
X71280274Y-56011742D02*
X71337417Y-56040313D01*
X71337417Y-56040313D02*
X71394560Y-56040313D01*
X71394560Y-56040313D02*
X71480274Y-56011742D01*
X71480274Y-56011742D02*
X71823131Y-55668885D01*
X71823131Y-55668885D02*
X71823131Y-56040313D01*
X71823131Y-56326028D02*
X71823131Y-56440314D01*
X71823131Y-56440314D02*
X71794560Y-56497457D01*
X71794560Y-56497457D02*
X71765988Y-56526028D01*
X71765988Y-56526028D02*
X71680274Y-56583171D01*
X71680274Y-56583171D02*
X71565988Y-56611742D01*
X71565988Y-56611742D02*
X71337417Y-56611742D01*
X71337417Y-56611742D02*
X71280274Y-56583171D01*
X71280274Y-56583171D02*
X71251702Y-56554600D01*
X71251702Y-56554600D02*
X71223131Y-56497457D01*
X71223131Y-56497457D02*
X71223131Y-56383171D01*
X71223131Y-56383171D02*
X71251702Y-56326028D01*
X71251702Y-56326028D02*
X71280274Y-56297457D01*
X71280274Y-56297457D02*
X71337417Y-56268885D01*
X71337417Y-56268885D02*
X71480274Y-56268885D01*
X71480274Y-56268885D02*
X71537417Y-56297457D01*
X71537417Y-56297457D02*
X71565988Y-56326028D01*
X71565988Y-56326028D02*
X71594560Y-56383171D01*
X71594560Y-56383171D02*
X71594560Y-56497457D01*
X71594560Y-56497457D02*
X71565988Y-56554600D01*
X71565988Y-56554600D02*
X71537417Y-56583171D01*
X71537417Y-56583171D02*
X71480274Y-56611742D01*
X120712074Y-60267857D02*
X120683502Y-60210714D01*
X120683502Y-60210714D02*
X120626360Y-60153571D01*
X120626360Y-60153571D02*
X120540645Y-60067857D01*
X120540645Y-60067857D02*
X120512074Y-60010714D01*
X120512074Y-60010714D02*
X120512074Y-59953571D01*
X120654931Y-59982142D02*
X120626360Y-59925000D01*
X120626360Y-59925000D02*
X120569217Y-59867857D01*
X120569217Y-59867857D02*
X120454931Y-59839285D01*
X120454931Y-59839285D02*
X120254931Y-59839285D01*
X120254931Y-59839285D02*
X120140645Y-59867857D01*
X120140645Y-59867857D02*
X120083502Y-59925000D01*
X120083502Y-59925000D02*
X120054931Y-59982142D01*
X120054931Y-59982142D02*
X120054931Y-60096428D01*
X120054931Y-60096428D02*
X120083502Y-60153571D01*
X120083502Y-60153571D02*
X120140645Y-60210714D01*
X120140645Y-60210714D02*
X120254931Y-60239285D01*
X120254931Y-60239285D02*
X120454931Y-60239285D01*
X120454931Y-60239285D02*
X120569217Y-60210714D01*
X120569217Y-60210714D02*
X120626360Y-60153571D01*
X120626360Y-60153571D02*
X120654931Y-60096428D01*
X120654931Y-60096428D02*
X120654931Y-59982142D01*
X120112074Y-60467856D02*
X120083502Y-60496428D01*
X120083502Y-60496428D02*
X120054931Y-60553571D01*
X120054931Y-60553571D02*
X120054931Y-60696428D01*
X120054931Y-60696428D02*
X120083502Y-60753571D01*
X120083502Y-60753571D02*
X120112074Y-60782142D01*
X120112074Y-60782142D02*
X120169217Y-60810713D01*
X120169217Y-60810713D02*
X120226360Y-60810713D01*
X120226360Y-60810713D02*
X120312074Y-60782142D01*
X120312074Y-60782142D02*
X120654931Y-60439285D01*
X120654931Y-60439285D02*
X120654931Y-60810713D01*
X63631714Y-53230331D02*
X63831714Y-52944617D01*
X63974571Y-53230331D02*
X63974571Y-52630331D01*
X63974571Y-52630331D02*
X63746000Y-52630331D01*
X63746000Y-52630331D02*
X63688857Y-52658902D01*
X63688857Y-52658902D02*
X63660286Y-52687474D01*
X63660286Y-52687474D02*
X63631714Y-52744617D01*
X63631714Y-52744617D02*
X63631714Y-52830331D01*
X63631714Y-52830331D02*
X63660286Y-52887474D01*
X63660286Y-52887474D02*
X63688857Y-52916045D01*
X63688857Y-52916045D02*
X63746000Y-52944617D01*
X63746000Y-52944617D02*
X63974571Y-52944617D01*
X63060286Y-53230331D02*
X63403143Y-53230331D01*
X63231714Y-53230331D02*
X63231714Y-52630331D01*
X63231714Y-52630331D02*
X63288857Y-52716045D01*
X63288857Y-52716045D02*
X63346000Y-52773188D01*
X63346000Y-52773188D02*
X63403143Y-52801760D01*
X62488857Y-53230331D02*
X62831714Y-53230331D01*
X62660285Y-53230331D02*
X62660285Y-52630331D01*
X62660285Y-52630331D02*
X62717428Y-52716045D01*
X62717428Y-52716045D02*
X62774571Y-52773188D01*
X62774571Y-52773188D02*
X62831714Y-52801760D01*
X34205731Y-61622000D02*
X33920017Y-61422000D01*
X34205731Y-61279143D02*
X33605731Y-61279143D01*
X33605731Y-61279143D02*
X33605731Y-61507714D01*
X33605731Y-61507714D02*
X33634302Y-61564857D01*
X33634302Y-61564857D02*
X33662874Y-61593428D01*
X33662874Y-61593428D02*
X33720017Y-61622000D01*
X33720017Y-61622000D02*
X33805731Y-61622000D01*
X33805731Y-61622000D02*
X33862874Y-61593428D01*
X33862874Y-61593428D02*
X33891445Y-61564857D01*
X33891445Y-61564857D02*
X33920017Y-61507714D01*
X33920017Y-61507714D02*
X33920017Y-61279143D01*
X33605731Y-62164857D02*
X33605731Y-61879143D01*
X33605731Y-61879143D02*
X33891445Y-61850571D01*
X33891445Y-61850571D02*
X33862874Y-61879143D01*
X33862874Y-61879143D02*
X33834302Y-61936286D01*
X33834302Y-61936286D02*
X33834302Y-62079143D01*
X33834302Y-62079143D02*
X33862874Y-62136286D01*
X33862874Y-62136286D02*
X33891445Y-62164857D01*
X33891445Y-62164857D02*
X33948588Y-62193428D01*
X33948588Y-62193428D02*
X34091445Y-62193428D01*
X34091445Y-62193428D02*
X34148588Y-62164857D01*
X34148588Y-62164857D02*
X34177160Y-62136286D01*
X34177160Y-62136286D02*
X34205731Y-62079143D01*
X34205731Y-62079143D02*
X34205731Y-61936286D01*
X34205731Y-61936286D02*
X34177160Y-61879143D01*
X34177160Y-61879143D02*
X34148588Y-61850571D01*
X27024068Y-51787400D02*
X26595497Y-51787400D01*
X26595497Y-51787400D02*
X26509782Y-51815971D01*
X26509782Y-51815971D02*
X26452640Y-51873114D01*
X26452640Y-51873114D02*
X26424068Y-51958828D01*
X26424068Y-51958828D02*
X26424068Y-52015971D01*
X27024068Y-51244543D02*
X27024068Y-51358828D01*
X27024068Y-51358828D02*
X26995497Y-51415971D01*
X26995497Y-51415971D02*
X26966925Y-51444543D01*
X26966925Y-51444543D02*
X26881211Y-51501685D01*
X26881211Y-51501685D02*
X26766925Y-51530257D01*
X26766925Y-51530257D02*
X26538354Y-51530257D01*
X26538354Y-51530257D02*
X26481211Y-51501685D01*
X26481211Y-51501685D02*
X26452640Y-51473114D01*
X26452640Y-51473114D02*
X26424068Y-51415971D01*
X26424068Y-51415971D02*
X26424068Y-51301685D01*
X26424068Y-51301685D02*
X26452640Y-51244543D01*
X26452640Y-51244543D02*
X26481211Y-51215971D01*
X26481211Y-51215971D02*
X26538354Y-51187400D01*
X26538354Y-51187400D02*
X26681211Y-51187400D01*
X26681211Y-51187400D02*
X26738354Y-51215971D01*
X26738354Y-51215971D02*
X26766925Y-51244543D01*
X26766925Y-51244543D02*
X26795497Y-51301685D01*
X26795497Y-51301685D02*
X26795497Y-51415971D01*
X26795497Y-51415971D02*
X26766925Y-51473114D01*
X26766925Y-51473114D02*
X26738354Y-51501685D01*
X26738354Y-51501685D02*
X26681211Y-51530257D01*
X125325131Y-50930199D02*
X125753702Y-50930199D01*
X125753702Y-50930199D02*
X125839417Y-50901628D01*
X125839417Y-50901628D02*
X125896560Y-50844485D01*
X125896560Y-50844485D02*
X125925131Y-50758771D01*
X125925131Y-50758771D02*
X125925131Y-50701628D01*
X125525131Y-51473057D02*
X125925131Y-51473057D01*
X125296560Y-51330199D02*
X125725131Y-51187342D01*
X125725131Y-51187342D02*
X125725131Y-51558771D01*
X60484801Y-48737918D02*
X60424192Y-48394466D01*
X60727238Y-48495482D02*
X60302974Y-48071218D01*
X60302974Y-48071218D02*
X60141349Y-48232842D01*
X60141349Y-48232842D02*
X60121146Y-48293451D01*
X60121146Y-48293451D02*
X60121146Y-48333857D01*
X60121146Y-48333857D02*
X60141349Y-48394466D01*
X60141349Y-48394466D02*
X60201959Y-48455076D01*
X60201959Y-48455076D02*
X60262568Y-48475279D01*
X60262568Y-48475279D02*
X60302974Y-48475279D01*
X60302974Y-48475279D02*
X60363583Y-48455076D01*
X60363583Y-48455076D02*
X60525207Y-48293451D01*
X59939319Y-48515685D02*
X59898913Y-48515685D01*
X59898913Y-48515685D02*
X59838304Y-48535888D01*
X59838304Y-48535888D02*
X59737288Y-48636903D01*
X59737288Y-48636903D02*
X59717085Y-48697512D01*
X59717085Y-48697512D02*
X59717085Y-48737918D01*
X59717085Y-48737918D02*
X59737288Y-48798527D01*
X59737288Y-48798527D02*
X59777695Y-48838934D01*
X59777695Y-48838934D02*
X59858507Y-48879340D01*
X59858507Y-48879340D02*
X60343380Y-48879340D01*
X60343380Y-48879340D02*
X60080740Y-49141979D01*
X59292821Y-49081370D02*
X59373633Y-49000558D01*
X59373633Y-49000558D02*
X59434242Y-48980355D01*
X59434242Y-48980355D02*
X59474648Y-48980355D01*
X59474648Y-48980355D02*
X59575664Y-49000558D01*
X59575664Y-49000558D02*
X59676679Y-49061167D01*
X59676679Y-49061167D02*
X59838303Y-49222792D01*
X59838303Y-49222792D02*
X59858506Y-49283401D01*
X59858506Y-49283401D02*
X59858506Y-49323807D01*
X59858506Y-49323807D02*
X59838303Y-49384416D01*
X59838303Y-49384416D02*
X59757491Y-49465228D01*
X59757491Y-49465228D02*
X59696882Y-49485431D01*
X59696882Y-49485431D02*
X59656476Y-49485431D01*
X59656476Y-49485431D02*
X59595867Y-49465228D01*
X59595867Y-49465228D02*
X59494851Y-49364213D01*
X59494851Y-49364213D02*
X59474648Y-49303604D01*
X59474648Y-49303604D02*
X59474648Y-49263198D01*
X59474648Y-49263198D02*
X59494851Y-49202589D01*
X59494851Y-49202589D02*
X59575664Y-49121777D01*
X59575664Y-49121777D02*
X59636273Y-49101574D01*
X59636273Y-49101574D02*
X59676679Y-49101574D01*
X59676679Y-49101574D02*
X59737288Y-49121777D01*
X62190188Y-51912885D02*
X62218760Y-51884313D01*
X62218760Y-51884313D02*
X62247331Y-51798599D01*
X62247331Y-51798599D02*
X62247331Y-51741456D01*
X62247331Y-51741456D02*
X62218760Y-51655742D01*
X62218760Y-51655742D02*
X62161617Y-51598599D01*
X62161617Y-51598599D02*
X62104474Y-51570028D01*
X62104474Y-51570028D02*
X61990188Y-51541456D01*
X61990188Y-51541456D02*
X61904474Y-51541456D01*
X61904474Y-51541456D02*
X61790188Y-51570028D01*
X61790188Y-51570028D02*
X61733045Y-51598599D01*
X61733045Y-51598599D02*
X61675902Y-51655742D01*
X61675902Y-51655742D02*
X61647331Y-51741456D01*
X61647331Y-51741456D02*
X61647331Y-51798599D01*
X61647331Y-51798599D02*
X61675902Y-51884313D01*
X61675902Y-51884313D02*
X61704474Y-51912885D01*
X61647331Y-52112885D02*
X61647331Y-52484313D01*
X61647331Y-52484313D02*
X61875902Y-52284313D01*
X61875902Y-52284313D02*
X61875902Y-52370028D01*
X61875902Y-52370028D02*
X61904474Y-52427171D01*
X61904474Y-52427171D02*
X61933045Y-52455742D01*
X61933045Y-52455742D02*
X61990188Y-52484313D01*
X61990188Y-52484313D02*
X62133045Y-52484313D01*
X62133045Y-52484313D02*
X62190188Y-52455742D01*
X62190188Y-52455742D02*
X62218760Y-52427171D01*
X62218760Y-52427171D02*
X62247331Y-52370028D01*
X62247331Y-52370028D02*
X62247331Y-52198599D01*
X62247331Y-52198599D02*
X62218760Y-52141456D01*
X62218760Y-52141456D02*
X62190188Y-52112885D01*
X62247331Y-52770028D02*
X62247331Y-52884314D01*
X62247331Y-52884314D02*
X62218760Y-52941457D01*
X62218760Y-52941457D02*
X62190188Y-52970028D01*
X62190188Y-52970028D02*
X62104474Y-53027171D01*
X62104474Y-53027171D02*
X61990188Y-53055742D01*
X61990188Y-53055742D02*
X61761617Y-53055742D01*
X61761617Y-53055742D02*
X61704474Y-53027171D01*
X61704474Y-53027171D02*
X61675902Y-52998600D01*
X61675902Y-52998600D02*
X61647331Y-52941457D01*
X61647331Y-52941457D02*
X61647331Y-52827171D01*
X61647331Y-52827171D02*
X61675902Y-52770028D01*
X61675902Y-52770028D02*
X61704474Y-52741457D01*
X61704474Y-52741457D02*
X61761617Y-52712885D01*
X61761617Y-52712885D02*
X61904474Y-52712885D01*
X61904474Y-52712885D02*
X61961617Y-52741457D01*
X61961617Y-52741457D02*
X61990188Y-52770028D01*
X61990188Y-52770028D02*
X62018760Y-52827171D01*
X62018760Y-52827171D02*
X62018760Y-52941457D01*
X62018760Y-52941457D02*
X61990188Y-52998600D01*
X61990188Y-52998600D02*
X61961617Y-53027171D01*
X61961617Y-53027171D02*
X61904474Y-53055742D01*
X57624531Y-45054885D02*
X57338817Y-44854885D01*
X57624531Y-44712028D02*
X57024531Y-44712028D01*
X57024531Y-44712028D02*
X57024531Y-44940599D01*
X57024531Y-44940599D02*
X57053102Y-44997742D01*
X57053102Y-44997742D02*
X57081674Y-45026313D01*
X57081674Y-45026313D02*
X57138817Y-45054885D01*
X57138817Y-45054885D02*
X57224531Y-45054885D01*
X57224531Y-45054885D02*
X57281674Y-45026313D01*
X57281674Y-45026313D02*
X57310245Y-44997742D01*
X57310245Y-44997742D02*
X57338817Y-44940599D01*
X57338817Y-44940599D02*
X57338817Y-44712028D01*
X57624531Y-45626313D02*
X57624531Y-45283456D01*
X57624531Y-45454885D02*
X57024531Y-45454885D01*
X57024531Y-45454885D02*
X57110245Y-45397742D01*
X57110245Y-45397742D02*
X57167388Y-45340599D01*
X57167388Y-45340599D02*
X57195960Y-45283456D01*
X57224531Y-46140600D02*
X57624531Y-46140600D01*
X56995960Y-45997742D02*
X57424531Y-45854885D01*
X57424531Y-45854885D02*
X57424531Y-46226314D01*
X31024456Y-56659331D02*
X31024456Y-56059331D01*
X31024456Y-56059331D02*
X30881599Y-56059331D01*
X30881599Y-56059331D02*
X30795885Y-56087902D01*
X30795885Y-56087902D02*
X30738742Y-56145045D01*
X30738742Y-56145045D02*
X30710171Y-56202188D01*
X30710171Y-56202188D02*
X30681599Y-56316474D01*
X30681599Y-56316474D02*
X30681599Y-56402188D01*
X30681599Y-56402188D02*
X30710171Y-56516474D01*
X30710171Y-56516474D02*
X30738742Y-56573617D01*
X30738742Y-56573617D02*
X30795885Y-56630760D01*
X30795885Y-56630760D02*
X30881599Y-56659331D01*
X30881599Y-56659331D02*
X31024456Y-56659331D01*
X30110171Y-56659331D02*
X30453028Y-56659331D01*
X30281599Y-56659331D02*
X30281599Y-56059331D01*
X30281599Y-56059331D02*
X30338742Y-56145045D01*
X30338742Y-56145045D02*
X30395885Y-56202188D01*
X30395885Y-56202188D02*
X30453028Y-56230760D01*
X126306131Y-60142485D02*
X126020417Y-59942485D01*
X126306131Y-59799628D02*
X125706131Y-59799628D01*
X125706131Y-59799628D02*
X125706131Y-60028199D01*
X125706131Y-60028199D02*
X125734702Y-60085342D01*
X125734702Y-60085342D02*
X125763274Y-60113913D01*
X125763274Y-60113913D02*
X125820417Y-60142485D01*
X125820417Y-60142485D02*
X125906131Y-60142485D01*
X125906131Y-60142485D02*
X125963274Y-60113913D01*
X125963274Y-60113913D02*
X125991845Y-60085342D01*
X125991845Y-60085342D02*
X126020417Y-60028199D01*
X126020417Y-60028199D02*
X126020417Y-59799628D01*
X126306131Y-60713913D02*
X126306131Y-60371056D01*
X126306131Y-60542485D02*
X125706131Y-60542485D01*
X125706131Y-60542485D02*
X125791845Y-60485342D01*
X125791845Y-60485342D02*
X125848988Y-60428199D01*
X125848988Y-60428199D02*
X125877560Y-60371056D01*
X125706131Y-61085342D02*
X125706131Y-61142485D01*
X125706131Y-61142485D02*
X125734702Y-61199628D01*
X125734702Y-61199628D02*
X125763274Y-61228200D01*
X125763274Y-61228200D02*
X125820417Y-61256771D01*
X125820417Y-61256771D02*
X125934702Y-61285342D01*
X125934702Y-61285342D02*
X126077560Y-61285342D01*
X126077560Y-61285342D02*
X126191845Y-61256771D01*
X126191845Y-61256771D02*
X126248988Y-61228200D01*
X126248988Y-61228200D02*
X126277560Y-61199628D01*
X126277560Y-61199628D02*
X126306131Y-61142485D01*
X126306131Y-61142485D02*
X126306131Y-61085342D01*
X126306131Y-61085342D02*
X126277560Y-61028200D01*
X126277560Y-61028200D02*
X126248988Y-60999628D01*
X126248988Y-60999628D02*
X126191845Y-60971057D01*
X126191845Y-60971057D02*
X126077560Y-60942485D01*
X126077560Y-60942485D02*
X125934702Y-60942485D01*
X125934702Y-60942485D02*
X125820417Y-60971057D01*
X125820417Y-60971057D02*
X125763274Y-60999628D01*
X125763274Y-60999628D02*
X125734702Y-61028200D01*
X125734702Y-61028200D02*
X125706131Y-61085342D01*
X27220731Y-57939000D02*
X26935017Y-57739000D01*
X27220731Y-57596143D02*
X26620731Y-57596143D01*
X26620731Y-57596143D02*
X26620731Y-57824714D01*
X26620731Y-57824714D02*
X26649302Y-57881857D01*
X26649302Y-57881857D02*
X26677874Y-57910428D01*
X26677874Y-57910428D02*
X26735017Y-57939000D01*
X26735017Y-57939000D02*
X26820731Y-57939000D01*
X26820731Y-57939000D02*
X26877874Y-57910428D01*
X26877874Y-57910428D02*
X26906445Y-57881857D01*
X26906445Y-57881857D02*
X26935017Y-57824714D01*
X26935017Y-57824714D02*
X26935017Y-57596143D01*
X27220731Y-58224714D02*
X27220731Y-58339000D01*
X27220731Y-58339000D02*
X27192160Y-58396143D01*
X27192160Y-58396143D02*
X27163588Y-58424714D01*
X27163588Y-58424714D02*
X27077874Y-58481857D01*
X27077874Y-58481857D02*
X26963588Y-58510428D01*
X26963588Y-58510428D02*
X26735017Y-58510428D01*
X26735017Y-58510428D02*
X26677874Y-58481857D01*
X26677874Y-58481857D02*
X26649302Y-58453286D01*
X26649302Y-58453286D02*
X26620731Y-58396143D01*
X26620731Y-58396143D02*
X26620731Y-58281857D01*
X26620731Y-58281857D02*
X26649302Y-58224714D01*
X26649302Y-58224714D02*
X26677874Y-58196143D01*
X26677874Y-58196143D02*
X26735017Y-58167571D01*
X26735017Y-58167571D02*
X26877874Y-58167571D01*
X26877874Y-58167571D02*
X26935017Y-58196143D01*
X26935017Y-58196143D02*
X26963588Y-58224714D01*
X26963588Y-58224714D02*
X26992160Y-58281857D01*
X26992160Y-58281857D02*
X26992160Y-58396143D01*
X26992160Y-58396143D02*
X26963588Y-58453286D01*
X26963588Y-58453286D02*
X26935017Y-58481857D01*
X26935017Y-58481857D02*
X26877874Y-58510428D01*
X53014514Y-46600931D02*
X53214514Y-46315217D01*
X53357371Y-46600931D02*
X53357371Y-46000931D01*
X53357371Y-46000931D02*
X53128800Y-46000931D01*
X53128800Y-46000931D02*
X53071657Y-46029502D01*
X53071657Y-46029502D02*
X53043086Y-46058074D01*
X53043086Y-46058074D02*
X53014514Y-46115217D01*
X53014514Y-46115217D02*
X53014514Y-46200931D01*
X53014514Y-46200931D02*
X53043086Y-46258074D01*
X53043086Y-46258074D02*
X53071657Y-46286645D01*
X53071657Y-46286645D02*
X53128800Y-46315217D01*
X53128800Y-46315217D02*
X53357371Y-46315217D01*
X52785943Y-46058074D02*
X52757371Y-46029502D01*
X52757371Y-46029502D02*
X52700229Y-46000931D01*
X52700229Y-46000931D02*
X52557371Y-46000931D01*
X52557371Y-46000931D02*
X52500229Y-46029502D01*
X52500229Y-46029502D02*
X52471657Y-46058074D01*
X52471657Y-46058074D02*
X52443086Y-46115217D01*
X52443086Y-46115217D02*
X52443086Y-46172360D01*
X52443086Y-46172360D02*
X52471657Y-46258074D01*
X52471657Y-46258074D02*
X52814514Y-46600931D01*
X52814514Y-46600931D02*
X52443086Y-46600931D01*
X51900228Y-46000931D02*
X52185942Y-46000931D01*
X52185942Y-46000931D02*
X52214514Y-46286645D01*
X52214514Y-46286645D02*
X52185942Y-46258074D01*
X52185942Y-46258074D02*
X52128800Y-46229502D01*
X52128800Y-46229502D02*
X51985942Y-46229502D01*
X51985942Y-46229502D02*
X51928800Y-46258074D01*
X51928800Y-46258074D02*
X51900228Y-46286645D01*
X51900228Y-46286645D02*
X51871657Y-46343788D01*
X51871657Y-46343788D02*
X51871657Y-46486645D01*
X51871657Y-46486645D02*
X51900228Y-46543788D01*
X51900228Y-46543788D02*
X51928800Y-46572360D01*
X51928800Y-46572360D02*
X51985942Y-46600931D01*
X51985942Y-46600931D02*
X52128800Y-46600931D01*
X52128800Y-46600931D02*
X52185942Y-46572360D01*
X52185942Y-46572360D02*
X52214514Y-46543788D01*
X119143331Y-62117343D02*
X118543331Y-62117343D01*
X118543331Y-62117343D02*
X118543331Y-62260200D01*
X118543331Y-62260200D02*
X118571902Y-62345914D01*
X118571902Y-62345914D02*
X118629045Y-62403057D01*
X118629045Y-62403057D02*
X118686188Y-62431628D01*
X118686188Y-62431628D02*
X118800474Y-62460200D01*
X118800474Y-62460200D02*
X118886188Y-62460200D01*
X118886188Y-62460200D02*
X119000474Y-62431628D01*
X119000474Y-62431628D02*
X119057617Y-62403057D01*
X119057617Y-62403057D02*
X119114760Y-62345914D01*
X119114760Y-62345914D02*
X119143331Y-62260200D01*
X119143331Y-62260200D02*
X119143331Y-62117343D01*
X118543331Y-62974486D02*
X118543331Y-62860200D01*
X118543331Y-62860200D02*
X118571902Y-62803057D01*
X118571902Y-62803057D02*
X118600474Y-62774486D01*
X118600474Y-62774486D02*
X118686188Y-62717343D01*
X118686188Y-62717343D02*
X118800474Y-62688771D01*
X118800474Y-62688771D02*
X119029045Y-62688771D01*
X119029045Y-62688771D02*
X119086188Y-62717343D01*
X119086188Y-62717343D02*
X119114760Y-62745914D01*
X119114760Y-62745914D02*
X119143331Y-62803057D01*
X119143331Y-62803057D02*
X119143331Y-62917343D01*
X119143331Y-62917343D02*
X119114760Y-62974486D01*
X119114760Y-62974486D02*
X119086188Y-63003057D01*
X119086188Y-63003057D02*
X119029045Y-63031628D01*
X119029045Y-63031628D02*
X118886188Y-63031628D01*
X118886188Y-63031628D02*
X118829045Y-63003057D01*
X118829045Y-63003057D02*
X118800474Y-62974486D01*
X118800474Y-62974486D02*
X118771902Y-62917343D01*
X118771902Y-62917343D02*
X118771902Y-62803057D01*
X118771902Y-62803057D02*
X118800474Y-62745914D01*
X118800474Y-62745914D02*
X118829045Y-62717343D01*
X118829045Y-62717343D02*
X118886188Y-62688771D01*
X122527999Y-57776931D02*
X122727999Y-57491217D01*
X122870856Y-57776931D02*
X122870856Y-57176931D01*
X122870856Y-57176931D02*
X122642285Y-57176931D01*
X122642285Y-57176931D02*
X122585142Y-57205502D01*
X122585142Y-57205502D02*
X122556571Y-57234074D01*
X122556571Y-57234074D02*
X122527999Y-57291217D01*
X122527999Y-57291217D02*
X122527999Y-57376931D01*
X122527999Y-57376931D02*
X122556571Y-57434074D01*
X122556571Y-57434074D02*
X122585142Y-57462645D01*
X122585142Y-57462645D02*
X122642285Y-57491217D01*
X122642285Y-57491217D02*
X122870856Y-57491217D01*
X122185142Y-57434074D02*
X122242285Y-57405502D01*
X122242285Y-57405502D02*
X122270856Y-57376931D01*
X122270856Y-57376931D02*
X122299428Y-57319788D01*
X122299428Y-57319788D02*
X122299428Y-57291217D01*
X122299428Y-57291217D02*
X122270856Y-57234074D01*
X122270856Y-57234074D02*
X122242285Y-57205502D01*
X122242285Y-57205502D02*
X122185142Y-57176931D01*
X122185142Y-57176931D02*
X122070856Y-57176931D01*
X122070856Y-57176931D02*
X122013714Y-57205502D01*
X122013714Y-57205502D02*
X121985142Y-57234074D01*
X121985142Y-57234074D02*
X121956571Y-57291217D01*
X121956571Y-57291217D02*
X121956571Y-57319788D01*
X121956571Y-57319788D02*
X121985142Y-57376931D01*
X121985142Y-57376931D02*
X122013714Y-57405502D01*
X122013714Y-57405502D02*
X122070856Y-57434074D01*
X122070856Y-57434074D02*
X122185142Y-57434074D01*
X122185142Y-57434074D02*
X122242285Y-57462645D01*
X122242285Y-57462645D02*
X122270856Y-57491217D01*
X122270856Y-57491217D02*
X122299428Y-57548360D01*
X122299428Y-57548360D02*
X122299428Y-57662645D01*
X122299428Y-57662645D02*
X122270856Y-57719788D01*
X122270856Y-57719788D02*
X122242285Y-57748360D01*
X122242285Y-57748360D02*
X122185142Y-57776931D01*
X122185142Y-57776931D02*
X122070856Y-57776931D01*
X122070856Y-57776931D02*
X122013714Y-57748360D01*
X122013714Y-57748360D02*
X121985142Y-57719788D01*
X121985142Y-57719788D02*
X121956571Y-57662645D01*
X121956571Y-57662645D02*
X121956571Y-57548360D01*
X121956571Y-57548360D02*
X121985142Y-57491217D01*
X121985142Y-57491217D02*
X122013714Y-57462645D01*
X122013714Y-57462645D02*
X122070856Y-57434074D01*
X94430000Y-68371330D02*
X94430000Y-68799901D01*
X94430000Y-68799901D02*
X94458571Y-68885616D01*
X94458571Y-68885616D02*
X94515714Y-68942759D01*
X94515714Y-68942759D02*
X94601428Y-68971330D01*
X94601428Y-68971330D02*
X94658571Y-68971330D01*
X94201428Y-68371330D02*
X93830000Y-68371330D01*
X93830000Y-68371330D02*
X94030000Y-68599901D01*
X94030000Y-68599901D02*
X93944285Y-68599901D01*
X93944285Y-68599901D02*
X93887143Y-68628473D01*
X93887143Y-68628473D02*
X93858571Y-68657044D01*
X93858571Y-68657044D02*
X93830000Y-68714187D01*
X93830000Y-68714187D02*
X93830000Y-68857044D01*
X93830000Y-68857044D02*
X93858571Y-68914187D01*
X93858571Y-68914187D02*
X93887143Y-68942759D01*
X93887143Y-68942759D02*
X93944285Y-68971330D01*
X93944285Y-68971330D02*
X94115714Y-68971330D01*
X94115714Y-68971330D02*
X94172857Y-68942759D01*
X94172857Y-68942759D02*
X94201428Y-68914187D01*
X88042714Y-48677417D02*
X88042714Y-48963131D01*
X88242714Y-48363131D02*
X88042714Y-48677417D01*
X88042714Y-48677417D02*
X87842714Y-48363131D01*
X87328428Y-48963131D02*
X87671285Y-48963131D01*
X87499856Y-48963131D02*
X87499856Y-48363131D01*
X87499856Y-48363131D02*
X87556999Y-48448845D01*
X87556999Y-48448845D02*
X87614142Y-48505988D01*
X87614142Y-48505988D02*
X87671285Y-48534560D01*
X27393931Y-59196343D02*
X26793931Y-59196343D01*
X26793931Y-59196343D02*
X26793931Y-59339200D01*
X26793931Y-59339200D02*
X26822502Y-59424914D01*
X26822502Y-59424914D02*
X26879645Y-59482057D01*
X26879645Y-59482057D02*
X26936788Y-59510628D01*
X26936788Y-59510628D02*
X27051074Y-59539200D01*
X27051074Y-59539200D02*
X27136788Y-59539200D01*
X27136788Y-59539200D02*
X27251074Y-59510628D01*
X27251074Y-59510628D02*
X27308217Y-59482057D01*
X27308217Y-59482057D02*
X27365360Y-59424914D01*
X27365360Y-59424914D02*
X27393931Y-59339200D01*
X27393931Y-59339200D02*
X27393931Y-59196343D01*
X26793931Y-59739200D02*
X26793931Y-60110628D01*
X26793931Y-60110628D02*
X27022502Y-59910628D01*
X27022502Y-59910628D02*
X27022502Y-59996343D01*
X27022502Y-59996343D02*
X27051074Y-60053486D01*
X27051074Y-60053486D02*
X27079645Y-60082057D01*
X27079645Y-60082057D02*
X27136788Y-60110628D01*
X27136788Y-60110628D02*
X27279645Y-60110628D01*
X27279645Y-60110628D02*
X27336788Y-60082057D01*
X27336788Y-60082057D02*
X27365360Y-60053486D01*
X27365360Y-60053486D02*
X27393931Y-59996343D01*
X27393931Y-59996343D02*
X27393931Y-59824914D01*
X27393931Y-59824914D02*
X27365360Y-59767771D01*
X27365360Y-59767771D02*
X27336788Y-59739200D01*
X34935988Y-61622000D02*
X34964560Y-61593428D01*
X34964560Y-61593428D02*
X34993131Y-61507714D01*
X34993131Y-61507714D02*
X34993131Y-61450571D01*
X34993131Y-61450571D02*
X34964560Y-61364857D01*
X34964560Y-61364857D02*
X34907417Y-61307714D01*
X34907417Y-61307714D02*
X34850274Y-61279143D01*
X34850274Y-61279143D02*
X34735988Y-61250571D01*
X34735988Y-61250571D02*
X34650274Y-61250571D01*
X34650274Y-61250571D02*
X34535988Y-61279143D01*
X34535988Y-61279143D02*
X34478845Y-61307714D01*
X34478845Y-61307714D02*
X34421702Y-61364857D01*
X34421702Y-61364857D02*
X34393131Y-61450571D01*
X34393131Y-61450571D02*
X34393131Y-61507714D01*
X34393131Y-61507714D02*
X34421702Y-61593428D01*
X34421702Y-61593428D02*
X34450274Y-61622000D01*
X34993131Y-61907714D02*
X34993131Y-62022000D01*
X34993131Y-62022000D02*
X34964560Y-62079143D01*
X34964560Y-62079143D02*
X34935988Y-62107714D01*
X34935988Y-62107714D02*
X34850274Y-62164857D01*
X34850274Y-62164857D02*
X34735988Y-62193428D01*
X34735988Y-62193428D02*
X34507417Y-62193428D01*
X34507417Y-62193428D02*
X34450274Y-62164857D01*
X34450274Y-62164857D02*
X34421702Y-62136286D01*
X34421702Y-62136286D02*
X34393131Y-62079143D01*
X34393131Y-62079143D02*
X34393131Y-61964857D01*
X34393131Y-61964857D02*
X34421702Y-61907714D01*
X34421702Y-61907714D02*
X34450274Y-61879143D01*
X34450274Y-61879143D02*
X34507417Y-61850571D01*
X34507417Y-61850571D02*
X34650274Y-61850571D01*
X34650274Y-61850571D02*
X34707417Y-61879143D01*
X34707417Y-61879143D02*
X34735988Y-61907714D01*
X34735988Y-61907714D02*
X34764560Y-61964857D01*
X34764560Y-61964857D02*
X34764560Y-62079143D01*
X34764560Y-62079143D02*
X34735988Y-62136286D01*
X34735988Y-62136286D02*
X34707417Y-62164857D01*
X34707417Y-62164857D02*
X34650274Y-62193428D01*
%TO.C,Q1*%
X30837599Y-58053800D02*
X30837599Y-59053800D01*
X30837599Y-60173800D02*
X30837599Y-61173800D01*
X30837599Y-61173800D02*
X32357599Y-61173800D01*
X32357599Y-58053800D02*
X30837599Y-58053800D01*
X32357599Y-58103800D02*
X32357599Y-58053800D01*
X32357599Y-60003800D02*
X32357599Y-59223800D01*
X32357599Y-61173800D02*
X32357599Y-61123800D01*
X33137599Y-59563800D02*
X32657599Y-59563800D01*
X32897599Y-59233800D01*
X33137599Y-59563800D01*
G36*
X33137599Y-59563800D02*
G01*
X32657599Y-59563800D01*
X32897599Y-59233800D01*
X33137599Y-59563800D01*
G37*
%TO.C,D5*%
X129545581Y-61179110D02*
X130394110Y-60330581D01*
X130931511Y-62565039D02*
X129545581Y-61179110D01*
X131780039Y-61716511D02*
X130394110Y-60330581D01*
%TO.C,D4*%
X28127800Y-62296601D02*
X28127800Y-61096599D01*
X30087800Y-61096600D02*
X28127800Y-61096599D01*
X30087800Y-62296600D02*
X28127800Y-62296601D01*
%TO.C,C40*%
X64830000Y-49823091D02*
X64830000Y-50038763D01*
X65550000Y-49823091D02*
X65550000Y-50038763D01*
%TO.C,L1*%
D12*
X62305710Y-48980000D02*
G75*
G02*
X62114290Y-48980000I-95710J0D01*
G01*
X62114290Y-48980000D02*
G75*
G02*
X62305710Y-48980000I95710J0D01*
G01*
D13*
%TO.C,J1*%
X128221282Y-61721712D02*
X127700144Y-62242850D01*
X128423514Y-65318058D02*
X127311942Y-64206486D01*
X128786967Y-62287398D02*
X128221282Y-61721712D01*
X128999099Y-62075266D02*
X128786967Y-62287398D01*
X128999099Y-62075266D02*
X129095973Y-62172139D01*
X130342602Y-63843033D02*
X130554734Y-63630901D01*
X130554734Y-63630901D02*
X130457861Y-63534027D01*
X130908288Y-64408718D02*
X130342602Y-63843033D01*
X130908288Y-64408718D02*
X130387150Y-64929856D01*
D14*
X131008288Y-63312703D02*
G75*
G02*
X130808288Y-63312703I-100000J0D01*
G01*
X130808288Y-63312703D02*
G75*
G02*
X131008288Y-63312703I100000J0D01*
G01*
D11*
%TO.C,C2*%
X81682000Y-47898164D02*
X81682000Y-48113836D01*
X82402000Y-47898164D02*
X82402000Y-48113836D01*
%TO.C,C1*%
X81682000Y-45472236D02*
X81682000Y-45256564D01*
X82402000Y-45472236D02*
X82402000Y-45256564D01*
%TO.C,C23*%
X79114764Y-47417400D02*
X79330436Y-47417400D01*
X79114764Y-48137400D02*
X79330436Y-48137400D01*
D13*
%TO.C,J2*%
X21421712Y-64478718D02*
X21942850Y-64999856D01*
X21775266Y-63700901D02*
X21872139Y-63604027D01*
X21775266Y-63700901D02*
X21987398Y-63913033D01*
X21987398Y-63913033D02*
X21421712Y-64478718D01*
X23330901Y-62145266D02*
X23234027Y-62242139D01*
X23543033Y-62357398D02*
X23330901Y-62145266D01*
X24108718Y-61791712D02*
X23543033Y-62357398D01*
X24108718Y-61791712D02*
X24629856Y-62312850D01*
X25018058Y-64276486D02*
X23906486Y-65388058D01*
D14*
X23112703Y-61791712D02*
G75*
G02*
X22912703Y-61791712I-100000J0D01*
G01*
X22912703Y-61791712D02*
G75*
G02*
X23112703Y-61791712I100000J0D01*
G01*
D11*
%TO.C,U2*%
X66986667Y-52023333D02*
X67936667Y-52023332D01*
X66986668Y-42673333D02*
X66986668Y-41483333D01*
X66986668Y-51073333D02*
X66986667Y-52023333D01*
X77286666Y-42673333D02*
X77286667Y-41723333D01*
X77286666Y-51073333D02*
X77286667Y-52023333D01*
X77286667Y-41723333D02*
X76336667Y-41723334D01*
X77286667Y-52023333D02*
X76336667Y-52023332D01*
%TO.C,D2*%
X123963200Y-61477600D02*
X125923200Y-61477599D01*
X123963200Y-62677600D02*
X125923200Y-62677601D01*
X125923200Y-61477599D02*
X125923200Y-62677601D01*
D10*
%TO.C,J9*%
X65970000Y-62890000D02*
X79170000Y-62890000D01*
X65970000Y-64140000D02*
X65970000Y-62890000D01*
X65970000Y-66640000D02*
X65970000Y-68140000D01*
X65970000Y-68140000D02*
X67570000Y-68140001D01*
X67570000Y-68140001D02*
X68070000Y-68140000D01*
X77070000Y-68140000D02*
X79170000Y-68140000D01*
X79170000Y-62890000D02*
X79170000Y-64140000D01*
X79170000Y-68140000D02*
X79170000Y-66640000D01*
%TO.C,J5*%
X57580000Y-63500000D02*
X58930000Y-63500000D01*
X57580000Y-70600000D02*
X57580000Y-63500000D01*
X58930000Y-63500000D02*
X58930000Y-62700000D01*
X58930000Y-70600000D02*
X57580000Y-70600000D01*
X58930000Y-71400000D02*
X58930000Y-70600000D01*
X62780000Y-62700000D02*
X61380000Y-62700000D01*
X62780000Y-64550000D02*
X62780000Y-62700000D01*
X62879999Y-71400000D02*
X61380000Y-71400000D01*
X62880000Y-69550000D02*
X62879999Y-71400000D01*
D11*
%TO.C,C41*%
X65449564Y-51405200D02*
X65665236Y-51405200D01*
X65449564Y-52125200D02*
X65665236Y-52125200D01*
%TO.C,Q2*%
X121223600Y-59565000D02*
X121223600Y-61085000D01*
X121223600Y-61085000D02*
X122223600Y-61085000D01*
X121273600Y-59565000D02*
X121223600Y-59565000D01*
X123173600Y-59565000D02*
X122393600Y-59565000D01*
X123343600Y-61085000D02*
X124343600Y-61085000D01*
X124343600Y-59565000D02*
X124293600Y-59565000D01*
X124343600Y-61085000D02*
X124343600Y-59565000D01*
X122733600Y-59265000D02*
X122403600Y-59025000D01*
X122733600Y-58785000D01*
X122733600Y-59265000D01*
G36*
X122733600Y-59265000D02*
G01*
X122403600Y-59025000D01*
X122733600Y-58785000D01*
X122733600Y-59265000D01*
G37*
D15*
%TO.C,J6*%
X19614200Y-51570010D02*
X21044161Y-51570010D01*
X19614200Y-59569994D02*
X19614200Y-51570010D01*
X21044161Y-59569994D02*
X19614200Y-59569994D01*
X22984240Y-51570010D02*
X24914200Y-51570010D01*
X24914200Y-51570010D02*
X24914200Y-54099961D01*
X24914200Y-57040043D02*
X24914200Y-59569994D01*
X24914200Y-59569994D02*
X22984240Y-59569994D01*
X27000200Y-56013994D02*
X25984200Y-56648994D01*
X27000200Y-57410994D02*
X25984200Y-56648994D01*
X27000200Y-57410994D02*
X27000200Y-56013994D01*
%TO.C,J4*%
X125366801Y-53729010D02*
X125366801Y-55126010D01*
X125366801Y-53729010D02*
X126382801Y-54491010D01*
X125366801Y-55126010D02*
X126382801Y-54491010D01*
X127452801Y-51570010D02*
X129382761Y-51570010D01*
X127452801Y-54099961D02*
X127452801Y-51570010D01*
X127452801Y-59569994D02*
X127452801Y-57040043D01*
X129382761Y-59569994D02*
X127452801Y-59569994D01*
X131322840Y-51570010D02*
X132752801Y-51570010D01*
X132752801Y-51570010D02*
X132752801Y-59569994D01*
X132752801Y-59569994D02*
X131322840Y-59569994D01*
D11*
%TO.C,C39*%
X65750494Y-49823091D02*
X65750494Y-50038763D01*
X66470494Y-49823091D02*
X66470494Y-50038763D01*
%TO.C,D1*%
X28127800Y-58131001D02*
X28127800Y-56930999D01*
X30087800Y-56931000D02*
X28127800Y-56930999D01*
X30087800Y-58131000D02*
X28127800Y-58131001D01*
%TO.C,D6*%
X119389599Y-61300200D02*
X120589601Y-61300200D01*
X119389600Y-63260200D02*
X119389599Y-61300200D01*
X120589600Y-63260200D02*
X120589601Y-61300200D01*
D10*
%TO.C,J3*%
X89880000Y-67200000D02*
X90680000Y-67200000D01*
X89880000Y-71149999D02*
X89880000Y-69650000D01*
X90680000Y-65850000D02*
X97780000Y-65850000D01*
X90680000Y-67200000D02*
X90680000Y-65850000D01*
X91730000Y-71150000D02*
X89880000Y-71149999D01*
X96730000Y-71050000D02*
X98580000Y-71050000D01*
X97780000Y-65850000D02*
X97780000Y-67200000D01*
X97780000Y-67200000D02*
X98580000Y-67200000D01*
X98580000Y-71050000D02*
X98580000Y-69650000D01*
D11*
%TO.C,Y1*%
X83106200Y-45159999D02*
X87226200Y-45159999D01*
X83106200Y-48580001D02*
X83106200Y-45159999D01*
%TO.C,D3*%
X27822599Y-58379200D02*
X29022601Y-58379200D01*
X27822600Y-60339200D02*
X27822599Y-58379200D01*
X29022600Y-60339200D02*
X29022601Y-58379200D01*
%TD*%
M02*
