%TF.GenerationSoftware,KiCad,Pcbnew,9.0.6-rc2*%
%TF.CreationDate,2025-11-03T16:29:51-08:00*%
%TF.ProjectId,Latte_Main_Board,4c617474-655f-44d6-9169-6e5f426f6172,rev?*%
%TF.SameCoordinates,Original*%
%TF.FileFunction,Legend,Top*%
%TF.FilePolarity,Positive*%
%FSLAX46Y46*%
G04 Gerber Fmt 4.6, Leading zero omitted, Abs format (unit mm)*
G04 Created by KiCad (PCBNEW 9.0.6-rc2) date 2025-11-03 16:29:51*
%MOMM*%
%LPD*%
G01*
G04 APERTURE LIST*
%ADD10C,0.187500*%
%ADD11C,0.110000*%
%ADD12C,0.120000*%
%ADD13C,0.350000*%
%ADD14C,0.160000*%
G04 APERTURE END LIST*
D10*
G36*
X64453505Y-24027900D02*
G01*
X64453505Y-23327411D01*
X64240922Y-23327411D01*
X64116037Y-23834368D01*
X63991199Y-23327411D01*
X63774403Y-23327411D01*
X63774403Y-24027900D01*
X63912797Y-24027900D01*
X63911331Y-23550573D01*
X64039376Y-24027900D01*
X64186471Y-24027900D01*
X64315569Y-23548466D01*
X64314103Y-24027900D01*
X64453505Y-24027900D01*
G37*
G36*
X64652349Y-24027900D02*
G01*
X64652349Y-23327411D01*
X64503468Y-23327411D01*
X64503468Y-24027900D01*
X64652349Y-24027900D01*
G37*
G36*
X65270818Y-24027900D02*
G01*
X65270818Y-23327411D01*
X65131370Y-23327411D01*
X65131370Y-23772315D01*
X64856460Y-23327411D01*
X64699839Y-23327411D01*
X64699839Y-24027900D01*
X64838233Y-24027900D01*
X64838233Y-23562983D01*
X65134118Y-24027900D01*
X65270818Y-24027900D01*
G37*
G36*
X65732345Y-23793793D02*
G01*
X65730877Y-23820501D01*
X65726463Y-23844173D01*
X65719976Y-23862862D01*
X65711091Y-23879145D01*
X65700564Y-23892252D01*
X65687907Y-23903274D01*
X65656164Y-23919130D01*
X65613052Y-23927057D01*
X65594180Y-23927699D01*
X65572737Y-23926252D01*
X65553145Y-23921989D01*
X65536044Y-23915304D01*
X65520791Y-23906200D01*
X65496289Y-23881459D01*
X65479464Y-23847685D01*
X65471241Y-23804131D01*
X65470715Y-23788526D01*
X65470715Y-23327411D01*
X65319727Y-23327411D01*
X65319727Y-23802173D01*
X65321179Y-23835153D01*
X65325479Y-23865733D01*
X65332224Y-23892888D01*
X65341454Y-23917849D01*
X65352774Y-23940085D01*
X65366318Y-23960260D01*
X65399636Y-23994334D01*
X65441849Y-24020805D01*
X65494059Y-24039605D01*
X65557690Y-24049867D01*
X65596286Y-24051347D01*
X65635941Y-24049884D01*
X65672917Y-24045506D01*
X65705230Y-24038731D01*
X65735055Y-24029398D01*
X65760942Y-24018219D01*
X65784504Y-24004771D01*
X65804873Y-23989752D01*
X65823021Y-23972665D01*
X65838594Y-23953946D01*
X65851960Y-23933263D01*
X65871952Y-23885922D01*
X65882744Y-23829381D01*
X65884386Y-23793793D01*
X65884386Y-23327411D01*
X65732345Y-23327411D01*
X65732345Y-23793793D01*
G37*
G36*
X66470844Y-23535826D02*
G01*
X66468258Y-23507400D01*
X66462823Y-23480297D01*
X66454820Y-23455278D01*
X66444180Y-23431751D01*
X66431229Y-23410256D01*
X66415810Y-23390415D01*
X66398155Y-23372517D01*
X66378146Y-23356451D01*
X66355797Y-23342313D01*
X66331153Y-23330221D01*
X66274460Y-23312464D01*
X66207574Y-23304327D01*
X66188972Y-23303964D01*
X66152645Y-23305407D01*
X66119081Y-23309651D01*
X66089111Y-23316333D01*
X66061755Y-23325416D01*
X66037585Y-23336476D01*
X66015907Y-23349595D01*
X65996987Y-23364426D01*
X65980489Y-23381040D01*
X65954761Y-23419209D01*
X65938556Y-23464065D01*
X65932407Y-23515787D01*
X65932380Y-23519661D01*
X65933833Y-23546916D01*
X65938141Y-23571723D01*
X65944817Y-23593177D01*
X65953942Y-23612684D01*
X65979098Y-23646193D01*
X66015014Y-23674714D01*
X66049800Y-23693180D01*
X66116820Y-23717066D01*
X66241179Y-23746807D01*
X66275248Y-23755693D01*
X66301592Y-23765789D01*
X66318512Y-23775346D01*
X66331052Y-23785878D01*
X66339151Y-23796426D01*
X66344429Y-23807871D01*
X66348158Y-23833589D01*
X66346703Y-23851276D01*
X66342386Y-23867370D01*
X66335635Y-23881221D01*
X66326383Y-23893494D01*
X66300481Y-23913148D01*
X66263192Y-23926172D01*
X66214206Y-23930859D01*
X66185799Y-23929411D01*
X66159855Y-23925137D01*
X66137607Y-23918545D01*
X66117873Y-23909580D01*
X66101654Y-23899003D01*
X66087927Y-23886463D01*
X66077231Y-23872691D01*
X66069032Y-23857257D01*
X66060582Y-23822226D01*
X66060195Y-23815317D01*
X65916580Y-23815317D01*
X65918624Y-23844810D01*
X65923456Y-23872306D01*
X65930775Y-23897260D01*
X65940562Y-23920318D01*
X65966974Y-23960555D01*
X66002600Y-23993809D01*
X66048033Y-24020247D01*
X66104220Y-24039312D01*
X66172029Y-24049806D01*
X66213152Y-24051347D01*
X66253343Y-24049872D01*
X66291299Y-24045407D01*
X66324284Y-24038543D01*
X66354933Y-24029011D01*
X66381023Y-24017780D01*
X66404785Y-24004190D01*
X66424716Y-23989350D01*
X66442354Y-23972395D01*
X66456896Y-23954263D01*
X66469134Y-23934160D01*
X66478766Y-23912574D01*
X66485985Y-23889056D01*
X66492777Y-23835904D01*
X66492871Y-23828368D01*
X66491443Y-23800217D01*
X66487303Y-23775166D01*
X66480850Y-23753457D01*
X66472223Y-23734263D01*
X66448749Y-23701990D01*
X66416056Y-23675605D01*
X66382779Y-23657963D01*
X66315941Y-23633663D01*
X66175692Y-23596964D01*
X66140284Y-23586818D01*
X66112615Y-23575280D01*
X66096158Y-23565138D01*
X66083782Y-23553751D01*
X66076109Y-23542633D01*
X66071203Y-23530306D01*
X66068667Y-23510181D01*
X66070130Y-23494270D01*
X66074503Y-23480004D01*
X66081241Y-23468146D01*
X66090512Y-23457812D01*
X66117044Y-23441673D01*
X66157135Y-23431810D01*
X66192132Y-23429764D01*
X66221751Y-23431237D01*
X66247549Y-23435685D01*
X66267085Y-23442055D01*
X66283853Y-23450768D01*
X66296921Y-23460898D01*
X66307761Y-23473066D01*
X66322919Y-23503383D01*
X66329427Y-23535826D01*
X66470844Y-23535826D01*
G37*
D11*
X24227715Y-58442786D02*
X23870572Y-58442786D01*
X23870572Y-58442786D02*
X23870572Y-57692786D01*
X24799144Y-58442786D02*
X24799144Y-58049929D01*
X24799144Y-58049929D02*
X24763429Y-57978500D01*
X24763429Y-57978500D02*
X24692001Y-57942786D01*
X24692001Y-57942786D02*
X24549144Y-57942786D01*
X24549144Y-57942786D02*
X24477715Y-57978500D01*
X24799144Y-58407072D02*
X24727715Y-58442786D01*
X24727715Y-58442786D02*
X24549144Y-58442786D01*
X24549144Y-58442786D02*
X24477715Y-58407072D01*
X24477715Y-58407072D02*
X24442001Y-58335643D01*
X24442001Y-58335643D02*
X24442001Y-58264214D01*
X24442001Y-58264214D02*
X24477715Y-58192786D01*
X24477715Y-58192786D02*
X24549144Y-58157072D01*
X24549144Y-58157072D02*
X24727715Y-58157072D01*
X24727715Y-58157072D02*
X24799144Y-58121357D01*
X25049143Y-57942786D02*
X25334857Y-57942786D01*
X25156286Y-57692786D02*
X25156286Y-58335643D01*
X25156286Y-58335643D02*
X25192000Y-58407072D01*
X25192000Y-58407072D02*
X25263429Y-58442786D01*
X25263429Y-58442786D02*
X25334857Y-58442786D01*
X25477714Y-57942786D02*
X25763428Y-57942786D01*
X25584857Y-57692786D02*
X25584857Y-58335643D01*
X25584857Y-58335643D02*
X25620571Y-58407072D01*
X25620571Y-58407072D02*
X25692000Y-58442786D01*
X25692000Y-58442786D02*
X25763428Y-58442786D01*
X26299142Y-58407072D02*
X26227714Y-58442786D01*
X26227714Y-58442786D02*
X26084857Y-58442786D01*
X26084857Y-58442786D02*
X26013428Y-58407072D01*
X26013428Y-58407072D02*
X25977714Y-58335643D01*
X25977714Y-58335643D02*
X25977714Y-58049929D01*
X25977714Y-58049929D02*
X26013428Y-57978500D01*
X26013428Y-57978500D02*
X26084857Y-57942786D01*
X26084857Y-57942786D02*
X26227714Y-57942786D01*
X26227714Y-57942786D02*
X26299142Y-57978500D01*
X26299142Y-57978500D02*
X26334857Y-58049929D01*
X26334857Y-58049929D02*
X26334857Y-58121357D01*
X26334857Y-58121357D02*
X25977714Y-58192786D01*
X27227714Y-58442786D02*
X27227714Y-57692786D01*
X27227714Y-57692786D02*
X27477714Y-58228500D01*
X27477714Y-58228500D02*
X27727714Y-57692786D01*
X27727714Y-57692786D02*
X27727714Y-58442786D01*
X28406286Y-58442786D02*
X28406286Y-58049929D01*
X28406286Y-58049929D02*
X28370571Y-57978500D01*
X28370571Y-57978500D02*
X28299143Y-57942786D01*
X28299143Y-57942786D02*
X28156286Y-57942786D01*
X28156286Y-57942786D02*
X28084857Y-57978500D01*
X28406286Y-58407072D02*
X28334857Y-58442786D01*
X28334857Y-58442786D02*
X28156286Y-58442786D01*
X28156286Y-58442786D02*
X28084857Y-58407072D01*
X28084857Y-58407072D02*
X28049143Y-58335643D01*
X28049143Y-58335643D02*
X28049143Y-58264214D01*
X28049143Y-58264214D02*
X28084857Y-58192786D01*
X28084857Y-58192786D02*
X28156286Y-58157072D01*
X28156286Y-58157072D02*
X28334857Y-58157072D01*
X28334857Y-58157072D02*
X28406286Y-58121357D01*
X28763428Y-58442786D02*
X28763428Y-57942786D01*
X28763428Y-57692786D02*
X28727714Y-57728500D01*
X28727714Y-57728500D02*
X28763428Y-57764214D01*
X28763428Y-57764214D02*
X28799142Y-57728500D01*
X28799142Y-57728500D02*
X28763428Y-57692786D01*
X28763428Y-57692786D02*
X28763428Y-57764214D01*
X29120571Y-57942786D02*
X29120571Y-58442786D01*
X29120571Y-58014214D02*
X29156285Y-57978500D01*
X29156285Y-57978500D02*
X29227714Y-57942786D01*
X29227714Y-57942786D02*
X29334857Y-57942786D01*
X29334857Y-57942786D02*
X29406285Y-57978500D01*
X29406285Y-57978500D02*
X29442000Y-58049929D01*
X29442000Y-58049929D02*
X29442000Y-58442786D01*
X30370571Y-58442786D02*
X30370571Y-57692786D01*
X30370571Y-57692786D02*
X30656285Y-57692786D01*
X30656285Y-57692786D02*
X30727714Y-57728500D01*
X30727714Y-57728500D02*
X30763428Y-57764214D01*
X30763428Y-57764214D02*
X30799142Y-57835643D01*
X30799142Y-57835643D02*
X30799142Y-57942786D01*
X30799142Y-57942786D02*
X30763428Y-58014214D01*
X30763428Y-58014214D02*
X30727714Y-58049929D01*
X30727714Y-58049929D02*
X30656285Y-58085643D01*
X30656285Y-58085643D02*
X30370571Y-58085643D01*
X31549142Y-58371357D02*
X31513428Y-58407072D01*
X31513428Y-58407072D02*
X31406285Y-58442786D01*
X31406285Y-58442786D02*
X31334857Y-58442786D01*
X31334857Y-58442786D02*
X31227714Y-58407072D01*
X31227714Y-58407072D02*
X31156285Y-58335643D01*
X31156285Y-58335643D02*
X31120571Y-58264214D01*
X31120571Y-58264214D02*
X31084857Y-58121357D01*
X31084857Y-58121357D02*
X31084857Y-58014214D01*
X31084857Y-58014214D02*
X31120571Y-57871357D01*
X31120571Y-57871357D02*
X31156285Y-57799929D01*
X31156285Y-57799929D02*
X31227714Y-57728500D01*
X31227714Y-57728500D02*
X31334857Y-57692786D01*
X31334857Y-57692786D02*
X31406285Y-57692786D01*
X31406285Y-57692786D02*
X31513428Y-57728500D01*
X31513428Y-57728500D02*
X31549142Y-57764214D01*
X32120571Y-58049929D02*
X32227714Y-58085643D01*
X32227714Y-58085643D02*
X32263428Y-58121357D01*
X32263428Y-58121357D02*
X32299142Y-58192786D01*
X32299142Y-58192786D02*
X32299142Y-58299929D01*
X32299142Y-58299929D02*
X32263428Y-58371357D01*
X32263428Y-58371357D02*
X32227714Y-58407072D01*
X32227714Y-58407072D02*
X32156285Y-58442786D01*
X32156285Y-58442786D02*
X31870571Y-58442786D01*
X31870571Y-58442786D02*
X31870571Y-57692786D01*
X31870571Y-57692786D02*
X32120571Y-57692786D01*
X32120571Y-57692786D02*
X32192000Y-57728500D01*
X32192000Y-57728500D02*
X32227714Y-57764214D01*
X32227714Y-57764214D02*
X32263428Y-57835643D01*
X32263428Y-57835643D02*
X32263428Y-57907072D01*
X32263428Y-57907072D02*
X32227714Y-57978500D01*
X32227714Y-57978500D02*
X32192000Y-58014214D01*
X32192000Y-58014214D02*
X32120571Y-58049929D01*
X32120571Y-58049929D02*
X31870571Y-58049929D01*
X23049143Y-59650244D02*
X23049143Y-58900244D01*
X23049143Y-58900244D02*
X23227714Y-58900244D01*
X23227714Y-58900244D02*
X23334857Y-58935958D01*
X23334857Y-58935958D02*
X23406286Y-59007387D01*
X23406286Y-59007387D02*
X23442000Y-59078815D01*
X23442000Y-59078815D02*
X23477714Y-59221672D01*
X23477714Y-59221672D02*
X23477714Y-59328815D01*
X23477714Y-59328815D02*
X23442000Y-59471672D01*
X23442000Y-59471672D02*
X23406286Y-59543101D01*
X23406286Y-59543101D02*
X23334857Y-59614530D01*
X23334857Y-59614530D02*
X23227714Y-59650244D01*
X23227714Y-59650244D02*
X23049143Y-59650244D01*
X24084857Y-59614530D02*
X24013429Y-59650244D01*
X24013429Y-59650244D02*
X23870572Y-59650244D01*
X23870572Y-59650244D02*
X23799143Y-59614530D01*
X23799143Y-59614530D02*
X23763429Y-59543101D01*
X23763429Y-59543101D02*
X23763429Y-59257387D01*
X23763429Y-59257387D02*
X23799143Y-59185958D01*
X23799143Y-59185958D02*
X23870572Y-59150244D01*
X23870572Y-59150244D02*
X24013429Y-59150244D01*
X24013429Y-59150244D02*
X24084857Y-59185958D01*
X24084857Y-59185958D02*
X24120572Y-59257387D01*
X24120572Y-59257387D02*
X24120572Y-59328815D01*
X24120572Y-59328815D02*
X23763429Y-59400244D01*
X24406286Y-59614530D02*
X24477714Y-59650244D01*
X24477714Y-59650244D02*
X24620571Y-59650244D01*
X24620571Y-59650244D02*
X24692000Y-59614530D01*
X24692000Y-59614530D02*
X24727714Y-59543101D01*
X24727714Y-59543101D02*
X24727714Y-59507387D01*
X24727714Y-59507387D02*
X24692000Y-59435958D01*
X24692000Y-59435958D02*
X24620571Y-59400244D01*
X24620571Y-59400244D02*
X24513429Y-59400244D01*
X24513429Y-59400244D02*
X24442000Y-59364530D01*
X24442000Y-59364530D02*
X24406286Y-59293101D01*
X24406286Y-59293101D02*
X24406286Y-59257387D01*
X24406286Y-59257387D02*
X24442000Y-59185958D01*
X24442000Y-59185958D02*
X24513429Y-59150244D01*
X24513429Y-59150244D02*
X24620571Y-59150244D01*
X24620571Y-59150244D02*
X24692000Y-59185958D01*
X25049143Y-59650244D02*
X25049143Y-59150244D01*
X25049143Y-58900244D02*
X25013429Y-58935958D01*
X25013429Y-58935958D02*
X25049143Y-58971672D01*
X25049143Y-58971672D02*
X25084857Y-58935958D01*
X25084857Y-58935958D02*
X25049143Y-58900244D01*
X25049143Y-58900244D02*
X25049143Y-58971672D01*
X25727715Y-59150244D02*
X25727715Y-59757387D01*
X25727715Y-59757387D02*
X25692000Y-59828815D01*
X25692000Y-59828815D02*
X25656286Y-59864530D01*
X25656286Y-59864530D02*
X25584857Y-59900244D01*
X25584857Y-59900244D02*
X25477715Y-59900244D01*
X25477715Y-59900244D02*
X25406286Y-59864530D01*
X25727715Y-59614530D02*
X25656286Y-59650244D01*
X25656286Y-59650244D02*
X25513429Y-59650244D01*
X25513429Y-59650244D02*
X25442000Y-59614530D01*
X25442000Y-59614530D02*
X25406286Y-59578815D01*
X25406286Y-59578815D02*
X25370572Y-59507387D01*
X25370572Y-59507387D02*
X25370572Y-59293101D01*
X25370572Y-59293101D02*
X25406286Y-59221672D01*
X25406286Y-59221672D02*
X25442000Y-59185958D01*
X25442000Y-59185958D02*
X25513429Y-59150244D01*
X25513429Y-59150244D02*
X25656286Y-59150244D01*
X25656286Y-59150244D02*
X25727715Y-59185958D01*
X26084857Y-59150244D02*
X26084857Y-59650244D01*
X26084857Y-59221672D02*
X26120571Y-59185958D01*
X26120571Y-59185958D02*
X26192000Y-59150244D01*
X26192000Y-59150244D02*
X26299143Y-59150244D01*
X26299143Y-59150244D02*
X26370571Y-59185958D01*
X26370571Y-59185958D02*
X26406286Y-59257387D01*
X26406286Y-59257387D02*
X26406286Y-59650244D01*
X27049142Y-59614530D02*
X26977714Y-59650244D01*
X26977714Y-59650244D02*
X26834857Y-59650244D01*
X26834857Y-59650244D02*
X26763428Y-59614530D01*
X26763428Y-59614530D02*
X26727714Y-59543101D01*
X26727714Y-59543101D02*
X26727714Y-59257387D01*
X26727714Y-59257387D02*
X26763428Y-59185958D01*
X26763428Y-59185958D02*
X26834857Y-59150244D01*
X26834857Y-59150244D02*
X26977714Y-59150244D01*
X26977714Y-59150244D02*
X27049142Y-59185958D01*
X27049142Y-59185958D02*
X27084857Y-59257387D01*
X27084857Y-59257387D02*
X27084857Y-59328815D01*
X27084857Y-59328815D02*
X26727714Y-59400244D01*
X27727714Y-59650244D02*
X27727714Y-58900244D01*
X27727714Y-59614530D02*
X27656285Y-59650244D01*
X27656285Y-59650244D02*
X27513428Y-59650244D01*
X27513428Y-59650244D02*
X27441999Y-59614530D01*
X27441999Y-59614530D02*
X27406285Y-59578815D01*
X27406285Y-59578815D02*
X27370571Y-59507387D01*
X27370571Y-59507387D02*
X27370571Y-59293101D01*
X27370571Y-59293101D02*
X27406285Y-59221672D01*
X27406285Y-59221672D02*
X27441999Y-59185958D01*
X27441999Y-59185958D02*
X27513428Y-59150244D01*
X27513428Y-59150244D02*
X27656285Y-59150244D01*
X27656285Y-59150244D02*
X27727714Y-59185958D01*
X28656285Y-59650244D02*
X28656285Y-58900244D01*
X28656285Y-59185958D02*
X28727714Y-59150244D01*
X28727714Y-59150244D02*
X28870571Y-59150244D01*
X28870571Y-59150244D02*
X28941999Y-59185958D01*
X28941999Y-59185958D02*
X28977714Y-59221672D01*
X28977714Y-59221672D02*
X29013428Y-59293101D01*
X29013428Y-59293101D02*
X29013428Y-59507387D01*
X29013428Y-59507387D02*
X28977714Y-59578815D01*
X28977714Y-59578815D02*
X28941999Y-59614530D01*
X28941999Y-59614530D02*
X28870571Y-59650244D01*
X28870571Y-59650244D02*
X28727714Y-59650244D01*
X28727714Y-59650244D02*
X28656285Y-59614530D01*
X29263427Y-59150244D02*
X29441999Y-59650244D01*
X29620570Y-59150244D02*
X29441999Y-59650244D01*
X29441999Y-59650244D02*
X29370570Y-59828815D01*
X29370570Y-59828815D02*
X29334856Y-59864530D01*
X29334856Y-59864530D02*
X29263427Y-59900244D01*
X30477714Y-59650244D02*
X30477714Y-58900244D01*
X30477714Y-58900244D02*
X30727714Y-59435958D01*
X30727714Y-59435958D02*
X30977714Y-58900244D01*
X30977714Y-58900244D02*
X30977714Y-59650244D01*
X31334857Y-59650244D02*
X31334857Y-59150244D01*
X31334857Y-58900244D02*
X31299143Y-58935958D01*
X31299143Y-58935958D02*
X31334857Y-58971672D01*
X31334857Y-58971672D02*
X31370571Y-58935958D01*
X31370571Y-58935958D02*
X31334857Y-58900244D01*
X31334857Y-58900244D02*
X31334857Y-58971672D01*
X31584857Y-59150244D02*
X31870571Y-59150244D01*
X31692000Y-58900244D02*
X31692000Y-59543101D01*
X31692000Y-59543101D02*
X31727714Y-59614530D01*
X31727714Y-59614530D02*
X31799143Y-59650244D01*
X31799143Y-59650244D02*
X31870571Y-59650244D01*
X32442000Y-59614530D02*
X32370571Y-59650244D01*
X32370571Y-59650244D02*
X32227714Y-59650244D01*
X32227714Y-59650244D02*
X32156285Y-59614530D01*
X32156285Y-59614530D02*
X32120571Y-59578815D01*
X32120571Y-59578815D02*
X32084857Y-59507387D01*
X32084857Y-59507387D02*
X32084857Y-59293101D01*
X32084857Y-59293101D02*
X32120571Y-59221672D01*
X32120571Y-59221672D02*
X32156285Y-59185958D01*
X32156285Y-59185958D02*
X32227714Y-59150244D01*
X32227714Y-59150244D02*
X32370571Y-59150244D01*
X32370571Y-59150244D02*
X32442000Y-59185958D01*
X32763428Y-59650244D02*
X32763428Y-58900244D01*
X33084857Y-59650244D02*
X33084857Y-59257387D01*
X33084857Y-59257387D02*
X33049142Y-59185958D01*
X33049142Y-59185958D02*
X32977714Y-59150244D01*
X32977714Y-59150244D02*
X32870571Y-59150244D01*
X32870571Y-59150244D02*
X32799142Y-59185958D01*
X32799142Y-59185958D02*
X32763428Y-59221672D01*
X25781284Y-60857702D02*
X25352713Y-60857702D01*
X25566998Y-60857702D02*
X25566998Y-60107702D01*
X25566998Y-60107702D02*
X25495570Y-60214845D01*
X25495570Y-60214845D02*
X25424141Y-60286273D01*
X25424141Y-60286273D02*
X25352713Y-60321988D01*
X26495570Y-60857702D02*
X26066999Y-60857702D01*
X26281284Y-60857702D02*
X26281284Y-60107702D01*
X26281284Y-60107702D02*
X26209856Y-60214845D01*
X26209856Y-60214845D02*
X26138427Y-60286273D01*
X26138427Y-60286273D02*
X26066999Y-60321988D01*
X26816999Y-60786273D02*
X26852713Y-60821988D01*
X26852713Y-60821988D02*
X26816999Y-60857702D01*
X26816999Y-60857702D02*
X26781285Y-60821988D01*
X26781285Y-60821988D02*
X26816999Y-60786273D01*
X26816999Y-60786273D02*
X26816999Y-60857702D01*
X27138428Y-60179130D02*
X27174142Y-60143416D01*
X27174142Y-60143416D02*
X27245571Y-60107702D01*
X27245571Y-60107702D02*
X27424142Y-60107702D01*
X27424142Y-60107702D02*
X27495571Y-60143416D01*
X27495571Y-60143416D02*
X27531285Y-60179130D01*
X27531285Y-60179130D02*
X27566999Y-60250559D01*
X27566999Y-60250559D02*
X27566999Y-60321988D01*
X27566999Y-60321988D02*
X27531285Y-60429130D01*
X27531285Y-60429130D02*
X27102713Y-60857702D01*
X27102713Y-60857702D02*
X27566999Y-60857702D01*
X27888428Y-60786273D02*
X27924142Y-60821988D01*
X27924142Y-60821988D02*
X27888428Y-60857702D01*
X27888428Y-60857702D02*
X27852714Y-60821988D01*
X27852714Y-60821988D02*
X27888428Y-60786273D01*
X27888428Y-60786273D02*
X27888428Y-60857702D01*
X28209857Y-60179130D02*
X28245571Y-60143416D01*
X28245571Y-60143416D02*
X28317000Y-60107702D01*
X28317000Y-60107702D02*
X28495571Y-60107702D01*
X28495571Y-60107702D02*
X28567000Y-60143416D01*
X28567000Y-60143416D02*
X28602714Y-60179130D01*
X28602714Y-60179130D02*
X28638428Y-60250559D01*
X28638428Y-60250559D02*
X28638428Y-60321988D01*
X28638428Y-60321988D02*
X28602714Y-60429130D01*
X28602714Y-60429130D02*
X28174142Y-60857702D01*
X28174142Y-60857702D02*
X28638428Y-60857702D01*
X29102714Y-60107702D02*
X29174143Y-60107702D01*
X29174143Y-60107702D02*
X29245571Y-60143416D01*
X29245571Y-60143416D02*
X29281286Y-60179130D01*
X29281286Y-60179130D02*
X29317000Y-60250559D01*
X29317000Y-60250559D02*
X29352714Y-60393416D01*
X29352714Y-60393416D02*
X29352714Y-60571988D01*
X29352714Y-60571988D02*
X29317000Y-60714845D01*
X29317000Y-60714845D02*
X29281286Y-60786273D01*
X29281286Y-60786273D02*
X29245571Y-60821988D01*
X29245571Y-60821988D02*
X29174143Y-60857702D01*
X29174143Y-60857702D02*
X29102714Y-60857702D01*
X29102714Y-60857702D02*
X29031286Y-60821988D01*
X29031286Y-60821988D02*
X28995571Y-60786273D01*
X28995571Y-60786273D02*
X28959857Y-60714845D01*
X28959857Y-60714845D02*
X28924143Y-60571988D01*
X28924143Y-60571988D02*
X28924143Y-60393416D01*
X28924143Y-60393416D02*
X28959857Y-60250559D01*
X28959857Y-60250559D02*
X28995571Y-60179130D01*
X28995571Y-60179130D02*
X29031286Y-60143416D01*
X29031286Y-60143416D02*
X29102714Y-60107702D01*
X29638429Y-60179130D02*
X29674143Y-60143416D01*
X29674143Y-60143416D02*
X29745572Y-60107702D01*
X29745572Y-60107702D02*
X29924143Y-60107702D01*
X29924143Y-60107702D02*
X29995572Y-60143416D01*
X29995572Y-60143416D02*
X30031286Y-60179130D01*
X30031286Y-60179130D02*
X30067000Y-60250559D01*
X30067000Y-60250559D02*
X30067000Y-60321988D01*
X30067000Y-60321988D02*
X30031286Y-60429130D01*
X30031286Y-60429130D02*
X29602714Y-60857702D01*
X29602714Y-60857702D02*
X30067000Y-60857702D01*
X30745572Y-60107702D02*
X30388429Y-60107702D01*
X30388429Y-60107702D02*
X30352715Y-60464845D01*
X30352715Y-60464845D02*
X30388429Y-60429130D01*
X30388429Y-60429130D02*
X30459858Y-60393416D01*
X30459858Y-60393416D02*
X30638429Y-60393416D01*
X30638429Y-60393416D02*
X30709858Y-60429130D01*
X30709858Y-60429130D02*
X30745572Y-60464845D01*
X30745572Y-60464845D02*
X30781286Y-60536273D01*
X30781286Y-60536273D02*
X30781286Y-60714845D01*
X30781286Y-60714845D02*
X30745572Y-60786273D01*
X30745572Y-60786273D02*
X30709858Y-60821988D01*
X30709858Y-60821988D02*
X30638429Y-60857702D01*
X30638429Y-60857702D02*
X30459858Y-60857702D01*
X30459858Y-60857702D02*
X30388429Y-60821988D01*
X30388429Y-60821988D02*
X30352715Y-60786273D01*
D10*
G36*
X72265881Y-23328966D02*
G01*
X72319416Y-23339522D01*
X72362695Y-23358832D01*
X72380843Y-23371511D01*
X72396766Y-23386150D01*
X72410613Y-23402917D01*
X72422114Y-23421544D01*
X72431516Y-23442692D01*
X72438343Y-23465659D01*
X72442696Y-23491555D01*
X72444155Y-23519249D01*
X72444150Y-23520466D01*
X72442378Y-23542031D01*
X72437636Y-23562508D01*
X72429864Y-23582442D01*
X72419561Y-23600634D01*
X72392763Y-23630682D01*
X72361632Y-23649720D01*
X72390887Y-23663872D01*
X72421519Y-23688709D01*
X72444558Y-23721595D01*
X72453147Y-23741531D01*
X72459598Y-23764140D01*
X72463705Y-23789898D01*
X72465129Y-23818706D01*
X72459658Y-23871363D01*
X72444347Y-23915247D01*
X72419560Y-23952245D01*
X72403360Y-23968408D01*
X72384680Y-23982784D01*
X72362808Y-23995665D01*
X72338280Y-24006497D01*
X72309834Y-24015535D01*
X72278475Y-24022170D01*
X72242483Y-24026451D01*
X72203271Y-24027900D01*
X71887877Y-24027900D01*
X71887877Y-23906358D01*
X72031492Y-23906358D01*
X72214811Y-23906358D01*
X72239958Y-23904177D01*
X72257712Y-23899513D01*
X72273432Y-23892471D01*
X72287129Y-23883176D01*
X72298593Y-23871876D01*
X72307917Y-23858467D01*
X72314729Y-23843399D01*
X72319012Y-23826448D01*
X72320461Y-23808218D01*
X72319782Y-23795001D01*
X72311374Y-23765039D01*
X72303553Y-23752893D01*
X72293469Y-23742807D01*
X72279775Y-23733988D01*
X72263546Y-23727571D01*
X72241750Y-23723056D01*
X72216918Y-23721573D01*
X72031492Y-23721573D01*
X72031492Y-23906358D01*
X71887877Y-23906358D01*
X71887877Y-23599986D01*
X72031492Y-23599986D01*
X72213804Y-23599986D01*
X72219865Y-23599887D01*
X72255347Y-23594007D01*
X72279410Y-23580390D01*
X72288212Y-23570495D01*
X72294663Y-23558629D01*
X72299033Y-23543271D01*
X72300495Y-23525568D01*
X72300461Y-23522409D01*
X72295391Y-23492180D01*
X72281922Y-23471524D01*
X72270481Y-23463284D01*
X72256052Y-23457246D01*
X72233339Y-23452605D01*
X72205377Y-23451105D01*
X72031492Y-23451105D01*
X72031492Y-23599986D01*
X71887877Y-23599986D01*
X71887877Y-23327411D01*
X72232671Y-23327411D01*
X72265881Y-23328966D01*
G37*
G36*
X72865217Y-23306386D02*
G01*
X72928649Y-23318663D01*
X72983767Y-23340541D01*
X73008488Y-23354969D01*
X73031338Y-23371679D01*
X73052540Y-23390873D01*
X73071775Y-23412313D01*
X73089443Y-23436599D01*
X73104989Y-23463149D01*
X73118829Y-23492997D01*
X73130333Y-23525167D01*
X73139797Y-23561073D01*
X73146663Y-23599374D01*
X73151015Y-23641751D01*
X73152475Y-23686585D01*
X73150451Y-23738872D01*
X73139141Y-23813292D01*
X73119066Y-23875558D01*
X73091061Y-23927282D01*
X73055317Y-23969740D01*
X73034321Y-23987831D01*
X73011369Y-24003680D01*
X72985779Y-24017614D01*
X72958177Y-24029161D01*
X72927306Y-24038641D01*
X72894311Y-24045504D01*
X72857378Y-24049884D01*
X72818167Y-24051347D01*
X72772759Y-24049259D01*
X72707293Y-24037585D01*
X72650947Y-24016532D01*
X72602782Y-23986584D01*
X72581497Y-23968198D01*
X72562185Y-23947610D01*
X72544556Y-23924384D01*
X72529038Y-23898932D01*
X72515270Y-23870362D01*
X72503816Y-23839487D01*
X72494398Y-23804975D01*
X72487557Y-23768046D01*
X72483211Y-23727007D01*
X72481859Y-23686585D01*
X72628574Y-23686585D01*
X72631022Y-23737012D01*
X72642256Y-23796186D01*
X72661121Y-23841635D01*
X72686974Y-23876108D01*
X72702813Y-23889930D01*
X72720417Y-23901314D01*
X72740894Y-23910741D01*
X72763247Y-23917540D01*
X72789656Y-23922010D01*
X72818167Y-23923486D01*
X72851940Y-23920795D01*
X72894530Y-23908274D01*
X72930953Y-23886061D01*
X72946854Y-23871287D01*
X72961159Y-23853953D01*
X72973837Y-23833818D01*
X72984602Y-23810989D01*
X72993483Y-23784817D01*
X73000061Y-23755737D01*
X73004262Y-23722749D01*
X73005700Y-23686585D01*
X73002263Y-23625683D01*
X72989858Y-23565547D01*
X72970003Y-23518968D01*
X72943547Y-23483669D01*
X72927776Y-23469689D01*
X72910305Y-23458112D01*
X72890585Y-23448727D01*
X72869118Y-23441919D01*
X72844587Y-23437546D01*
X72818167Y-23436084D01*
X72782452Y-23438776D01*
X72739350Y-23451085D01*
X72703286Y-23473010D01*
X72687456Y-23487939D01*
X72673445Y-23505356D01*
X72660708Y-23526331D01*
X72650044Y-23550016D01*
X72640990Y-23578252D01*
X72634372Y-23609526D01*
X72630031Y-23646343D01*
X72628574Y-23686585D01*
X72481859Y-23686585D01*
X72481753Y-23683425D01*
X72484787Y-23620808D01*
X72497660Y-23546815D01*
X72519461Y-23483694D01*
X72549273Y-23430630D01*
X72586650Y-23386895D01*
X72608197Y-23368355D01*
X72631641Y-23352056D01*
X72657238Y-23337906D01*
X72684716Y-23326146D01*
X72714714Y-23316646D01*
X72746616Y-23309748D01*
X72781416Y-23305419D01*
X72818167Y-23303964D01*
X72865217Y-23306386D01*
G37*
G36*
X73568636Y-23306386D02*
G01*
X73632068Y-23318663D01*
X73687186Y-23340541D01*
X73711908Y-23354969D01*
X73734758Y-23371679D01*
X73755959Y-23390873D01*
X73775194Y-23412313D01*
X73792862Y-23436599D01*
X73808408Y-23463149D01*
X73822249Y-23492997D01*
X73833753Y-23525167D01*
X73843217Y-23561073D01*
X73850082Y-23599374D01*
X73854435Y-23641751D01*
X73855894Y-23686585D01*
X73853870Y-23738872D01*
X73842560Y-23813292D01*
X73822486Y-23875558D01*
X73794480Y-23927282D01*
X73758737Y-23969740D01*
X73737740Y-23987831D01*
X73714788Y-24003680D01*
X73689198Y-24017614D01*
X73661596Y-24029161D01*
X73630726Y-24038641D01*
X73597731Y-24045504D01*
X73560797Y-24049884D01*
X73521587Y-24051347D01*
X73476179Y-24049259D01*
X73410713Y-24037585D01*
X73354366Y-24016532D01*
X73306202Y-23986584D01*
X73284917Y-23968198D01*
X73265604Y-23947610D01*
X73247976Y-23924384D01*
X73232458Y-23898932D01*
X73218689Y-23870362D01*
X73207235Y-23839487D01*
X73197817Y-23804975D01*
X73190977Y-23768046D01*
X73186631Y-23727007D01*
X73185279Y-23686585D01*
X73331993Y-23686585D01*
X73334441Y-23737012D01*
X73345676Y-23796186D01*
X73364540Y-23841635D01*
X73390394Y-23876108D01*
X73406232Y-23889930D01*
X73423836Y-23901314D01*
X73444313Y-23910741D01*
X73466667Y-23917540D01*
X73493075Y-23922010D01*
X73521587Y-23923486D01*
X73555359Y-23920795D01*
X73597949Y-23908274D01*
X73634372Y-23886061D01*
X73650274Y-23871287D01*
X73664578Y-23853953D01*
X73677256Y-23833818D01*
X73688021Y-23810989D01*
X73696902Y-23784817D01*
X73703480Y-23755737D01*
X73707682Y-23722749D01*
X73709119Y-23686585D01*
X73705682Y-23625683D01*
X73693277Y-23565547D01*
X73673423Y-23518968D01*
X73646966Y-23483669D01*
X73631195Y-23469689D01*
X73613724Y-23458112D01*
X73594005Y-23448727D01*
X73572537Y-23441919D01*
X73548006Y-23437546D01*
X73521587Y-23436084D01*
X73485872Y-23438776D01*
X73442769Y-23451085D01*
X73406705Y-23473010D01*
X73390875Y-23487939D01*
X73376865Y-23505356D01*
X73364127Y-23526331D01*
X73353463Y-23550016D01*
X73344409Y-23578252D01*
X73337791Y-23609526D01*
X73333451Y-23646343D01*
X73331993Y-23686585D01*
X73185279Y-23686585D01*
X73185173Y-23683425D01*
X73188206Y-23620808D01*
X73201080Y-23546815D01*
X73222880Y-23483694D01*
X73252692Y-23430630D01*
X73290069Y-23386895D01*
X73311616Y-23368355D01*
X73335060Y-23352056D01*
X73360657Y-23337906D01*
X73388135Y-23326146D01*
X73418133Y-23316646D01*
X73450035Y-23309748D01*
X73484835Y-23305419D01*
X73521587Y-23303964D01*
X73568636Y-23306386D01*
G37*
G36*
X74171471Y-24027900D02*
G01*
X74171471Y-23452158D01*
X74382497Y-23452158D01*
X74382497Y-23327411D01*
X73812571Y-23327411D01*
X73812571Y-23452158D01*
X74022590Y-23452158D01*
X74022590Y-24027900D01*
X74171471Y-24027900D01*
G37*
G36*
X65427390Y-33665508D02*
G01*
X65419500Y-33693323D01*
X65409251Y-33718156D01*
X65397756Y-33738255D01*
X65384246Y-33755717D01*
X65369685Y-33769684D01*
X65353317Y-33781215D01*
X65316049Y-33796533D01*
X65269991Y-33801979D01*
X65246062Y-33800524D01*
X65223968Y-33796202D01*
X65204496Y-33789421D01*
X65186710Y-33780116D01*
X65156438Y-33754440D01*
X65132198Y-33718388D01*
X65114132Y-33670042D01*
X65103424Y-33606902D01*
X65101326Y-33557752D01*
X65102798Y-33516805D01*
X65107239Y-33479129D01*
X65113908Y-33447765D01*
X65123106Y-33419376D01*
X65133750Y-33396130D01*
X65146555Y-33375563D01*
X65160411Y-33358932D01*
X65176170Y-33344771D01*
X65193084Y-33333580D01*
X65211780Y-33324794D01*
X65254409Y-33314721D01*
X65277318Y-33313524D01*
X65318321Y-33319267D01*
X65355897Y-33336150D01*
X65372770Y-33348553D01*
X65388062Y-33363472D01*
X65401497Y-33380731D01*
X65412931Y-33400302D01*
X65427390Y-33439507D01*
X65576089Y-33439507D01*
X65571768Y-33410011D01*
X65564659Y-33381583D01*
X65554888Y-33354528D01*
X65542494Y-33328860D01*
X65527697Y-33304966D01*
X65510459Y-33282755D01*
X65491096Y-33262622D01*
X65469477Y-33244442D01*
X65445967Y-33228552D01*
X65420379Y-33214869D01*
X65393060Y-33203642D01*
X65363823Y-33194868D01*
X65332936Y-33188723D01*
X65300272Y-33185285D01*
X65276265Y-33184564D01*
X65242145Y-33186019D01*
X65209591Y-33190343D01*
X65179266Y-33197304D01*
X65150562Y-33206903D01*
X65123891Y-33218898D01*
X65098907Y-33233346D01*
X65054404Y-33269189D01*
X65017041Y-33314367D01*
X64987144Y-33369131D01*
X64965420Y-33433879D01*
X64952920Y-33508974D01*
X64950338Y-33566132D01*
X64951784Y-33607389D01*
X64956040Y-33646249D01*
X64962868Y-33682194D01*
X64972195Y-33715782D01*
X64983758Y-33746658D01*
X64997538Y-33775204D01*
X65013319Y-33801253D01*
X65031071Y-33824976D01*
X65050704Y-33846381D01*
X65072093Y-33865431D01*
X65120171Y-33896658D01*
X65175025Y-33918411D01*
X65236347Y-33930103D01*
X65274159Y-33931947D01*
X65306525Y-33930497D01*
X65337389Y-33926212D01*
X65366458Y-33919257D01*
X65393947Y-33909701D01*
X65419774Y-33897652D01*
X65443921Y-33883194D01*
X65487263Y-33847124D01*
X65523657Y-33801650D01*
X65552452Y-33746818D01*
X65572675Y-33682763D01*
X65576226Y-33665508D01*
X65427390Y-33665508D01*
G37*
G36*
X66200602Y-33908500D02*
G01*
X66038898Y-33908500D01*
X65994797Y-33764427D01*
X65739670Y-33764427D01*
X65690348Y-33908500D01*
X65532858Y-33908500D01*
X65627993Y-33641786D01*
X65778459Y-33641786D01*
X65951841Y-33641786D01*
X65866196Y-33368965D01*
X65778459Y-33641786D01*
X65627993Y-33641786D01*
X65782718Y-33208011D01*
X65953902Y-33208011D01*
X66200602Y-33908500D01*
G37*
G36*
X66587206Y-33212531D02*
G01*
X66612715Y-33218926D01*
X66636527Y-33227895D01*
X66658868Y-33239465D01*
X66679293Y-33253356D01*
X66698002Y-33269687D01*
X66714552Y-33288073D01*
X66729040Y-33308641D01*
X66741122Y-33330962D01*
X66750773Y-33355062D01*
X66757787Y-33380575D01*
X66762072Y-33407344D01*
X66763521Y-33435157D01*
X66759138Y-33483038D01*
X66744175Y-33531647D01*
X66719555Y-33573351D01*
X66686105Y-33607408D01*
X66666263Y-33621331D01*
X66644451Y-33633023D01*
X66620667Y-33642385D01*
X66595077Y-33649243D01*
X66567582Y-33653486D01*
X66538436Y-33654930D01*
X66378197Y-33654930D01*
X66378197Y-33908500D01*
X66229316Y-33908500D01*
X66229316Y-33533342D01*
X66378197Y-33533342D01*
X66515309Y-33533342D01*
X66550067Y-33530486D01*
X66585252Y-33518926D01*
X66598999Y-33510093D01*
X66610256Y-33499417D01*
X66619666Y-33486069D01*
X66626423Y-33470927D01*
X66631008Y-33451850D01*
X66632500Y-33430944D01*
X66629167Y-33401896D01*
X66616797Y-33373525D01*
X66607225Y-33361893D01*
X66595210Y-33351919D01*
X66580218Y-33343563D01*
X66562451Y-33337297D01*
X66540544Y-33333137D01*
X66515309Y-33331705D01*
X66378197Y-33331705D01*
X66378197Y-33533342D01*
X66229316Y-33533342D01*
X66229316Y-33208011D01*
X66538436Y-33208011D01*
X66587206Y-33212531D01*
G37*
G36*
X67128786Y-33908500D02*
G01*
X67128786Y-33332758D01*
X67339812Y-33332758D01*
X67339812Y-33208011D01*
X66769887Y-33208011D01*
X66769887Y-33332758D01*
X66979905Y-33332758D01*
X66979905Y-33908500D01*
X67128786Y-33908500D01*
G37*
G36*
X67783525Y-33674393D02*
G01*
X67782057Y-33701101D01*
X67777643Y-33724773D01*
X67771156Y-33743462D01*
X67762271Y-33759745D01*
X67751744Y-33772852D01*
X67739087Y-33783874D01*
X67707344Y-33799730D01*
X67664231Y-33807657D01*
X67645360Y-33808299D01*
X67623917Y-33806852D01*
X67604325Y-33802589D01*
X67587224Y-33795904D01*
X67571971Y-33786800D01*
X67547469Y-33762059D01*
X67530644Y-33728285D01*
X67522420Y-33684731D01*
X67521895Y-33669126D01*
X67521895Y-33208011D01*
X67370907Y-33208011D01*
X67370907Y-33682773D01*
X67372359Y-33715753D01*
X67376659Y-33746333D01*
X67383404Y-33773488D01*
X67392634Y-33798449D01*
X67403954Y-33820685D01*
X67417498Y-33840860D01*
X67450816Y-33874934D01*
X67493029Y-33901405D01*
X67545238Y-33920205D01*
X67608870Y-33930467D01*
X67647466Y-33931947D01*
X67687120Y-33930484D01*
X67724097Y-33926106D01*
X67756410Y-33919331D01*
X67786235Y-33909998D01*
X67812121Y-33898819D01*
X67835684Y-33885371D01*
X67856053Y-33870352D01*
X67874201Y-33853265D01*
X67889774Y-33834546D01*
X67903140Y-33813863D01*
X67923132Y-33766522D01*
X67933924Y-33709981D01*
X67935566Y-33674393D01*
X67935566Y-33208011D01*
X67783525Y-33208011D01*
X67783525Y-33674393D01*
G37*
G36*
X68378102Y-33210505D02*
G01*
X68404383Y-33215584D01*
X68428943Y-33223252D01*
X68451689Y-33233369D01*
X68472500Y-33245788D01*
X68491295Y-33260384D01*
X68507938Y-33276996D01*
X68522348Y-33295517D01*
X68534384Y-33315768D01*
X68543955Y-33337647D01*
X68550927Y-33360970D01*
X68555198Y-33385627D01*
X68556645Y-33411435D01*
X68554148Y-33444579D01*
X68541618Y-33489501D01*
X68520088Y-33526576D01*
X68491134Y-33554764D01*
X68455758Y-33573505D01*
X68461828Y-33575565D01*
X68494508Y-33592124D01*
X68506714Y-33602606D01*
X68516767Y-33615041D01*
X68525355Y-33631042D01*
X68531606Y-33649917D01*
X68536233Y-33677312D01*
X68537732Y-33709976D01*
X68537732Y-33908500D01*
X68392010Y-33908500D01*
X68392010Y-33727790D01*
X68391075Y-33707276D01*
X68383711Y-33676785D01*
X68368669Y-33656281D01*
X68356313Y-33648111D01*
X68340785Y-33642123D01*
X68315651Y-33637432D01*
X68284253Y-33635924D01*
X68130334Y-33635924D01*
X68130334Y-33908500D01*
X67985666Y-33908500D01*
X67985666Y-33515436D01*
X68130334Y-33515436D01*
X68311593Y-33515436D01*
X68333394Y-33514301D01*
X68369586Y-33505243D01*
X68383461Y-33497663D01*
X68394758Y-33488244D01*
X68404222Y-33476163D01*
X68410987Y-33462300D01*
X68415689Y-33444119D01*
X68417198Y-33424074D01*
X68415597Y-33403035D01*
X68405853Y-33373602D01*
X68387601Y-33351871D01*
X68374647Y-33343549D01*
X68359101Y-33337313D01*
X68339552Y-33333139D01*
X68316814Y-33331705D01*
X68130334Y-33331705D01*
X68130334Y-33515436D01*
X67985666Y-33515436D01*
X67985666Y-33208011D01*
X68340948Y-33208011D01*
X68378102Y-33210505D01*
G37*
G36*
X69124464Y-33908500D02*
G01*
X69124464Y-33781692D01*
X68737034Y-33781692D01*
X68737034Y-33603684D01*
X69078302Y-33603684D01*
X69078302Y-33477930D01*
X68737034Y-33477930D01*
X68737034Y-33332758D01*
X69107703Y-33332758D01*
X69107703Y-33208011D01*
X68592366Y-33208011D01*
X68592366Y-33908500D01*
X69124464Y-33908500D01*
G37*
G36*
X85343629Y-33883100D02*
G01*
X85343629Y-33182611D01*
X85193694Y-33182611D01*
X85193694Y-33444790D01*
X84924691Y-33444790D01*
X84924691Y-33182611D01*
X84775810Y-33182611D01*
X84775810Y-33883100D01*
X84924691Y-33883100D01*
X84924691Y-33569492D01*
X85193694Y-33569492D01*
X85193694Y-33883100D01*
X85343629Y-33883100D01*
G37*
G36*
X85767072Y-33161586D02*
G01*
X85830503Y-33173863D01*
X85885622Y-33195741D01*
X85910343Y-33210169D01*
X85933193Y-33226879D01*
X85954395Y-33246073D01*
X85973630Y-33267513D01*
X85991298Y-33291799D01*
X86006843Y-33318349D01*
X86020684Y-33348197D01*
X86032188Y-33380367D01*
X86041652Y-33416273D01*
X86048518Y-33454574D01*
X86052870Y-33496951D01*
X86054329Y-33541785D01*
X86052306Y-33594072D01*
X86040996Y-33668492D01*
X86020921Y-33730758D01*
X85992916Y-33782482D01*
X85957172Y-33824940D01*
X85936176Y-33843031D01*
X85913224Y-33858880D01*
X85887633Y-33872814D01*
X85860032Y-33884361D01*
X85829161Y-33893841D01*
X85796166Y-33900704D01*
X85759233Y-33905084D01*
X85720022Y-33906547D01*
X85674614Y-33904459D01*
X85609148Y-33892785D01*
X85552802Y-33871732D01*
X85504637Y-33841784D01*
X85483352Y-33823398D01*
X85464040Y-33802810D01*
X85446411Y-33779584D01*
X85430893Y-33754132D01*
X85417125Y-33725562D01*
X85405671Y-33694687D01*
X85396253Y-33660175D01*
X85389412Y-33623246D01*
X85385066Y-33582207D01*
X85383714Y-33541785D01*
X85530429Y-33541785D01*
X85532877Y-33592212D01*
X85544111Y-33651386D01*
X85562975Y-33696835D01*
X85588829Y-33731308D01*
X85604668Y-33745130D01*
X85622271Y-33756514D01*
X85642749Y-33765941D01*
X85665102Y-33772740D01*
X85691511Y-33777210D01*
X85720022Y-33778686D01*
X85753794Y-33775995D01*
X85796384Y-33763474D01*
X85832808Y-33741261D01*
X85848709Y-33726487D01*
X85863014Y-33709153D01*
X85875691Y-33689018D01*
X85886457Y-33666189D01*
X85895337Y-33640017D01*
X85901915Y-33610937D01*
X85906117Y-33577949D01*
X85907555Y-33541785D01*
X85904118Y-33480883D01*
X85891712Y-33420747D01*
X85871858Y-33374168D01*
X85845401Y-33338869D01*
X85829631Y-33324889D01*
X85812160Y-33313312D01*
X85792440Y-33303927D01*
X85770973Y-33297119D01*
X85746442Y-33292746D01*
X85720022Y-33291284D01*
X85684307Y-33293976D01*
X85641205Y-33306285D01*
X85605141Y-33328210D01*
X85589311Y-33343139D01*
X85575300Y-33360556D01*
X85562563Y-33381531D01*
X85551899Y-33405216D01*
X85542845Y-33433452D01*
X85536227Y-33464726D01*
X85531886Y-33501543D01*
X85530429Y-33541785D01*
X85383714Y-33541785D01*
X85383608Y-33538625D01*
X85386642Y-33476008D01*
X85399515Y-33402015D01*
X85421315Y-33338894D01*
X85451127Y-33285830D01*
X85488505Y-33242095D01*
X85510052Y-33223555D01*
X85533496Y-33207256D01*
X85559093Y-33193106D01*
X85586571Y-33181346D01*
X85616569Y-33171846D01*
X85648470Y-33164948D01*
X85683271Y-33160619D01*
X85720022Y-33159164D01*
X85767072Y-33161586D01*
G37*
G36*
X86774556Y-33883100D02*
G01*
X86774556Y-33182611D01*
X86561973Y-33182611D01*
X86437089Y-33689568D01*
X86312250Y-33182611D01*
X86095454Y-33182611D01*
X86095454Y-33883100D01*
X86233848Y-33883100D01*
X86232382Y-33405773D01*
X86360427Y-33883100D01*
X86507522Y-33883100D01*
X86636620Y-33403666D01*
X86635154Y-33883100D01*
X86774556Y-33883100D01*
G37*
G36*
X87356617Y-33883100D02*
G01*
X87356617Y-33756292D01*
X86969187Y-33756292D01*
X86969187Y-33578284D01*
X87310455Y-33578284D01*
X87310455Y-33452530D01*
X86969187Y-33452530D01*
X86969187Y-33307358D01*
X87339856Y-33307358D01*
X87339856Y-33182611D01*
X86824519Y-33182611D01*
X86824519Y-33883100D01*
X87356617Y-33883100D01*
G37*
G36*
X86321525Y-23433531D02*
G01*
X86347034Y-23439926D01*
X86370846Y-23448895D01*
X86393187Y-23460465D01*
X86413611Y-23474356D01*
X86432320Y-23490687D01*
X86448870Y-23509073D01*
X86463358Y-23529641D01*
X86475441Y-23551962D01*
X86485092Y-23576062D01*
X86492106Y-23601575D01*
X86496390Y-23628344D01*
X86497840Y-23656157D01*
X86493457Y-23704038D01*
X86478494Y-23752647D01*
X86453873Y-23794351D01*
X86420424Y-23828408D01*
X86400581Y-23842331D01*
X86378769Y-23854023D01*
X86354986Y-23863385D01*
X86329395Y-23870243D01*
X86301901Y-23874486D01*
X86272755Y-23875930D01*
X86112516Y-23875930D01*
X86112516Y-24129500D01*
X85963635Y-24129500D01*
X85963635Y-23754342D01*
X86112516Y-23754342D01*
X86249628Y-23754342D01*
X86284385Y-23751486D01*
X86319570Y-23739926D01*
X86333318Y-23731093D01*
X86344575Y-23720417D01*
X86353985Y-23707069D01*
X86360742Y-23691927D01*
X86365326Y-23672850D01*
X86366819Y-23651944D01*
X86363486Y-23622896D01*
X86351115Y-23594525D01*
X86341543Y-23582893D01*
X86329529Y-23572919D01*
X86314537Y-23564563D01*
X86296770Y-23558297D01*
X86274863Y-23554137D01*
X86249628Y-23552705D01*
X86112516Y-23552705D01*
X86112516Y-23754342D01*
X85963635Y-23754342D01*
X85963635Y-23429011D01*
X86272755Y-23429011D01*
X86321525Y-23433531D01*
G37*
G36*
X87018489Y-24129500D02*
G01*
X87018489Y-23999532D01*
X86673053Y-23999532D01*
X86673053Y-23429011D01*
X86524172Y-23429011D01*
X86524172Y-24129500D01*
X87018489Y-24129500D01*
G37*
G36*
X87434313Y-23895393D02*
G01*
X87432844Y-23922101D01*
X87428430Y-23945773D01*
X87421944Y-23964462D01*
X87413058Y-23980745D01*
X87402531Y-23993852D01*
X87389874Y-24004874D01*
X87358131Y-24020730D01*
X87315019Y-24028657D01*
X87296147Y-24029299D01*
X87274704Y-24027852D01*
X87255113Y-24023589D01*
X87238012Y-24016904D01*
X87222759Y-24007800D01*
X87198257Y-23983059D01*
X87181432Y-23949285D01*
X87173208Y-23905731D01*
X87172683Y-23890126D01*
X87172683Y-23429011D01*
X87021695Y-23429011D01*
X87021695Y-23903773D01*
X87023146Y-23936753D01*
X87027447Y-23967333D01*
X87034192Y-23994488D01*
X87043421Y-24019449D01*
X87054742Y-24041685D01*
X87068286Y-24061860D01*
X87101604Y-24095934D01*
X87143816Y-24122405D01*
X87196026Y-24141205D01*
X87259658Y-24151467D01*
X87298254Y-24152947D01*
X87337908Y-24151484D01*
X87374884Y-24147106D01*
X87407197Y-24140331D01*
X87437022Y-24130998D01*
X87462909Y-24119819D01*
X87486471Y-24106371D01*
X87506841Y-24091352D01*
X87524989Y-24074265D01*
X87540562Y-24055546D01*
X87553927Y-24034863D01*
X87573919Y-23987522D01*
X87584712Y-23930981D01*
X87586354Y-23895393D01*
X87586354Y-23429011D01*
X87434313Y-23429011D01*
X87434313Y-23895393D01*
G37*
G36*
X88172811Y-23637426D02*
G01*
X88170226Y-23609000D01*
X88164791Y-23581897D01*
X88156788Y-23556878D01*
X88146148Y-23533351D01*
X88133196Y-23511856D01*
X88117777Y-23492015D01*
X88100123Y-23474117D01*
X88080114Y-23458051D01*
X88057765Y-23443913D01*
X88033120Y-23431821D01*
X87976428Y-23414064D01*
X87909541Y-23405927D01*
X87890940Y-23405564D01*
X87854613Y-23407007D01*
X87821048Y-23411251D01*
X87791079Y-23417933D01*
X87763722Y-23427016D01*
X87739553Y-23438076D01*
X87717875Y-23451195D01*
X87698955Y-23466026D01*
X87682457Y-23482640D01*
X87656729Y-23520809D01*
X87640524Y-23565665D01*
X87634375Y-23617387D01*
X87634347Y-23621261D01*
X87635800Y-23648516D01*
X87640109Y-23673323D01*
X87646785Y-23694777D01*
X87655909Y-23714284D01*
X87681066Y-23747793D01*
X87716981Y-23776314D01*
X87751767Y-23794780D01*
X87818787Y-23818666D01*
X87943147Y-23848407D01*
X87977216Y-23857293D01*
X88003560Y-23867389D01*
X88020479Y-23876946D01*
X88033019Y-23887478D01*
X88041118Y-23898026D01*
X88046396Y-23909471D01*
X88050125Y-23935189D01*
X88048671Y-23952876D01*
X88044354Y-23968970D01*
X88037603Y-23982821D01*
X88028351Y-23995094D01*
X88002448Y-24014748D01*
X87965159Y-24027772D01*
X87916173Y-24032459D01*
X87887767Y-24031011D01*
X87861823Y-24026737D01*
X87839574Y-24020145D01*
X87819841Y-24011180D01*
X87803621Y-24000603D01*
X87789895Y-23988063D01*
X87779199Y-23974291D01*
X87770999Y-23958857D01*
X87762549Y-23923826D01*
X87762163Y-23916917D01*
X87618548Y-23916917D01*
X87620592Y-23946410D01*
X87625423Y-23973906D01*
X87632742Y-23998860D01*
X87642529Y-24021918D01*
X87668942Y-24062155D01*
X87704568Y-24095409D01*
X87750001Y-24121847D01*
X87806187Y-24140912D01*
X87873997Y-24151406D01*
X87915120Y-24152947D01*
X87955310Y-24151472D01*
X87993266Y-24147007D01*
X88026252Y-24140143D01*
X88056900Y-24130611D01*
X88082991Y-24119380D01*
X88106752Y-24105790D01*
X88126683Y-24090950D01*
X88144321Y-24073995D01*
X88158864Y-24055863D01*
X88171102Y-24035760D01*
X88180733Y-24014174D01*
X88187953Y-23990656D01*
X88194745Y-23937504D01*
X88194839Y-23929968D01*
X88193410Y-23901817D01*
X88189270Y-23876766D01*
X88182817Y-23855057D01*
X88174191Y-23835863D01*
X88150716Y-23803590D01*
X88118024Y-23777205D01*
X88084746Y-23759563D01*
X88017909Y-23735263D01*
X87877659Y-23698564D01*
X87842252Y-23688418D01*
X87814582Y-23676880D01*
X87798125Y-23666738D01*
X87785749Y-23655351D01*
X87778076Y-23644233D01*
X87773171Y-23631906D01*
X87770635Y-23611781D01*
X87772097Y-23595870D01*
X87776470Y-23581604D01*
X87783209Y-23569746D01*
X87792479Y-23559412D01*
X87819012Y-23543273D01*
X87859102Y-23533410D01*
X87894100Y-23531364D01*
X87923718Y-23532837D01*
X87949517Y-23537285D01*
X87969052Y-23543655D01*
X87985821Y-23552368D01*
X87998888Y-23562498D01*
X88009728Y-23574666D01*
X88024886Y-23604983D01*
X88031395Y-23637426D01*
X88172811Y-23637426D01*
G37*
D12*
X105345000Y-71696131D02*
X105145000Y-71410417D01*
X105002143Y-71696131D02*
X105002143Y-71096131D01*
X105002143Y-71096131D02*
X105230714Y-71096131D01*
X105230714Y-71096131D02*
X105287857Y-71124702D01*
X105287857Y-71124702D02*
X105316428Y-71153274D01*
X105316428Y-71153274D02*
X105345000Y-71210417D01*
X105345000Y-71210417D02*
X105345000Y-71296131D01*
X105345000Y-71296131D02*
X105316428Y-71353274D01*
X105316428Y-71353274D02*
X105287857Y-71381845D01*
X105287857Y-71381845D02*
X105230714Y-71410417D01*
X105230714Y-71410417D02*
X105002143Y-71410417D01*
X105916428Y-71124702D02*
X105859286Y-71096131D01*
X105859286Y-71096131D02*
X105773571Y-71096131D01*
X105773571Y-71096131D02*
X105687857Y-71124702D01*
X105687857Y-71124702D02*
X105630714Y-71181845D01*
X105630714Y-71181845D02*
X105602143Y-71238988D01*
X105602143Y-71238988D02*
X105573571Y-71353274D01*
X105573571Y-71353274D02*
X105573571Y-71438988D01*
X105573571Y-71438988D02*
X105602143Y-71553274D01*
X105602143Y-71553274D02*
X105630714Y-71610417D01*
X105630714Y-71610417D02*
X105687857Y-71667560D01*
X105687857Y-71667560D02*
X105773571Y-71696131D01*
X105773571Y-71696131D02*
X105830714Y-71696131D01*
X105830714Y-71696131D02*
X105916428Y-71667560D01*
X105916428Y-71667560D02*
X105945000Y-71638988D01*
X105945000Y-71638988D02*
X105945000Y-71438988D01*
X105945000Y-71438988D02*
X105830714Y-71438988D01*
X106402143Y-71381845D02*
X106487857Y-71410417D01*
X106487857Y-71410417D02*
X106516428Y-71438988D01*
X106516428Y-71438988D02*
X106545000Y-71496131D01*
X106545000Y-71496131D02*
X106545000Y-71581845D01*
X106545000Y-71581845D02*
X106516428Y-71638988D01*
X106516428Y-71638988D02*
X106487857Y-71667560D01*
X106487857Y-71667560D02*
X106430714Y-71696131D01*
X106430714Y-71696131D02*
X106202143Y-71696131D01*
X106202143Y-71696131D02*
X106202143Y-71096131D01*
X106202143Y-71096131D02*
X106402143Y-71096131D01*
X106402143Y-71096131D02*
X106459286Y-71124702D01*
X106459286Y-71124702D02*
X106487857Y-71153274D01*
X106487857Y-71153274D02*
X106516428Y-71210417D01*
X106516428Y-71210417D02*
X106516428Y-71267560D01*
X106516428Y-71267560D02*
X106487857Y-71324702D01*
X106487857Y-71324702D02*
X106459286Y-71353274D01*
X106459286Y-71353274D02*
X106402143Y-71381845D01*
X106402143Y-71381845D02*
X106202143Y-71381845D01*
X106745000Y-71096131D02*
X107116428Y-71096131D01*
X107116428Y-71096131D02*
X106916428Y-71324702D01*
X106916428Y-71324702D02*
X107002143Y-71324702D01*
X107002143Y-71324702D02*
X107059286Y-71353274D01*
X107059286Y-71353274D02*
X107087857Y-71381845D01*
X107087857Y-71381845D02*
X107116428Y-71438988D01*
X107116428Y-71438988D02*
X107116428Y-71581845D01*
X107116428Y-71581845D02*
X107087857Y-71638988D01*
X107087857Y-71638988D02*
X107059286Y-71667560D01*
X107059286Y-71667560D02*
X107002143Y-71696131D01*
X107002143Y-71696131D02*
X106830714Y-71696131D01*
X106830714Y-71696131D02*
X106773571Y-71667560D01*
X106773571Y-71667560D02*
X106745000Y-71638988D01*
X73934685Y-40869131D02*
X73734685Y-40583417D01*
X73591828Y-40869131D02*
X73591828Y-40269131D01*
X73591828Y-40269131D02*
X73820399Y-40269131D01*
X73820399Y-40269131D02*
X73877542Y-40297702D01*
X73877542Y-40297702D02*
X73906113Y-40326274D01*
X73906113Y-40326274D02*
X73934685Y-40383417D01*
X73934685Y-40383417D02*
X73934685Y-40469131D01*
X73934685Y-40469131D02*
X73906113Y-40526274D01*
X73906113Y-40526274D02*
X73877542Y-40554845D01*
X73877542Y-40554845D02*
X73820399Y-40583417D01*
X73820399Y-40583417D02*
X73591828Y-40583417D01*
X74506113Y-40869131D02*
X74163256Y-40869131D01*
X74334685Y-40869131D02*
X74334685Y-40269131D01*
X74334685Y-40269131D02*
X74277542Y-40354845D01*
X74277542Y-40354845D02*
X74220399Y-40411988D01*
X74220399Y-40411988D02*
X74163256Y-40440560D01*
X74706114Y-40269131D02*
X75106114Y-40269131D01*
X75106114Y-40269131D02*
X74848971Y-40869131D01*
X79033599Y-51366868D02*
X79233599Y-51652582D01*
X79376456Y-51366868D02*
X79376456Y-51966868D01*
X79376456Y-51966868D02*
X79147885Y-51966868D01*
X79147885Y-51966868D02*
X79090742Y-51938297D01*
X79090742Y-51938297D02*
X79062171Y-51909725D01*
X79062171Y-51909725D02*
X79033599Y-51852582D01*
X79033599Y-51852582D02*
X79033599Y-51766868D01*
X79033599Y-51766868D02*
X79062171Y-51709725D01*
X79062171Y-51709725D02*
X79090742Y-51681154D01*
X79090742Y-51681154D02*
X79147885Y-51652582D01*
X79147885Y-51652582D02*
X79376456Y-51652582D01*
X78462171Y-51938297D02*
X78519314Y-51966868D01*
X78519314Y-51966868D02*
X78605028Y-51966868D01*
X78605028Y-51966868D02*
X78690742Y-51938297D01*
X78690742Y-51938297D02*
X78747885Y-51881154D01*
X78747885Y-51881154D02*
X78776456Y-51824011D01*
X78776456Y-51824011D02*
X78805028Y-51709725D01*
X78805028Y-51709725D02*
X78805028Y-51624011D01*
X78805028Y-51624011D02*
X78776456Y-51509725D01*
X78776456Y-51509725D02*
X78747885Y-51452582D01*
X78747885Y-51452582D02*
X78690742Y-51395440D01*
X78690742Y-51395440D02*
X78605028Y-51366868D01*
X78605028Y-51366868D02*
X78547885Y-51366868D01*
X78547885Y-51366868D02*
X78462171Y-51395440D01*
X78462171Y-51395440D02*
X78433599Y-51424011D01*
X78433599Y-51424011D02*
X78433599Y-51624011D01*
X78433599Y-51624011D02*
X78547885Y-51624011D01*
X77976456Y-51681154D02*
X77890742Y-51652582D01*
X77890742Y-51652582D02*
X77862171Y-51624011D01*
X77862171Y-51624011D02*
X77833599Y-51566868D01*
X77833599Y-51566868D02*
X77833599Y-51481154D01*
X77833599Y-51481154D02*
X77862171Y-51424011D01*
X77862171Y-51424011D02*
X77890742Y-51395440D01*
X77890742Y-51395440D02*
X77947885Y-51366868D01*
X77947885Y-51366868D02*
X78176456Y-51366868D01*
X78176456Y-51366868D02*
X78176456Y-51966868D01*
X78176456Y-51966868D02*
X77976456Y-51966868D01*
X77976456Y-51966868D02*
X77919314Y-51938297D01*
X77919314Y-51938297D02*
X77890742Y-51909725D01*
X77890742Y-51909725D02*
X77862171Y-51852582D01*
X77862171Y-51852582D02*
X77862171Y-51795440D01*
X77862171Y-51795440D02*
X77890742Y-51738297D01*
X77890742Y-51738297D02*
X77919314Y-51709725D01*
X77919314Y-51709725D02*
X77976456Y-51681154D01*
X77976456Y-51681154D02*
X78176456Y-51681154D01*
X77319314Y-51966868D02*
X77433599Y-51966868D01*
X77433599Y-51966868D02*
X77490742Y-51938297D01*
X77490742Y-51938297D02*
X77519314Y-51909725D01*
X77519314Y-51909725D02*
X77576456Y-51824011D01*
X77576456Y-51824011D02*
X77605028Y-51709725D01*
X77605028Y-51709725D02*
X77605028Y-51481154D01*
X77605028Y-51481154D02*
X77576456Y-51424011D01*
X77576456Y-51424011D02*
X77547885Y-51395440D01*
X77547885Y-51395440D02*
X77490742Y-51366868D01*
X77490742Y-51366868D02*
X77376456Y-51366868D01*
X77376456Y-51366868D02*
X77319314Y-51395440D01*
X77319314Y-51395440D02*
X77290742Y-51424011D01*
X77290742Y-51424011D02*
X77262171Y-51481154D01*
X77262171Y-51481154D02*
X77262171Y-51624011D01*
X77262171Y-51624011D02*
X77290742Y-51681154D01*
X77290742Y-51681154D02*
X77319314Y-51709725D01*
X77319314Y-51709725D02*
X77376456Y-51738297D01*
X77376456Y-51738297D02*
X77490742Y-51738297D01*
X77490742Y-51738297D02*
X77547885Y-51709725D01*
X77547885Y-51709725D02*
X77576456Y-51681154D01*
X77576456Y-51681154D02*
X77605028Y-51624011D01*
X47756885Y-59783531D02*
X47556885Y-59497817D01*
X47414028Y-59783531D02*
X47414028Y-59183531D01*
X47414028Y-59183531D02*
X47642599Y-59183531D01*
X47642599Y-59183531D02*
X47699742Y-59212102D01*
X47699742Y-59212102D02*
X47728313Y-59240674D01*
X47728313Y-59240674D02*
X47756885Y-59297817D01*
X47756885Y-59297817D02*
X47756885Y-59383531D01*
X47756885Y-59383531D02*
X47728313Y-59440674D01*
X47728313Y-59440674D02*
X47699742Y-59469245D01*
X47699742Y-59469245D02*
X47642599Y-59497817D01*
X47642599Y-59497817D02*
X47414028Y-59497817D01*
X48328313Y-59212102D02*
X48271171Y-59183531D01*
X48271171Y-59183531D02*
X48185456Y-59183531D01*
X48185456Y-59183531D02*
X48099742Y-59212102D01*
X48099742Y-59212102D02*
X48042599Y-59269245D01*
X48042599Y-59269245D02*
X48014028Y-59326388D01*
X48014028Y-59326388D02*
X47985456Y-59440674D01*
X47985456Y-59440674D02*
X47985456Y-59526388D01*
X47985456Y-59526388D02*
X48014028Y-59640674D01*
X48014028Y-59640674D02*
X48042599Y-59697817D01*
X48042599Y-59697817D02*
X48099742Y-59754960D01*
X48099742Y-59754960D02*
X48185456Y-59783531D01*
X48185456Y-59783531D02*
X48242599Y-59783531D01*
X48242599Y-59783531D02*
X48328313Y-59754960D01*
X48328313Y-59754960D02*
X48356885Y-59726388D01*
X48356885Y-59726388D02*
X48356885Y-59526388D01*
X48356885Y-59526388D02*
X48242599Y-59526388D01*
X48814028Y-59469245D02*
X48899742Y-59497817D01*
X48899742Y-59497817D02*
X48928313Y-59526388D01*
X48928313Y-59526388D02*
X48956885Y-59583531D01*
X48956885Y-59583531D02*
X48956885Y-59669245D01*
X48956885Y-59669245D02*
X48928313Y-59726388D01*
X48928313Y-59726388D02*
X48899742Y-59754960D01*
X48899742Y-59754960D02*
X48842599Y-59783531D01*
X48842599Y-59783531D02*
X48614028Y-59783531D01*
X48614028Y-59783531D02*
X48614028Y-59183531D01*
X48614028Y-59183531D02*
X48814028Y-59183531D01*
X48814028Y-59183531D02*
X48871171Y-59212102D01*
X48871171Y-59212102D02*
X48899742Y-59240674D01*
X48899742Y-59240674D02*
X48928313Y-59297817D01*
X48928313Y-59297817D02*
X48928313Y-59354960D01*
X48928313Y-59354960D02*
X48899742Y-59412102D01*
X48899742Y-59412102D02*
X48871171Y-59440674D01*
X48871171Y-59440674D02*
X48814028Y-59469245D01*
X48814028Y-59469245D02*
X48614028Y-59469245D01*
X49528313Y-59783531D02*
X49185456Y-59783531D01*
X49356885Y-59783531D02*
X49356885Y-59183531D01*
X49356885Y-59183531D02*
X49299742Y-59269245D01*
X49299742Y-59269245D02*
X49242599Y-59326388D01*
X49242599Y-59326388D02*
X49185456Y-59354960D01*
X50099742Y-59783531D02*
X49756885Y-59783531D01*
X49928314Y-59783531D02*
X49928314Y-59183531D01*
X49928314Y-59183531D02*
X49871171Y-59269245D01*
X49871171Y-59269245D02*
X49814028Y-59326388D01*
X49814028Y-59326388D02*
X49756885Y-59354960D01*
X50734788Y-49189999D02*
X50763360Y-49218571D01*
X50763360Y-49218571D02*
X50791931Y-49304285D01*
X50791931Y-49304285D02*
X50791931Y-49361428D01*
X50791931Y-49361428D02*
X50763360Y-49447142D01*
X50763360Y-49447142D02*
X50706217Y-49504285D01*
X50706217Y-49504285D02*
X50649074Y-49532856D01*
X50649074Y-49532856D02*
X50534788Y-49561428D01*
X50534788Y-49561428D02*
X50449074Y-49561428D01*
X50449074Y-49561428D02*
X50334788Y-49532856D01*
X50334788Y-49532856D02*
X50277645Y-49504285D01*
X50277645Y-49504285D02*
X50220502Y-49447142D01*
X50220502Y-49447142D02*
X50191931Y-49361428D01*
X50191931Y-49361428D02*
X50191931Y-49304285D01*
X50191931Y-49304285D02*
X50220502Y-49218571D01*
X50220502Y-49218571D02*
X50249074Y-49189999D01*
X50191931Y-48989999D02*
X50191931Y-48589999D01*
X50191931Y-48589999D02*
X50791931Y-48847142D01*
X79494285Y-39921331D02*
X79294285Y-39635617D01*
X79151428Y-39921331D02*
X79151428Y-39321331D01*
X79151428Y-39321331D02*
X79379999Y-39321331D01*
X79379999Y-39321331D02*
X79437142Y-39349902D01*
X79437142Y-39349902D02*
X79465713Y-39378474D01*
X79465713Y-39378474D02*
X79494285Y-39435617D01*
X79494285Y-39435617D02*
X79494285Y-39521331D01*
X79494285Y-39521331D02*
X79465713Y-39578474D01*
X79465713Y-39578474D02*
X79437142Y-39607045D01*
X79437142Y-39607045D02*
X79379999Y-39635617D01*
X79379999Y-39635617D02*
X79151428Y-39635617D01*
X80065713Y-39921331D02*
X79722856Y-39921331D01*
X79894285Y-39921331D02*
X79894285Y-39321331D01*
X79894285Y-39321331D02*
X79837142Y-39407045D01*
X79837142Y-39407045D02*
X79779999Y-39464188D01*
X79779999Y-39464188D02*
X79722856Y-39492760D01*
X80408571Y-39578474D02*
X80351428Y-39549902D01*
X80351428Y-39549902D02*
X80322857Y-39521331D01*
X80322857Y-39521331D02*
X80294285Y-39464188D01*
X80294285Y-39464188D02*
X80294285Y-39435617D01*
X80294285Y-39435617D02*
X80322857Y-39378474D01*
X80322857Y-39378474D02*
X80351428Y-39349902D01*
X80351428Y-39349902D02*
X80408571Y-39321331D01*
X80408571Y-39321331D02*
X80522857Y-39321331D01*
X80522857Y-39321331D02*
X80580000Y-39349902D01*
X80580000Y-39349902D02*
X80608571Y-39378474D01*
X80608571Y-39378474D02*
X80637142Y-39435617D01*
X80637142Y-39435617D02*
X80637142Y-39464188D01*
X80637142Y-39464188D02*
X80608571Y-39521331D01*
X80608571Y-39521331D02*
X80580000Y-39549902D01*
X80580000Y-39549902D02*
X80522857Y-39578474D01*
X80522857Y-39578474D02*
X80408571Y-39578474D01*
X80408571Y-39578474D02*
X80351428Y-39607045D01*
X80351428Y-39607045D02*
X80322857Y-39635617D01*
X80322857Y-39635617D02*
X80294285Y-39692760D01*
X80294285Y-39692760D02*
X80294285Y-39807045D01*
X80294285Y-39807045D02*
X80322857Y-39864188D01*
X80322857Y-39864188D02*
X80351428Y-39892760D01*
X80351428Y-39892760D02*
X80408571Y-39921331D01*
X80408571Y-39921331D02*
X80522857Y-39921331D01*
X80522857Y-39921331D02*
X80580000Y-39892760D01*
X80580000Y-39892760D02*
X80608571Y-39864188D01*
X80608571Y-39864188D02*
X80637142Y-39807045D01*
X80637142Y-39807045D02*
X80637142Y-39692760D01*
X80637142Y-39692760D02*
X80608571Y-39635617D01*
X80608571Y-39635617D02*
X80580000Y-39607045D01*
X80580000Y-39607045D02*
X80522857Y-39578474D01*
X61506199Y-23966360D02*
X61591914Y-23994931D01*
X61591914Y-23994931D02*
X61734771Y-23994931D01*
X61734771Y-23994931D02*
X61791914Y-23966360D01*
X61791914Y-23966360D02*
X61820485Y-23937788D01*
X61820485Y-23937788D02*
X61849056Y-23880645D01*
X61849056Y-23880645D02*
X61849056Y-23823502D01*
X61849056Y-23823502D02*
X61820485Y-23766360D01*
X61820485Y-23766360D02*
X61791914Y-23737788D01*
X61791914Y-23737788D02*
X61734771Y-23709217D01*
X61734771Y-23709217D02*
X61620485Y-23680645D01*
X61620485Y-23680645D02*
X61563342Y-23652074D01*
X61563342Y-23652074D02*
X61534771Y-23623502D01*
X61534771Y-23623502D02*
X61506199Y-23566360D01*
X61506199Y-23566360D02*
X61506199Y-23509217D01*
X61506199Y-23509217D02*
X61534771Y-23452074D01*
X61534771Y-23452074D02*
X61563342Y-23423502D01*
X61563342Y-23423502D02*
X61620485Y-23394931D01*
X61620485Y-23394931D02*
X61763342Y-23394931D01*
X61763342Y-23394931D02*
X61849056Y-23423502D01*
X62049057Y-23394931D02*
X62191914Y-23994931D01*
X62191914Y-23994931D02*
X62306200Y-23566360D01*
X62306200Y-23566360D02*
X62420485Y-23994931D01*
X62420485Y-23994931D02*
X62563343Y-23394931D01*
X62734771Y-23394931D02*
X63134771Y-23394931D01*
X63134771Y-23394931D02*
X62877628Y-23994931D01*
X79514799Y-33897760D02*
X79600514Y-33926331D01*
X79600514Y-33926331D02*
X79743371Y-33926331D01*
X79743371Y-33926331D02*
X79800514Y-33897760D01*
X79800514Y-33897760D02*
X79829085Y-33869188D01*
X79829085Y-33869188D02*
X79857656Y-33812045D01*
X79857656Y-33812045D02*
X79857656Y-33754902D01*
X79857656Y-33754902D02*
X79829085Y-33697760D01*
X79829085Y-33697760D02*
X79800514Y-33669188D01*
X79800514Y-33669188D02*
X79743371Y-33640617D01*
X79743371Y-33640617D02*
X79629085Y-33612045D01*
X79629085Y-33612045D02*
X79571942Y-33583474D01*
X79571942Y-33583474D02*
X79543371Y-33554902D01*
X79543371Y-33554902D02*
X79514799Y-33497760D01*
X79514799Y-33497760D02*
X79514799Y-33440617D01*
X79514799Y-33440617D02*
X79543371Y-33383474D01*
X79543371Y-33383474D02*
X79571942Y-33354902D01*
X79571942Y-33354902D02*
X79629085Y-33326331D01*
X79629085Y-33326331D02*
X79771942Y-33326331D01*
X79771942Y-33326331D02*
X79857656Y-33354902D01*
X80057657Y-33326331D02*
X80200514Y-33926331D01*
X80200514Y-33926331D02*
X80314800Y-33497760D01*
X80314800Y-33497760D02*
X80429085Y-33926331D01*
X80429085Y-33926331D02*
X80571943Y-33326331D01*
X81057657Y-33326331D02*
X80943371Y-33326331D01*
X80943371Y-33326331D02*
X80886228Y-33354902D01*
X80886228Y-33354902D02*
X80857657Y-33383474D01*
X80857657Y-33383474D02*
X80800514Y-33469188D01*
X80800514Y-33469188D02*
X80771942Y-33583474D01*
X80771942Y-33583474D02*
X80771942Y-33812045D01*
X80771942Y-33812045D02*
X80800514Y-33869188D01*
X80800514Y-33869188D02*
X80829085Y-33897760D01*
X80829085Y-33897760D02*
X80886228Y-33926331D01*
X80886228Y-33926331D02*
X81000514Y-33926331D01*
X81000514Y-33926331D02*
X81057657Y-33897760D01*
X81057657Y-33897760D02*
X81086228Y-33869188D01*
X81086228Y-33869188D02*
X81114799Y-33812045D01*
X81114799Y-33812045D02*
X81114799Y-33669188D01*
X81114799Y-33669188D02*
X81086228Y-33612045D01*
X81086228Y-33612045D02*
X81057657Y-33583474D01*
X81057657Y-33583474D02*
X81000514Y-33554902D01*
X81000514Y-33554902D02*
X80886228Y-33554902D01*
X80886228Y-33554902D02*
X80829085Y-33583474D01*
X80829085Y-33583474D02*
X80800514Y-33612045D01*
X80800514Y-33612045D02*
X80771942Y-33669188D01*
X94473800Y-61739331D02*
X94273800Y-61453617D01*
X94130943Y-61739331D02*
X94130943Y-61139331D01*
X94130943Y-61139331D02*
X94359514Y-61139331D01*
X94359514Y-61139331D02*
X94416657Y-61167902D01*
X94416657Y-61167902D02*
X94445228Y-61196474D01*
X94445228Y-61196474D02*
X94473800Y-61253617D01*
X94473800Y-61253617D02*
X94473800Y-61339331D01*
X94473800Y-61339331D02*
X94445228Y-61396474D01*
X94445228Y-61396474D02*
X94416657Y-61425045D01*
X94416657Y-61425045D02*
X94359514Y-61453617D01*
X94359514Y-61453617D02*
X94130943Y-61453617D01*
X95045228Y-61167902D02*
X94988086Y-61139331D01*
X94988086Y-61139331D02*
X94902371Y-61139331D01*
X94902371Y-61139331D02*
X94816657Y-61167902D01*
X94816657Y-61167902D02*
X94759514Y-61225045D01*
X94759514Y-61225045D02*
X94730943Y-61282188D01*
X94730943Y-61282188D02*
X94702371Y-61396474D01*
X94702371Y-61396474D02*
X94702371Y-61482188D01*
X94702371Y-61482188D02*
X94730943Y-61596474D01*
X94730943Y-61596474D02*
X94759514Y-61653617D01*
X94759514Y-61653617D02*
X94816657Y-61710760D01*
X94816657Y-61710760D02*
X94902371Y-61739331D01*
X94902371Y-61739331D02*
X94959514Y-61739331D01*
X94959514Y-61739331D02*
X95045228Y-61710760D01*
X95045228Y-61710760D02*
X95073800Y-61682188D01*
X95073800Y-61682188D02*
X95073800Y-61482188D01*
X95073800Y-61482188D02*
X94959514Y-61482188D01*
X95530943Y-61425045D02*
X95616657Y-61453617D01*
X95616657Y-61453617D02*
X95645228Y-61482188D01*
X95645228Y-61482188D02*
X95673800Y-61539331D01*
X95673800Y-61539331D02*
X95673800Y-61625045D01*
X95673800Y-61625045D02*
X95645228Y-61682188D01*
X95645228Y-61682188D02*
X95616657Y-61710760D01*
X95616657Y-61710760D02*
X95559514Y-61739331D01*
X95559514Y-61739331D02*
X95330943Y-61739331D01*
X95330943Y-61739331D02*
X95330943Y-61139331D01*
X95330943Y-61139331D02*
X95530943Y-61139331D01*
X95530943Y-61139331D02*
X95588086Y-61167902D01*
X95588086Y-61167902D02*
X95616657Y-61196474D01*
X95616657Y-61196474D02*
X95645228Y-61253617D01*
X95645228Y-61253617D02*
X95645228Y-61310760D01*
X95645228Y-61310760D02*
X95616657Y-61367902D01*
X95616657Y-61367902D02*
X95588086Y-61396474D01*
X95588086Y-61396474D02*
X95530943Y-61425045D01*
X95530943Y-61425045D02*
X95330943Y-61425045D01*
X96188086Y-61339331D02*
X96188086Y-61739331D01*
X96045228Y-61110760D02*
X95902371Y-61539331D01*
X95902371Y-61539331D02*
X96273800Y-61539331D01*
X122428056Y-67174731D02*
X122770914Y-67174731D01*
X122599485Y-67774731D02*
X122599485Y-67174731D01*
X123228057Y-67374731D02*
X123228057Y-67774731D01*
X123085199Y-67146160D02*
X122942342Y-67574731D01*
X122942342Y-67574731D02*
X123313771Y-67574731D01*
X119035388Y-59002599D02*
X119063960Y-59031171D01*
X119063960Y-59031171D02*
X119092531Y-59116885D01*
X119092531Y-59116885D02*
X119092531Y-59174028D01*
X119092531Y-59174028D02*
X119063960Y-59259742D01*
X119063960Y-59259742D02*
X119006817Y-59316885D01*
X119006817Y-59316885D02*
X118949674Y-59345456D01*
X118949674Y-59345456D02*
X118835388Y-59374028D01*
X118835388Y-59374028D02*
X118749674Y-59374028D01*
X118749674Y-59374028D02*
X118635388Y-59345456D01*
X118635388Y-59345456D02*
X118578245Y-59316885D01*
X118578245Y-59316885D02*
X118521102Y-59259742D01*
X118521102Y-59259742D02*
X118492531Y-59174028D01*
X118492531Y-59174028D02*
X118492531Y-59116885D01*
X118492531Y-59116885D02*
X118521102Y-59031171D01*
X118521102Y-59031171D02*
X118549674Y-59002599D01*
X118492531Y-58459742D02*
X118492531Y-58745456D01*
X118492531Y-58745456D02*
X118778245Y-58774028D01*
X118778245Y-58774028D02*
X118749674Y-58745456D01*
X118749674Y-58745456D02*
X118721102Y-58688314D01*
X118721102Y-58688314D02*
X118721102Y-58545456D01*
X118721102Y-58545456D02*
X118749674Y-58488314D01*
X118749674Y-58488314D02*
X118778245Y-58459742D01*
X118778245Y-58459742D02*
X118835388Y-58431171D01*
X118835388Y-58431171D02*
X118978245Y-58431171D01*
X118978245Y-58431171D02*
X119035388Y-58459742D01*
X119035388Y-58459742D02*
X119063960Y-58488314D01*
X119063960Y-58488314D02*
X119092531Y-58545456D01*
X119092531Y-58545456D02*
X119092531Y-58688314D01*
X119092531Y-58688314D02*
X119063960Y-58745456D01*
X119063960Y-58745456D02*
X119035388Y-58774028D01*
X59964685Y-32548388D02*
X59936113Y-32576960D01*
X59936113Y-32576960D02*
X59850399Y-32605531D01*
X59850399Y-32605531D02*
X59793256Y-32605531D01*
X59793256Y-32605531D02*
X59707542Y-32576960D01*
X59707542Y-32576960D02*
X59650399Y-32519817D01*
X59650399Y-32519817D02*
X59621828Y-32462674D01*
X59621828Y-32462674D02*
X59593256Y-32348388D01*
X59593256Y-32348388D02*
X59593256Y-32262674D01*
X59593256Y-32262674D02*
X59621828Y-32148388D01*
X59621828Y-32148388D02*
X59650399Y-32091245D01*
X59650399Y-32091245D02*
X59707542Y-32034102D01*
X59707542Y-32034102D02*
X59793256Y-32005531D01*
X59793256Y-32005531D02*
X59850399Y-32005531D01*
X59850399Y-32005531D02*
X59936113Y-32034102D01*
X59936113Y-32034102D02*
X59964685Y-32062674D01*
X60193256Y-32062674D02*
X60221828Y-32034102D01*
X60221828Y-32034102D02*
X60278971Y-32005531D01*
X60278971Y-32005531D02*
X60421828Y-32005531D01*
X60421828Y-32005531D02*
X60478971Y-32034102D01*
X60478971Y-32034102D02*
X60507542Y-32062674D01*
X60507542Y-32062674D02*
X60536113Y-32119817D01*
X60536113Y-32119817D02*
X60536113Y-32176960D01*
X60536113Y-32176960D02*
X60507542Y-32262674D01*
X60507542Y-32262674D02*
X60164685Y-32605531D01*
X60164685Y-32605531D02*
X60536113Y-32605531D01*
X61050400Y-32005531D02*
X60936114Y-32005531D01*
X60936114Y-32005531D02*
X60878971Y-32034102D01*
X60878971Y-32034102D02*
X60850400Y-32062674D01*
X60850400Y-32062674D02*
X60793257Y-32148388D01*
X60793257Y-32148388D02*
X60764685Y-32262674D01*
X60764685Y-32262674D02*
X60764685Y-32491245D01*
X60764685Y-32491245D02*
X60793257Y-32548388D01*
X60793257Y-32548388D02*
X60821828Y-32576960D01*
X60821828Y-32576960D02*
X60878971Y-32605531D01*
X60878971Y-32605531D02*
X60993257Y-32605531D01*
X60993257Y-32605531D02*
X61050400Y-32576960D01*
X61050400Y-32576960D02*
X61078971Y-32548388D01*
X61078971Y-32548388D02*
X61107542Y-32491245D01*
X61107542Y-32491245D02*
X61107542Y-32348388D01*
X61107542Y-32348388D02*
X61078971Y-32291245D01*
X61078971Y-32291245D02*
X61050400Y-32262674D01*
X61050400Y-32262674D02*
X60993257Y-32234102D01*
X60993257Y-32234102D02*
X60878971Y-32234102D01*
X60878971Y-32234102D02*
X60821828Y-32262674D01*
X60821828Y-32262674D02*
X60793257Y-32291245D01*
X60793257Y-32291245D02*
X60764685Y-32348388D01*
X89529131Y-46834400D02*
X89957702Y-46834400D01*
X89957702Y-46834400D02*
X90043417Y-46862971D01*
X90043417Y-46862971D02*
X90100560Y-46920114D01*
X90100560Y-46920114D02*
X90129131Y-47005828D01*
X90129131Y-47005828D02*
X90129131Y-47062971D01*
X89786274Y-46462971D02*
X89757702Y-46520114D01*
X89757702Y-46520114D02*
X89729131Y-46548685D01*
X89729131Y-46548685D02*
X89671988Y-46577257D01*
X89671988Y-46577257D02*
X89643417Y-46577257D01*
X89643417Y-46577257D02*
X89586274Y-46548685D01*
X89586274Y-46548685D02*
X89557702Y-46520114D01*
X89557702Y-46520114D02*
X89529131Y-46462971D01*
X89529131Y-46462971D02*
X89529131Y-46348685D01*
X89529131Y-46348685D02*
X89557702Y-46291543D01*
X89557702Y-46291543D02*
X89586274Y-46262971D01*
X89586274Y-46262971D02*
X89643417Y-46234400D01*
X89643417Y-46234400D02*
X89671988Y-46234400D01*
X89671988Y-46234400D02*
X89729131Y-46262971D01*
X89729131Y-46262971D02*
X89757702Y-46291543D01*
X89757702Y-46291543D02*
X89786274Y-46348685D01*
X89786274Y-46348685D02*
X89786274Y-46462971D01*
X89786274Y-46462971D02*
X89814845Y-46520114D01*
X89814845Y-46520114D02*
X89843417Y-46548685D01*
X89843417Y-46548685D02*
X89900560Y-46577257D01*
X89900560Y-46577257D02*
X90014845Y-46577257D01*
X90014845Y-46577257D02*
X90071988Y-46548685D01*
X90071988Y-46548685D02*
X90100560Y-46520114D01*
X90100560Y-46520114D02*
X90129131Y-46462971D01*
X90129131Y-46462971D02*
X90129131Y-46348685D01*
X90129131Y-46348685D02*
X90100560Y-46291543D01*
X90100560Y-46291543D02*
X90071988Y-46262971D01*
X90071988Y-46262971D02*
X90014845Y-46234400D01*
X90014845Y-46234400D02*
X89900560Y-46234400D01*
X89900560Y-46234400D02*
X89843417Y-46262971D01*
X89843417Y-46262971D02*
X89814845Y-46291543D01*
X89814845Y-46291543D02*
X89786274Y-46348685D01*
X46440197Y-65851367D02*
X46440197Y-66337081D01*
X46440197Y-66337081D02*
X46468768Y-66394224D01*
X46468768Y-66394224D02*
X46497340Y-66422796D01*
X46497340Y-66422796D02*
X46554482Y-66451367D01*
X46554482Y-66451367D02*
X46668768Y-66451367D01*
X46668768Y-66451367D02*
X46725911Y-66422796D01*
X46725911Y-66422796D02*
X46754482Y-66394224D01*
X46754482Y-66394224D02*
X46783054Y-66337081D01*
X46783054Y-66337081D02*
X46783054Y-65851367D01*
X47383053Y-66451367D02*
X47040196Y-66451367D01*
X47211625Y-66451367D02*
X47211625Y-65851367D01*
X47211625Y-65851367D02*
X47154482Y-65937081D01*
X47154482Y-65937081D02*
X47097339Y-65994224D01*
X47097339Y-65994224D02*
X47040196Y-66022796D01*
X47954482Y-66451367D02*
X47611625Y-66451367D01*
X47783054Y-66451367D02*
X47783054Y-65851367D01*
X47783054Y-65851367D02*
X47725911Y-65937081D01*
X47725911Y-65937081D02*
X47668768Y-65994224D01*
X47668768Y-65994224D02*
X47611625Y-66022796D01*
X78346399Y-69000560D02*
X78432114Y-69029131D01*
X78432114Y-69029131D02*
X78574971Y-69029131D01*
X78574971Y-69029131D02*
X78632114Y-69000560D01*
X78632114Y-69000560D02*
X78660685Y-68971988D01*
X78660685Y-68971988D02*
X78689256Y-68914845D01*
X78689256Y-68914845D02*
X78689256Y-68857702D01*
X78689256Y-68857702D02*
X78660685Y-68800560D01*
X78660685Y-68800560D02*
X78632114Y-68771988D01*
X78632114Y-68771988D02*
X78574971Y-68743417D01*
X78574971Y-68743417D02*
X78460685Y-68714845D01*
X78460685Y-68714845D02*
X78403542Y-68686274D01*
X78403542Y-68686274D02*
X78374971Y-68657702D01*
X78374971Y-68657702D02*
X78346399Y-68600560D01*
X78346399Y-68600560D02*
X78346399Y-68543417D01*
X78346399Y-68543417D02*
X78374971Y-68486274D01*
X78374971Y-68486274D02*
X78403542Y-68457702D01*
X78403542Y-68457702D02*
X78460685Y-68429131D01*
X78460685Y-68429131D02*
X78603542Y-68429131D01*
X78603542Y-68429131D02*
X78689256Y-68457702D01*
X78889257Y-68429131D02*
X79032114Y-69029131D01*
X79032114Y-69029131D02*
X79146400Y-68600560D01*
X79146400Y-68600560D02*
X79260685Y-69029131D01*
X79260685Y-69029131D02*
X79403543Y-68429131D01*
X79946399Y-69029131D02*
X79603542Y-69029131D01*
X79774971Y-69029131D02*
X79774971Y-68429131D01*
X79774971Y-68429131D02*
X79717828Y-68514845D01*
X79717828Y-68514845D02*
X79660685Y-68571988D01*
X79660685Y-68571988D02*
X79603542Y-68600560D01*
X42397485Y-58691331D02*
X42197485Y-58405617D01*
X42054628Y-58691331D02*
X42054628Y-58091331D01*
X42054628Y-58091331D02*
X42283199Y-58091331D01*
X42283199Y-58091331D02*
X42340342Y-58119902D01*
X42340342Y-58119902D02*
X42368913Y-58148474D01*
X42368913Y-58148474D02*
X42397485Y-58205617D01*
X42397485Y-58205617D02*
X42397485Y-58291331D01*
X42397485Y-58291331D02*
X42368913Y-58348474D01*
X42368913Y-58348474D02*
X42340342Y-58377045D01*
X42340342Y-58377045D02*
X42283199Y-58405617D01*
X42283199Y-58405617D02*
X42054628Y-58405617D01*
X42968913Y-58119902D02*
X42911771Y-58091331D01*
X42911771Y-58091331D02*
X42826056Y-58091331D01*
X42826056Y-58091331D02*
X42740342Y-58119902D01*
X42740342Y-58119902D02*
X42683199Y-58177045D01*
X42683199Y-58177045D02*
X42654628Y-58234188D01*
X42654628Y-58234188D02*
X42626056Y-58348474D01*
X42626056Y-58348474D02*
X42626056Y-58434188D01*
X42626056Y-58434188D02*
X42654628Y-58548474D01*
X42654628Y-58548474D02*
X42683199Y-58605617D01*
X42683199Y-58605617D02*
X42740342Y-58662760D01*
X42740342Y-58662760D02*
X42826056Y-58691331D01*
X42826056Y-58691331D02*
X42883199Y-58691331D01*
X42883199Y-58691331D02*
X42968913Y-58662760D01*
X42968913Y-58662760D02*
X42997485Y-58634188D01*
X42997485Y-58634188D02*
X42997485Y-58434188D01*
X42997485Y-58434188D02*
X42883199Y-58434188D01*
X43454628Y-58377045D02*
X43540342Y-58405617D01*
X43540342Y-58405617D02*
X43568913Y-58434188D01*
X43568913Y-58434188D02*
X43597485Y-58491331D01*
X43597485Y-58491331D02*
X43597485Y-58577045D01*
X43597485Y-58577045D02*
X43568913Y-58634188D01*
X43568913Y-58634188D02*
X43540342Y-58662760D01*
X43540342Y-58662760D02*
X43483199Y-58691331D01*
X43483199Y-58691331D02*
X43254628Y-58691331D01*
X43254628Y-58691331D02*
X43254628Y-58091331D01*
X43254628Y-58091331D02*
X43454628Y-58091331D01*
X43454628Y-58091331D02*
X43511771Y-58119902D01*
X43511771Y-58119902D02*
X43540342Y-58148474D01*
X43540342Y-58148474D02*
X43568913Y-58205617D01*
X43568913Y-58205617D02*
X43568913Y-58262760D01*
X43568913Y-58262760D02*
X43540342Y-58319902D01*
X43540342Y-58319902D02*
X43511771Y-58348474D01*
X43511771Y-58348474D02*
X43454628Y-58377045D01*
X43454628Y-58377045D02*
X43254628Y-58377045D01*
X44168913Y-58691331D02*
X43826056Y-58691331D01*
X43997485Y-58691331D02*
X43997485Y-58091331D01*
X43997485Y-58091331D02*
X43940342Y-58177045D01*
X43940342Y-58177045D02*
X43883199Y-58234188D01*
X43883199Y-58234188D02*
X43826056Y-58262760D01*
X44540342Y-58091331D02*
X44597485Y-58091331D01*
X44597485Y-58091331D02*
X44654628Y-58119902D01*
X44654628Y-58119902D02*
X44683200Y-58148474D01*
X44683200Y-58148474D02*
X44711771Y-58205617D01*
X44711771Y-58205617D02*
X44740342Y-58319902D01*
X44740342Y-58319902D02*
X44740342Y-58462760D01*
X44740342Y-58462760D02*
X44711771Y-58577045D01*
X44711771Y-58577045D02*
X44683200Y-58634188D01*
X44683200Y-58634188D02*
X44654628Y-58662760D01*
X44654628Y-58662760D02*
X44597485Y-58691331D01*
X44597485Y-58691331D02*
X44540342Y-58691331D01*
X44540342Y-58691331D02*
X44483200Y-58662760D01*
X44483200Y-58662760D02*
X44454628Y-58634188D01*
X44454628Y-58634188D02*
X44426057Y-58577045D01*
X44426057Y-58577045D02*
X44397485Y-58462760D01*
X44397485Y-58462760D02*
X44397485Y-58319902D01*
X44397485Y-58319902D02*
X44426057Y-58205617D01*
X44426057Y-58205617D02*
X44454628Y-58148474D01*
X44454628Y-58148474D02*
X44483200Y-58119902D01*
X44483200Y-58119902D02*
X44540342Y-58091331D01*
X46726679Y-46153331D02*
X46726679Y-46639045D01*
X46726679Y-46639045D02*
X46755250Y-46696188D01*
X46755250Y-46696188D02*
X46783822Y-46724760D01*
X46783822Y-46724760D02*
X46840964Y-46753331D01*
X46840964Y-46753331D02*
X46955250Y-46753331D01*
X46955250Y-46753331D02*
X47012393Y-46724760D01*
X47012393Y-46724760D02*
X47040964Y-46696188D01*
X47040964Y-46696188D02*
X47069536Y-46639045D01*
X47069536Y-46639045D02*
X47069536Y-46153331D01*
X47440964Y-46410474D02*
X47383821Y-46381902D01*
X47383821Y-46381902D02*
X47355250Y-46353331D01*
X47355250Y-46353331D02*
X47326678Y-46296188D01*
X47326678Y-46296188D02*
X47326678Y-46267617D01*
X47326678Y-46267617D02*
X47355250Y-46210474D01*
X47355250Y-46210474D02*
X47383821Y-46181902D01*
X47383821Y-46181902D02*
X47440964Y-46153331D01*
X47440964Y-46153331D02*
X47555250Y-46153331D01*
X47555250Y-46153331D02*
X47612393Y-46181902D01*
X47612393Y-46181902D02*
X47640964Y-46210474D01*
X47640964Y-46210474D02*
X47669535Y-46267617D01*
X47669535Y-46267617D02*
X47669535Y-46296188D01*
X47669535Y-46296188D02*
X47640964Y-46353331D01*
X47640964Y-46353331D02*
X47612393Y-46381902D01*
X47612393Y-46381902D02*
X47555250Y-46410474D01*
X47555250Y-46410474D02*
X47440964Y-46410474D01*
X47440964Y-46410474D02*
X47383821Y-46439045D01*
X47383821Y-46439045D02*
X47355250Y-46467617D01*
X47355250Y-46467617D02*
X47326678Y-46524760D01*
X47326678Y-46524760D02*
X47326678Y-46639045D01*
X47326678Y-46639045D02*
X47355250Y-46696188D01*
X47355250Y-46696188D02*
X47383821Y-46724760D01*
X47383821Y-46724760D02*
X47440964Y-46753331D01*
X47440964Y-46753331D02*
X47555250Y-46753331D01*
X47555250Y-46753331D02*
X47612393Y-46724760D01*
X47612393Y-46724760D02*
X47640964Y-46696188D01*
X47640964Y-46696188D02*
X47669535Y-46639045D01*
X47669535Y-46639045D02*
X47669535Y-46524760D01*
X47669535Y-46524760D02*
X47640964Y-46467617D01*
X47640964Y-46467617D02*
X47612393Y-46439045D01*
X47612393Y-46439045D02*
X47555250Y-46410474D01*
X93739420Y-53482721D02*
X93739420Y-53968435D01*
X93739420Y-53968435D02*
X93767991Y-54025578D01*
X93767991Y-54025578D02*
X93796563Y-54054150D01*
X93796563Y-54054150D02*
X93853705Y-54082721D01*
X93853705Y-54082721D02*
X93967991Y-54082721D01*
X93967991Y-54082721D02*
X94025134Y-54054150D01*
X94025134Y-54054150D02*
X94053705Y-54025578D01*
X94053705Y-54025578D02*
X94082277Y-53968435D01*
X94082277Y-53968435D02*
X94082277Y-53482721D01*
X94310848Y-53482721D02*
X94682276Y-53482721D01*
X94682276Y-53482721D02*
X94482276Y-53711292D01*
X94482276Y-53711292D02*
X94567991Y-53711292D01*
X94567991Y-53711292D02*
X94625134Y-53739864D01*
X94625134Y-53739864D02*
X94653705Y-53768435D01*
X94653705Y-53768435D02*
X94682276Y-53825578D01*
X94682276Y-53825578D02*
X94682276Y-53968435D01*
X94682276Y-53968435D02*
X94653705Y-54025578D01*
X94653705Y-54025578D02*
X94625134Y-54054150D01*
X94625134Y-54054150D02*
X94567991Y-54082721D01*
X94567991Y-54082721D02*
X94396562Y-54082721D01*
X94396562Y-54082721D02*
X94339419Y-54054150D01*
X94339419Y-54054150D02*
X94310848Y-54025578D01*
X85186885Y-31437131D02*
X84986885Y-31151417D01*
X84844028Y-31437131D02*
X84844028Y-30837131D01*
X84844028Y-30837131D02*
X85072599Y-30837131D01*
X85072599Y-30837131D02*
X85129742Y-30865702D01*
X85129742Y-30865702D02*
X85158313Y-30894274D01*
X85158313Y-30894274D02*
X85186885Y-30951417D01*
X85186885Y-30951417D02*
X85186885Y-31037131D01*
X85186885Y-31037131D02*
X85158313Y-31094274D01*
X85158313Y-31094274D02*
X85129742Y-31122845D01*
X85129742Y-31122845D02*
X85072599Y-31151417D01*
X85072599Y-31151417D02*
X84844028Y-31151417D01*
X85415456Y-30894274D02*
X85444028Y-30865702D01*
X85444028Y-30865702D02*
X85501171Y-30837131D01*
X85501171Y-30837131D02*
X85644028Y-30837131D01*
X85644028Y-30837131D02*
X85701171Y-30865702D01*
X85701171Y-30865702D02*
X85729742Y-30894274D01*
X85729742Y-30894274D02*
X85758313Y-30951417D01*
X85758313Y-30951417D02*
X85758313Y-31008560D01*
X85758313Y-31008560D02*
X85729742Y-31094274D01*
X85729742Y-31094274D02*
X85386885Y-31437131D01*
X85386885Y-31437131D02*
X85758313Y-31437131D01*
X86129742Y-30837131D02*
X86186885Y-30837131D01*
X86186885Y-30837131D02*
X86244028Y-30865702D01*
X86244028Y-30865702D02*
X86272600Y-30894274D01*
X86272600Y-30894274D02*
X86301171Y-30951417D01*
X86301171Y-30951417D02*
X86329742Y-31065702D01*
X86329742Y-31065702D02*
X86329742Y-31208560D01*
X86329742Y-31208560D02*
X86301171Y-31322845D01*
X86301171Y-31322845D02*
X86272600Y-31379988D01*
X86272600Y-31379988D02*
X86244028Y-31408560D01*
X86244028Y-31408560D02*
X86186885Y-31437131D01*
X86186885Y-31437131D02*
X86129742Y-31437131D01*
X86129742Y-31437131D02*
X86072600Y-31408560D01*
X86072600Y-31408560D02*
X86044028Y-31379988D01*
X86044028Y-31379988D02*
X86015457Y-31322845D01*
X86015457Y-31322845D02*
X85986885Y-31208560D01*
X85986885Y-31208560D02*
X85986885Y-31065702D01*
X85986885Y-31065702D02*
X86015457Y-30951417D01*
X86015457Y-30951417D02*
X86044028Y-30894274D01*
X86044028Y-30894274D02*
X86072600Y-30865702D01*
X86072600Y-30865702D02*
X86129742Y-30837131D01*
X104292457Y-43765731D02*
X104292457Y-44251445D01*
X104292457Y-44251445D02*
X104321028Y-44308588D01*
X104321028Y-44308588D02*
X104349600Y-44337160D01*
X104349600Y-44337160D02*
X104406742Y-44365731D01*
X104406742Y-44365731D02*
X104521028Y-44365731D01*
X104521028Y-44365731D02*
X104578171Y-44337160D01*
X104578171Y-44337160D02*
X104606742Y-44308588D01*
X104606742Y-44308588D02*
X104635314Y-44251445D01*
X104635314Y-44251445D02*
X104635314Y-43765731D01*
X105235313Y-44365731D02*
X104892456Y-44365731D01*
X105063885Y-44365731D02*
X105063885Y-43765731D01*
X105063885Y-43765731D02*
X105006742Y-43851445D01*
X105006742Y-43851445D02*
X104949599Y-43908588D01*
X104949599Y-43908588D02*
X104892456Y-43937160D01*
X66314685Y-31614931D02*
X66114685Y-31329217D01*
X65971828Y-31614931D02*
X65971828Y-31014931D01*
X65971828Y-31014931D02*
X66200399Y-31014931D01*
X66200399Y-31014931D02*
X66257542Y-31043502D01*
X66257542Y-31043502D02*
X66286113Y-31072074D01*
X66286113Y-31072074D02*
X66314685Y-31129217D01*
X66314685Y-31129217D02*
X66314685Y-31214931D01*
X66314685Y-31214931D02*
X66286113Y-31272074D01*
X66286113Y-31272074D02*
X66257542Y-31300645D01*
X66257542Y-31300645D02*
X66200399Y-31329217D01*
X66200399Y-31329217D02*
X65971828Y-31329217D01*
X66886113Y-31614931D02*
X66543256Y-31614931D01*
X66714685Y-31614931D02*
X66714685Y-31014931D01*
X66714685Y-31014931D02*
X66657542Y-31100645D01*
X66657542Y-31100645D02*
X66600399Y-31157788D01*
X66600399Y-31157788D02*
X66543256Y-31186360D01*
X67171828Y-31614931D02*
X67286114Y-31614931D01*
X67286114Y-31614931D02*
X67343257Y-31586360D01*
X67343257Y-31586360D02*
X67371828Y-31557788D01*
X67371828Y-31557788D02*
X67428971Y-31472074D01*
X67428971Y-31472074D02*
X67457542Y-31357788D01*
X67457542Y-31357788D02*
X67457542Y-31129217D01*
X67457542Y-31129217D02*
X67428971Y-31072074D01*
X67428971Y-31072074D02*
X67400400Y-31043502D01*
X67400400Y-31043502D02*
X67343257Y-31014931D01*
X67343257Y-31014931D02*
X67228971Y-31014931D01*
X67228971Y-31014931D02*
X67171828Y-31043502D01*
X67171828Y-31043502D02*
X67143257Y-31072074D01*
X67143257Y-31072074D02*
X67114685Y-31129217D01*
X67114685Y-31129217D02*
X67114685Y-31272074D01*
X67114685Y-31272074D02*
X67143257Y-31329217D01*
X67143257Y-31329217D02*
X67171828Y-31357788D01*
X67171828Y-31357788D02*
X67228971Y-31386360D01*
X67228971Y-31386360D02*
X67343257Y-31386360D01*
X67343257Y-31386360D02*
X67400400Y-31357788D01*
X67400400Y-31357788D02*
X67428971Y-31329217D01*
X67428971Y-31329217D02*
X67457542Y-31272074D01*
X115739420Y-53482722D02*
X115739420Y-53968436D01*
X115739420Y-53968436D02*
X115767991Y-54025579D01*
X115767991Y-54025579D02*
X115796563Y-54054151D01*
X115796563Y-54054151D02*
X115853705Y-54082722D01*
X115853705Y-54082722D02*
X115967991Y-54082722D01*
X115967991Y-54082722D02*
X116025134Y-54054151D01*
X116025134Y-54054151D02*
X116053705Y-54025579D01*
X116053705Y-54025579D02*
X116082277Y-53968436D01*
X116082277Y-53968436D02*
X116082277Y-53482722D01*
X116625134Y-53482722D02*
X116510848Y-53482722D01*
X116510848Y-53482722D02*
X116453705Y-53511293D01*
X116453705Y-53511293D02*
X116425134Y-53539865D01*
X116425134Y-53539865D02*
X116367991Y-53625579D01*
X116367991Y-53625579D02*
X116339419Y-53739865D01*
X116339419Y-53739865D02*
X116339419Y-53968436D01*
X116339419Y-53968436D02*
X116367991Y-54025579D01*
X116367991Y-54025579D02*
X116396562Y-54054151D01*
X116396562Y-54054151D02*
X116453705Y-54082722D01*
X116453705Y-54082722D02*
X116567991Y-54082722D01*
X116567991Y-54082722D02*
X116625134Y-54054151D01*
X116625134Y-54054151D02*
X116653705Y-54025579D01*
X116653705Y-54025579D02*
X116682276Y-53968436D01*
X116682276Y-53968436D02*
X116682276Y-53825579D01*
X116682276Y-53825579D02*
X116653705Y-53768436D01*
X116653705Y-53768436D02*
X116625134Y-53739865D01*
X116625134Y-53739865D02*
X116567991Y-53711293D01*
X116567991Y-53711293D02*
X116453705Y-53711293D01*
X116453705Y-53711293D02*
X116396562Y-53739865D01*
X116396562Y-53739865D02*
X116367991Y-53768436D01*
X116367991Y-53768436D02*
X116339419Y-53825579D01*
X75450799Y-24118760D02*
X75536514Y-24147331D01*
X75536514Y-24147331D02*
X75679371Y-24147331D01*
X75679371Y-24147331D02*
X75736514Y-24118760D01*
X75736514Y-24118760D02*
X75765085Y-24090188D01*
X75765085Y-24090188D02*
X75793656Y-24033045D01*
X75793656Y-24033045D02*
X75793656Y-23975902D01*
X75793656Y-23975902D02*
X75765085Y-23918760D01*
X75765085Y-23918760D02*
X75736514Y-23890188D01*
X75736514Y-23890188D02*
X75679371Y-23861617D01*
X75679371Y-23861617D02*
X75565085Y-23833045D01*
X75565085Y-23833045D02*
X75507942Y-23804474D01*
X75507942Y-23804474D02*
X75479371Y-23775902D01*
X75479371Y-23775902D02*
X75450799Y-23718760D01*
X75450799Y-23718760D02*
X75450799Y-23661617D01*
X75450799Y-23661617D02*
X75479371Y-23604474D01*
X75479371Y-23604474D02*
X75507942Y-23575902D01*
X75507942Y-23575902D02*
X75565085Y-23547331D01*
X75565085Y-23547331D02*
X75707942Y-23547331D01*
X75707942Y-23547331D02*
X75793656Y-23575902D01*
X75993657Y-23547331D02*
X76136514Y-24147331D01*
X76136514Y-24147331D02*
X76250800Y-23718760D01*
X76250800Y-23718760D02*
X76365085Y-24147331D01*
X76365085Y-24147331D02*
X76507943Y-23547331D01*
X76707942Y-23604474D02*
X76736514Y-23575902D01*
X76736514Y-23575902D02*
X76793657Y-23547331D01*
X76793657Y-23547331D02*
X76936514Y-23547331D01*
X76936514Y-23547331D02*
X76993657Y-23575902D01*
X76993657Y-23575902D02*
X77022228Y-23604474D01*
X77022228Y-23604474D02*
X77050799Y-23661617D01*
X77050799Y-23661617D02*
X77050799Y-23718760D01*
X77050799Y-23718760D02*
X77022228Y-23804474D01*
X77022228Y-23804474D02*
X76679371Y-24147331D01*
X76679371Y-24147331D02*
X77050799Y-24147331D01*
X95814188Y-56759999D02*
X95842760Y-56788571D01*
X95842760Y-56788571D02*
X95871331Y-56874285D01*
X95871331Y-56874285D02*
X95871331Y-56931428D01*
X95871331Y-56931428D02*
X95842760Y-57017142D01*
X95842760Y-57017142D02*
X95785617Y-57074285D01*
X95785617Y-57074285D02*
X95728474Y-57102856D01*
X95728474Y-57102856D02*
X95614188Y-57131428D01*
X95614188Y-57131428D02*
X95528474Y-57131428D01*
X95528474Y-57131428D02*
X95414188Y-57102856D01*
X95414188Y-57102856D02*
X95357045Y-57074285D01*
X95357045Y-57074285D02*
X95299902Y-57017142D01*
X95299902Y-57017142D02*
X95271331Y-56931428D01*
X95271331Y-56931428D02*
X95271331Y-56874285D01*
X95271331Y-56874285D02*
X95299902Y-56788571D01*
X95299902Y-56788571D02*
X95328474Y-56759999D01*
X95471331Y-56245714D02*
X95871331Y-56245714D01*
X95242760Y-56388571D02*
X95671331Y-56531428D01*
X95671331Y-56531428D02*
X95671331Y-56159999D01*
X89465399Y-24023961D02*
X89551114Y-24052532D01*
X89551114Y-24052532D02*
X89693971Y-24052532D01*
X89693971Y-24052532D02*
X89751114Y-24023961D01*
X89751114Y-24023961D02*
X89779685Y-23995389D01*
X89779685Y-23995389D02*
X89808256Y-23938246D01*
X89808256Y-23938246D02*
X89808256Y-23881103D01*
X89808256Y-23881103D02*
X89779685Y-23823961D01*
X89779685Y-23823961D02*
X89751114Y-23795389D01*
X89751114Y-23795389D02*
X89693971Y-23766818D01*
X89693971Y-23766818D02*
X89579685Y-23738246D01*
X89579685Y-23738246D02*
X89522542Y-23709675D01*
X89522542Y-23709675D02*
X89493971Y-23681103D01*
X89493971Y-23681103D02*
X89465399Y-23623961D01*
X89465399Y-23623961D02*
X89465399Y-23566818D01*
X89465399Y-23566818D02*
X89493971Y-23509675D01*
X89493971Y-23509675D02*
X89522542Y-23481103D01*
X89522542Y-23481103D02*
X89579685Y-23452532D01*
X89579685Y-23452532D02*
X89722542Y-23452532D01*
X89722542Y-23452532D02*
X89808256Y-23481103D01*
X90008257Y-23452532D02*
X90151114Y-24052532D01*
X90151114Y-24052532D02*
X90265400Y-23623961D01*
X90265400Y-23623961D02*
X90379685Y-24052532D01*
X90379685Y-24052532D02*
X90522543Y-23452532D01*
X90836828Y-23709675D02*
X90779685Y-23681103D01*
X90779685Y-23681103D02*
X90751114Y-23652532D01*
X90751114Y-23652532D02*
X90722542Y-23595389D01*
X90722542Y-23595389D02*
X90722542Y-23566818D01*
X90722542Y-23566818D02*
X90751114Y-23509675D01*
X90751114Y-23509675D02*
X90779685Y-23481103D01*
X90779685Y-23481103D02*
X90836828Y-23452532D01*
X90836828Y-23452532D02*
X90951114Y-23452532D01*
X90951114Y-23452532D02*
X91008257Y-23481103D01*
X91008257Y-23481103D02*
X91036828Y-23509675D01*
X91036828Y-23509675D02*
X91065399Y-23566818D01*
X91065399Y-23566818D02*
X91065399Y-23595389D01*
X91065399Y-23595389D02*
X91036828Y-23652532D01*
X91036828Y-23652532D02*
X91008257Y-23681103D01*
X91008257Y-23681103D02*
X90951114Y-23709675D01*
X90951114Y-23709675D02*
X90836828Y-23709675D01*
X90836828Y-23709675D02*
X90779685Y-23738246D01*
X90779685Y-23738246D02*
X90751114Y-23766818D01*
X90751114Y-23766818D02*
X90722542Y-23823961D01*
X90722542Y-23823961D02*
X90722542Y-23938246D01*
X90722542Y-23938246D02*
X90751114Y-23995389D01*
X90751114Y-23995389D02*
X90779685Y-24023961D01*
X90779685Y-24023961D02*
X90836828Y-24052532D01*
X90836828Y-24052532D02*
X90951114Y-24052532D01*
X90951114Y-24052532D02*
X91008257Y-24023961D01*
X91008257Y-24023961D02*
X91036828Y-23995389D01*
X91036828Y-23995389D02*
X91065399Y-23938246D01*
X91065399Y-23938246D02*
X91065399Y-23823961D01*
X91065399Y-23823961D02*
X91036828Y-23766818D01*
X91036828Y-23766818D02*
X91008257Y-23738246D01*
X91008257Y-23738246D02*
X90951114Y-23709675D01*
X71081999Y-33846960D02*
X71167714Y-33875531D01*
X71167714Y-33875531D02*
X71310571Y-33875531D01*
X71310571Y-33875531D02*
X71367714Y-33846960D01*
X71367714Y-33846960D02*
X71396285Y-33818388D01*
X71396285Y-33818388D02*
X71424856Y-33761245D01*
X71424856Y-33761245D02*
X71424856Y-33704102D01*
X71424856Y-33704102D02*
X71396285Y-33646960D01*
X71396285Y-33646960D02*
X71367714Y-33618388D01*
X71367714Y-33618388D02*
X71310571Y-33589817D01*
X71310571Y-33589817D02*
X71196285Y-33561245D01*
X71196285Y-33561245D02*
X71139142Y-33532674D01*
X71139142Y-33532674D02*
X71110571Y-33504102D01*
X71110571Y-33504102D02*
X71081999Y-33446960D01*
X71081999Y-33446960D02*
X71081999Y-33389817D01*
X71081999Y-33389817D02*
X71110571Y-33332674D01*
X71110571Y-33332674D02*
X71139142Y-33304102D01*
X71139142Y-33304102D02*
X71196285Y-33275531D01*
X71196285Y-33275531D02*
X71339142Y-33275531D01*
X71339142Y-33275531D02*
X71424856Y-33304102D01*
X71624857Y-33275531D02*
X71767714Y-33875531D01*
X71767714Y-33875531D02*
X71882000Y-33446960D01*
X71882000Y-33446960D02*
X71996285Y-33875531D01*
X71996285Y-33875531D02*
X72139143Y-33275531D01*
X72653428Y-33275531D02*
X72367714Y-33275531D01*
X72367714Y-33275531D02*
X72339142Y-33561245D01*
X72339142Y-33561245D02*
X72367714Y-33532674D01*
X72367714Y-33532674D02*
X72424857Y-33504102D01*
X72424857Y-33504102D02*
X72567714Y-33504102D01*
X72567714Y-33504102D02*
X72624857Y-33532674D01*
X72624857Y-33532674D02*
X72653428Y-33561245D01*
X72653428Y-33561245D02*
X72681999Y-33618388D01*
X72681999Y-33618388D02*
X72681999Y-33761245D01*
X72681999Y-33761245D02*
X72653428Y-33818388D01*
X72653428Y-33818388D02*
X72624857Y-33846960D01*
X72624857Y-33846960D02*
X72567714Y-33875531D01*
X72567714Y-33875531D02*
X72424857Y-33875531D01*
X72424857Y-33875531D02*
X72367714Y-33846960D01*
X72367714Y-33846960D02*
X72339142Y-33818388D01*
X90627257Y-33478731D02*
X90627257Y-33964445D01*
X90627257Y-33964445D02*
X90655828Y-34021588D01*
X90655828Y-34021588D02*
X90684400Y-34050160D01*
X90684400Y-34050160D02*
X90741542Y-34078731D01*
X90741542Y-34078731D02*
X90855828Y-34078731D01*
X90855828Y-34078731D02*
X90912971Y-34050160D01*
X90912971Y-34050160D02*
X90941542Y-34021588D01*
X90941542Y-34021588D02*
X90970114Y-33964445D01*
X90970114Y-33964445D02*
X90970114Y-33478731D01*
X91541542Y-33478731D02*
X91255828Y-33478731D01*
X91255828Y-33478731D02*
X91227256Y-33764445D01*
X91227256Y-33764445D02*
X91255828Y-33735874D01*
X91255828Y-33735874D02*
X91312971Y-33707302D01*
X91312971Y-33707302D02*
X91455828Y-33707302D01*
X91455828Y-33707302D02*
X91512971Y-33735874D01*
X91512971Y-33735874D02*
X91541542Y-33764445D01*
X91541542Y-33764445D02*
X91570113Y-33821588D01*
X91570113Y-33821588D02*
X91570113Y-33964445D01*
X91570113Y-33964445D02*
X91541542Y-34021588D01*
X91541542Y-34021588D02*
X91512971Y-34050160D01*
X91512971Y-34050160D02*
X91455828Y-34078731D01*
X91455828Y-34078731D02*
X91312971Y-34078731D01*
X91312971Y-34078731D02*
X91255828Y-34050160D01*
X91255828Y-34050160D02*
X91227256Y-34021588D01*
X54764000Y-53223988D02*
X54735428Y-53252560D01*
X54735428Y-53252560D02*
X54649714Y-53281131D01*
X54649714Y-53281131D02*
X54592571Y-53281131D01*
X54592571Y-53281131D02*
X54506857Y-53252560D01*
X54506857Y-53252560D02*
X54449714Y-53195417D01*
X54449714Y-53195417D02*
X54421143Y-53138274D01*
X54421143Y-53138274D02*
X54392571Y-53023988D01*
X54392571Y-53023988D02*
X54392571Y-52938274D01*
X54392571Y-52938274D02*
X54421143Y-52823988D01*
X54421143Y-52823988D02*
X54449714Y-52766845D01*
X54449714Y-52766845D02*
X54506857Y-52709702D01*
X54506857Y-52709702D02*
X54592571Y-52681131D01*
X54592571Y-52681131D02*
X54649714Y-52681131D01*
X54649714Y-52681131D02*
X54735428Y-52709702D01*
X54735428Y-52709702D02*
X54764000Y-52738274D01*
X55106857Y-52938274D02*
X55049714Y-52909702D01*
X55049714Y-52909702D02*
X55021143Y-52881131D01*
X55021143Y-52881131D02*
X54992571Y-52823988D01*
X54992571Y-52823988D02*
X54992571Y-52795417D01*
X54992571Y-52795417D02*
X55021143Y-52738274D01*
X55021143Y-52738274D02*
X55049714Y-52709702D01*
X55049714Y-52709702D02*
X55106857Y-52681131D01*
X55106857Y-52681131D02*
X55221143Y-52681131D01*
X55221143Y-52681131D02*
X55278286Y-52709702D01*
X55278286Y-52709702D02*
X55306857Y-52738274D01*
X55306857Y-52738274D02*
X55335428Y-52795417D01*
X55335428Y-52795417D02*
X55335428Y-52823988D01*
X55335428Y-52823988D02*
X55306857Y-52881131D01*
X55306857Y-52881131D02*
X55278286Y-52909702D01*
X55278286Y-52909702D02*
X55221143Y-52938274D01*
X55221143Y-52938274D02*
X55106857Y-52938274D01*
X55106857Y-52938274D02*
X55049714Y-52966845D01*
X55049714Y-52966845D02*
X55021143Y-52995417D01*
X55021143Y-52995417D02*
X54992571Y-53052560D01*
X54992571Y-53052560D02*
X54992571Y-53166845D01*
X54992571Y-53166845D02*
X55021143Y-53223988D01*
X55021143Y-53223988D02*
X55049714Y-53252560D01*
X55049714Y-53252560D02*
X55106857Y-53281131D01*
X55106857Y-53281131D02*
X55221143Y-53281131D01*
X55221143Y-53281131D02*
X55278286Y-53252560D01*
X55278286Y-53252560D02*
X55306857Y-53223988D01*
X55306857Y-53223988D02*
X55335428Y-53166845D01*
X55335428Y-53166845D02*
X55335428Y-53052560D01*
X55335428Y-53052560D02*
X55306857Y-52995417D01*
X55306857Y-52995417D02*
X55278286Y-52966845D01*
X55278286Y-52966845D02*
X55221143Y-52938274D01*
X88819085Y-33843788D02*
X88790513Y-33872360D01*
X88790513Y-33872360D02*
X88704799Y-33900931D01*
X88704799Y-33900931D02*
X88647656Y-33900931D01*
X88647656Y-33900931D02*
X88561942Y-33872360D01*
X88561942Y-33872360D02*
X88504799Y-33815217D01*
X88504799Y-33815217D02*
X88476228Y-33758074D01*
X88476228Y-33758074D02*
X88447656Y-33643788D01*
X88447656Y-33643788D02*
X88447656Y-33558074D01*
X88447656Y-33558074D02*
X88476228Y-33443788D01*
X88476228Y-33443788D02*
X88504799Y-33386645D01*
X88504799Y-33386645D02*
X88561942Y-33329502D01*
X88561942Y-33329502D02*
X88647656Y-33300931D01*
X88647656Y-33300931D02*
X88704799Y-33300931D01*
X88704799Y-33300931D02*
X88790513Y-33329502D01*
X88790513Y-33329502D02*
X88819085Y-33358074D01*
X89047656Y-33358074D02*
X89076228Y-33329502D01*
X89076228Y-33329502D02*
X89133371Y-33300931D01*
X89133371Y-33300931D02*
X89276228Y-33300931D01*
X89276228Y-33300931D02*
X89333371Y-33329502D01*
X89333371Y-33329502D02*
X89361942Y-33358074D01*
X89361942Y-33358074D02*
X89390513Y-33415217D01*
X89390513Y-33415217D02*
X89390513Y-33472360D01*
X89390513Y-33472360D02*
X89361942Y-33558074D01*
X89361942Y-33558074D02*
X89019085Y-33900931D01*
X89019085Y-33900931D02*
X89390513Y-33900931D01*
X89590514Y-33300931D02*
X89990514Y-33300931D01*
X89990514Y-33300931D02*
X89733371Y-33900931D01*
X75121999Y-51366868D02*
X75321999Y-51652582D01*
X75464856Y-51366868D02*
X75464856Y-51966868D01*
X75464856Y-51966868D02*
X75236285Y-51966868D01*
X75236285Y-51966868D02*
X75179142Y-51938297D01*
X75179142Y-51938297D02*
X75150571Y-51909725D01*
X75150571Y-51909725D02*
X75121999Y-51852582D01*
X75121999Y-51852582D02*
X75121999Y-51766868D01*
X75121999Y-51766868D02*
X75150571Y-51709725D01*
X75150571Y-51709725D02*
X75179142Y-51681154D01*
X75179142Y-51681154D02*
X75236285Y-51652582D01*
X75236285Y-51652582D02*
X75464856Y-51652582D01*
X74550571Y-51938297D02*
X74607714Y-51966868D01*
X74607714Y-51966868D02*
X74693428Y-51966868D01*
X74693428Y-51966868D02*
X74779142Y-51938297D01*
X74779142Y-51938297D02*
X74836285Y-51881154D01*
X74836285Y-51881154D02*
X74864856Y-51824011D01*
X74864856Y-51824011D02*
X74893428Y-51709725D01*
X74893428Y-51709725D02*
X74893428Y-51624011D01*
X74893428Y-51624011D02*
X74864856Y-51509725D01*
X74864856Y-51509725D02*
X74836285Y-51452582D01*
X74836285Y-51452582D02*
X74779142Y-51395440D01*
X74779142Y-51395440D02*
X74693428Y-51366868D01*
X74693428Y-51366868D02*
X74636285Y-51366868D01*
X74636285Y-51366868D02*
X74550571Y-51395440D01*
X74550571Y-51395440D02*
X74521999Y-51424011D01*
X74521999Y-51424011D02*
X74521999Y-51624011D01*
X74521999Y-51624011D02*
X74636285Y-51624011D01*
X74064856Y-51681154D02*
X73979142Y-51652582D01*
X73979142Y-51652582D02*
X73950571Y-51624011D01*
X73950571Y-51624011D02*
X73921999Y-51566868D01*
X73921999Y-51566868D02*
X73921999Y-51481154D01*
X73921999Y-51481154D02*
X73950571Y-51424011D01*
X73950571Y-51424011D02*
X73979142Y-51395440D01*
X73979142Y-51395440D02*
X74036285Y-51366868D01*
X74036285Y-51366868D02*
X74264856Y-51366868D01*
X74264856Y-51366868D02*
X74264856Y-51966868D01*
X74264856Y-51966868D02*
X74064856Y-51966868D01*
X74064856Y-51966868D02*
X74007714Y-51938297D01*
X74007714Y-51938297D02*
X73979142Y-51909725D01*
X73979142Y-51909725D02*
X73950571Y-51852582D01*
X73950571Y-51852582D02*
X73950571Y-51795440D01*
X73950571Y-51795440D02*
X73979142Y-51738297D01*
X73979142Y-51738297D02*
X74007714Y-51709725D01*
X74007714Y-51709725D02*
X74064856Y-51681154D01*
X74064856Y-51681154D02*
X74264856Y-51681154D01*
X73721999Y-51966868D02*
X73321999Y-51966868D01*
X73321999Y-51966868D02*
X73579142Y-51366868D01*
X39365285Y-53147788D02*
X39336713Y-53176360D01*
X39336713Y-53176360D02*
X39250999Y-53204931D01*
X39250999Y-53204931D02*
X39193856Y-53204931D01*
X39193856Y-53204931D02*
X39108142Y-53176360D01*
X39108142Y-53176360D02*
X39050999Y-53119217D01*
X39050999Y-53119217D02*
X39022428Y-53062074D01*
X39022428Y-53062074D02*
X38993856Y-52947788D01*
X38993856Y-52947788D02*
X38993856Y-52862074D01*
X38993856Y-52862074D02*
X39022428Y-52747788D01*
X39022428Y-52747788D02*
X39050999Y-52690645D01*
X39050999Y-52690645D02*
X39108142Y-52633502D01*
X39108142Y-52633502D02*
X39193856Y-52604931D01*
X39193856Y-52604931D02*
X39250999Y-52604931D01*
X39250999Y-52604931D02*
X39336713Y-52633502D01*
X39336713Y-52633502D02*
X39365285Y-52662074D01*
X39936713Y-53204931D02*
X39593856Y-53204931D01*
X39765285Y-53204931D02*
X39765285Y-52604931D01*
X39765285Y-52604931D02*
X39708142Y-52690645D01*
X39708142Y-52690645D02*
X39650999Y-52747788D01*
X39650999Y-52747788D02*
X39593856Y-52776360D01*
X40136714Y-52604931D02*
X40536714Y-52604931D01*
X40536714Y-52604931D02*
X40279571Y-53204931D01*
X56840485Y-34114588D02*
X56811913Y-34143160D01*
X56811913Y-34143160D02*
X56726199Y-34171731D01*
X56726199Y-34171731D02*
X56669056Y-34171731D01*
X56669056Y-34171731D02*
X56583342Y-34143160D01*
X56583342Y-34143160D02*
X56526199Y-34086017D01*
X56526199Y-34086017D02*
X56497628Y-34028874D01*
X56497628Y-34028874D02*
X56469056Y-33914588D01*
X56469056Y-33914588D02*
X56469056Y-33828874D01*
X56469056Y-33828874D02*
X56497628Y-33714588D01*
X56497628Y-33714588D02*
X56526199Y-33657445D01*
X56526199Y-33657445D02*
X56583342Y-33600302D01*
X56583342Y-33600302D02*
X56669056Y-33571731D01*
X56669056Y-33571731D02*
X56726199Y-33571731D01*
X56726199Y-33571731D02*
X56811913Y-33600302D01*
X56811913Y-33600302D02*
X56840485Y-33628874D01*
X57069056Y-33628874D02*
X57097628Y-33600302D01*
X57097628Y-33600302D02*
X57154771Y-33571731D01*
X57154771Y-33571731D02*
X57297628Y-33571731D01*
X57297628Y-33571731D02*
X57354771Y-33600302D01*
X57354771Y-33600302D02*
X57383342Y-33628874D01*
X57383342Y-33628874D02*
X57411913Y-33686017D01*
X57411913Y-33686017D02*
X57411913Y-33743160D01*
X57411913Y-33743160D02*
X57383342Y-33828874D01*
X57383342Y-33828874D02*
X57040485Y-34171731D01*
X57040485Y-34171731D02*
X57411913Y-34171731D01*
X57926200Y-33771731D02*
X57926200Y-34171731D01*
X57783342Y-33543160D02*
X57640485Y-33971731D01*
X57640485Y-33971731D02*
X58011914Y-33971731D01*
X83376999Y-51392268D02*
X83576999Y-51677982D01*
X83719856Y-51392268D02*
X83719856Y-51992268D01*
X83719856Y-51992268D02*
X83491285Y-51992268D01*
X83491285Y-51992268D02*
X83434142Y-51963697D01*
X83434142Y-51963697D02*
X83405571Y-51935125D01*
X83405571Y-51935125D02*
X83376999Y-51877982D01*
X83376999Y-51877982D02*
X83376999Y-51792268D01*
X83376999Y-51792268D02*
X83405571Y-51735125D01*
X83405571Y-51735125D02*
X83434142Y-51706554D01*
X83434142Y-51706554D02*
X83491285Y-51677982D01*
X83491285Y-51677982D02*
X83719856Y-51677982D01*
X82805571Y-51963697D02*
X82862714Y-51992268D01*
X82862714Y-51992268D02*
X82948428Y-51992268D01*
X82948428Y-51992268D02*
X83034142Y-51963697D01*
X83034142Y-51963697D02*
X83091285Y-51906554D01*
X83091285Y-51906554D02*
X83119856Y-51849411D01*
X83119856Y-51849411D02*
X83148428Y-51735125D01*
X83148428Y-51735125D02*
X83148428Y-51649411D01*
X83148428Y-51649411D02*
X83119856Y-51535125D01*
X83119856Y-51535125D02*
X83091285Y-51477982D01*
X83091285Y-51477982D02*
X83034142Y-51420840D01*
X83034142Y-51420840D02*
X82948428Y-51392268D01*
X82948428Y-51392268D02*
X82891285Y-51392268D01*
X82891285Y-51392268D02*
X82805571Y-51420840D01*
X82805571Y-51420840D02*
X82776999Y-51449411D01*
X82776999Y-51449411D02*
X82776999Y-51649411D01*
X82776999Y-51649411D02*
X82891285Y-51649411D01*
X82319856Y-51706554D02*
X82234142Y-51677982D01*
X82234142Y-51677982D02*
X82205571Y-51649411D01*
X82205571Y-51649411D02*
X82176999Y-51592268D01*
X82176999Y-51592268D02*
X82176999Y-51506554D01*
X82176999Y-51506554D02*
X82205571Y-51449411D01*
X82205571Y-51449411D02*
X82234142Y-51420840D01*
X82234142Y-51420840D02*
X82291285Y-51392268D01*
X82291285Y-51392268D02*
X82519856Y-51392268D01*
X82519856Y-51392268D02*
X82519856Y-51992268D01*
X82519856Y-51992268D02*
X82319856Y-51992268D01*
X82319856Y-51992268D02*
X82262714Y-51963697D01*
X82262714Y-51963697D02*
X82234142Y-51935125D01*
X82234142Y-51935125D02*
X82205571Y-51877982D01*
X82205571Y-51877982D02*
X82205571Y-51820840D01*
X82205571Y-51820840D02*
X82234142Y-51763697D01*
X82234142Y-51763697D02*
X82262714Y-51735125D01*
X82262714Y-51735125D02*
X82319856Y-51706554D01*
X82319856Y-51706554D02*
X82519856Y-51706554D01*
X81634142Y-51992268D02*
X81919856Y-51992268D01*
X81919856Y-51992268D02*
X81948428Y-51706554D01*
X81948428Y-51706554D02*
X81919856Y-51735125D01*
X81919856Y-51735125D02*
X81862714Y-51763697D01*
X81862714Y-51763697D02*
X81719856Y-51763697D01*
X81719856Y-51763697D02*
X81662714Y-51735125D01*
X81662714Y-51735125D02*
X81634142Y-51706554D01*
X81634142Y-51706554D02*
X81605571Y-51649411D01*
X81605571Y-51649411D02*
X81605571Y-51506554D01*
X81605571Y-51506554D02*
X81634142Y-51449411D01*
X81634142Y-51449411D02*
X81662714Y-51420840D01*
X81662714Y-51420840D02*
X81719856Y-51392268D01*
X81719856Y-51392268D02*
X81862714Y-51392268D01*
X81862714Y-51392268D02*
X81919856Y-51420840D01*
X81919856Y-51420840D02*
X81948428Y-51449411D01*
X48798285Y-55008331D02*
X48598285Y-54722617D01*
X48455428Y-55008331D02*
X48455428Y-54408331D01*
X48455428Y-54408331D02*
X48683999Y-54408331D01*
X48683999Y-54408331D02*
X48741142Y-54436902D01*
X48741142Y-54436902D02*
X48769713Y-54465474D01*
X48769713Y-54465474D02*
X48798285Y-54522617D01*
X48798285Y-54522617D02*
X48798285Y-54608331D01*
X48798285Y-54608331D02*
X48769713Y-54665474D01*
X48769713Y-54665474D02*
X48741142Y-54694045D01*
X48741142Y-54694045D02*
X48683999Y-54722617D01*
X48683999Y-54722617D02*
X48455428Y-54722617D01*
X49369713Y-54436902D02*
X49312571Y-54408331D01*
X49312571Y-54408331D02*
X49226856Y-54408331D01*
X49226856Y-54408331D02*
X49141142Y-54436902D01*
X49141142Y-54436902D02*
X49083999Y-54494045D01*
X49083999Y-54494045D02*
X49055428Y-54551188D01*
X49055428Y-54551188D02*
X49026856Y-54665474D01*
X49026856Y-54665474D02*
X49026856Y-54751188D01*
X49026856Y-54751188D02*
X49055428Y-54865474D01*
X49055428Y-54865474D02*
X49083999Y-54922617D01*
X49083999Y-54922617D02*
X49141142Y-54979760D01*
X49141142Y-54979760D02*
X49226856Y-55008331D01*
X49226856Y-55008331D02*
X49283999Y-55008331D01*
X49283999Y-55008331D02*
X49369713Y-54979760D01*
X49369713Y-54979760D02*
X49398285Y-54951188D01*
X49398285Y-54951188D02*
X49398285Y-54751188D01*
X49398285Y-54751188D02*
X49283999Y-54751188D01*
X49855428Y-54694045D02*
X49941142Y-54722617D01*
X49941142Y-54722617D02*
X49969713Y-54751188D01*
X49969713Y-54751188D02*
X49998285Y-54808331D01*
X49998285Y-54808331D02*
X49998285Y-54894045D01*
X49998285Y-54894045D02*
X49969713Y-54951188D01*
X49969713Y-54951188D02*
X49941142Y-54979760D01*
X49941142Y-54979760D02*
X49883999Y-55008331D01*
X49883999Y-55008331D02*
X49655428Y-55008331D01*
X49655428Y-55008331D02*
X49655428Y-54408331D01*
X49655428Y-54408331D02*
X49855428Y-54408331D01*
X49855428Y-54408331D02*
X49912571Y-54436902D01*
X49912571Y-54436902D02*
X49941142Y-54465474D01*
X49941142Y-54465474D02*
X49969713Y-54522617D01*
X49969713Y-54522617D02*
X49969713Y-54579760D01*
X49969713Y-54579760D02*
X49941142Y-54636902D01*
X49941142Y-54636902D02*
X49912571Y-54665474D01*
X49912571Y-54665474D02*
X49855428Y-54694045D01*
X49855428Y-54694045D02*
X49655428Y-54694045D01*
X50569713Y-55008331D02*
X50226856Y-55008331D01*
X50398285Y-55008331D02*
X50398285Y-54408331D01*
X50398285Y-54408331D02*
X50341142Y-54494045D01*
X50341142Y-54494045D02*
X50283999Y-54551188D01*
X50283999Y-54551188D02*
X50226856Y-54579760D01*
X50798285Y-54465474D02*
X50826857Y-54436902D01*
X50826857Y-54436902D02*
X50884000Y-54408331D01*
X50884000Y-54408331D02*
X51026857Y-54408331D01*
X51026857Y-54408331D02*
X51084000Y-54436902D01*
X51084000Y-54436902D02*
X51112571Y-54465474D01*
X51112571Y-54465474D02*
X51141142Y-54522617D01*
X51141142Y-54522617D02*
X51141142Y-54579760D01*
X51141142Y-54579760D02*
X51112571Y-54665474D01*
X51112571Y-54665474D02*
X50769714Y-55008331D01*
X50769714Y-55008331D02*
X51141142Y-55008331D01*
X56592731Y-56667342D02*
X57078445Y-56667342D01*
X57078445Y-56667342D02*
X57135588Y-56638771D01*
X57135588Y-56638771D02*
X57164160Y-56610200D01*
X57164160Y-56610200D02*
X57192731Y-56553057D01*
X57192731Y-56553057D02*
X57192731Y-56438771D01*
X57192731Y-56438771D02*
X57164160Y-56381628D01*
X57164160Y-56381628D02*
X57135588Y-56353057D01*
X57135588Y-56353057D02*
X57078445Y-56324485D01*
X57078445Y-56324485D02*
X56592731Y-56324485D01*
X57192731Y-56010200D02*
X57192731Y-55895914D01*
X57192731Y-55895914D02*
X57164160Y-55838771D01*
X57164160Y-55838771D02*
X57135588Y-55810200D01*
X57135588Y-55810200D02*
X57049874Y-55753057D01*
X57049874Y-55753057D02*
X56935588Y-55724486D01*
X56935588Y-55724486D02*
X56707017Y-55724486D01*
X56707017Y-55724486D02*
X56649874Y-55753057D01*
X56649874Y-55753057D02*
X56621302Y-55781629D01*
X56621302Y-55781629D02*
X56592731Y-55838771D01*
X56592731Y-55838771D02*
X56592731Y-55953057D01*
X56592731Y-55953057D02*
X56621302Y-56010200D01*
X56621302Y-56010200D02*
X56649874Y-56038771D01*
X56649874Y-56038771D02*
X56707017Y-56067343D01*
X56707017Y-56067343D02*
X56849874Y-56067343D01*
X56849874Y-56067343D02*
X56907017Y-56038771D01*
X56907017Y-56038771D02*
X56935588Y-56010200D01*
X56935588Y-56010200D02*
X56964160Y-55953057D01*
X56964160Y-55953057D02*
X56964160Y-55838771D01*
X56964160Y-55838771D02*
X56935588Y-55781629D01*
X56935588Y-55781629D02*
X56907017Y-55753057D01*
X56907017Y-55753057D02*
X56849874Y-55724486D01*
X108773788Y-46708999D02*
X108802360Y-46737571D01*
X108802360Y-46737571D02*
X108830931Y-46823285D01*
X108830931Y-46823285D02*
X108830931Y-46880428D01*
X108830931Y-46880428D02*
X108802360Y-46966142D01*
X108802360Y-46966142D02*
X108745217Y-47023285D01*
X108745217Y-47023285D02*
X108688074Y-47051856D01*
X108688074Y-47051856D02*
X108573788Y-47080428D01*
X108573788Y-47080428D02*
X108488074Y-47080428D01*
X108488074Y-47080428D02*
X108373788Y-47051856D01*
X108373788Y-47051856D02*
X108316645Y-47023285D01*
X108316645Y-47023285D02*
X108259502Y-46966142D01*
X108259502Y-46966142D02*
X108230931Y-46880428D01*
X108230931Y-46880428D02*
X108230931Y-46823285D01*
X108230931Y-46823285D02*
X108259502Y-46737571D01*
X108259502Y-46737571D02*
X108288074Y-46708999D01*
X108230931Y-46508999D02*
X108230931Y-46137571D01*
X108230931Y-46137571D02*
X108459502Y-46337571D01*
X108459502Y-46337571D02*
X108459502Y-46251856D01*
X108459502Y-46251856D02*
X108488074Y-46194714D01*
X108488074Y-46194714D02*
X108516645Y-46166142D01*
X108516645Y-46166142D02*
X108573788Y-46137571D01*
X108573788Y-46137571D02*
X108716645Y-46137571D01*
X108716645Y-46137571D02*
X108773788Y-46166142D01*
X108773788Y-46166142D02*
X108802360Y-46194714D01*
X108802360Y-46194714D02*
X108830931Y-46251856D01*
X108830931Y-46251856D02*
X108830931Y-46423285D01*
X108830931Y-46423285D02*
X108802360Y-46480428D01*
X108802360Y-46480428D02*
X108773788Y-46508999D01*
X95169085Y-34148588D02*
X95140513Y-34177160D01*
X95140513Y-34177160D02*
X95054799Y-34205731D01*
X95054799Y-34205731D02*
X94997656Y-34205731D01*
X94997656Y-34205731D02*
X94911942Y-34177160D01*
X94911942Y-34177160D02*
X94854799Y-34120017D01*
X94854799Y-34120017D02*
X94826228Y-34062874D01*
X94826228Y-34062874D02*
X94797656Y-33948588D01*
X94797656Y-33948588D02*
X94797656Y-33862874D01*
X94797656Y-33862874D02*
X94826228Y-33748588D01*
X94826228Y-33748588D02*
X94854799Y-33691445D01*
X94854799Y-33691445D02*
X94911942Y-33634302D01*
X94911942Y-33634302D02*
X94997656Y-33605731D01*
X94997656Y-33605731D02*
X95054799Y-33605731D01*
X95054799Y-33605731D02*
X95140513Y-33634302D01*
X95140513Y-33634302D02*
X95169085Y-33662874D01*
X95397656Y-33662874D02*
X95426228Y-33634302D01*
X95426228Y-33634302D02*
X95483371Y-33605731D01*
X95483371Y-33605731D02*
X95626228Y-33605731D01*
X95626228Y-33605731D02*
X95683371Y-33634302D01*
X95683371Y-33634302D02*
X95711942Y-33662874D01*
X95711942Y-33662874D02*
X95740513Y-33720017D01*
X95740513Y-33720017D02*
X95740513Y-33777160D01*
X95740513Y-33777160D02*
X95711942Y-33862874D01*
X95711942Y-33862874D02*
X95369085Y-34205731D01*
X95369085Y-34205731D02*
X95740513Y-34205731D01*
X96283371Y-33605731D02*
X95997657Y-33605731D01*
X95997657Y-33605731D02*
X95969085Y-33891445D01*
X95969085Y-33891445D02*
X95997657Y-33862874D01*
X95997657Y-33862874D02*
X96054800Y-33834302D01*
X96054800Y-33834302D02*
X96197657Y-33834302D01*
X96197657Y-33834302D02*
X96254800Y-33862874D01*
X96254800Y-33862874D02*
X96283371Y-33891445D01*
X96283371Y-33891445D02*
X96311942Y-33948588D01*
X96311942Y-33948588D02*
X96311942Y-34091445D01*
X96311942Y-34091445D02*
X96283371Y-34148588D01*
X96283371Y-34148588D02*
X96254800Y-34177160D01*
X96254800Y-34177160D02*
X96197657Y-34205731D01*
X96197657Y-34205731D02*
X96054800Y-34205731D01*
X96054800Y-34205731D02*
X95997657Y-34177160D01*
X95997657Y-34177160D02*
X95969085Y-34148588D01*
X108773788Y-66317799D02*
X108802360Y-66346371D01*
X108802360Y-66346371D02*
X108830931Y-66432085D01*
X108830931Y-66432085D02*
X108830931Y-66489228D01*
X108830931Y-66489228D02*
X108802360Y-66574942D01*
X108802360Y-66574942D02*
X108745217Y-66632085D01*
X108745217Y-66632085D02*
X108688074Y-66660656D01*
X108688074Y-66660656D02*
X108573788Y-66689228D01*
X108573788Y-66689228D02*
X108488074Y-66689228D01*
X108488074Y-66689228D02*
X108373788Y-66660656D01*
X108373788Y-66660656D02*
X108316645Y-66632085D01*
X108316645Y-66632085D02*
X108259502Y-66574942D01*
X108259502Y-66574942D02*
X108230931Y-66489228D01*
X108230931Y-66489228D02*
X108230931Y-66432085D01*
X108230931Y-66432085D02*
X108259502Y-66346371D01*
X108259502Y-66346371D02*
X108288074Y-66317799D01*
X108230931Y-65803514D02*
X108230931Y-65917799D01*
X108230931Y-65917799D02*
X108259502Y-65974942D01*
X108259502Y-65974942D02*
X108288074Y-66003514D01*
X108288074Y-66003514D02*
X108373788Y-66060656D01*
X108373788Y-66060656D02*
X108488074Y-66089228D01*
X108488074Y-66089228D02*
X108716645Y-66089228D01*
X108716645Y-66089228D02*
X108773788Y-66060656D01*
X108773788Y-66060656D02*
X108802360Y-66032085D01*
X108802360Y-66032085D02*
X108830931Y-65974942D01*
X108830931Y-65974942D02*
X108830931Y-65860656D01*
X108830931Y-65860656D02*
X108802360Y-65803514D01*
X108802360Y-65803514D02*
X108773788Y-65774942D01*
X108773788Y-65774942D02*
X108716645Y-65746371D01*
X108716645Y-65746371D02*
X108573788Y-65746371D01*
X108573788Y-65746371D02*
X108516645Y-65774942D01*
X108516645Y-65774942D02*
X108488074Y-65803514D01*
X108488074Y-65803514D02*
X108459502Y-65860656D01*
X108459502Y-65860656D02*
X108459502Y-65974942D01*
X108459502Y-65974942D02*
X108488074Y-66032085D01*
X108488074Y-66032085D02*
X108516645Y-66060656D01*
X108516645Y-66060656D02*
X108573788Y-66089228D01*
X70956399Y-51417668D02*
X71156399Y-51703382D01*
X71299256Y-51417668D02*
X71299256Y-52017668D01*
X71299256Y-52017668D02*
X71070685Y-52017668D01*
X71070685Y-52017668D02*
X71013542Y-51989097D01*
X71013542Y-51989097D02*
X70984971Y-51960525D01*
X70984971Y-51960525D02*
X70956399Y-51903382D01*
X70956399Y-51903382D02*
X70956399Y-51817668D01*
X70956399Y-51817668D02*
X70984971Y-51760525D01*
X70984971Y-51760525D02*
X71013542Y-51731954D01*
X71013542Y-51731954D02*
X71070685Y-51703382D01*
X71070685Y-51703382D02*
X71299256Y-51703382D01*
X70384971Y-51989097D02*
X70442114Y-52017668D01*
X70442114Y-52017668D02*
X70527828Y-52017668D01*
X70527828Y-52017668D02*
X70613542Y-51989097D01*
X70613542Y-51989097D02*
X70670685Y-51931954D01*
X70670685Y-51931954D02*
X70699256Y-51874811D01*
X70699256Y-51874811D02*
X70727828Y-51760525D01*
X70727828Y-51760525D02*
X70727828Y-51674811D01*
X70727828Y-51674811D02*
X70699256Y-51560525D01*
X70699256Y-51560525D02*
X70670685Y-51503382D01*
X70670685Y-51503382D02*
X70613542Y-51446240D01*
X70613542Y-51446240D02*
X70527828Y-51417668D01*
X70527828Y-51417668D02*
X70470685Y-51417668D01*
X70470685Y-51417668D02*
X70384971Y-51446240D01*
X70384971Y-51446240D02*
X70356399Y-51474811D01*
X70356399Y-51474811D02*
X70356399Y-51674811D01*
X70356399Y-51674811D02*
X70470685Y-51674811D01*
X69899256Y-51731954D02*
X69813542Y-51703382D01*
X69813542Y-51703382D02*
X69784971Y-51674811D01*
X69784971Y-51674811D02*
X69756399Y-51617668D01*
X69756399Y-51617668D02*
X69756399Y-51531954D01*
X69756399Y-51531954D02*
X69784971Y-51474811D01*
X69784971Y-51474811D02*
X69813542Y-51446240D01*
X69813542Y-51446240D02*
X69870685Y-51417668D01*
X69870685Y-51417668D02*
X70099256Y-51417668D01*
X70099256Y-51417668D02*
X70099256Y-52017668D01*
X70099256Y-52017668D02*
X69899256Y-52017668D01*
X69899256Y-52017668D02*
X69842114Y-51989097D01*
X69842114Y-51989097D02*
X69813542Y-51960525D01*
X69813542Y-51960525D02*
X69784971Y-51903382D01*
X69784971Y-51903382D02*
X69784971Y-51846240D01*
X69784971Y-51846240D02*
X69813542Y-51789097D01*
X69813542Y-51789097D02*
X69842114Y-51760525D01*
X69842114Y-51760525D02*
X69899256Y-51731954D01*
X69899256Y-51731954D02*
X70099256Y-51731954D01*
X69413542Y-51760525D02*
X69470685Y-51789097D01*
X69470685Y-51789097D02*
X69499256Y-51817668D01*
X69499256Y-51817668D02*
X69527828Y-51874811D01*
X69527828Y-51874811D02*
X69527828Y-51903382D01*
X69527828Y-51903382D02*
X69499256Y-51960525D01*
X69499256Y-51960525D02*
X69470685Y-51989097D01*
X69470685Y-51989097D02*
X69413542Y-52017668D01*
X69413542Y-52017668D02*
X69299256Y-52017668D01*
X69299256Y-52017668D02*
X69242114Y-51989097D01*
X69242114Y-51989097D02*
X69213542Y-51960525D01*
X69213542Y-51960525D02*
X69184971Y-51903382D01*
X69184971Y-51903382D02*
X69184971Y-51874811D01*
X69184971Y-51874811D02*
X69213542Y-51817668D01*
X69213542Y-51817668D02*
X69242114Y-51789097D01*
X69242114Y-51789097D02*
X69299256Y-51760525D01*
X69299256Y-51760525D02*
X69413542Y-51760525D01*
X69413542Y-51760525D02*
X69470685Y-51731954D01*
X69470685Y-51731954D02*
X69499256Y-51703382D01*
X69499256Y-51703382D02*
X69527828Y-51646240D01*
X69527828Y-51646240D02*
X69527828Y-51531954D01*
X69527828Y-51531954D02*
X69499256Y-51474811D01*
X69499256Y-51474811D02*
X69470685Y-51446240D01*
X69470685Y-51446240D02*
X69413542Y-51417668D01*
X69413542Y-51417668D02*
X69299256Y-51417668D01*
X69299256Y-51417668D02*
X69242114Y-51446240D01*
X69242114Y-51446240D02*
X69213542Y-51474811D01*
X69213542Y-51474811D02*
X69184971Y-51531954D01*
X69184971Y-51531954D02*
X69184971Y-51646240D01*
X69184971Y-51646240D02*
X69213542Y-51703382D01*
X69213542Y-51703382D02*
X69242114Y-51731954D01*
X69242114Y-51731954D02*
X69299256Y-51760525D01*
X44029188Y-64647714D02*
X44057760Y-64676286D01*
X44057760Y-64676286D02*
X44086331Y-64762000D01*
X44086331Y-64762000D02*
X44086331Y-64819143D01*
X44086331Y-64819143D02*
X44057760Y-64904857D01*
X44057760Y-64904857D02*
X44000617Y-64962000D01*
X44000617Y-64962000D02*
X43943474Y-64990571D01*
X43943474Y-64990571D02*
X43829188Y-65019143D01*
X43829188Y-65019143D02*
X43743474Y-65019143D01*
X43743474Y-65019143D02*
X43629188Y-64990571D01*
X43629188Y-64990571D02*
X43572045Y-64962000D01*
X43572045Y-64962000D02*
X43514902Y-64904857D01*
X43514902Y-64904857D02*
X43486331Y-64819143D01*
X43486331Y-64819143D02*
X43486331Y-64762000D01*
X43486331Y-64762000D02*
X43514902Y-64676286D01*
X43514902Y-64676286D02*
X43543474Y-64647714D01*
X44086331Y-64076286D02*
X44086331Y-64419143D01*
X44086331Y-64247714D02*
X43486331Y-64247714D01*
X43486331Y-64247714D02*
X43572045Y-64304857D01*
X43572045Y-64304857D02*
X43629188Y-64362000D01*
X43629188Y-64362000D02*
X43657760Y-64419143D01*
X43743474Y-63733428D02*
X43714902Y-63790571D01*
X43714902Y-63790571D02*
X43686331Y-63819142D01*
X43686331Y-63819142D02*
X43629188Y-63847714D01*
X43629188Y-63847714D02*
X43600617Y-63847714D01*
X43600617Y-63847714D02*
X43543474Y-63819142D01*
X43543474Y-63819142D02*
X43514902Y-63790571D01*
X43514902Y-63790571D02*
X43486331Y-63733428D01*
X43486331Y-63733428D02*
X43486331Y-63619142D01*
X43486331Y-63619142D02*
X43514902Y-63562000D01*
X43514902Y-63562000D02*
X43543474Y-63533428D01*
X43543474Y-63533428D02*
X43600617Y-63504857D01*
X43600617Y-63504857D02*
X43629188Y-63504857D01*
X43629188Y-63504857D02*
X43686331Y-63533428D01*
X43686331Y-63533428D02*
X43714902Y-63562000D01*
X43714902Y-63562000D02*
X43743474Y-63619142D01*
X43743474Y-63619142D02*
X43743474Y-63733428D01*
X43743474Y-63733428D02*
X43772045Y-63790571D01*
X43772045Y-63790571D02*
X43800617Y-63819142D01*
X43800617Y-63819142D02*
X43857760Y-63847714D01*
X43857760Y-63847714D02*
X43972045Y-63847714D01*
X43972045Y-63847714D02*
X44029188Y-63819142D01*
X44029188Y-63819142D02*
X44057760Y-63790571D01*
X44057760Y-63790571D02*
X44086331Y-63733428D01*
X44086331Y-63733428D02*
X44086331Y-63619142D01*
X44086331Y-63619142D02*
X44057760Y-63562000D01*
X44057760Y-63562000D02*
X44029188Y-63533428D01*
X44029188Y-63533428D02*
X43972045Y-63504857D01*
X43972045Y-63504857D02*
X43857760Y-63504857D01*
X43857760Y-63504857D02*
X43800617Y-63533428D01*
X43800617Y-63533428D02*
X43772045Y-63562000D01*
X43772045Y-63562000D02*
X43743474Y-63619142D01*
X116444800Y-61561531D02*
X116244800Y-61275817D01*
X116101943Y-61561531D02*
X116101943Y-60961531D01*
X116101943Y-60961531D02*
X116330514Y-60961531D01*
X116330514Y-60961531D02*
X116387657Y-60990102D01*
X116387657Y-60990102D02*
X116416228Y-61018674D01*
X116416228Y-61018674D02*
X116444800Y-61075817D01*
X116444800Y-61075817D02*
X116444800Y-61161531D01*
X116444800Y-61161531D02*
X116416228Y-61218674D01*
X116416228Y-61218674D02*
X116387657Y-61247245D01*
X116387657Y-61247245D02*
X116330514Y-61275817D01*
X116330514Y-61275817D02*
X116101943Y-61275817D01*
X117016228Y-60990102D02*
X116959086Y-60961531D01*
X116959086Y-60961531D02*
X116873371Y-60961531D01*
X116873371Y-60961531D02*
X116787657Y-60990102D01*
X116787657Y-60990102D02*
X116730514Y-61047245D01*
X116730514Y-61047245D02*
X116701943Y-61104388D01*
X116701943Y-61104388D02*
X116673371Y-61218674D01*
X116673371Y-61218674D02*
X116673371Y-61304388D01*
X116673371Y-61304388D02*
X116701943Y-61418674D01*
X116701943Y-61418674D02*
X116730514Y-61475817D01*
X116730514Y-61475817D02*
X116787657Y-61532960D01*
X116787657Y-61532960D02*
X116873371Y-61561531D01*
X116873371Y-61561531D02*
X116930514Y-61561531D01*
X116930514Y-61561531D02*
X117016228Y-61532960D01*
X117016228Y-61532960D02*
X117044800Y-61504388D01*
X117044800Y-61504388D02*
X117044800Y-61304388D01*
X117044800Y-61304388D02*
X116930514Y-61304388D01*
X117501943Y-61247245D02*
X117587657Y-61275817D01*
X117587657Y-61275817D02*
X117616228Y-61304388D01*
X117616228Y-61304388D02*
X117644800Y-61361531D01*
X117644800Y-61361531D02*
X117644800Y-61447245D01*
X117644800Y-61447245D02*
X117616228Y-61504388D01*
X117616228Y-61504388D02*
X117587657Y-61532960D01*
X117587657Y-61532960D02*
X117530514Y-61561531D01*
X117530514Y-61561531D02*
X117301943Y-61561531D01*
X117301943Y-61561531D02*
X117301943Y-60961531D01*
X117301943Y-60961531D02*
X117501943Y-60961531D01*
X117501943Y-60961531D02*
X117559086Y-60990102D01*
X117559086Y-60990102D02*
X117587657Y-61018674D01*
X117587657Y-61018674D02*
X117616228Y-61075817D01*
X117616228Y-61075817D02*
X117616228Y-61132960D01*
X117616228Y-61132960D02*
X117587657Y-61190102D01*
X117587657Y-61190102D02*
X117559086Y-61218674D01*
X117559086Y-61218674D02*
X117501943Y-61247245D01*
X117501943Y-61247245D02*
X117301943Y-61247245D01*
X117873371Y-61018674D02*
X117901943Y-60990102D01*
X117901943Y-60990102D02*
X117959086Y-60961531D01*
X117959086Y-60961531D02*
X118101943Y-60961531D01*
X118101943Y-60961531D02*
X118159086Y-60990102D01*
X118159086Y-60990102D02*
X118187657Y-61018674D01*
X118187657Y-61018674D02*
X118216228Y-61075817D01*
X118216228Y-61075817D02*
X118216228Y-61132960D01*
X118216228Y-61132960D02*
X118187657Y-61218674D01*
X118187657Y-61218674D02*
X117844800Y-61561531D01*
X117844800Y-61561531D02*
X118216228Y-61561531D01*
X36886508Y-56954246D02*
X37372222Y-56954246D01*
X37372222Y-56954246D02*
X37429365Y-56925675D01*
X37429365Y-56925675D02*
X37457937Y-56897104D01*
X37457937Y-56897104D02*
X37486508Y-56839961D01*
X37486508Y-56839961D02*
X37486508Y-56725675D01*
X37486508Y-56725675D02*
X37457937Y-56668532D01*
X37457937Y-56668532D02*
X37429365Y-56639961D01*
X37429365Y-56639961D02*
X37372222Y-56611389D01*
X37372222Y-56611389D02*
X36886508Y-56611389D01*
X37486508Y-56011390D02*
X37486508Y-56354247D01*
X37486508Y-56182818D02*
X36886508Y-56182818D01*
X36886508Y-56182818D02*
X36972222Y-56239961D01*
X36972222Y-56239961D02*
X37029365Y-56297104D01*
X37029365Y-56297104D02*
X37057937Y-56354247D01*
X36886508Y-55639961D02*
X36886508Y-55582818D01*
X36886508Y-55582818D02*
X36915079Y-55525675D01*
X36915079Y-55525675D02*
X36943651Y-55497104D01*
X36943651Y-55497104D02*
X37000794Y-55468532D01*
X37000794Y-55468532D02*
X37115079Y-55439961D01*
X37115079Y-55439961D02*
X37257937Y-55439961D01*
X37257937Y-55439961D02*
X37372222Y-55468532D01*
X37372222Y-55468532D02*
X37429365Y-55497104D01*
X37429365Y-55497104D02*
X37457937Y-55525675D01*
X37457937Y-55525675D02*
X37486508Y-55582818D01*
X37486508Y-55582818D02*
X37486508Y-55639961D01*
X37486508Y-55639961D02*
X37457937Y-55697104D01*
X37457937Y-55697104D02*
X37429365Y-55725675D01*
X37429365Y-55725675D02*
X37372222Y-55754246D01*
X37372222Y-55754246D02*
X37257937Y-55782818D01*
X37257937Y-55782818D02*
X37115079Y-55782818D01*
X37115079Y-55782818D02*
X37000794Y-55754246D01*
X37000794Y-55754246D02*
X36943651Y-55725675D01*
X36943651Y-55725675D02*
X36915079Y-55697104D01*
X36915079Y-55697104D02*
X36886508Y-55639961D01*
X47255200Y-53204931D02*
X47055200Y-52919217D01*
X46912343Y-53204931D02*
X46912343Y-52604931D01*
X46912343Y-52604931D02*
X47140914Y-52604931D01*
X47140914Y-52604931D02*
X47198057Y-52633502D01*
X47198057Y-52633502D02*
X47226628Y-52662074D01*
X47226628Y-52662074D02*
X47255200Y-52719217D01*
X47255200Y-52719217D02*
X47255200Y-52804931D01*
X47255200Y-52804931D02*
X47226628Y-52862074D01*
X47226628Y-52862074D02*
X47198057Y-52890645D01*
X47198057Y-52890645D02*
X47140914Y-52919217D01*
X47140914Y-52919217D02*
X46912343Y-52919217D01*
X47826628Y-52633502D02*
X47769486Y-52604931D01*
X47769486Y-52604931D02*
X47683771Y-52604931D01*
X47683771Y-52604931D02*
X47598057Y-52633502D01*
X47598057Y-52633502D02*
X47540914Y-52690645D01*
X47540914Y-52690645D02*
X47512343Y-52747788D01*
X47512343Y-52747788D02*
X47483771Y-52862074D01*
X47483771Y-52862074D02*
X47483771Y-52947788D01*
X47483771Y-52947788D02*
X47512343Y-53062074D01*
X47512343Y-53062074D02*
X47540914Y-53119217D01*
X47540914Y-53119217D02*
X47598057Y-53176360D01*
X47598057Y-53176360D02*
X47683771Y-53204931D01*
X47683771Y-53204931D02*
X47740914Y-53204931D01*
X47740914Y-53204931D02*
X47826628Y-53176360D01*
X47826628Y-53176360D02*
X47855200Y-53147788D01*
X47855200Y-53147788D02*
X47855200Y-52947788D01*
X47855200Y-52947788D02*
X47740914Y-52947788D01*
X48312343Y-52890645D02*
X48398057Y-52919217D01*
X48398057Y-52919217D02*
X48426628Y-52947788D01*
X48426628Y-52947788D02*
X48455200Y-53004931D01*
X48455200Y-53004931D02*
X48455200Y-53090645D01*
X48455200Y-53090645D02*
X48426628Y-53147788D01*
X48426628Y-53147788D02*
X48398057Y-53176360D01*
X48398057Y-53176360D02*
X48340914Y-53204931D01*
X48340914Y-53204931D02*
X48112343Y-53204931D01*
X48112343Y-53204931D02*
X48112343Y-52604931D01*
X48112343Y-52604931D02*
X48312343Y-52604931D01*
X48312343Y-52604931D02*
X48369486Y-52633502D01*
X48369486Y-52633502D02*
X48398057Y-52662074D01*
X48398057Y-52662074D02*
X48426628Y-52719217D01*
X48426628Y-52719217D02*
X48426628Y-52776360D01*
X48426628Y-52776360D02*
X48398057Y-52833502D01*
X48398057Y-52833502D02*
X48369486Y-52862074D01*
X48369486Y-52862074D02*
X48312343Y-52890645D01*
X48312343Y-52890645D02*
X48112343Y-52890645D01*
X48740914Y-53204931D02*
X48855200Y-53204931D01*
X48855200Y-53204931D02*
X48912343Y-53176360D01*
X48912343Y-53176360D02*
X48940914Y-53147788D01*
X48940914Y-53147788D02*
X48998057Y-53062074D01*
X48998057Y-53062074D02*
X49026628Y-52947788D01*
X49026628Y-52947788D02*
X49026628Y-52719217D01*
X49026628Y-52719217D02*
X48998057Y-52662074D01*
X48998057Y-52662074D02*
X48969486Y-52633502D01*
X48969486Y-52633502D02*
X48912343Y-52604931D01*
X48912343Y-52604931D02*
X48798057Y-52604931D01*
X48798057Y-52604931D02*
X48740914Y-52633502D01*
X48740914Y-52633502D02*
X48712343Y-52662074D01*
X48712343Y-52662074D02*
X48683771Y-52719217D01*
X48683771Y-52719217D02*
X48683771Y-52862074D01*
X48683771Y-52862074D02*
X48712343Y-52919217D01*
X48712343Y-52919217D02*
X48740914Y-52947788D01*
X48740914Y-52947788D02*
X48798057Y-52976360D01*
X48798057Y-52976360D02*
X48912343Y-52976360D01*
X48912343Y-52976360D02*
X48969486Y-52947788D01*
X48969486Y-52947788D02*
X48998057Y-52919217D01*
X48998057Y-52919217D02*
X49026628Y-52862074D01*
X105395800Y-51553931D02*
X105195800Y-51268217D01*
X105052943Y-51553931D02*
X105052943Y-50953931D01*
X105052943Y-50953931D02*
X105281514Y-50953931D01*
X105281514Y-50953931D02*
X105338657Y-50982502D01*
X105338657Y-50982502D02*
X105367228Y-51011074D01*
X105367228Y-51011074D02*
X105395800Y-51068217D01*
X105395800Y-51068217D02*
X105395800Y-51153931D01*
X105395800Y-51153931D02*
X105367228Y-51211074D01*
X105367228Y-51211074D02*
X105338657Y-51239645D01*
X105338657Y-51239645D02*
X105281514Y-51268217D01*
X105281514Y-51268217D02*
X105052943Y-51268217D01*
X105967228Y-50982502D02*
X105910086Y-50953931D01*
X105910086Y-50953931D02*
X105824371Y-50953931D01*
X105824371Y-50953931D02*
X105738657Y-50982502D01*
X105738657Y-50982502D02*
X105681514Y-51039645D01*
X105681514Y-51039645D02*
X105652943Y-51096788D01*
X105652943Y-51096788D02*
X105624371Y-51211074D01*
X105624371Y-51211074D02*
X105624371Y-51296788D01*
X105624371Y-51296788D02*
X105652943Y-51411074D01*
X105652943Y-51411074D02*
X105681514Y-51468217D01*
X105681514Y-51468217D02*
X105738657Y-51525360D01*
X105738657Y-51525360D02*
X105824371Y-51553931D01*
X105824371Y-51553931D02*
X105881514Y-51553931D01*
X105881514Y-51553931D02*
X105967228Y-51525360D01*
X105967228Y-51525360D02*
X105995800Y-51496788D01*
X105995800Y-51496788D02*
X105995800Y-51296788D01*
X105995800Y-51296788D02*
X105881514Y-51296788D01*
X106452943Y-51239645D02*
X106538657Y-51268217D01*
X106538657Y-51268217D02*
X106567228Y-51296788D01*
X106567228Y-51296788D02*
X106595800Y-51353931D01*
X106595800Y-51353931D02*
X106595800Y-51439645D01*
X106595800Y-51439645D02*
X106567228Y-51496788D01*
X106567228Y-51496788D02*
X106538657Y-51525360D01*
X106538657Y-51525360D02*
X106481514Y-51553931D01*
X106481514Y-51553931D02*
X106252943Y-51553931D01*
X106252943Y-51553931D02*
X106252943Y-50953931D01*
X106252943Y-50953931D02*
X106452943Y-50953931D01*
X106452943Y-50953931D02*
X106510086Y-50982502D01*
X106510086Y-50982502D02*
X106538657Y-51011074D01*
X106538657Y-51011074D02*
X106567228Y-51068217D01*
X106567228Y-51068217D02*
X106567228Y-51125360D01*
X106567228Y-51125360D02*
X106538657Y-51182502D01*
X106538657Y-51182502D02*
X106510086Y-51211074D01*
X106510086Y-51211074D02*
X106452943Y-51239645D01*
X106452943Y-51239645D02*
X106252943Y-51239645D01*
X107167228Y-51553931D02*
X106824371Y-51553931D01*
X106995800Y-51553931D02*
X106995800Y-50953931D01*
X106995800Y-50953931D02*
X106938657Y-51039645D01*
X106938657Y-51039645D02*
X106881514Y-51096788D01*
X106881514Y-51096788D02*
X106824371Y-51125360D01*
X29946656Y-67504931D02*
X30289514Y-67504931D01*
X30118085Y-68104931D02*
X30118085Y-67504931D01*
X30803799Y-68104931D02*
X30460942Y-68104931D01*
X30632371Y-68104931D02*
X30632371Y-67504931D01*
X30632371Y-67504931D02*
X30575228Y-67590645D01*
X30575228Y-67590645D02*
X30518085Y-67647788D01*
X30518085Y-67647788D02*
X30460942Y-67676360D01*
X124790256Y-67174731D02*
X125133114Y-67174731D01*
X124961685Y-67774731D02*
X124961685Y-67174731D01*
X125275971Y-67174731D02*
X125647399Y-67174731D01*
X125647399Y-67174731D02*
X125447399Y-67403302D01*
X125447399Y-67403302D02*
X125533114Y-67403302D01*
X125533114Y-67403302D02*
X125590257Y-67431874D01*
X125590257Y-67431874D02*
X125618828Y-67460445D01*
X125618828Y-67460445D02*
X125647399Y-67517588D01*
X125647399Y-67517588D02*
X125647399Y-67660445D01*
X125647399Y-67660445D02*
X125618828Y-67717588D01*
X125618828Y-67717588D02*
X125590257Y-67746160D01*
X125590257Y-67746160D02*
X125533114Y-67774731D01*
X125533114Y-67774731D02*
X125361685Y-67774731D01*
X125361685Y-67774731D02*
X125304542Y-67746160D01*
X125304542Y-67746160D02*
X125275971Y-67717588D01*
X27559056Y-67504931D02*
X27901914Y-67504931D01*
X27730485Y-68104931D02*
X27730485Y-67504931D01*
X28073342Y-67562074D02*
X28101914Y-67533502D01*
X28101914Y-67533502D02*
X28159057Y-67504931D01*
X28159057Y-67504931D02*
X28301914Y-67504931D01*
X28301914Y-67504931D02*
X28359057Y-67533502D01*
X28359057Y-67533502D02*
X28387628Y-67562074D01*
X28387628Y-67562074D02*
X28416199Y-67619217D01*
X28416199Y-67619217D02*
X28416199Y-67676360D01*
X28416199Y-67676360D02*
X28387628Y-67762074D01*
X28387628Y-67762074D02*
X28044771Y-68104931D01*
X28044771Y-68104931D02*
X28416199Y-68104931D01*
X58623257Y-33427931D02*
X58623257Y-33913645D01*
X58623257Y-33913645D02*
X58651828Y-33970788D01*
X58651828Y-33970788D02*
X58680400Y-33999360D01*
X58680400Y-33999360D02*
X58737542Y-34027931D01*
X58737542Y-34027931D02*
X58851828Y-34027931D01*
X58851828Y-34027931D02*
X58908971Y-33999360D01*
X58908971Y-33999360D02*
X58937542Y-33970788D01*
X58937542Y-33970788D02*
X58966114Y-33913645D01*
X58966114Y-33913645D02*
X58966114Y-33427931D01*
X59508971Y-33627931D02*
X59508971Y-34027931D01*
X59366113Y-33399360D02*
X59223256Y-33827931D01*
X59223256Y-33827931D02*
X59594685Y-33827931D01*
X104739419Y-63482722D02*
X104739419Y-63968436D01*
X104739419Y-63968436D02*
X104767990Y-64025579D01*
X104767990Y-64025579D02*
X104796562Y-64054151D01*
X104796562Y-64054151D02*
X104853704Y-64082722D01*
X104853704Y-64082722D02*
X104967990Y-64082722D01*
X104967990Y-64082722D02*
X105025133Y-64054151D01*
X105025133Y-64054151D02*
X105053704Y-64025579D01*
X105053704Y-64025579D02*
X105082276Y-63968436D01*
X105082276Y-63968436D02*
X105082276Y-63482722D01*
X105310847Y-63482722D02*
X105710847Y-63482722D01*
X105710847Y-63482722D02*
X105453704Y-64082722D01*
D13*
%TO.C,REF\u002A\u002A*%
X31431060Y-52703670D02*
X31431060Y-55406121D01*
X26031685Y-55406121D01*
X24180800Y-53580848D01*
X24180800Y-50393600D01*
X29148622Y-50393600D01*
X31431060Y-52703670D01*
D12*
%TO.C,RGB3*%
X104196562Y-67961391D02*
X106196562Y-67961391D01*
X104196562Y-69961391D02*
X104196562Y-67961391D01*
X106196562Y-67961391D02*
X106196562Y-69961391D01*
X106196562Y-69961391D02*
X104196562Y-69961391D01*
X103824296Y-70485391D02*
G75*
G02*
X103520828Y-70485391I-151734J0D01*
G01*
X103520828Y-70485391D02*
G75*
G02*
X103824296Y-70485391I151734J0D01*
G01*
%TO.C,RGB6*%
X77032681Y-49165020D02*
X79032681Y-49165020D01*
X77032681Y-51165020D02*
X77032681Y-49165020D01*
X79032681Y-49165020D02*
X79032681Y-51165020D01*
X79032681Y-51165020D02*
X77032681Y-51165020D01*
X79708415Y-48641020D02*
G75*
G02*
X79404947Y-48641020I-151734J0D01*
G01*
X79404947Y-48641020D02*
G75*
G02*
X79708415Y-48641020I151734J0D01*
G01*
%TO.C,RGB11*%
X46183054Y-60030036D02*
X48183054Y-60030036D01*
X46183054Y-62030036D02*
X46183054Y-60030036D01*
X48183054Y-60030036D02*
X48183054Y-62030036D01*
X48183054Y-62030036D02*
X46183054Y-62030036D01*
X45810788Y-62554036D02*
G75*
G02*
X45507320Y-62554036I-151734J0D01*
G01*
X45507320Y-62554036D02*
G75*
G02*
X45810788Y-62554036I151734J0D01*
G01*
%TO.C,RGB4*%
X93196563Y-57961390D02*
X95196563Y-57961390D01*
X93196563Y-59961390D02*
X93196563Y-57961390D01*
X95196563Y-57961390D02*
X95196563Y-59961390D01*
X95196563Y-59961390D02*
X93196563Y-59961390D01*
X92824297Y-60485390D02*
G75*
G02*
X92520829Y-60485390I-151734J0D01*
G01*
X92520829Y-60485390D02*
G75*
G02*
X92824297Y-60485390I151734J0D01*
G01*
%TO.C,T4*%
X122140200Y-68378400D02*
X122885200Y-68378400D01*
X122140200Y-69113400D02*
X122140200Y-68378400D01*
X122140200Y-69848400D02*
X122140200Y-69723400D01*
X122140200Y-69848400D02*
X122199635Y-69848400D01*
X122140200Y-69848400D02*
X123630200Y-69848400D01*
X123570765Y-69848400D02*
X123630200Y-69848400D01*
X123630200Y-69848400D02*
X123630200Y-69723400D01*
%TO.C,J8*%
X90857800Y-47744400D02*
X90857799Y-46634400D01*
X91967800Y-47744401D02*
X90857800Y-47744400D01*
X92967800Y-45524400D02*
X99077800Y-45524400D01*
X92967800Y-47744400D02*
X92967800Y-45524400D01*
X92967800Y-47744400D02*
X99077800Y-47744400D01*
X99077800Y-47744400D02*
X99077800Y-45524400D01*
%TO.C,U11*%
X46273054Y-62220036D02*
X48093054Y-62220036D01*
X46273054Y-62270036D02*
X46273054Y-62220036D01*
X46273054Y-64170036D02*
X46273054Y-63390036D01*
X46273054Y-65340036D02*
X46273054Y-65290036D01*
X48093054Y-62220036D02*
X48093054Y-62270036D01*
X48093054Y-65290036D02*
X48093054Y-65340036D01*
X48093054Y-65340036D02*
X46273054Y-65340036D01*
X48873054Y-65620036D02*
X48393054Y-65620036D01*
X48633054Y-65290036D01*
X48873054Y-65620036D01*
G36*
X48873054Y-65620036D02*
G01*
X48393054Y-65620036D01*
X48633054Y-65290036D01*
X48873054Y-65620036D01*
G37*
%TO.C,RGB10*%
X41365177Y-55211390D02*
X43365177Y-55211390D01*
X41365177Y-57211390D02*
X41365177Y-55211390D01*
X43365177Y-55211390D02*
X43365177Y-57211390D01*
X43365177Y-57211390D02*
X41365177Y-57211390D01*
X40992911Y-57735390D02*
G75*
G02*
X40689443Y-57735390I-151734J0D01*
G01*
X40689443Y-57735390D02*
G75*
G02*
X40992911Y-57735390I151734J0D01*
G01*
%TO.C,U8*%
X46273822Y-47083514D02*
X48093822Y-47083514D01*
X46273822Y-47133514D02*
X46273822Y-47083514D01*
X46273822Y-50203514D02*
X46273822Y-50153514D01*
X48093822Y-47083514D02*
X48093822Y-47133514D01*
X48093822Y-48253514D02*
X48093822Y-49033514D01*
X48093822Y-50153514D02*
X48093822Y-50203514D01*
X48093822Y-50203514D02*
X46273822Y-50203514D01*
X45733822Y-47133514D02*
X45493822Y-46803514D01*
X45973822Y-46803514D01*
X45733822Y-47133514D01*
G36*
X45733822Y-47133514D02*
G01*
X45493822Y-46803514D01*
X45973822Y-46803514D01*
X45733822Y-47133514D01*
G37*
%TO.C,U3*%
X93286563Y-54651390D02*
X95106563Y-54651390D01*
X93286563Y-54701390D02*
X93286563Y-54651390D01*
X93286563Y-57771390D02*
X93286563Y-57721390D01*
X95106563Y-54651390D02*
X95106563Y-54701390D01*
X95106563Y-55821390D02*
X95106563Y-56601390D01*
X95106563Y-57721390D02*
X95106563Y-57771390D01*
X95106563Y-57771390D02*
X93286563Y-57771390D01*
X92746563Y-54701390D02*
X92506563Y-54371390D01*
X92986563Y-54371390D01*
X92746563Y-54701390D01*
G36*
X92746563Y-54701390D02*
G01*
X92506563Y-54371390D01*
X92986563Y-54371390D01*
X92746563Y-54701390D01*
G37*
%TO.C,U1*%
X104286563Y-44651390D02*
X106106563Y-44651390D01*
X104286563Y-44701390D02*
X104286563Y-44651390D01*
X104286563Y-47771390D02*
X104286563Y-47721390D01*
X106106563Y-44651390D02*
X106106563Y-44701390D01*
X106106563Y-45821390D02*
X106106563Y-46601390D01*
X106106563Y-47721390D02*
X106106563Y-47771390D01*
X106106563Y-47771390D02*
X104286563Y-47771390D01*
X103746563Y-44701390D02*
X103506563Y-44371390D01*
X103986563Y-44371390D01*
X103746563Y-44701390D01*
G36*
X103746563Y-44701390D02*
G01*
X103506563Y-44371390D01*
X103986563Y-44371390D01*
X103746563Y-44701390D01*
G37*
%TO.C,U6*%
X115286563Y-54651391D02*
X117106563Y-54651391D01*
X115286563Y-54701391D02*
X115286563Y-54651391D01*
X115286563Y-57771391D02*
X115286563Y-57721391D01*
X117106563Y-54651391D02*
X117106563Y-54701391D01*
X117106563Y-55821391D02*
X117106563Y-56601391D01*
X117106563Y-57721391D02*
X117106563Y-57771391D01*
X117106563Y-57771391D02*
X115286563Y-57771391D01*
X114746563Y-54701391D02*
X114506563Y-54371391D01*
X114986563Y-54371391D01*
X114746563Y-54701391D01*
G36*
X114746563Y-54701391D02*
G01*
X114506563Y-54371391D01*
X114986563Y-54371391D01*
X114746563Y-54701391D01*
G37*
D14*
%TO.C,U5*%
X90612000Y-34470000D02*
X90612000Y-34770000D01*
X90612000Y-34470000D02*
X91412000Y-34470000D01*
X90612000Y-37070000D02*
X90612000Y-37370000D01*
X90612000Y-37370000D02*
X91412000Y-37370000D01*
X94012000Y-34470000D02*
X93212000Y-34470000D01*
X94012000Y-34770000D02*
X94012000Y-34470000D01*
X94012000Y-37370000D02*
X93212000Y-37370000D01*
X94012000Y-37370000D02*
X94012000Y-37070000D01*
X94912000Y-36670000D02*
G75*
G02*
X94512000Y-36670000I-200000J0D01*
G01*
X94512000Y-36670000D02*
G75*
G02*
X94912000Y-36670000I200000J0D01*
G01*
D12*
%TO.C,RGB7*%
X73282681Y-49165020D02*
X75282681Y-49165020D01*
X73282681Y-51165020D02*
X73282681Y-49165020D01*
X75282681Y-49165020D02*
X75282681Y-51165020D01*
X75282681Y-51165020D02*
X73282681Y-51165020D01*
X75958415Y-48641020D02*
G75*
G02*
X75654947Y-48641020I-151734J0D01*
G01*
X75654947Y-48641020D02*
G75*
G02*
X75958415Y-48641020I151734J0D01*
G01*
%TO.C,RGB5*%
X80782681Y-49165020D02*
X82782681Y-49165020D01*
X80782681Y-51165020D02*
X80782681Y-49165020D01*
X82782681Y-49165020D02*
X82782681Y-51165020D01*
X82782681Y-51165020D02*
X80782681Y-51165020D01*
X83458415Y-48641020D02*
G75*
G02*
X83154947Y-48641020I-151734J0D01*
G01*
X83154947Y-48641020D02*
G75*
G02*
X83458415Y-48641020I151734J0D01*
G01*
%TO.C,RGB12*%
X51001698Y-55212158D02*
X53001698Y-55212158D01*
X51001698Y-57212158D02*
X51001698Y-55212158D01*
X53001698Y-55212158D02*
X53001698Y-57212158D01*
X53001698Y-57212158D02*
X51001698Y-57212158D01*
X50629432Y-57736158D02*
G75*
G02*
X50325964Y-57736158I-151734J0D01*
G01*
X50325964Y-57736158D02*
G75*
G02*
X50629432Y-57736158I151734J0D01*
G01*
%TO.C,U9*%
X53191698Y-55302158D02*
X53241698Y-55302158D01*
X53191698Y-57122158D02*
X53191698Y-55302158D01*
X53241698Y-57122158D02*
X53191698Y-57122158D01*
X54361698Y-55302158D02*
X55141698Y-55302158D01*
X56261698Y-55302158D02*
X56311698Y-55302158D01*
X56311698Y-55302158D02*
X56311698Y-57122158D01*
X56311698Y-57122158D02*
X56261698Y-57122158D01*
X53241698Y-57662158D02*
X52911698Y-57902158D01*
X52911698Y-57422158D01*
X53241698Y-57662158D01*
G36*
X53241698Y-57662158D02*
G01*
X52911698Y-57902158D01*
X52911698Y-57422158D01*
X53241698Y-57662158D01*
G37*
%TO.C,RGB8*%
X69532681Y-49165020D02*
X71532681Y-49165020D01*
X69532681Y-51165020D02*
X69532681Y-49165020D01*
X71532681Y-49165020D02*
X71532681Y-51165020D01*
X71532681Y-51165020D02*
X69532681Y-51165020D01*
X72208415Y-48641020D02*
G75*
G02*
X71904947Y-48641020I-151734J0D01*
G01*
X71904947Y-48641020D02*
G75*
G02*
X72208415Y-48641020I151734J0D01*
G01*
%TO.C,RGB2*%
X115196563Y-57961391D02*
X117196563Y-57961391D01*
X115196563Y-59961391D02*
X115196563Y-57961391D01*
X117196563Y-57961391D02*
X117196563Y-59961391D01*
X117196563Y-59961391D02*
X115196563Y-59961391D01*
X114824297Y-60485391D02*
G75*
G02*
X114520829Y-60485391I-151734J0D01*
G01*
X114520829Y-60485391D02*
G75*
G02*
X114824297Y-60485391I151734J0D01*
G01*
%TO.C,U10*%
X38055177Y-55301390D02*
X38105177Y-55301390D01*
X38055177Y-57121390D02*
X38055177Y-55301390D01*
X38105177Y-57121390D02*
X38055177Y-57121390D01*
X39225177Y-55301390D02*
X40005177Y-55301390D01*
X41125177Y-55301390D02*
X41175177Y-55301390D01*
X41175177Y-55301390D02*
X41175177Y-57121390D01*
X41175177Y-57121390D02*
X41125177Y-57121390D01*
X38105177Y-57661390D02*
X37775177Y-57901390D01*
X37775177Y-57421390D01*
X38105177Y-57661390D01*
G36*
X38105177Y-57661390D02*
G01*
X37775177Y-57901390D01*
X37775177Y-57421390D01*
X38105177Y-57661390D01*
G37*
%TO.C,RGB9*%
X46183822Y-50393514D02*
X48183822Y-50393514D01*
X46183822Y-52393514D02*
X46183822Y-50393514D01*
X48183822Y-50393514D02*
X48183822Y-52393514D01*
X48183822Y-52393514D02*
X46183822Y-52393514D01*
X45811556Y-52917514D02*
G75*
G02*
X45508088Y-52917514I-151734J0D01*
G01*
X45508088Y-52917514D02*
G75*
G02*
X45811556Y-52917514I151734J0D01*
G01*
%TO.C,RGB1*%
X104196563Y-47961390D02*
X106196563Y-47961390D01*
X104196563Y-49961390D02*
X104196563Y-47961390D01*
X106196563Y-47961390D02*
X106196563Y-49961390D01*
X106196563Y-49961390D02*
X104196563Y-49961390D01*
X103824297Y-50485390D02*
G75*
G02*
X103520829Y-50485390I-151734J0D01*
G01*
X103520829Y-50485390D02*
G75*
G02*
X103824297Y-50485390I151734J0D01*
G01*
%TO.C,T1*%
X29658800Y-68708600D02*
X30403800Y-68708600D01*
X29658800Y-69443600D02*
X29658800Y-68708600D01*
X29658800Y-70178600D02*
X29658800Y-70053600D01*
X29658800Y-70178600D02*
X29718235Y-70178600D01*
X29658800Y-70178600D02*
X31148800Y-70178600D01*
X31089365Y-70178600D02*
X31148800Y-70178600D01*
X31148800Y-70178600D02*
X31148800Y-70053600D01*
%TO.C,T3*%
X124502400Y-68378400D02*
X125247400Y-68378400D01*
X124502400Y-69113400D02*
X124502400Y-68378400D01*
X124502400Y-69848400D02*
X124502400Y-69723400D01*
X124502400Y-69848400D02*
X124561835Y-69848400D01*
X124502400Y-69848400D02*
X125992400Y-69848400D01*
X125932965Y-69848400D02*
X125992400Y-69848400D01*
X125992400Y-69848400D02*
X125992400Y-69723400D01*
%TO.C,T2*%
X27271200Y-68708600D02*
X28016200Y-68708600D01*
X27271200Y-69443600D02*
X27271200Y-68708600D01*
X27271200Y-70178600D02*
X27271200Y-70053600D01*
X27271200Y-70178600D02*
X27330635Y-70178600D01*
X27271200Y-70178600D02*
X28761200Y-70178600D01*
X28701765Y-70178600D02*
X28761200Y-70178600D01*
X28761200Y-70178600D02*
X28761200Y-70053600D01*
D14*
%TO.C,U4*%
X58680000Y-34270000D02*
X58680000Y-34570000D01*
X58680000Y-34270000D02*
X59480000Y-34270000D01*
X58680000Y-36870000D02*
X58680000Y-37170000D01*
X58680000Y-37170000D02*
X59480000Y-37170000D01*
X62080000Y-34270000D02*
X61280000Y-34270000D01*
X62080000Y-34570000D02*
X62080000Y-34270000D01*
X62080000Y-37170000D02*
X61280000Y-37170000D01*
X62080000Y-37170000D02*
X62080000Y-36870000D01*
X62980001Y-36470000D02*
G75*
G02*
X62579999Y-36470000I-200001J0D01*
G01*
X62579999Y-36470000D02*
G75*
G02*
X62980001Y-36470000I200001J0D01*
G01*
D12*
%TO.C,U7*%
X104286562Y-64651391D02*
X106106562Y-64651391D01*
X104286562Y-64701391D02*
X104286562Y-64651391D01*
X104286562Y-67771391D02*
X104286562Y-67721391D01*
X106106562Y-64651391D02*
X106106562Y-64701391D01*
X106106562Y-65821391D02*
X106106562Y-66601391D01*
X106106562Y-67721391D02*
X106106562Y-67771391D01*
X106106562Y-67771391D02*
X104286562Y-67771391D01*
X103746562Y-64701391D02*
X103506562Y-64371391D01*
X103986562Y-64371391D01*
X103746562Y-64701391D01*
G36*
X103746562Y-64701391D02*
G01*
X103506562Y-64371391D01*
X103986562Y-64371391D01*
X103746562Y-64701391D01*
G37*
%TD*%
M02*
