M48
; DRILL file {KiCad 9.0.6-rc2} date 2025-11-19T00:48:34-0800
; FORMAT={-:-/ absolute / metric / decimal}
; #@! TF.CreationDate,2025-11-19T00:48:34-08:00
; #@! TF.GenerationSoftware,Kicad,Pcbnew,9.0.6-rc2
; #@! TF.FileFunction,Plated,1,4,PTH
FMAT,2
METRIC
; #@! TA.AperFunction,Plated,PTH,ComponentDrill
T1C0.250
; #@! TA.AperFunction,Plated,PTH,ViaDrill
T2C0.300
; #@! TA.AperFunction,Plated,PTH,ComponentDrill
T3C0.500
; #@! TA.AperFunction,Plated,PTH,ComponentDrill
T4C0.800
%
G90
G05
T1
X71.003Y-45.74
X71.003Y-48.007
X71.003Y-46.873
X72.137Y-45.74
X72.137Y-46.873
X72.137Y-48.007
X73.27Y-46.873
X73.27Y-45.74
X73.27Y-48.007
T2
X26.58Y-54.19
X26.74Y-56.93
X29.76Y-56.32
X29.845Y-54.254
X36.068Y-55.372
X36.178Y-58.792
X36.246Y-57.683
X37.973Y-57.709
X38.71Y-53.9
X40.52Y-58.59
X40.87Y-53.24
X41.56Y-54.71
X41.76Y-57.7
X42.4Y-54.64
X42.67Y-57.68
X44.16Y-62.96
X44.66Y-49.54
X44.74Y-47.76
X44.84Y-64.68
X45.237Y-56.947
X45.65Y-61.43
X45.69Y-50.6
X45.78Y-51.43
X46.45Y-59.92
X48.514Y-43.205
X48.6Y-60.65
X48.63Y-51.39
X48.66Y-50.65
X48.67Y-61.76
X49.65Y-64.66
X49.69Y-47.74
X49.69Y-62.88
X49.878Y-50.063
X49.936Y-45.364
X50.57Y-56.46
X51.71Y-57.44
X51.72Y-54.75
X52.65Y-54.7
X53.53Y-53.65
X53.86Y-58.53
X54.75Y-54.88
X55.91Y-53.19
X57.83Y-65.26
X57.837Y-64.148
X57.85Y-66.34
X57.851Y-63.003
X58.13Y-34.95
X58.31Y-62.41
X58.35Y-63.6
X58.4Y-64.7
X58.42Y-65.8
X58.42Y-66.93
X58.84Y-61.87
X58.98Y-49.52
X59.31Y-37.41
X59.92Y-35.98
X60.06Y-33.41
X60.46Y-35.47
X60.659Y-45.839
X61.07Y-33.77
X61.493Y-67.843
X61.697Y-53.797
X62.52Y-36.97
X62.55Y-34.11
X62.991Y-52.169
X63.102Y-44.862
X63.2Y-35.557
X64.665Y-49.042
X64.821Y-52.908
X65.202Y-51.003
X65.481Y-45.542
X65.837Y-67.488
X65.84Y-68.276
X66.116Y-51.003
X66.142Y-45.542
X67.92Y-31.394
X68.021Y-38.862
X68.25Y-67.05
X68.26Y-49.65
X68.301Y-50.47
X68.326Y-52.781
X68.402Y-45.085
X68.478Y-59.969
X69.01Y-66.72
X69.05Y-65.81
X69.063Y-58.699
X69.063Y-59.487
X69.088Y-50.571
X69.24Y-57.963
X69.545Y-56.57
X69.65Y-40.48
X69.847Y-48.629
X70.085Y-66.52
X70.104Y-55.991
X70.434Y-65.816
X70.739Y-55.421
X71.19Y-66.0
X71.349Y-38.557
X72.07Y-65.65
X72.437Y-50.82
X72.921Y-65.388
X73.304Y-54.305
X73.44Y-38.25
X73.6Y-65.07
X73.914Y-54.87
X74.23Y-64.52
X74.524Y-35.458
X74.778Y-69.367
X75.329Y-69.581
X75.413Y-36.246
X75.844Y-47.777
X75.854Y-36.887
X76.175Y-48.412
X76.188Y-37.851
X76.48Y-52.86
X76.657Y-53.899
X77.077Y-37.781
X77.114Y-39.903
X77.16Y-66.29
X77.749Y-32.36
X77.79Y-37.2
X78.51Y-37.44
X78.72Y-44.018
X79.24Y-37.36
X79.83Y-46.07
X80.188Y-42.545
X80.264Y-49.149
X81.788Y-41.453
X82.042Y-44.247
X83.185Y-49.606
X84.099Y-48.971
X86.258Y-44.78
X87.03Y-55.35
X90.12Y-35.14
X91.592Y-71.526
X91.69Y-54.96
X91.796Y-69.418
X91.96Y-57.12
X92.26Y-33.54
X92.558Y-69.266
X92.74Y-59.28
X92.75Y-58.2
X92.97Y-33.93
X93.98Y-72.001
X94.26Y-69.57
X94.99Y-69.72
X95.02Y-35.54
X95.69Y-58.38
X95.7Y-59.34
X96.571Y-63.49
X96.71Y-55.31
X97.128Y-57.498
X97.13Y-64.06
X98.13Y-49.69
X98.48Y-48.82
X99.035Y-61.519
X101.45Y-55.31
X101.651Y-46.33
X102.5Y-67.41
X102.66Y-47.11
X102.71Y-45.4
X102.72Y-64.7
X103.7Y-48.42
X103.71Y-68.16
X103.73Y-49.45
X103.73Y-69.2
X105.31Y-62.69
X106.65Y-48.49
X106.66Y-49.43
X106.68Y-68.31
X106.68Y-69.31
X107.74Y-65.26
X107.83Y-47.55
X108.47Y-45.38
X108.788Y-67.16
X112.53Y-48.9
X113.5Y-57.11
X113.64Y-55.43
X114.74Y-59.35
X116.19Y-57.58
X117.67Y-59.41
X117.71Y-58.37
X118.6Y-55.32
X119.482Y-57.48
X122.809Y-56.667
X123.18Y-54.2
X123.23Y-53.44
X123.952Y-63.195
X124.181Y-60.706
X124.206Y-56.642
X125.77Y-56.67
X125.78Y-54.2
X125.984Y-66.167
X128.118Y-63.983
X128.295Y-62.23
T3
X28.016Y-69.444
X30.404Y-69.444
X122.885Y-69.113
X125.247Y-69.113
T4
X91.968Y-46.634
X93.968Y-46.634
X95.968Y-46.634
X97.968Y-46.634
M30
