%TF.GenerationSoftware,KiCad,Pcbnew,9.0.6-rc2*%
%TF.CreationDate,2025-11-07T01:00:34-08:00*%
%TF.ProjectId,Latte_Main_Board,4c617474-655f-44d6-9169-6e5f426f6172,rev?*%
%TF.SameCoordinates,Original*%
%TF.FileFunction,Profile,NP*%
%FSLAX46Y46*%
G04 Gerber Fmt 4.6, Leading zero omitted, Abs format (unit mm)*
G04 Created by KiCad (PCBNEW 9.0.6-rc2) date 2025-11-07 01:00:34*
%MOMM*%
%LPD*%
G01*
G04 APERTURE LIST*
%TA.AperFunction,Profile*%
%ADD10C,0.050000*%
%TD*%
%ADD11C,0.050000*%
G04 APERTURE END LIST*
D10*
X66001222Y-72893174D02*
X66615399Y-72788068D01*
D11*
X74256060Y-71973528D02*
X74165225Y-71978450D01*
X74076468Y-71983280D01*
X73991228Y-71987939D01*
X73907928Y-71992511D01*
X73827870Y-71996926D01*
X73749622Y-72001261D01*
X73674362Y-72005450D01*
X73600794Y-72009565D01*
X73529981Y-72013546D01*
X73460749Y-72017459D01*
X73394057Y-72021247D01*
X73328844Y-72024972D01*
X73265971Y-72028583D01*
X73204483Y-72032135D01*
X73145151Y-72035582D01*
X73087115Y-72038974D01*
X73031065Y-72042270D01*
X72976227Y-72045514D01*
X72923217Y-72048670D01*
X72871343Y-72051779D01*
X72821147Y-72054807D01*
X72772016Y-72057791D01*
X72724426Y-72060701D01*
X72677833Y-72063571D01*
X72632651Y-72066373D01*
X72588403Y-72069137D01*
X72545443Y-72071841D01*
X72503360Y-72074510D01*
X72462450Y-72077124D01*
X72422360Y-72079706D01*
X72383334Y-72082239D01*
X72345077Y-72084742D01*
X72307780Y-72087202D01*
X72271203Y-72089635D01*
X72235484Y-72092031D01*
X72200441Y-72094401D01*
X72166158Y-72096739D01*
X72132508Y-72099055D01*
X72099525Y-72101344D01*
X72067132Y-72103612D01*
X72035312Y-72105860D01*
X72004045Y-72108089D01*
X71973257Y-72110304D01*
X71942986Y-72112501D01*
X71913098Y-72114690D01*
X71883690Y-72116864D01*
X71825895Y-72121195D01*
X71769325Y-72125513D01*
X71713692Y-72129838D01*
X71658685Y-72134194D01*
X71603955Y-72138605D01*
X71549101Y-72143105D01*
X71493638Y-72147734D01*
X71436955Y-72152542D01*
X71378234Y-72157601D01*
X71316300Y-72163014D01*
X71301723Y-72164298D01*
D10*
X61076044Y-61451235D02*
G75*
G02*
X60575965Y-60951235I-44J500035D01*
G01*
D11*
X119144785Y-55568869D02*
X119151065Y-55564502D01*
X119157400Y-55560195D01*
X119163788Y-55555947D01*
X119170230Y-55551760D01*
X119176725Y-55547634D01*
X119183272Y-55543569D01*
X119189871Y-55539566D01*
X119196521Y-55535626D01*
X119203222Y-55531749D01*
X119209972Y-55527935D01*
X119216772Y-55524185D01*
X119223621Y-55520499D01*
X119230517Y-55516878D01*
X119237461Y-55513323D01*
X119244452Y-55509834D01*
X119251488Y-55506411D01*
X119258569Y-55503055D01*
X119265695Y-55499766D01*
X119272865Y-55496545D01*
X119280077Y-55493393D01*
X119287331Y-55490310D01*
X119294627Y-55487296D01*
X119301963Y-55484352D01*
X119309338Y-55481478D01*
X119316751Y-55478675D01*
X119324202Y-55475943D01*
X119331690Y-55473283D01*
X119339214Y-55470695D01*
X119346772Y-55468180D01*
X119354364Y-55465738D01*
X119361988Y-55463369D01*
X119369645Y-55461074D01*
X119377332Y-55458853D01*
X119385049Y-55456707D01*
X119392794Y-55454637D01*
X119400567Y-55452641D01*
X119408366Y-55450721D01*
X119416190Y-55448878D01*
X119424039Y-55447111D01*
X119431911Y-55445420D01*
X119439804Y-55443807D01*
X119447719Y-55442271D01*
X119455653Y-55440813D01*
X119463605Y-55439433D01*
X119471574Y-55438131D01*
X119479560Y-55436907D01*
X119487560Y-55435762D01*
X119495574Y-55434696D01*
X119503600Y-55433709D01*
X119511637Y-55432801D01*
X119519685Y-55431973D01*
X119527740Y-55431224D01*
X119535804Y-55430555D01*
X119539838Y-55430250D01*
X119543873Y-55429965D01*
X119547910Y-55429701D01*
X119551948Y-55429456D01*
X119555987Y-55429231D01*
X119560026Y-55429026D01*
X119564066Y-55428841D01*
X119568107Y-55428676D01*
X119572148Y-55428531D01*
X119576189Y-55428407D01*
X119580230Y-55428302D01*
X119584272Y-55428217D01*
X119588312Y-55428152D01*
X119592353Y-55428107D01*
X119596392Y-55428083D01*
X119600431Y-55428078D01*
X119604469Y-55428093D01*
X119608506Y-55428128D01*
X119612541Y-55428184D01*
X119616576Y-55428259D01*
X119620608Y-55428354D01*
X119624640Y-55428469D01*
X119628669Y-55428604D01*
X119632697Y-55428759D01*
X119636721Y-55428934D01*
X119640745Y-55429129D01*
X119644765Y-55429344D01*
X119648783Y-55429579D01*
X119652798Y-55429834D01*
X119656811Y-55430108D01*
X119660820Y-55430403D01*
X119664827Y-55430717D01*
X119668829Y-55431051D01*
X119672829Y-55431405D01*
X119676824Y-55431778D01*
X119680817Y-55432172D01*
X119684805Y-55432585D01*
X119688790Y-55433018D01*
X119692769Y-55433470D01*
X119696746Y-55433942D01*
X119700717Y-55434434D01*
X119704685Y-55434946D01*
X119708646Y-55435476D01*
X119712604Y-55436027D01*
X119716556Y-55436597D01*
X119720504Y-55437187D01*
X119724445Y-55437795D01*
X119728383Y-55438424D01*
X119732313Y-55439072D01*
X119736239Y-55439739D01*
X119740158Y-55440425D01*
X119744073Y-55441131D01*
X119747980Y-55441856D01*
X119751883Y-55442600D01*
X119755777Y-55443364D01*
X119759667Y-55444146D01*
X119763548Y-55444948D01*
X119767425Y-55445769D01*
X119771293Y-55446608D01*
X119775157Y-55447467D01*
X119779011Y-55448345D01*
X119782860Y-55449242D01*
X119786699Y-55450157D01*
X119790534Y-55451091D01*
X119794359Y-55452044D01*
X119798179Y-55453016D01*
X119801988Y-55454007D01*
X119805792Y-55455016D01*
X119809586Y-55456044D01*
X119813374Y-55457090D01*
X119817152Y-55458155D01*
X119820924Y-55459239D01*
X119824684Y-55460340D01*
X119828440Y-55461461D01*
X119832183Y-55462599D01*
X119835921Y-55463756D01*
X119839648Y-55464931D01*
X119843368Y-55466125D01*
X119847076Y-55467336D01*
X119850779Y-55468566D01*
X119854469Y-55469813D01*
X119858153Y-55471079D01*
X119861825Y-55472362D01*
X119865490Y-55473664D01*
X119869143Y-55474983D01*
X119872789Y-55476321D01*
X119876422Y-55477675D01*
X119880049Y-55479049D01*
X119883662Y-55480438D01*
X119887269Y-55481847D01*
X119890862Y-55483272D01*
X119894449Y-55484716D01*
X119898022Y-55486176D01*
X119901588Y-55487654D01*
X119905141Y-55489149D01*
X119908686Y-55490663D01*
X119912217Y-55492192D01*
X119915741Y-55493740D01*
X119919251Y-55495303D01*
X119922754Y-55496886D01*
X119926242Y-55498484D01*
X119929723Y-55500100D01*
X119936513Y-55503317D01*
D10*
X55395303Y-34991397D02*
G75*
G02*
X52395302Y-37991403I-3000003J-3D01*
G01*
X78323798Y-57854133D02*
X78323798Y-60951183D01*
X47206590Y-37991397D02*
X52395302Y-37991397D01*
X78323798Y-57854133D02*
G75*
G02*
X78823800Y-57354198I499902J33D01*
G01*
D11*
X90283987Y-56806539D02*
X90278065Y-56801386D01*
X90272191Y-56796168D01*
X90266363Y-56790885D01*
X90260584Y-56785539D01*
X90254854Y-56780128D01*
X90249175Y-56774655D01*
X90243546Y-56769120D01*
X90237968Y-56763523D01*
X90232443Y-56757866D01*
X90226971Y-56752149D01*
X90221554Y-56746372D01*
X90216191Y-56740538D01*
X90210883Y-56734645D01*
X90205632Y-56728696D01*
X90200439Y-56722690D01*
X90195303Y-56716630D01*
X90190226Y-56710515D01*
X90185209Y-56704346D01*
X90180251Y-56698125D01*
X90175355Y-56691852D01*
X90170521Y-56685528D01*
X90165749Y-56679155D01*
X90161041Y-56672732D01*
X90156396Y-56666261D01*
X90151816Y-56659743D01*
X90147301Y-56653179D01*
X90145068Y-56649880D01*
X90142852Y-56646570D01*
X90140653Y-56643248D01*
X90138470Y-56639916D01*
X90136304Y-56636573D01*
X90134155Y-56633219D01*
X90132023Y-56629855D01*
X90129908Y-56626480D01*
X90127811Y-56623095D01*
X90125730Y-56619699D01*
X90123667Y-56616294D01*
X90121621Y-56612878D01*
X90119592Y-56609453D01*
X90117581Y-56606018D01*
X90115588Y-56602574D01*
X90113612Y-56599120D01*
X90111654Y-56595657D01*
X90109714Y-56592184D01*
X90107792Y-56588703D01*
X90105887Y-56585213D01*
X90104001Y-56581714D01*
X90102132Y-56578206D01*
X90100282Y-56574690D01*
X90098450Y-56571164D01*
X90096636Y-56567632D01*
X90094840Y-56564090D01*
X90093063Y-56560541D01*
X90091304Y-56556984D01*
X90089564Y-56553419D01*
X90087842Y-56549846D01*
X90086139Y-56546267D01*
X90084455Y-56542679D01*
X90082789Y-56539085D01*
X90081142Y-56535482D01*
X90079514Y-56531874D01*
X90077904Y-56528258D01*
X90076314Y-56524636D01*
X90074742Y-56521007D01*
X90073190Y-56517372D01*
X90071656Y-56513729D01*
X90070142Y-56510082D01*
X90068647Y-56506427D01*
X90067171Y-56502768D01*
X90065714Y-56499101D01*
X90064277Y-56495430D01*
X90062858Y-56491752D01*
X90061459Y-56488070D01*
X90060080Y-56484381D01*
X90058720Y-56480689D01*
X90057379Y-56476989D01*
X90056058Y-56473287D01*
X90054756Y-56469578D01*
X90053666Y-56466425D01*
X120372738Y-56091024D02*
X120373883Y-56098665D01*
X120374950Y-56106328D01*
X120375939Y-56114013D01*
X120376850Y-56121718D01*
X120377684Y-56129443D01*
X120378439Y-56137187D01*
X120379115Y-56144950D01*
X120379713Y-56152729D01*
X120380231Y-56160525D01*
X120380671Y-56168337D01*
X120381032Y-56176163D01*
X120381313Y-56184003D01*
X120381514Y-56191855D01*
X120381636Y-56199719D01*
X120381678Y-56207594D01*
X120381640Y-56215479D01*
X120381523Y-56223373D01*
X120381325Y-56231275D01*
X120381047Y-56239183D01*
X120380689Y-56247097D01*
X120380250Y-56255016D01*
X120379731Y-56262938D01*
X120379132Y-56270863D01*
X120378453Y-56278789D01*
X120377693Y-56286716D01*
X120376854Y-56294642D01*
X120375933Y-56302566D01*
X120374933Y-56310487D01*
X120373853Y-56318404D01*
X120372693Y-56326315D01*
X120371453Y-56334220D01*
X120370133Y-56342118D01*
X120368733Y-56350007D01*
X120367254Y-56357885D01*
X120365696Y-56365753D01*
X120364058Y-56373609D01*
X120362342Y-56381451D01*
X120360547Y-56389278D01*
X120358674Y-56397089D01*
X120356722Y-56404884D01*
X120354693Y-56412660D01*
X120352585Y-56420417D01*
X120350401Y-56428154D01*
X120348140Y-56435869D01*
X120346980Y-56439718D01*
X120345801Y-56443561D01*
X120344604Y-56447398D01*
X120343387Y-56451229D01*
X120342151Y-56455053D01*
X120340897Y-56458871D01*
X120339623Y-56462683D01*
X120338331Y-56466488D01*
X120337020Y-56470286D01*
X120335690Y-56474077D01*
X120334341Y-56477860D01*
X120332974Y-56481637D01*
X120331588Y-56485406D01*
X120330184Y-56489168D01*
X120328761Y-56492921D01*
X120327319Y-56496668D01*
X120325860Y-56500405D01*
X120324382Y-56504135D01*
X120322886Y-56507856D01*
X120321371Y-56511570D01*
X120319839Y-56515274D01*
X120318288Y-56518971D01*
X120316720Y-56522657D01*
X120315133Y-56526336D01*
X120313529Y-56530005D01*
X120311907Y-56533665D01*
X120310267Y-56537315D01*
X120308609Y-56540957D01*
X120306934Y-56544588D01*
X120305241Y-56548210D01*
X120303531Y-56551821D01*
X120301803Y-56555424D01*
X120300059Y-56559015D01*
X120298296Y-56562597D01*
X120296517Y-56566168D01*
X120294720Y-56569729D01*
X120292907Y-56573279D01*
X120291075Y-56576819D01*
X120289228Y-56580347D01*
X120287363Y-56583865D01*
X120285483Y-56587371D01*
X120283584Y-56590867D01*
X120281670Y-56594350D01*
X120279738Y-56597824D01*
X120277791Y-56601284D01*
X120275827Y-56604735D01*
X120273847Y-56608171D01*
X120271850Y-56611598D01*
X120269837Y-56615011D01*
X120267808Y-56618414D01*
X120265763Y-56621802D01*
X120263702Y-56625180D01*
X120261626Y-56628544D01*
X120259532Y-56631898D01*
X120257425Y-56635236D01*
X120255300Y-56638564D01*
X120253161Y-56641877D01*
X120251005Y-56645180D01*
X120248836Y-56648467D01*
X120246649Y-56651743D01*
X120244449Y-56655004D01*
X120242232Y-56658253D01*
X120240001Y-56661487D01*
X120237754Y-56664710D01*
X120235494Y-56667917D01*
X120233217Y-56671113D01*
X120230927Y-56674292D01*
X120228620Y-56677460D01*
X120226301Y-56680612D01*
X120223965Y-56683752D01*
X120221617Y-56686876D01*
X120219253Y-56689987D01*
X120216876Y-56693082D01*
X120214483Y-56696166D01*
X120212077Y-56699232D01*
X120209656Y-56702286D01*
X120207222Y-56705323D01*
X120204773Y-56708348D01*
X120202312Y-56711356D01*
X120199835Y-56714352D01*
X120197347Y-56717330D01*
X120194842Y-56720296D01*
X120192327Y-56723244D01*
X120189796Y-56726179D01*
X120187253Y-56729097D01*
X120184695Y-56732002D01*
X120184045Y-56732736D01*
X91384045Y-56732737D02*
X91378884Y-56738493D01*
X91373656Y-56744203D01*
X91368362Y-56749867D01*
X91363003Y-56755484D01*
X91357578Y-56761054D01*
X91352090Y-56766575D01*
X91346537Y-56772047D01*
X91340920Y-56777469D01*
X91335241Y-56782841D01*
X91329500Y-56788162D01*
X91323696Y-56793431D01*
X91317832Y-56798648D01*
X91311908Y-56803811D01*
X91305923Y-56808921D01*
X91299880Y-56813975D01*
X91293778Y-56818974D01*
X91287618Y-56823918D01*
X91281402Y-56828804D01*
X91275129Y-56833633D01*
X91268801Y-56838403D01*
X91262419Y-56843115D01*
X91255982Y-56847767D01*
X91249493Y-56852359D01*
X91242951Y-56856889D01*
X91236359Y-56861358D01*
X91229715Y-56865764D01*
X91223023Y-56870107D01*
X91216281Y-56874387D01*
X91209493Y-56878602D01*
X91202657Y-56882751D01*
X91195775Y-56886835D01*
X91188849Y-56890853D01*
X91181879Y-56894804D01*
X91174866Y-56898686D01*
X91167812Y-56902501D01*
X91160717Y-56906247D01*
X91153581Y-56909923D01*
X91146408Y-56913529D01*
X91139196Y-56917065D01*
X91131949Y-56920529D01*
X91124665Y-56923922D01*
X91117348Y-56927242D01*
X91109997Y-56930490D01*
X91106309Y-56932086D01*
X91102614Y-56933664D01*
X91098911Y-56935224D01*
X91095200Y-56936765D01*
X91091481Y-56938287D01*
X91087756Y-56939791D01*
X91084023Y-56941276D01*
X91080283Y-56942743D01*
X91076536Y-56944191D01*
X91072782Y-56945620D01*
X91069022Y-56947030D01*
X91065255Y-56948421D01*
X91061482Y-56949793D01*
X91057703Y-56951146D01*
X91053918Y-56952480D01*
X91050126Y-56953795D01*
X91046329Y-56955091D01*
X91042526Y-56956368D01*
X91038719Y-56957625D01*
X91034905Y-56958863D01*
X91031086Y-56960081D01*
X91027262Y-56961281D01*
X91023434Y-56962460D01*
X91019600Y-56963621D01*
X91015762Y-56964762D01*
X91011919Y-56965883D01*
X91008072Y-56966985D01*
X91004221Y-56968067D01*
X91000366Y-56969129D01*
X90996506Y-56970172D01*
X90992644Y-56971195D01*
X90988776Y-56972199D01*
X90984907Y-56973182D01*
X90981032Y-56974146D01*
X90977156Y-56975090D01*
X90973276Y-56976014D01*
X90969394Y-56976918D01*
X90965507Y-56977803D01*
X90961620Y-56978667D01*
X90957728Y-56979512D01*
X90953836Y-56980337D01*
X90949939Y-56981141D01*
X90946043Y-56981926D01*
X90942142Y-56982691D01*
X90938241Y-56983435D01*
X90934337Y-56984160D01*
X90930434Y-56984864D01*
X90926526Y-56985548D01*
X90922620Y-56986212D01*
X90918710Y-56986857D01*
X90914801Y-56987481D01*
X90910889Y-56988085D01*
X90906979Y-56988668D01*
X90903066Y-56989232D01*
X90899154Y-56989776D01*
X90895240Y-56990299D01*
X90891328Y-56990802D01*
X90887413Y-56991285D01*
X90883501Y-56991748D01*
X90879586Y-56992191D01*
X90875674Y-56992613D01*
X90871760Y-56993016D01*
X90867849Y-56993398D01*
X90863936Y-56993760D01*
X90860026Y-56994102D01*
X90856114Y-56994423D01*
X90852206Y-56994725D01*
X90848297Y-56995006D01*
X90844391Y-56995267D01*
X90840484Y-56995508D01*
X90836581Y-56995729D01*
X90832677Y-56995930D01*
X90828777Y-56996110D01*
X90824876Y-56996271D01*
X90820980Y-56996411D01*
X90817083Y-56996532D01*
X90813191Y-56996632D01*
X90809298Y-56996712D01*
X90805411Y-56996772D01*
X90801523Y-56996811D01*
X90797641Y-56996831D01*
X90793758Y-56996831D01*
X90789881Y-56996811D01*
X90786003Y-56996771D01*
X90778382Y-56996633D01*
D10*
X55395303Y-28572003D02*
G75*
G02*
X61395305Y-22572003I5999997J3D01*
G01*
X133190000Y-61040002D02*
G75*
G02*
X121190000Y-73040000I-12000000J2D01*
G01*
D11*
X86378778Y-72893174D02*
X86406651Y-72897963D01*
X86434537Y-72902674D01*
X86462437Y-72907305D01*
X86490350Y-72911858D01*
X86518276Y-72916332D01*
X86546214Y-72920726D01*
X86574165Y-72925042D01*
X86602129Y-72929279D01*
X86630104Y-72933436D01*
X86658091Y-72937515D01*
X86686090Y-72941514D01*
X86714100Y-72945434D01*
X86742121Y-72949275D01*
X86770153Y-72953036D01*
X86798195Y-72956719D01*
X86826248Y-72960322D01*
X86854312Y-72963845D01*
X86868347Y-72965577D01*
X86882385Y-72967290D01*
X86896426Y-72968982D01*
X86910468Y-72970654D01*
X86924514Y-72972307D01*
X86938561Y-72973940D01*
X86952611Y-72975553D01*
X86966663Y-72977146D01*
X86980717Y-72978719D01*
X86994774Y-72980272D01*
X87008833Y-72981806D01*
X87022894Y-72983319D01*
X87036957Y-72984813D01*
X87051023Y-72986287D01*
X87065090Y-72987741D01*
X87079160Y-72989175D01*
X87093232Y-72990589D01*
X87107305Y-72991983D01*
X87121381Y-72993358D01*
X87135459Y-72994712D01*
X87149538Y-72996046D01*
X87163620Y-72997361D01*
X87177703Y-72998656D01*
X87191788Y-72999931D01*
X87205875Y-73001185D01*
X87219964Y-73002420D01*
X87229293Y-73003227D01*
D10*
X61076044Y-61451235D02*
X66091702Y-61451235D01*
X66591701Y-60951236D02*
X66591701Y-57854134D01*
X98270086Y-30847003D02*
G75*
G02*
X96070088Y-30847003I-1099999J0D01*
G01*
X96070088Y-30847003D02*
G75*
G02*
X98270086Y-30847003I1099999J0D01*
G01*
X103465470Y-37991397D02*
G75*
G02*
X100465503Y-34991392I30J2999997D01*
G01*
X19190001Y-53701697D02*
G75*
G02*
X27434353Y-46813180I6999999J7D01*
G01*
X64293889Y-73040001D02*
X31190001Y-73040001D01*
X124945648Y-46813185D02*
G75*
G02*
X133190004Y-53701701I1244352J-6888515D01*
G01*
X66091700Y-57354133D02*
X61076044Y-57354134D01*
D11*
X90778382Y-56996633D02*
X90770586Y-56996413D01*
X90762783Y-56996112D01*
X90754974Y-56995731D01*
X90747160Y-56995270D01*
X90739342Y-56994729D01*
X90731520Y-56994107D01*
X90723696Y-56993405D01*
X90715871Y-56992622D01*
X90708045Y-56991759D01*
X90700220Y-56990816D01*
X90692397Y-56989792D01*
X90684577Y-56988688D01*
X90676761Y-56987504D01*
X90668950Y-56986240D01*
X90661145Y-56984896D01*
X90653346Y-56983472D01*
X90645556Y-56981968D01*
X90637776Y-56980384D01*
X90630006Y-56978721D01*
X90622247Y-56976979D01*
X90614501Y-56975157D01*
X90606768Y-56973257D01*
X90599051Y-56971278D01*
X90591349Y-56969220D01*
X90583665Y-56967084D01*
X90575999Y-56964871D01*
X90568352Y-56962579D01*
X90560726Y-56960211D01*
X90553121Y-56957765D01*
X90545539Y-56955242D01*
X90537982Y-56952644D01*
X90530449Y-56949969D01*
X90522942Y-56947219D01*
X90515463Y-56944393D01*
X90511734Y-56942952D01*
X90508012Y-56941493D01*
X90504298Y-56940015D01*
X90500591Y-56938518D01*
X90496892Y-56937003D01*
X90493200Y-56935470D01*
X90489517Y-56933918D01*
X90485841Y-56932348D01*
X90482174Y-56930759D01*
X90478515Y-56929153D01*
X90474865Y-56927528D01*
X90471223Y-56925885D01*
X90467591Y-56924225D01*
X90463966Y-56922546D01*
X90460351Y-56920849D01*
X90456745Y-56919135D01*
X90453149Y-56917403D01*
X90449561Y-56915653D01*
X90445984Y-56913886D01*
X90442416Y-56912101D01*
X90438858Y-56910299D01*
X90435309Y-56908479D01*
X90431771Y-56906642D01*
X90428243Y-56904787D01*
X90424726Y-56902916D01*
X90421218Y-56901027D01*
X90417722Y-56899122D01*
X90414235Y-56897199D01*
X90410760Y-56895259D01*
X90407295Y-56893303D01*
X90403843Y-56891330D01*
X90400400Y-56889340D01*
X90396970Y-56887334D01*
X90393550Y-56885310D01*
X90390143Y-56883272D01*
X90386746Y-56881215D01*
X90383362Y-56879144D01*
X90379988Y-56877055D01*
X90376629Y-56874952D01*
X90373279Y-56872831D01*
X90369944Y-56870695D01*
X90366619Y-56868542D01*
X90363308Y-56866375D01*
X90360008Y-56864191D01*
X90356722Y-56861992D01*
X90353448Y-56859776D01*
X90350188Y-56857547D01*
X90346939Y-56855300D01*
X90343705Y-56853040D01*
X90340483Y-56850763D01*
X90337275Y-56848472D01*
X90334079Y-56846165D01*
X90330898Y-56843844D01*
X90327729Y-56841507D01*
X90324576Y-56839157D01*
X90321434Y-56836790D01*
X90318308Y-56834410D01*
X90315194Y-56832015D01*
X90312096Y-56829606D01*
X90309011Y-56827181D01*
X90305941Y-56824744D01*
X90302884Y-56822290D01*
X90299843Y-56819825D01*
X90296814Y-56817343D01*
X90293802Y-56814849D01*
X90290803Y-56812340D01*
X90287820Y-56809819D01*
X90284851Y-56807282D01*
X90283987Y-56806539D01*
D10*
X86378778Y-72893174D02*
X85454590Y-72737082D01*
X121190000Y-73040001D02*
X88086111Y-73040001D01*
X78823850Y-61451235D02*
X85194600Y-61451235D01*
D11*
X119578382Y-56996633D02*
X119570586Y-56996413D01*
X119562783Y-56996112D01*
X119554974Y-56995731D01*
X119547159Y-56995270D01*
X119539341Y-56994728D01*
X119531519Y-56994106D01*
X119523695Y-56993404D01*
X119515869Y-56992622D01*
X119508044Y-56991759D01*
X119500219Y-56990815D01*
X119492396Y-56989792D01*
X119484576Y-56988688D01*
X119476759Y-56987504D01*
X119468948Y-56986239D01*
X119461142Y-56984895D01*
X119453344Y-56983471D01*
X119445554Y-56981967D01*
X119437773Y-56980383D01*
X119430003Y-56978720D01*
X119422244Y-56976978D01*
X119414498Y-56975156D01*
X119406766Y-56973256D01*
X119399048Y-56971277D01*
X119391346Y-56969219D01*
X119383662Y-56967083D01*
X119375996Y-56964870D01*
X119368349Y-56962578D01*
X119360723Y-56960209D01*
X119353118Y-56957764D01*
X119345536Y-56955241D01*
X119337979Y-56952642D01*
X119330446Y-56949968D01*
X119322939Y-56947217D01*
X119315460Y-56944392D01*
X119311731Y-56942951D01*
X119308009Y-56941492D01*
X119304295Y-56940014D01*
X119300588Y-56938517D01*
X119296889Y-56937002D01*
X119293197Y-56935468D01*
X119289514Y-56933917D01*
X119285839Y-56932346D01*
X119282172Y-56930758D01*
X119278513Y-56929151D01*
X119274863Y-56927527D01*
X119271221Y-56925884D01*
X119267588Y-56924223D01*
X119263964Y-56922545D01*
X119260349Y-56920848D01*
X119256743Y-56919134D01*
X119253146Y-56917402D01*
X119249559Y-56915652D01*
X119245981Y-56913885D01*
X119242413Y-56912100D01*
X119238855Y-56910297D01*
X119235307Y-56908477D01*
X119231769Y-56906641D01*
X119228240Y-56904786D01*
X119224723Y-56902915D01*
X119221215Y-56901026D01*
X119217719Y-56899120D01*
X119214233Y-56897197D01*
X119210758Y-56895258D01*
X119207293Y-56893301D01*
X119203841Y-56891329D01*
X119200398Y-56889339D01*
X119196968Y-56887333D01*
X119193548Y-56885309D01*
X119190141Y-56883270D01*
X119186744Y-56881214D01*
X119183360Y-56879143D01*
X119179987Y-56877054D01*
X119176627Y-56874950D01*
X119173277Y-56872830D01*
X119169942Y-56870694D01*
X119166617Y-56868541D01*
X119163306Y-56866374D01*
X119160006Y-56864190D01*
X119156721Y-56861991D01*
X119153446Y-56859775D01*
X119150186Y-56857546D01*
X119146938Y-56855299D01*
X119143704Y-56853039D01*
X119140481Y-56850762D01*
X119137274Y-56848471D01*
X119134078Y-56846164D01*
X119130897Y-56843843D01*
X119127728Y-56841506D01*
X119124575Y-56839156D01*
X119121433Y-56836789D01*
X119118307Y-56834410D01*
X119115193Y-56832014D01*
X119112095Y-56829605D01*
X119109009Y-56827180D01*
X119105940Y-56824743D01*
X119102883Y-56822289D01*
X119099842Y-56819824D01*
X119096813Y-56817342D01*
X119093801Y-56814848D01*
X119090802Y-56812339D01*
X119087820Y-56809818D01*
X119084850Y-56807281D01*
X119083986Y-56806538D01*
D10*
X66591701Y-60951236D02*
G75*
G02*
X66091702Y-61451201I-500001J36D01*
G01*
X105181145Y-37991397D02*
G75*
G02*
X109323869Y-40203265I-7745J-5000003D01*
G01*
X76689999Y-27540001D02*
G75*
G02*
X75690001Y-27540001I-499999J0D01*
G01*
X75690001Y-27540001D02*
G75*
G02*
X76689999Y-27540001I499999J0D01*
G01*
X71301723Y-72164298D02*
X68586868Y-72483539D01*
X85694590Y-60944721D02*
X85694590Y-57854102D01*
X85694590Y-60944721D02*
G75*
G02*
X85194600Y-61451232I-499990J-6479D01*
G01*
D11*
X118811109Y-56211390D02*
X118811149Y-56203697D01*
X118811269Y-56195993D01*
X118811469Y-56188280D01*
X118811749Y-56180558D01*
X118812110Y-56172828D01*
X118812550Y-56165091D01*
X118813072Y-56157348D01*
X118813673Y-56149599D01*
X118814355Y-56141845D01*
X118815118Y-56134087D01*
X118815962Y-56126327D01*
X118816886Y-56118564D01*
X118817890Y-56110800D01*
X118818976Y-56103036D01*
X118820141Y-56095273D01*
X118821388Y-56087511D01*
X118822715Y-56079752D01*
X118824123Y-56071996D01*
X118825610Y-56064245D01*
X118827179Y-56056499D01*
X118828827Y-56048760D01*
X118830556Y-56041029D01*
X118832365Y-56033306D01*
X118834253Y-56025593D01*
X118836221Y-56017890D01*
X118838269Y-56010199D01*
X118840396Y-56002521D01*
X118842602Y-55994857D01*
X118844887Y-55987208D01*
X118847251Y-55979575D01*
X118849693Y-55971960D01*
X118852213Y-55964362D01*
X118854811Y-55956784D01*
X118857487Y-55949227D01*
X118860240Y-55941691D01*
X118863069Y-55934178D01*
X118865975Y-55926689D01*
X118868957Y-55919225D01*
X118872015Y-55911787D01*
X118875148Y-55904377D01*
X118878355Y-55896994D01*
X118881638Y-55889642D01*
X118884994Y-55882320D01*
X118888423Y-55875029D01*
X118891926Y-55867772D01*
X118895501Y-55860549D01*
X118899147Y-55853360D01*
X118902865Y-55846208D01*
X118904751Y-55842646D01*
X118906654Y-55839093D01*
X118908575Y-55835550D01*
X118910513Y-55832017D01*
X118912469Y-55828493D01*
X118914442Y-55824980D01*
X118916432Y-55821477D01*
X118918440Y-55817983D01*
X118920464Y-55814501D01*
X118922506Y-55811028D01*
X118924564Y-55807567D01*
X118926640Y-55804116D01*
X118928732Y-55800676D01*
X118930841Y-55797247D01*
X118932966Y-55793830D01*
X118935108Y-55790423D01*
X118937267Y-55787028D01*
X118939442Y-55783645D01*
X118941633Y-55780273D01*
X118943840Y-55776913D01*
X118946063Y-55773565D01*
X118948303Y-55770229D01*
X118950558Y-55766905D01*
X118952830Y-55763593D01*
X118955116Y-55760295D01*
X118957419Y-55757007D01*
X118959737Y-55753734D01*
X118962071Y-55750472D01*
X118964420Y-55747224D01*
X118966785Y-55743988D01*
X118969164Y-55740766D01*
X118971560Y-55737556D01*
X118973969Y-55734361D01*
X118976394Y-55731178D01*
X118978834Y-55728010D01*
X118981289Y-55724854D01*
X118983757Y-55721713D01*
X118986241Y-55718584D01*
X118988739Y-55715471D01*
X118991252Y-55712371D01*
X118993778Y-55709286D01*
X118996320Y-55706214D01*
X118998874Y-55703158D01*
X119001444Y-55700115D01*
X119004026Y-55697087D01*
X119006624Y-55694073D01*
X119009234Y-55691076D01*
X119011859Y-55688091D01*
X119014496Y-55685123D01*
X119017147Y-55682169D01*
X119019811Y-55679231D01*
X119022490Y-55676307D01*
X119025180Y-55673400D01*
X119027884Y-55670506D01*
X119030600Y-55667630D01*
X119033331Y-55664767D01*
X119036072Y-55661922D01*
X119038828Y-55659091D01*
X119041595Y-55656277D01*
X119044376Y-55653478D01*
X119047167Y-55650696D01*
X119049973Y-55647928D01*
X119052789Y-55645179D01*
X119055618Y-55642444D01*
X119058458Y-55639727D01*
X119061312Y-55637024D01*
X119064176Y-55634340D01*
X119067053Y-55631670D01*
X119069940Y-55629018D01*
X119072840Y-55626382D01*
X119075750Y-55623764D01*
X119078673Y-55621161D01*
X119081605Y-55618576D01*
X119084551Y-55616007D01*
X119087505Y-55613456D01*
X119090473Y-55610921D01*
X119093449Y-55608404D01*
X119096438Y-55605903D01*
X119099436Y-55603421D01*
X119102446Y-55600954D01*
X119105465Y-55598506D01*
X119108496Y-55596074D01*
X119111535Y-55593661D01*
X119114587Y-55591264D01*
X119117647Y-55588886D01*
X119120719Y-55586523D01*
X119123799Y-55584181D01*
X119126891Y-55581854D01*
X119129990Y-55579546D01*
X119133101Y-55577255D01*
X119136220Y-55574983D01*
X119139350Y-55572727D01*
X119144785Y-55568869D01*
X90053666Y-56466425D02*
X90051140Y-56458944D01*
X90048689Y-56451433D01*
X90046312Y-56443892D01*
X90044010Y-56436324D01*
X90041783Y-56428728D01*
X90039632Y-56421106D01*
X90037557Y-56413459D01*
X90035558Y-56405788D01*
X90033636Y-56398094D01*
X90031791Y-56390379D01*
X90030024Y-56382642D01*
X90028333Y-56374887D01*
X90026721Y-56367113D01*
X90025187Y-56359321D01*
X90023732Y-56351514D01*
X90022354Y-56343692D01*
X90021056Y-56335855D01*
X90020437Y-56331933D01*
X90019837Y-56328007D01*
X90019257Y-56324078D01*
X90018697Y-56320146D01*
X90018156Y-56316212D01*
X90017636Y-56312276D01*
X90017135Y-56308337D01*
X90016654Y-56304396D01*
X90016194Y-56300453D01*
X90015753Y-56296508D01*
X90015332Y-56292561D01*
X90014931Y-56288613D01*
X90014550Y-56284664D01*
X90014189Y-56280712D01*
X90013848Y-56276761D01*
X90013526Y-56272807D01*
X90013225Y-56268854D01*
X90012944Y-56264899D01*
X90012683Y-56260944D01*
X90012442Y-56256988D01*
X90012221Y-56253032D01*
X90012020Y-56249076D01*
X90011839Y-56245120D01*
X90011678Y-56241164D01*
X90011537Y-56237209D01*
X90011417Y-56233253D01*
X90011316Y-56229299D01*
X90011235Y-56225345D01*
X90011174Y-56221392D01*
X90011134Y-56217439D01*
X90011110Y-56211390D01*
D10*
X100465467Y-28572012D02*
X100465467Y-34991392D01*
D11*
X91572738Y-56091024D02*
X91573883Y-56098665D01*
X91574950Y-56106328D01*
X91575939Y-56114013D01*
X91576850Y-56121718D01*
X91577684Y-56129444D01*
X91578439Y-56137188D01*
X91579115Y-56144950D01*
X91579713Y-56152730D01*
X91580231Y-56160526D01*
X91580671Y-56168337D01*
X91581032Y-56176163D01*
X91581313Y-56184003D01*
X91581514Y-56191856D01*
X91581636Y-56199720D01*
X91581678Y-56207595D01*
X91581640Y-56215480D01*
X91581523Y-56223374D01*
X91581325Y-56231276D01*
X91581047Y-56239184D01*
X91580689Y-56247098D01*
X91580250Y-56255017D01*
X91579731Y-56262939D01*
X91579132Y-56270864D01*
X91578453Y-56278791D01*
X91577694Y-56286717D01*
X91576854Y-56294643D01*
X91575934Y-56302567D01*
X91574933Y-56310488D01*
X91573853Y-56318405D01*
X91572693Y-56326317D01*
X91571453Y-56334222D01*
X91570133Y-56342119D01*
X91568733Y-56350008D01*
X91567254Y-56357887D01*
X91565696Y-56365754D01*
X91564059Y-56373610D01*
X91562342Y-56381452D01*
X91560547Y-56389279D01*
X91558674Y-56397091D01*
X91556722Y-56404885D01*
X91554693Y-56412662D01*
X91552586Y-56420419D01*
X91550401Y-56428155D01*
X91548140Y-56435870D01*
X91546980Y-56439719D01*
X91545802Y-56443562D01*
X91544604Y-56447399D01*
X91543387Y-56451230D01*
X91542152Y-56455054D01*
X91540897Y-56458873D01*
X91539623Y-56462684D01*
X91538331Y-56466489D01*
X91537020Y-56470287D01*
X91535690Y-56474078D01*
X91534341Y-56477861D01*
X91532974Y-56481638D01*
X91531588Y-56485407D01*
X91530184Y-56489169D01*
X91528761Y-56492922D01*
X91527320Y-56496669D01*
X91525860Y-56500406D01*
X91524382Y-56504136D01*
X91522886Y-56507858D01*
X91521372Y-56511571D01*
X91519840Y-56515275D01*
X91518289Y-56518972D01*
X91516720Y-56522658D01*
X91515134Y-56526337D01*
X91513530Y-56530005D01*
X91511907Y-56533666D01*
X91510268Y-56537316D01*
X91508610Y-56540958D01*
X91506935Y-56544588D01*
X91505242Y-56548211D01*
X91503532Y-56551822D01*
X91501804Y-56555425D01*
X91500059Y-56559016D01*
X91498297Y-56562598D01*
X91496517Y-56566169D01*
X91494720Y-56569730D01*
X91492907Y-56573280D01*
X91491076Y-56576820D01*
X91489229Y-56580348D01*
X91487364Y-56583866D01*
X91485483Y-56587372D01*
X91483585Y-56590868D01*
X91481671Y-56594351D01*
X91479739Y-56597825D01*
X91477792Y-56601285D01*
X91475827Y-56604735D01*
X91473847Y-56608172D01*
X91471850Y-56611599D01*
X91469838Y-56615011D01*
X91467808Y-56618414D01*
X91465764Y-56621803D01*
X91463703Y-56625181D01*
X91461626Y-56628545D01*
X91459533Y-56631898D01*
X91457425Y-56635237D01*
X91455301Y-56638565D01*
X91453162Y-56641878D01*
X91451006Y-56645180D01*
X91448837Y-56648467D01*
X91446650Y-56651743D01*
X91444450Y-56655004D01*
X91442233Y-56658254D01*
X91440002Y-56661488D01*
X91437755Y-56664710D01*
X91435495Y-56667917D01*
X91433218Y-56671113D01*
X91430928Y-56674292D01*
X91428621Y-56677460D01*
X91426302Y-56680612D01*
X91423966Y-56683752D01*
X91421618Y-56686876D01*
X91419254Y-56689987D01*
X91416877Y-56693083D01*
X91414483Y-56696166D01*
X91412078Y-56699232D01*
X91409657Y-56702286D01*
X91407223Y-56705323D01*
X91404774Y-56708348D01*
X91402313Y-56711356D01*
X91399836Y-56714352D01*
X91397348Y-56717330D01*
X91394843Y-56720295D01*
X91392328Y-56723244D01*
X91389797Y-56726179D01*
X91387254Y-56729097D01*
X91384696Y-56732002D01*
X91384045Y-56732737D01*
D10*
X41583122Y-62811400D02*
G75*
G02*
X39583122Y-62811400I-1000000J0D01*
G01*
X39583122Y-62811400D02*
G75*
G02*
X41583122Y-62811400I1000000J0D01*
G01*
X85454590Y-72737082D02*
X84827816Y-72638733D01*
D11*
X119083986Y-56806538D02*
X119078064Y-56801385D01*
X119072190Y-56796167D01*
X119066362Y-56790884D01*
X119060583Y-56785537D01*
X119054853Y-56780127D01*
X119049173Y-56774654D01*
X119043544Y-56769119D01*
X119037967Y-56763522D01*
X119032442Y-56757865D01*
X119026970Y-56752148D01*
X119021552Y-56746371D01*
X119016189Y-56740536D01*
X119010882Y-56734644D01*
X119005631Y-56728695D01*
X119000437Y-56722689D01*
X118995302Y-56716629D01*
X118990225Y-56710514D01*
X118985207Y-56704345D01*
X118980250Y-56698124D01*
X118975354Y-56691851D01*
X118970520Y-56685528D01*
X118965748Y-56679154D01*
X118961040Y-56672731D01*
X118956395Y-56666261D01*
X118951815Y-56659743D01*
X118947300Y-56653179D01*
X118945068Y-56649880D01*
X118942852Y-56646569D01*
X118940652Y-56643248D01*
X118938469Y-56639916D01*
X118936304Y-56636573D01*
X118934155Y-56633219D01*
X118932023Y-56629855D01*
X118929908Y-56626480D01*
X118927810Y-56623095D01*
X118925730Y-56619699D01*
X118923666Y-56616294D01*
X118921620Y-56612879D01*
X118919592Y-56609454D01*
X118917581Y-56606019D01*
X118915588Y-56602575D01*
X118913612Y-56599121D01*
X118911654Y-56595658D01*
X118909714Y-56592185D01*
X118907792Y-56588704D01*
X118905887Y-56585214D01*
X118904001Y-56581715D01*
X118902132Y-56578207D01*
X118900282Y-56574691D01*
X118898450Y-56571166D01*
X118896637Y-56567633D01*
X118894841Y-56564092D01*
X118893064Y-56560543D01*
X118891305Y-56556986D01*
X118889565Y-56553421D01*
X118887843Y-56549848D01*
X118886140Y-56546269D01*
X118884456Y-56542681D01*
X118882790Y-56539087D01*
X118881143Y-56535485D01*
X118879515Y-56531877D01*
X118877906Y-56528261D01*
X118876316Y-56524639D01*
X118874744Y-56521010D01*
X118873192Y-56517375D01*
X118871658Y-56513733D01*
X118870144Y-56510085D01*
X118868648Y-56506431D01*
X118867173Y-56502771D01*
X118865716Y-56499105D01*
X118864279Y-56495434D01*
X118862860Y-56491756D01*
X118861462Y-56488074D01*
X118860082Y-56484385D01*
X118858722Y-56480693D01*
X118857381Y-56476994D01*
X118856061Y-56473292D01*
X118854759Y-56469583D01*
X118853667Y-56466425D01*
D10*
X60576044Y-57854137D02*
G75*
G02*
X61076044Y-57354144I499956J37D01*
G01*
X133190000Y-53701701D02*
X133190000Y-61040002D01*
D11*
X90011110Y-56211390D02*
X90011150Y-56203697D01*
X90011270Y-56195993D01*
X90011470Y-56188280D01*
X90011750Y-56180558D01*
X90012110Y-56172829D01*
X90012551Y-56165092D01*
X90013072Y-56157348D01*
X90013674Y-56149599D01*
X90014356Y-56141845D01*
X90015119Y-56134088D01*
X90015962Y-56126327D01*
X90016886Y-56118565D01*
X90017891Y-56110801D01*
X90018976Y-56103037D01*
X90020142Y-56095273D01*
X90021388Y-56087512D01*
X90022715Y-56079752D01*
X90024123Y-56071997D01*
X90025611Y-56064246D01*
X90027179Y-56056500D01*
X90028828Y-56048761D01*
X90030556Y-56041030D01*
X90032365Y-56033307D01*
X90034253Y-56025593D01*
X90036222Y-56017891D01*
X90038269Y-56010200D01*
X90040396Y-56002522D01*
X90042603Y-55994858D01*
X90044888Y-55987209D01*
X90047251Y-55979576D01*
X90049693Y-55971961D01*
X90052213Y-55964363D01*
X90054811Y-55956786D01*
X90057487Y-55949228D01*
X90060240Y-55941692D01*
X90063069Y-55934179D01*
X90065975Y-55926690D01*
X90068957Y-55919226D01*
X90072015Y-55911788D01*
X90075148Y-55904378D01*
X90078355Y-55896996D01*
X90081637Y-55889643D01*
X90084994Y-55882321D01*
X90088423Y-55875031D01*
X90091925Y-55867773D01*
X90095500Y-55860550D01*
X90099147Y-55853361D01*
X90102865Y-55846209D01*
X90104751Y-55842647D01*
X90106654Y-55839094D01*
X90108575Y-55835551D01*
X90110513Y-55832018D01*
X90112469Y-55828494D01*
X90114442Y-55824981D01*
X90116432Y-55821478D01*
X90118439Y-55817984D01*
X90120464Y-55814502D01*
X90122506Y-55811029D01*
X90124564Y-55807568D01*
X90126639Y-55804117D01*
X90128731Y-55800677D01*
X90130840Y-55797248D01*
X90132966Y-55793831D01*
X90135108Y-55790424D01*
X90137266Y-55787029D01*
X90139441Y-55783646D01*
X90141632Y-55780274D01*
X90143840Y-55776914D01*
X90146063Y-55773566D01*
X90148303Y-55770230D01*
X90150558Y-55766906D01*
X90152829Y-55763594D01*
X90155116Y-55760296D01*
X90157419Y-55757008D01*
X90159737Y-55753735D01*
X90162071Y-55750473D01*
X90164420Y-55747225D01*
X90166785Y-55743989D01*
X90169164Y-55740767D01*
X90171559Y-55737557D01*
X90173969Y-55734362D01*
X90176394Y-55731179D01*
X90178833Y-55728011D01*
X90181288Y-55724855D01*
X90183757Y-55721714D01*
X90186241Y-55718585D01*
X90188738Y-55715472D01*
X90191251Y-55712372D01*
X90193778Y-55709287D01*
X90196319Y-55706215D01*
X90198874Y-55703159D01*
X90201444Y-55700115D01*
X90204026Y-55697088D01*
X90206623Y-55694074D01*
X90209233Y-55691077D01*
X90211858Y-55688092D01*
X90214495Y-55685124D01*
X90217147Y-55682170D01*
X90219810Y-55679232D01*
X90222489Y-55676308D01*
X90225179Y-55673400D01*
X90227884Y-55670507D01*
X90230599Y-55667631D01*
X90233330Y-55664768D01*
X90236071Y-55661923D01*
X90238827Y-55659092D01*
X90241594Y-55656278D01*
X90244375Y-55653478D01*
X90247166Y-55650697D01*
X90249972Y-55647929D01*
X90252788Y-55645180D01*
X90255618Y-55642444D01*
X90258458Y-55639727D01*
X90261311Y-55637025D01*
X90264175Y-55634340D01*
X90267052Y-55631671D01*
X90269939Y-55629019D01*
X90272839Y-55626383D01*
X90275749Y-55623765D01*
X90278672Y-55621161D01*
X90281604Y-55618577D01*
X90284550Y-55616008D01*
X90287504Y-55613457D01*
X90290472Y-55610922D01*
X90293448Y-55608405D01*
X90296437Y-55605904D01*
X90299435Y-55603422D01*
X90302445Y-55600955D01*
X90305464Y-55598507D01*
X90308495Y-55596075D01*
X90311534Y-55593662D01*
X90314586Y-55591264D01*
X90317646Y-55588887D01*
X90320718Y-55586524D01*
X90323798Y-55584182D01*
X90326890Y-55581854D01*
X90329989Y-55579547D01*
X90333100Y-55577256D01*
X90336218Y-55574984D01*
X90339349Y-55572728D01*
X90344785Y-55568869D01*
X83265203Y-72411622D02*
X83171103Y-72400610D01*
X83079401Y-72389899D01*
X82992024Y-72379713D01*
X82906849Y-72369804D01*
X82825576Y-72360370D01*
X82746326Y-72351190D01*
X82670603Y-72342439D01*
X82596741Y-72333923D01*
X82526069Y-72325796D01*
X82457111Y-72317885D01*
X82391040Y-72310326D01*
X82326550Y-72302968D01*
X82264672Y-72295928D01*
X82204254Y-72289075D01*
X82146201Y-72282509D01*
X82089496Y-72276117D01*
X82034929Y-72269985D01*
X81981609Y-72264014D01*
X81930221Y-72258279D01*
X81879986Y-72252693D01*
X81831494Y-72247321D01*
X81784068Y-72242087D01*
X81738210Y-72237046D01*
X81693340Y-72232134D01*
X81649875Y-72227395D01*
X81607325Y-72222777D01*
X81566028Y-72218314D01*
X81525578Y-72213963D01*
X81486239Y-72209752D01*
X81447683Y-72205644D01*
X81410105Y-72201661D01*
X81373250Y-72197774D01*
X81337243Y-72193997D01*
X81301906Y-72190310D01*
X81267291Y-72186718D01*
X81233294Y-72183210D01*
X81199897Y-72179784D01*
X81167068Y-72176437D01*
X81134717Y-72173157D01*
X81102888Y-72169951D01*
X81071411Y-72166800D01*
X81040412Y-72163717D01*
X80979293Y-72157697D01*
X80919168Y-72151854D01*
X80859644Y-72146148D01*
X80800285Y-72140536D01*
X80740586Y-72134971D01*
X80679938Y-72129396D01*
X80617560Y-72123740D01*
X80552393Y-72117909D01*
X80509797Y-72114136D01*
D10*
X48339909Y-56211390D02*
G75*
G02*
X46026965Y-56211390I-1156472J0D01*
G01*
X46026965Y-56211390D02*
G75*
G02*
X48339909Y-56211390I1156472J0D01*
G01*
X19190000Y-61040000D02*
X19190000Y-53701696D01*
X103465470Y-37991397D02*
X105181145Y-37991397D01*
X94473205Y-22572001D02*
G75*
G02*
X100465504Y-28572012I-7705J-5999999D01*
G01*
X85190128Y-57354133D02*
G75*
G02*
X85694587Y-57854102I4472J-499967D01*
G01*
D11*
X77496631Y-71954923D02*
X77400678Y-71954479D01*
X77306834Y-71954066D01*
X77216664Y-71953688D01*
X77128462Y-71953339D01*
X77043645Y-71953023D01*
X76960668Y-71952734D01*
X76880814Y-71952476D01*
X76802679Y-71952244D01*
X76727425Y-71952040D01*
X76653779Y-71951861D01*
X76582792Y-71951708D01*
X76513311Y-71951578D01*
X76446283Y-71951473D01*
X76380666Y-71951390D01*
X76317313Y-71951330D01*
X76255281Y-71951291D01*
X76195338Y-71951274D01*
X76136634Y-71951277D01*
X76079856Y-71951299D01*
X76024239Y-71951342D01*
X75970397Y-71951402D01*
X75917645Y-71951482D01*
X75866526Y-71951579D01*
X75816429Y-71951694D01*
X75767834Y-71951826D01*
X75720197Y-71951975D01*
X75673939Y-71952139D01*
X75628580Y-71952321D01*
X75584483Y-71952517D01*
X75541230Y-71952729D01*
X75499129Y-71952956D01*
X75457820Y-71953198D01*
X75417557Y-71953454D01*
X75378039Y-71953726D01*
X75339467Y-71954010D01*
X75301594Y-71954310D01*
X75264571Y-71954622D01*
X75228204Y-71954949D01*
X75192594Y-71955289D01*
X75157598Y-71955643D01*
X75123271Y-71956010D01*
X75089519Y-71956391D01*
X75056346Y-71956785D01*
X75023712Y-71957193D01*
X74991568Y-71957614D01*
X74959928Y-71958048D01*
X74928690Y-71958497D01*
X74897923Y-71958959D01*
X74867465Y-71959436D01*
X74837446Y-71959925D01*
X74778245Y-71960950D01*
X74720056Y-71962036D01*
X74662598Y-71963187D01*
X74605564Y-71964407D01*
X74548611Y-71965705D01*
X74491340Y-71967088D01*
X74433268Y-71968568D01*
X74373789Y-71970162D01*
X74312093Y-71971893D01*
X74256060Y-71973528D01*
D10*
X85190128Y-57354133D02*
X78823800Y-57354134D01*
D11*
X64293889Y-73040001D02*
X64322173Y-73039961D01*
X64350457Y-73039841D01*
X64378741Y-73039641D01*
X64407024Y-73039361D01*
X64435306Y-73039001D01*
X64463587Y-73038561D01*
X64491867Y-73038041D01*
X64520145Y-73037441D01*
X64548421Y-73036761D01*
X64576695Y-73036001D01*
X64604967Y-73035162D01*
X64633236Y-73034242D01*
X64661502Y-73033242D01*
X64689766Y-73032162D01*
X64718027Y-73031003D01*
X64732156Y-73030393D01*
X64746284Y-73029763D01*
X64760411Y-73029113D01*
X64774537Y-73028443D01*
X64788662Y-73027754D01*
X64802787Y-73027044D01*
X64816910Y-73026314D01*
X64831032Y-73025565D01*
X64845153Y-73024795D01*
X64859274Y-73024006D01*
X64873393Y-73023196D01*
X64887510Y-73022366D01*
X64901627Y-73021517D01*
X64915742Y-73020648D01*
X64929856Y-73019758D01*
X64943969Y-73018849D01*
X64958081Y-73017919D01*
X64972191Y-73016970D01*
X64986300Y-73016001D01*
X65000408Y-73015012D01*
X65014514Y-73014003D01*
X65028618Y-73012974D01*
X65042722Y-73011925D01*
X65056823Y-73010856D01*
X65070923Y-73009767D01*
X65085022Y-73008658D01*
X65099119Y-73007529D01*
X65113215Y-73006380D01*
X65127308Y-73005212D01*
X65141401Y-73004023D01*
X65150707Y-73003227D01*
D10*
X123603363Y-64866761D02*
G75*
G02*
X121403363Y-64866761I-1100000J0D01*
G01*
X121403363Y-64866761D02*
G75*
G02*
X123603363Y-64866761I1100000J0D01*
G01*
X124945648Y-46813185D02*
G75*
G02*
X109323855Y-40203274I-2755348J15253185D01*
G01*
X57764534Y-42168338D02*
G75*
G02*
X54564534Y-42168338I-1600000J0D01*
G01*
X54564534Y-42168338D02*
G75*
G02*
X57764534Y-42168338I1600000J0D01*
G01*
X61395305Y-22572001D02*
X94473205Y-22572001D01*
D11*
X91136513Y-55503316D02*
X91143427Y-55506680D01*
X91150316Y-55510120D01*
X91157178Y-55513637D01*
X91164014Y-55517229D01*
X91170823Y-55520898D01*
X91177603Y-55524642D01*
X91184354Y-55528461D01*
X91191075Y-55532356D01*
X91197766Y-55536325D01*
X91204425Y-55540368D01*
X91211052Y-55544485D01*
X91217647Y-55548676D01*
X91224207Y-55552940D01*
X91230733Y-55557277D01*
X91237223Y-55561687D01*
X91243678Y-55566168D01*
X91250095Y-55570721D01*
X91256474Y-55575345D01*
X91262814Y-55580040D01*
X91269115Y-55584805D01*
X91275375Y-55589639D01*
X91281594Y-55594543D01*
X91287771Y-55599515D01*
X91293904Y-55604555D01*
X91299994Y-55609662D01*
X91306038Y-55614836D01*
X91312037Y-55620076D01*
X91317989Y-55625381D01*
X91323894Y-55630751D01*
X91329750Y-55636186D01*
X91335557Y-55641683D01*
X91341314Y-55647243D01*
X91347019Y-55652865D01*
X91352673Y-55658549D01*
X91358274Y-55664292D01*
X91363822Y-55670095D01*
X91369314Y-55675957D01*
X91374752Y-55681877D01*
X91380134Y-55687854D01*
X91385458Y-55693887D01*
X91390725Y-55699975D01*
X91395932Y-55706118D01*
X91401081Y-55712314D01*
X91406169Y-55718563D01*
X91411196Y-55724864D01*
X91416162Y-55731215D01*
X91421064Y-55737617D01*
X91425904Y-55744067D01*
X91428299Y-55747310D01*
X91430679Y-55750565D01*
X91433042Y-55753831D01*
X91435389Y-55757110D01*
X91437720Y-55760399D01*
X91440034Y-55763700D01*
X91442332Y-55767013D01*
X91444613Y-55770336D01*
X91446877Y-55773670D01*
X91449125Y-55777016D01*
X91451355Y-55780371D01*
X91453569Y-55783738D01*
X91455765Y-55787115D01*
X91457945Y-55790502D01*
X91460106Y-55793899D01*
X91462251Y-55797307D01*
X91464379Y-55800724D01*
X91466489Y-55804152D01*
X91468581Y-55807588D01*
X91470656Y-55811035D01*
X91472713Y-55814491D01*
X91474753Y-55817956D01*
X91476774Y-55821430D01*
X91478778Y-55824914D01*
X91480763Y-55828406D01*
X91482731Y-55831907D01*
X91484680Y-55835416D01*
X91486612Y-55838935D01*
X91488525Y-55842461D01*
X91490420Y-55845996D01*
X91492296Y-55849538D01*
X91494154Y-55853090D01*
X91495994Y-55856647D01*
X91497815Y-55860214D01*
X91499617Y-55863788D01*
X91501401Y-55867370D01*
X91503166Y-55870957D01*
X91504912Y-55874554D01*
X91506639Y-55878156D01*
X91508348Y-55881767D01*
X91510037Y-55885382D01*
X91511709Y-55889007D01*
X91513360Y-55892635D01*
X91514993Y-55896272D01*
X91516606Y-55899914D01*
X91518200Y-55903563D01*
X91519775Y-55907217D01*
X91521331Y-55910878D01*
X91522867Y-55914543D01*
X91524384Y-55918216D01*
X91525882Y-55921893D01*
X91527360Y-55925576D01*
X91528819Y-55929263D01*
X91530259Y-55932957D01*
X91531678Y-55936654D01*
X91533078Y-55940358D01*
X91534459Y-55944065D01*
X91535820Y-55947778D01*
X91537161Y-55951494D01*
X91538483Y-55955216D01*
X91539784Y-55958940D01*
X91541067Y-55962671D01*
X91542328Y-55966403D01*
X91543571Y-55970142D01*
X91544793Y-55973882D01*
X91545997Y-55977628D01*
X91547179Y-55981375D01*
X91548342Y-55985128D01*
X91549485Y-55988882D01*
X91550608Y-55992641D01*
X91551711Y-55996401D01*
X91552794Y-56000167D01*
X91553857Y-56003933D01*
X91554900Y-56007704D01*
X91555923Y-56011475D01*
X91556926Y-56015252D01*
X91557909Y-56019028D01*
X91558872Y-56022809D01*
X91559814Y-56026589D01*
X91560737Y-56030375D01*
X91561639Y-56034159D01*
X91562521Y-56037948D01*
X91563383Y-56041736D01*
X91564225Y-56045529D01*
X91565046Y-56049320D01*
X91565848Y-56053116D01*
X91566629Y-56056910D01*
X91567391Y-56060708D01*
X91568131Y-56064504D01*
X91568852Y-56068305D01*
X91569552Y-56072103D01*
X91570233Y-56075905D01*
X91570893Y-56079705D01*
X91571533Y-56083508D01*
X91572738Y-56091024D01*
D10*
X31190001Y-73040001D02*
G75*
G02*
X19189999Y-61040000I-1J12000001D01*
G01*
X54783753Y-49612149D02*
G75*
G02*
X52783753Y-49612149I-1000000J0D01*
G01*
X52783753Y-49612149D02*
G75*
G02*
X54783753Y-49612149I1000000J0D01*
G01*
D11*
X118853667Y-56466425D02*
X118851141Y-56458944D01*
X118848689Y-56451433D01*
X118846312Y-56443892D01*
X118844010Y-56436324D01*
X118841783Y-56428728D01*
X118839632Y-56421106D01*
X118837557Y-56413459D01*
X118835558Y-56405788D01*
X118833636Y-56398094D01*
X118831791Y-56390379D01*
X118830024Y-56382643D01*
X118828334Y-56374887D01*
X118826721Y-56367113D01*
X118825187Y-56359322D01*
X118823731Y-56351515D01*
X118822354Y-56343693D01*
X118821056Y-56335857D01*
X118820436Y-56331934D01*
X118819836Y-56328008D01*
X118819256Y-56324079D01*
X118818696Y-56320148D01*
X118818156Y-56316214D01*
X118817635Y-56312277D01*
X118817135Y-56308339D01*
X118816654Y-56304397D01*
X118816193Y-56300455D01*
X118815752Y-56296510D01*
X118815331Y-56292563D01*
X118814930Y-56288615D01*
X118814549Y-56284666D01*
X118814188Y-56280715D01*
X118813847Y-56276763D01*
X118813526Y-56272810D01*
X118813225Y-56268856D01*
X118812944Y-56264901D01*
X118812683Y-56260947D01*
X118812441Y-56256991D01*
X118812220Y-56253035D01*
X118812019Y-56249079D01*
X118811838Y-56245124D01*
X118811677Y-56241167D01*
X118811537Y-56237212D01*
X118811416Y-56233257D01*
X118811315Y-56229303D01*
X118811234Y-56225348D01*
X118811173Y-56221396D01*
X118811133Y-56217443D01*
X118811109Y-56211390D01*
D10*
X78823850Y-61451235D02*
G75*
G02*
X78323765Y-60951183I-50J500035D01*
G01*
X84827816Y-72638733D02*
X83265203Y-72411622D01*
X43056131Y-40203265D02*
G75*
G02*
X27434352Y-46813184I-12866421J8643205D01*
G01*
X43056131Y-40203265D02*
G75*
G02*
X47206590Y-37991391I4150469J-2788135D01*
G01*
X55395303Y-34991397D02*
X55395303Y-28572003D01*
X30976637Y-64866761D02*
G75*
G02*
X28776637Y-64866761I-1100000J0D01*
G01*
X28776637Y-64866761D02*
G75*
G02*
X30976637Y-64866761I1100000J0D01*
G01*
X68586868Y-72483539D02*
X66615399Y-72788068D01*
D11*
X65150707Y-73003227D02*
X65178885Y-73000764D01*
X65207055Y-72998221D01*
X65235218Y-72995598D01*
X65263373Y-72992896D01*
X65291521Y-72990114D01*
X65319660Y-72987252D01*
X65347791Y-72984311D01*
X65375914Y-72981290D01*
X65404028Y-72978190D01*
X65432133Y-72975011D01*
X65460228Y-72971751D01*
X65488314Y-72968413D01*
X65516391Y-72964995D01*
X65530426Y-72963256D01*
X65544458Y-72961498D01*
X65558487Y-72959719D01*
X65572514Y-72957921D01*
X65586539Y-72956103D01*
X65600561Y-72954265D01*
X65614580Y-72952407D01*
X65628596Y-72950529D01*
X65642610Y-72948632D01*
X65656621Y-72946715D01*
X65670630Y-72944778D01*
X65684635Y-72942821D01*
X65698638Y-72940844D01*
X65712638Y-72938848D01*
X65726635Y-72936832D01*
X65740630Y-72934795D01*
X65754621Y-72932740D01*
X65768609Y-72930664D01*
X65782595Y-72928569D01*
X65796577Y-72926454D01*
X65810556Y-72924319D01*
X65824533Y-72922164D01*
X65838506Y-72919989D01*
X65852476Y-72917795D01*
X65866443Y-72915581D01*
X65880407Y-72913348D01*
X65894367Y-72911094D01*
X65908325Y-72908821D01*
X65922279Y-72906528D01*
X65936230Y-72904215D01*
X65950177Y-72901883D01*
X65964122Y-72899531D01*
X65978062Y-72897159D01*
X65992000Y-72894768D01*
X66001222Y-72893174D01*
X119936513Y-55503317D02*
X119943427Y-55506681D01*
X119950316Y-55510121D01*
X119957178Y-55513637D01*
X119964014Y-55517230D01*
X119970822Y-55520898D01*
X119977602Y-55524642D01*
X119984353Y-55528462D01*
X119991075Y-55532356D01*
X119997765Y-55536325D01*
X120004425Y-55540368D01*
X120011052Y-55544485D01*
X120017646Y-55548676D01*
X120024206Y-55552940D01*
X120030732Y-55557277D01*
X120037223Y-55561687D01*
X120043677Y-55566168D01*
X120050094Y-55570721D01*
X120056473Y-55575345D01*
X120062814Y-55580040D01*
X120069114Y-55584804D01*
X120075375Y-55589639D01*
X120081593Y-55594542D01*
X120087770Y-55599514D01*
X120093903Y-55604554D01*
X120099993Y-55609661D01*
X120106037Y-55614835D01*
X120112036Y-55620075D01*
X120117988Y-55625380D01*
X120123893Y-55630750D01*
X120129749Y-55636184D01*
X120135556Y-55641682D01*
X120141313Y-55647242D01*
X120147018Y-55652864D01*
X120152672Y-55658547D01*
X120158273Y-55664291D01*
X120163821Y-55670094D01*
X120169313Y-55675955D01*
X120174751Y-55681875D01*
X120180133Y-55687852D01*
X120185457Y-55693885D01*
X120190724Y-55699973D01*
X120195931Y-55706116D01*
X120201080Y-55712312D01*
X120206168Y-55718561D01*
X120211195Y-55724862D01*
X120216161Y-55731213D01*
X120221063Y-55737615D01*
X120225903Y-55744065D01*
X120228298Y-55747308D01*
X120230678Y-55750563D01*
X120233041Y-55753829D01*
X120235388Y-55757107D01*
X120237719Y-55760397D01*
X120240033Y-55763698D01*
X120242331Y-55767010D01*
X120244612Y-55770334D01*
X120246876Y-55773668D01*
X120249124Y-55777013D01*
X120251354Y-55780369D01*
X120253568Y-55783736D01*
X120255764Y-55787112D01*
X120257944Y-55790500D01*
X120260106Y-55793897D01*
X120262251Y-55797305D01*
X120264378Y-55800722D01*
X120266488Y-55804149D01*
X120268580Y-55807586D01*
X120270655Y-55811033D01*
X120272712Y-55814488D01*
X120274752Y-55817954D01*
X120276773Y-55821427D01*
X120278777Y-55824911D01*
X120280762Y-55828403D01*
X120282730Y-55831904D01*
X120284679Y-55835413D01*
X120286611Y-55838932D01*
X120288524Y-55842458D01*
X120290419Y-55845993D01*
X120292295Y-55849535D01*
X120294154Y-55853087D01*
X120295993Y-55856645D01*
X120297814Y-55860212D01*
X120299616Y-55863785D01*
X120301400Y-55867367D01*
X120303165Y-55870955D01*
X120304912Y-55874551D01*
X120306639Y-55878153D01*
X120308347Y-55881764D01*
X120310037Y-55885380D01*
X120311708Y-55889004D01*
X120313359Y-55892632D01*
X120314992Y-55896269D01*
X120316605Y-55899911D01*
X120318199Y-55903560D01*
X120319774Y-55907214D01*
X120321330Y-55910875D01*
X120322866Y-55914540D01*
X120324384Y-55918213D01*
X120325881Y-55921889D01*
X120327360Y-55925573D01*
X120328818Y-55929260D01*
X120330258Y-55932954D01*
X120331677Y-55936651D01*
X120333078Y-55940355D01*
X120334458Y-55944061D01*
X120335819Y-55947775D01*
X120337160Y-55951490D01*
X120338482Y-55955213D01*
X120339783Y-55958937D01*
X120341066Y-55962668D01*
X120342328Y-55966400D01*
X120343571Y-55970139D01*
X120344793Y-55973878D01*
X120345996Y-55977625D01*
X120347178Y-55981372D01*
X120348342Y-55985125D01*
X120349484Y-55988878D01*
X120350608Y-55992638D01*
X120351710Y-55996398D01*
X120352794Y-56000164D01*
X120353856Y-56003929D01*
X120354900Y-56007701D01*
X120355922Y-56011472D01*
X120356926Y-56015248D01*
X120357908Y-56019024D01*
X120358871Y-56022805D01*
X120359813Y-56026586D01*
X120360736Y-56030371D01*
X120361638Y-56034155D01*
X120362520Y-56037945D01*
X120363382Y-56041732D01*
X120364224Y-56045525D01*
X120365046Y-56049316D01*
X120365847Y-56053112D01*
X120366628Y-56056906D01*
X120367390Y-56060704D01*
X120368131Y-56064500D01*
X120368852Y-56068301D01*
X120369552Y-56072099D01*
X120370232Y-56075901D01*
X120370892Y-56079701D01*
X120371532Y-56083504D01*
X120372738Y-56091024D01*
X80509797Y-72114136D02*
X80421097Y-72108481D01*
X80334345Y-72102970D01*
X80251078Y-72097701D01*
X80169621Y-72092566D01*
X80091357Y-72087653D01*
X80014779Y-72082866D01*
X79941129Y-72078282D01*
X79869049Y-72073815D01*
X79799657Y-72069536D01*
X79731728Y-72065366D01*
X79666266Y-72061368D01*
X79602170Y-72057474D01*
X79540340Y-72053737D01*
X79479784Y-72050097D01*
X79421309Y-72046603D01*
X79364024Y-72043199D01*
X79308649Y-72039929D01*
X79254387Y-72036745D01*
X79201876Y-72033684D01*
X79150406Y-72030703D01*
X79100542Y-72027835D01*
X79051650Y-72025043D01*
X79004228Y-72022356D01*
X78957716Y-72019739D01*
X78912546Y-72017219D01*
X78868229Y-72014765D01*
X78825134Y-72012400D01*
X78782837Y-72010098D01*
X78741651Y-72007877D01*
X78701212Y-72005715D01*
X78661777Y-72003628D01*
X78623040Y-72001597D01*
X78585208Y-71999634D01*
X78548029Y-71997724D01*
X78511657Y-71995876D01*
X78475896Y-71994079D01*
X78440849Y-71992338D01*
X78406373Y-71990645D01*
X78372520Y-71989002D01*
X78339201Y-71987405D01*
X78306415Y-71985854D01*
X78274126Y-71984346D01*
X78242282Y-71982879D01*
X78210901Y-71981452D01*
X78179874Y-71980062D01*
X78149277Y-71978711D01*
X78118942Y-71977391D01*
X78089006Y-71976109D01*
X78029832Y-71973632D01*
X77971487Y-71971269D01*
X77913685Y-71969007D01*
X77856112Y-71966832D01*
X77798415Y-71964731D01*
X77740180Y-71962689D01*
X77680908Y-71960689D01*
X77619963Y-71958710D01*
X77556502Y-71956728D01*
X77496631Y-71954923D01*
D10*
X60576044Y-57854137D02*
X60576044Y-60951235D01*
D11*
X120184045Y-56732736D02*
X120178884Y-56738492D01*
X120173656Y-56744202D01*
X120168362Y-56749866D01*
X120163003Y-56755483D01*
X120157579Y-56761053D01*
X120152090Y-56766574D01*
X120146537Y-56772046D01*
X120140921Y-56777468D01*
X120135241Y-56782840D01*
X120129500Y-56788161D01*
X120123697Y-56793431D01*
X120117833Y-56798647D01*
X120111908Y-56803810D01*
X120105924Y-56808920D01*
X120099880Y-56813974D01*
X120093779Y-56818974D01*
X120087619Y-56823917D01*
X120081403Y-56828803D01*
X120075130Y-56833632D01*
X120068802Y-56838403D01*
X120062420Y-56843114D01*
X120055983Y-56847766D01*
X120049494Y-56852358D01*
X120042953Y-56856888D01*
X120036360Y-56861357D01*
X120029717Y-56865763D01*
X120023024Y-56870107D01*
X120016283Y-56874386D01*
X120009494Y-56878601D01*
X120002659Y-56882751D01*
X119995777Y-56886835D01*
X119988851Y-56890852D01*
X119981881Y-56894803D01*
X119974868Y-56898686D01*
X119967814Y-56902500D01*
X119960719Y-56906246D01*
X119953584Y-56909922D01*
X119946410Y-56913528D01*
X119939199Y-56917064D01*
X119931951Y-56920528D01*
X119924668Y-56923921D01*
X119917350Y-56927241D01*
X119909999Y-56930489D01*
X119906312Y-56932085D01*
X119902616Y-56933663D01*
X119898913Y-56935223D01*
X119895202Y-56936764D01*
X119891484Y-56938287D01*
X119887758Y-56939791D01*
X119884026Y-56941276D01*
X119880286Y-56942742D01*
X119876539Y-56944190D01*
X119872785Y-56945619D01*
X119869025Y-56947029D01*
X119865258Y-56948420D01*
X119861485Y-56949792D01*
X119857706Y-56951146D01*
X119853921Y-56952480D01*
X119850129Y-56953795D01*
X119846333Y-56955090D01*
X119842529Y-56956367D01*
X119838722Y-56957624D01*
X119834908Y-56958862D01*
X119831089Y-56960081D01*
X119827265Y-56961280D01*
X119823437Y-56962460D01*
X119819603Y-56963620D01*
X119815765Y-56964761D01*
X119811922Y-56965882D01*
X119808076Y-56966984D01*
X119804224Y-56968066D01*
X119800369Y-56969129D01*
X119796509Y-56970172D01*
X119792647Y-56971195D01*
X119788779Y-56972198D01*
X119784910Y-56973182D01*
X119781036Y-56974146D01*
X119777160Y-56975089D01*
X119773279Y-56976014D01*
X119769397Y-56976918D01*
X119765511Y-56977803D01*
X119761623Y-56978667D01*
X119757731Y-56979512D01*
X119753839Y-56980336D01*
X119749943Y-56981141D01*
X119746046Y-56981925D01*
X119742145Y-56982690D01*
X119738245Y-56983434D01*
X119734341Y-56984159D01*
X119730437Y-56984863D01*
X119726530Y-56985548D01*
X119722623Y-56986212D01*
X119718713Y-56986856D01*
X119714805Y-56987480D01*
X119710893Y-56988084D01*
X119706982Y-56988668D01*
X119703069Y-56989232D01*
X119699158Y-56989775D01*
X119695243Y-56990299D01*
X119691331Y-56990802D01*
X119687416Y-56991285D01*
X119683504Y-56991748D01*
X119679589Y-56992191D01*
X119675677Y-56992613D01*
X119671763Y-56993016D01*
X119667852Y-56993398D01*
X119663939Y-56993760D01*
X119660029Y-56994101D01*
X119656117Y-56994423D01*
X119652210Y-56994725D01*
X119648300Y-56995006D01*
X119644394Y-56995267D01*
X119640487Y-56995508D01*
X119636584Y-56995729D01*
X119632680Y-56995930D01*
X119628780Y-56996110D01*
X119624879Y-56996271D01*
X119620983Y-56996411D01*
X119617086Y-56996531D01*
X119613194Y-56996632D01*
X119609301Y-56996712D01*
X119605414Y-56996772D01*
X119601526Y-56996811D01*
X119597644Y-56996831D01*
X119593761Y-56996831D01*
X119589884Y-56996811D01*
X119586006Y-56996771D01*
X119578382Y-56996633D01*
X87229293Y-73003227D02*
X87257476Y-73005611D01*
X87285665Y-73007914D01*
X87313861Y-73010138D01*
X87342064Y-73012283D01*
X87370272Y-73014347D01*
X87398486Y-73016332D01*
X87426706Y-73018237D01*
X87454930Y-73020062D01*
X87483160Y-73021807D01*
X87511395Y-73023473D01*
X87539635Y-73025058D01*
X87567879Y-73026564D01*
X87596127Y-73027990D01*
X87624379Y-73029336D01*
X87652635Y-73030602D01*
X87680894Y-73031788D01*
X87695025Y-73032351D01*
X87709157Y-73032894D01*
X87723289Y-73033417D01*
X87737423Y-73033920D01*
X87751557Y-73034403D01*
X87765691Y-73034866D01*
X87779826Y-73035310D01*
X87793962Y-73035733D01*
X87808099Y-73036136D01*
X87822236Y-73036519D01*
X87836374Y-73036882D01*
X87850512Y-73037225D01*
X87864650Y-73037549D01*
X87878790Y-73037852D01*
X87892929Y-73038135D01*
X87907069Y-73038398D01*
X87921209Y-73038641D01*
X87935350Y-73038865D01*
X87949491Y-73039068D01*
X87963632Y-73039251D01*
X87977774Y-73039414D01*
X87991916Y-73039557D01*
X88006057Y-73039681D01*
X88020200Y-73039784D01*
X88034342Y-73039867D01*
X88048484Y-73039930D01*
X88062627Y-73039973D01*
X88076769Y-73039997D01*
X88086111Y-73040001D01*
D10*
X66091700Y-57354133D02*
G75*
G02*
X66591667Y-57854134I0J-499967D01*
G01*
D11*
X90344785Y-55568869D02*
X90351065Y-55564502D01*
X90357400Y-55560194D01*
X90363789Y-55555947D01*
X90370230Y-55551760D01*
X90376725Y-55547634D01*
X90383272Y-55543569D01*
X90389871Y-55539566D01*
X90396521Y-55535626D01*
X90403222Y-55531748D01*
X90409973Y-55527934D01*
X90416773Y-55524184D01*
X90423621Y-55520499D01*
X90430518Y-55516878D01*
X90437462Y-55513323D01*
X90444452Y-55509833D01*
X90451489Y-55506410D01*
X90458570Y-55503054D01*
X90465696Y-55499766D01*
X90472866Y-55496545D01*
X90480078Y-55493393D01*
X90487333Y-55490309D01*
X90494628Y-55487295D01*
X90501964Y-55484351D01*
X90509339Y-55481477D01*
X90516752Y-55478674D01*
X90524204Y-55475943D01*
X90531691Y-55473283D01*
X90539215Y-55470695D01*
X90546773Y-55468179D01*
X90554365Y-55465737D01*
X90561990Y-55463368D01*
X90569646Y-55461074D01*
X90577333Y-55458853D01*
X90585050Y-55456707D01*
X90592796Y-55454636D01*
X90600568Y-55452641D01*
X90608368Y-55450721D01*
X90616192Y-55448877D01*
X90624041Y-55447110D01*
X90631913Y-55445420D01*
X90639806Y-55443807D01*
X90647720Y-55442271D01*
X90655654Y-55440813D01*
X90663607Y-55439432D01*
X90671576Y-55438130D01*
X90679561Y-55436907D01*
X90687562Y-55435762D01*
X90695575Y-55434696D01*
X90703602Y-55433709D01*
X90711639Y-55432801D01*
X90719686Y-55431972D01*
X90727742Y-55431224D01*
X90735806Y-55430554D01*
X90739840Y-55430250D01*
X90743875Y-55429965D01*
X90747912Y-55429700D01*
X90751950Y-55429455D01*
X90755988Y-55429230D01*
X90760028Y-55429025D01*
X90764068Y-55428841D01*
X90768109Y-55428676D01*
X90772150Y-55428531D01*
X90776191Y-55428406D01*
X90780232Y-55428301D01*
X90784273Y-55428216D01*
X90788314Y-55428152D01*
X90792354Y-55428107D01*
X90796393Y-55428082D01*
X90800433Y-55428077D01*
X90804470Y-55428092D01*
X90808508Y-55428128D01*
X90812543Y-55428183D01*
X90816578Y-55428258D01*
X90820610Y-55428353D01*
X90824642Y-55428469D01*
X90828670Y-55428604D01*
X90832698Y-55428759D01*
X90836723Y-55428934D01*
X90840746Y-55429129D01*
X90844766Y-55429344D01*
X90848785Y-55429579D01*
X90852799Y-55429833D01*
X90856813Y-55430108D01*
X90860821Y-55430402D01*
X90864828Y-55430716D01*
X90868830Y-55431050D01*
X90872831Y-55431404D01*
X90876826Y-55431778D01*
X90880819Y-55432171D01*
X90884806Y-55432584D01*
X90888792Y-55433017D01*
X90892771Y-55433470D01*
X90896748Y-55433942D01*
X90900718Y-55434434D01*
X90904686Y-55434945D01*
X90908647Y-55435476D01*
X90912606Y-55436026D01*
X90916557Y-55436596D01*
X90920505Y-55437186D01*
X90924446Y-55437795D01*
X90928384Y-55438423D01*
X90932314Y-55439071D01*
X90936241Y-55439738D01*
X90940159Y-55440425D01*
X90944074Y-55441130D01*
X90947981Y-55441855D01*
X90951884Y-55442600D01*
X90955778Y-55443363D01*
X90959668Y-55444146D01*
X90963549Y-55444947D01*
X90967427Y-55445768D01*
X90971294Y-55446608D01*
X90975158Y-55447467D01*
X90979012Y-55448344D01*
X90982861Y-55449241D01*
X90986701Y-55450156D01*
X90990535Y-55451091D01*
X90994360Y-55452044D01*
X90998180Y-55453016D01*
X91001989Y-55454006D01*
X91005793Y-55455016D01*
X91009587Y-55456043D01*
X91013375Y-55457090D01*
X91017153Y-55458154D01*
X91020925Y-55459238D01*
X91024685Y-55460340D01*
X91028441Y-55461460D01*
X91032184Y-55462598D01*
X91035922Y-55463756D01*
X91039649Y-55464930D01*
X91043369Y-55466124D01*
X91047077Y-55467335D01*
X91050780Y-55468565D01*
X91054470Y-55469812D01*
X91058154Y-55471078D01*
X91061826Y-55472362D01*
X91065491Y-55473664D01*
X91069143Y-55474982D01*
X91072790Y-55476320D01*
X91076423Y-55477675D01*
X91080049Y-55479048D01*
X91083663Y-55480438D01*
X91087270Y-55481846D01*
X91090863Y-55483271D01*
X91094450Y-55484715D01*
X91098023Y-55486175D01*
X91101589Y-55487654D01*
X91105141Y-55489148D01*
X91108687Y-55490662D01*
X91112218Y-55492191D01*
X91115742Y-55493739D01*
X91119252Y-55495303D01*
X91122755Y-55496885D01*
X91126243Y-55498483D01*
X91129724Y-55500099D01*
X91136513Y-55503316D01*
D10*
X106353033Y-56211390D02*
G75*
G02*
X104040093Y-56211390I-1156470J0D01*
G01*
X104040093Y-56211390D02*
G75*
G02*
X106353033Y-56211390I1156470J0D01*
G01*
M02*
