%TF.GenerationSoftware,KiCad,Pcbnew,9.0.6-rc2*%
%TF.CreationDate,2025-11-03T16:29:51-08:00*%
%TF.ProjectId,Latte_Main_Board,4c617474-655f-44d6-9169-6e5f426f6172,rev?*%
%TF.SameCoordinates,Original*%
%TF.FileFunction,Soldermask,Top*%
%TF.FilePolarity,Negative*%
%FSLAX46Y46*%
G04 Gerber Fmt 4.6, Leading zero omitted, Abs format (unit mm)*
G04 Created by KiCad (PCBNEW 9.0.6-rc2) date 2025-11-03 16:29:51*
%MOMM*%
%LPD*%
G01*
G04 APERTURE LIST*
G04 Aperture macros list*
%AMRoundRect*
0 Rectangle with rounded corners*
0 $1 Rounding radius*
0 $2 $3 $4 $5 $6 $7 $8 $9 X,Y pos of 4 corners*
0 Add a 4 corners polygon primitive as box body*
4,1,4,$2,$3,$4,$5,$6,$7,$8,$9,$2,$3,0*
0 Add four circle primitives for the rounded corners*
1,1,$1+$1,$2,$3*
1,1,$1+$1,$4,$5*
1,1,$1+$1,$6,$7*
1,1,$1+$1,$8,$9*
0 Add four rect primitives between the rounded corners*
20,1,$1+$1,$2,$3,$4,$5,0*
20,1,$1+$1,$4,$5,$6,$7,0*
20,1,$1+$1,$6,$7,$8,$9,0*
20,1,$1+$1,$8,$9,$2,$3,0*%
G04 Aperture macros list end*
%ADD10C,1.250000*%
%ADD11C,0.025000*%
%ADD12R,0.370000X0.370000*%
%ADD13RoundRect,0.100000X0.130000X0.100000X-0.130000X0.100000X-0.130000X-0.100000X0.130000X-0.100000X0*%
%ADD14RoundRect,0.100000X0.100000X-0.130000X0.100000X0.130000X-0.100000X0.130000X-0.100000X-0.130000X0*%
%ADD15RoundRect,0.100000X-0.130000X-0.100000X0.130000X-0.100000X0.130000X0.100000X-0.130000X0.100000X0*%
%ADD16RoundRect,0.150000X-1.250000X-0.350000X1.250000X-0.350000X1.250000X0.350000X-1.250000X0.350000X0*%
%ADD17R,0.850000X0.850000*%
%ADD18RoundRect,0.100000X-0.100000X0.130000X-0.100000X-0.130000X0.100000X-0.130000X0.100000X0.130000X0*%
%ADD19R,1.350000X1.350000*%
%ADD20C,1.350000*%
%ADD21RoundRect,0.137500X0.525000X0.137500X-0.525000X0.137500X-0.525000X-0.137500X0.525000X-0.137500X0*%
%ADD22RoundRect,0.137500X-0.525000X-0.137500X0.525000X-0.137500X0.525000X0.137500X-0.525000X0.137500X0*%
%ADD23R,0.745000X0.280000*%
%ADD24R,0.280000X0.745000*%
%ADD25RoundRect,0.137500X0.137500X-0.525000X0.137500X0.525000X-0.137500X0.525000X-0.137500X-0.525000X0*%
%ADD26C,0.600000*%
G04 APERTURE END LIST*
D10*
X103427066Y-37985297D02*
G75*
G02*
X100427103Y-34985296I34J2999997D01*
G01*
X64255488Y-73033901D02*
X64887424Y-73013914D01*
X31151601Y-73033901D02*
X64255488Y-73033901D01*
X85416189Y-72730982D02*
X86340377Y-72887073D01*
X65740221Y-72923065D02*
X65962821Y-72887073D01*
X87822198Y-73031358D02*
X88047710Y-73033901D01*
X94427052Y-22565901D02*
X61356901Y-22565901D01*
X100427065Y-34985296D02*
X100427066Y-28565911D01*
X64887424Y-73013914D02*
X65112306Y-72997126D01*
X31151601Y-73033901D02*
G75*
G02*
X19151599Y-61033898I-1J12000001D01*
G01*
X68548466Y-72477439D02*
X71263322Y-72158198D01*
X77458230Y-71948823D02*
X77937192Y-71965333D01*
X75760000Y-71945641D02*
X77458230Y-71948823D01*
X77937192Y-71965333D02*
X78898186Y-72012458D01*
X43017730Y-40197164D02*
G75*
G02*
X27395951Y-46807085I-12866380J8643104D01*
G01*
X65112306Y-72997126D02*
X65740221Y-72923065D01*
X105127930Y-37985297D02*
X103427066Y-37985297D01*
X80471397Y-72108036D02*
X80691968Y-72127926D01*
X74217659Y-71967427D02*
X74745074Y-71954755D01*
X81617245Y-72221923D02*
X83226802Y-72405521D01*
X74745074Y-71954755D02*
X75760000Y-71945641D01*
X55356903Y-28565901D02*
G75*
G02*
X61356901Y-22565903I5999997J1D01*
G01*
X19151600Y-53695600D02*
X19151599Y-61033898D01*
X52356901Y-37985297D02*
X47160456Y-37985297D01*
X133151599Y-61033901D02*
X133151599Y-53695592D01*
X19151600Y-53695600D02*
G75*
G02*
X27395950Y-46807088I7000000J0D01*
G01*
X88047710Y-73033901D02*
X121151599Y-73033901D01*
X124907246Y-46807085D02*
G75*
G02*
X133151604Y-53695592I1244354J-6888515D01*
G01*
X55356903Y-28565901D02*
X55356902Y-34985301D01*
X52356901Y-37985302D02*
X52356901Y-37985297D01*
X65962821Y-72887073D02*
X66576998Y-72781968D01*
X105127930Y-37985297D02*
G75*
G02*
X109285467Y-40197164I7070J-5000003D01*
G01*
X86966379Y-72975266D02*
X87190892Y-72997126D01*
X87190892Y-72997126D02*
X87822198Y-73031358D01*
X86340377Y-72887073D02*
X86966379Y-72975266D01*
X66576998Y-72781968D02*
X68548466Y-72477439D01*
X72625343Y-72058342D02*
X74217659Y-71967427D01*
X71693088Y-72122345D02*
X72625343Y-72058342D01*
X78898186Y-72012458D02*
X80471397Y-72108036D01*
X43017730Y-40197164D02*
G75*
G02*
X47160456Y-37985296I4150470J-2788136D01*
G01*
X124907246Y-46807085D02*
G75*
G02*
X109285455Y-40197173I-2755346J15253185D01*
G01*
X83226802Y-72405521D02*
X84789414Y-72632632D01*
X94427052Y-22565901D02*
G75*
G02*
X100427099Y-28565911I48J-5999999D01*
G01*
X80691968Y-72127926D02*
X81617245Y-72221923D01*
X55356902Y-34985301D02*
G75*
G02*
X52356901Y-37985302I-3000002J1D01*
G01*
X71263322Y-72158198D02*
X71693088Y-72122345D01*
X133151599Y-61033901D02*
G75*
G02*
X121151599Y-73033899I-11999999J1D01*
G01*
X84789414Y-72632632D02*
X85416189Y-72730982D01*
D11*
%TO.C,REF\u002A\u002A*%
X28854400Y-52601298D02*
X29808355Y-52601298D01*
X29808355Y-53270667D01*
X28221741Y-53270667D01*
X28221741Y-50717495D01*
X28854400Y-50717495D01*
X28854400Y-52601298D01*
G36*
X28854400Y-52601298D02*
G01*
X29808355Y-52601298D01*
X29808355Y-53270667D01*
X28221741Y-53270667D01*
X28221741Y-50717495D01*
X28854400Y-50717495D01*
X28854400Y-52601298D01*
G37*
X26088266Y-53270667D02*
X25407405Y-53270667D01*
X25407405Y-52302545D01*
X25167749Y-52302545D01*
X25167749Y-53270667D01*
X24482449Y-53270667D01*
X24482449Y-50718015D01*
X25165463Y-50717495D01*
X25165463Y-51640297D01*
X25407405Y-51640297D01*
X25407405Y-50717495D01*
X26088266Y-50717495D01*
X26088266Y-53270667D01*
G36*
X26088266Y-53270667D02*
G01*
X25407405Y-53270667D01*
X25407405Y-52302545D01*
X25167749Y-52302545D01*
X25167749Y-53270667D01*
X24482449Y-53270667D01*
X24482449Y-50718015D01*
X25165463Y-50717495D01*
X25165463Y-51640297D01*
X25407405Y-51640297D01*
X25407405Y-50717495D01*
X26088266Y-50717495D01*
X26088266Y-53270667D01*
G37*
X27938266Y-53270667D02*
X27257405Y-53270667D01*
X27257405Y-52302545D01*
X27017749Y-52302545D01*
X27017749Y-53270667D01*
X26332449Y-53270667D01*
X26332449Y-50718015D01*
X27015463Y-50717495D01*
X27015463Y-51640297D01*
X27257405Y-51640297D01*
X27257405Y-50717495D01*
X27938266Y-50717495D01*
X27938266Y-53270667D01*
G36*
X27938266Y-53270667D02*
G01*
X27257405Y-53270667D01*
X27257405Y-52302545D01*
X27017749Y-52302545D01*
X27017749Y-53270667D01*
X26332449Y-53270667D01*
X26332449Y-50718015D01*
X27015463Y-50717495D01*
X27015463Y-51640297D01*
X27257405Y-51640297D01*
X27257405Y-50717495D01*
X27938266Y-50717495D01*
X27938266Y-53270667D01*
G37*
%TD*%
D12*
%TO.C,RGB3*%
X104861562Y-69296391D03*
X105531562Y-69296391D03*
X105531562Y-68626391D03*
X104861562Y-68626391D03*
%TD*%
D13*
%TO.C,R17*%
X74640400Y-39547800D03*
X74000400Y-39547800D03*
%TD*%
D12*
%TO.C,RGB6*%
X78367681Y-49830020D03*
X77697681Y-49830020D03*
X77697681Y-50500020D03*
X78367681Y-50500020D03*
%TD*%
%TO.C,RGB11*%
X46848054Y-61365036D03*
X47518054Y-61365036D03*
X47518054Y-60695036D03*
X46848054Y-60695036D03*
%TD*%
D14*
%TO.C,C7*%
X49640000Y-49410000D03*
X49640000Y-48770000D03*
%TD*%
D15*
%TO.C,R18*%
X79560000Y-40700000D03*
X80200000Y-40700000D03*
%TD*%
D16*
%TO.C,SW7*%
X59290000Y-25540001D03*
X65090000Y-25540001D03*
X59290000Y-29540001D03*
X65090000Y-29540001D03*
%TD*%
%TO.C,SW6*%
X80290000Y-35540001D03*
X86090000Y-35540001D03*
X80290000Y-39540001D03*
X86090000Y-39540001D03*
%TD*%
D12*
%TO.C,RGB4*%
X93861563Y-59296390D03*
X94531563Y-59296390D03*
X94531563Y-58626390D03*
X93861563Y-58626390D03*
%TD*%
D17*
%TO.C,T4*%
X122885200Y-69113400D03*
%TD*%
D18*
%TO.C,C5*%
X118650000Y-57240000D03*
X118650000Y-57880000D03*
%TD*%
D13*
%TO.C,C26*%
X61711800Y-33147000D03*
X61071800Y-33147000D03*
%TD*%
D19*
%TO.C,J8*%
X91967800Y-46634400D03*
D20*
X93967801Y-46634400D03*
X95967800Y-46634400D03*
X97967800Y-46634400D03*
%TD*%
D21*
%TO.C,U11*%
X46045554Y-62880036D03*
X46045554Y-64680036D03*
X48320554Y-64680036D03*
X48320554Y-63780036D03*
X48320554Y-62880036D03*
%TD*%
D16*
%TO.C,SW1*%
X73290000Y-63540002D03*
X79090000Y-63540002D03*
X73290000Y-67540002D03*
X79090000Y-67540002D03*
%TD*%
D12*
%TO.C,RGB10*%
X42030177Y-56546390D03*
X42700177Y-56546390D03*
X42700177Y-55876390D03*
X42030177Y-55876390D03*
%TD*%
D22*
%TO.C,U8*%
X48321322Y-49543514D03*
X48321322Y-47743514D03*
X46046322Y-47743514D03*
X46046322Y-48643514D03*
X46046322Y-49543514D03*
%TD*%
%TO.C,U3*%
X95334063Y-57111390D03*
X95334063Y-55311390D03*
X93059063Y-55311390D03*
X93059063Y-56211390D03*
X93059063Y-57111390D03*
%TD*%
D15*
%TO.C,R20*%
X86880000Y-31160000D03*
X87520000Y-31160000D03*
%TD*%
D22*
%TO.C,U1*%
X106334063Y-47111390D03*
X106334063Y-45311390D03*
X104059063Y-45311390D03*
X104059063Y-46211390D03*
X104059063Y-47111390D03*
%TD*%
D15*
%TO.C,R19*%
X64760000Y-31300000D03*
X65400000Y-31300000D03*
%TD*%
D22*
%TO.C,U6*%
X117334063Y-57111391D03*
X117334063Y-55311391D03*
X115059063Y-55311391D03*
X115059063Y-56211391D03*
X115059063Y-57111391D03*
%TD*%
D16*
%TO.C,SW2*%
X73290000Y-25540001D03*
X79090000Y-25540001D03*
X73290000Y-29540001D03*
X79090000Y-29540001D03*
%TD*%
D14*
%TO.C,C4*%
X96650000Y-56980000D03*
X96650000Y-56340000D03*
%TD*%
D16*
%TO.C,SW8*%
X87290000Y-25540001D03*
X93090000Y-25540001D03*
X87290000Y-29540001D03*
X93090000Y-29540001D03*
%TD*%
%TO.C,SW5*%
X66290000Y-35540001D03*
X72090000Y-35540001D03*
X66290000Y-39540001D03*
X72090000Y-39540001D03*
%TD*%
D23*
%TO.C,U5*%
X93710000Y-36670000D03*
X93710000Y-36170000D03*
X93710000Y-35670000D03*
X93710000Y-35170000D03*
D24*
X92812000Y-34772000D03*
X92312000Y-34772000D03*
X91812000Y-34772000D03*
D23*
X90914000Y-35170000D03*
X90914000Y-35670000D03*
X90914000Y-36170000D03*
X90914000Y-36670000D03*
D24*
X91812000Y-37068000D03*
X92312000Y-37068000D03*
X92812000Y-37068000D03*
%TD*%
D13*
%TO.C,C8*%
X55570000Y-53760000D03*
X54930000Y-53760000D03*
%TD*%
D15*
%TO.C,C27*%
X89418200Y-34442400D03*
X90058200Y-34442400D03*
%TD*%
D12*
%TO.C,RGB7*%
X74617681Y-49830020D03*
X73947681Y-49830020D03*
X73947681Y-50500020D03*
X74617681Y-50500020D03*
%TD*%
D13*
%TO.C,C17*%
X40740000Y-53750000D03*
X40100000Y-53750000D03*
%TD*%
D15*
%TO.C,C24*%
X56906200Y-34950400D03*
X57546200Y-34950400D03*
%TD*%
D12*
%TO.C,RGB5*%
X82117681Y-49830020D03*
X81447681Y-49830020D03*
X81447681Y-50500020D03*
X82117681Y-50500020D03*
%TD*%
%TO.C,RGB12*%
X51666698Y-56547158D03*
X52336698Y-56547158D03*
X52336698Y-55877158D03*
X51666698Y-55877158D03*
%TD*%
D25*
%TO.C,U9*%
X55651698Y-55074658D03*
X53851698Y-55074658D03*
X53851698Y-57349658D03*
X54751698Y-57349658D03*
X55651698Y-57349658D03*
%TD*%
D14*
%TO.C,C3*%
X107650000Y-46980000D03*
X107650000Y-46340000D03*
%TD*%
D13*
%TO.C,C25*%
X94213600Y-33934400D03*
X93573600Y-33934400D03*
%TD*%
D14*
%TO.C,C6*%
X107650000Y-66980000D03*
X107650000Y-66340000D03*
%TD*%
D12*
%TO.C,RGB8*%
X70867681Y-49830020D03*
X70197681Y-49830020D03*
X70197681Y-50500020D03*
X70867681Y-50500020D03*
%TD*%
D18*
%TO.C,C18*%
X44730000Y-63010000D03*
X44730000Y-63650000D03*
%TD*%
D12*
%TO.C,RGB2*%
X115861563Y-59296391D03*
X116531563Y-59296391D03*
X116531563Y-58626391D03*
X115861563Y-58626391D03*
%TD*%
D25*
%TO.C,U10*%
X40515177Y-55073890D03*
X38715177Y-55073890D03*
X38715177Y-57348890D03*
X39615177Y-57348890D03*
X40515177Y-57348890D03*
%TD*%
D14*
%TO.C,R15*%
X76200000Y-31968400D03*
X76200000Y-31328400D03*
%TD*%
D12*
%TO.C,RGB9*%
X46848822Y-51728514D03*
X47518822Y-51728514D03*
X47518822Y-51058514D03*
X46848822Y-51058514D03*
%TD*%
%TO.C,RGB1*%
X104861563Y-49296390D03*
X105531563Y-49296390D03*
X105531563Y-48626390D03*
X104861563Y-48626390D03*
%TD*%
D17*
%TO.C,T1*%
X30403800Y-69443600D03*
%TD*%
%TO.C,T3*%
X125247400Y-69113400D03*
%TD*%
%TO.C,T2*%
X28016200Y-69443600D03*
%TD*%
D23*
%TO.C,U4*%
X61778000Y-36470000D03*
X61778000Y-35970000D03*
X61778000Y-35470000D03*
X61778000Y-34970000D03*
D24*
X60880000Y-34572000D03*
X60380000Y-34571999D03*
X59880000Y-34572000D03*
D23*
X58982000Y-34970000D03*
X58982000Y-35470000D03*
X58982000Y-35970000D03*
X58982000Y-36470000D03*
D24*
X59880000Y-36868000D03*
X60380000Y-36868001D03*
X60880000Y-36868000D03*
%TD*%
D22*
%TO.C,U7*%
X106334062Y-67111391D03*
X106334062Y-65311391D03*
X104059062Y-65311391D03*
X104059062Y-66211391D03*
X104059062Y-67111391D03*
%TD*%
D26*
%TO.C,U2*%
X73270000Y-45740000D03*
X71003334Y-45740000D03*
X72136667Y-45740001D03*
X73269999Y-46873333D03*
X72136667Y-46873333D03*
X71003335Y-46873333D03*
X72136667Y-48006665D03*
X73270000Y-48006666D03*
X71003334Y-48006666D03*
%TD*%
M02*
