%TF.GenerationSoftware,KiCad,Pcbnew,9.0.6-rc2*%
%TF.CreationDate,2025-11-03T16:29:51-08:00*%
%TF.ProjectId,Latte_Main_Board,4c617474-655f-44d6-9169-6e5f426f6172,rev?*%
%TF.SameCoordinates,Original*%
%TF.FileFunction,Soldermask,Bot*%
%TF.FilePolarity,Negative*%
%FSLAX46Y46*%
G04 Gerber Fmt 4.6, Leading zero omitted, Abs format (unit mm)*
G04 Created by KiCad (PCBNEW 9.0.6-rc2) date 2025-11-03 16:29:51*
%MOMM*%
%LPD*%
G01*
G04 APERTURE LIST*
G04 Aperture macros list*
%AMRoundRect*
0 Rectangle with rounded corners*
0 $1 Rounding radius*
0 $2 $3 $4 $5 $6 $7 $8 $9 X,Y pos of 4 corners*
0 Add a 4 corners polygon primitive as box body*
4,1,4,$2,$3,$4,$5,$6,$7,$8,$9,$2,$3,0*
0 Add four circle primitives for the rounded corners*
1,1,$1+$1,$2,$3*
1,1,$1+$1,$4,$5*
1,1,$1+$1,$6,$7*
1,1,$1+$1,$8,$9*
0 Add four rect primitives between the rounded corners*
20,1,$1+$1,$2,$3,$4,$5,0*
20,1,$1+$1,$4,$5,$6,$7,0*
20,1,$1+$1,$6,$7,$8,$9,0*
20,1,$1+$1,$8,$9,$2,$3,0*%
G04 Aperture macros list end*
%ADD10C,1.250000*%
%ADD11R,0.850000X0.850000*%
%ADD12R,1.350000X1.350000*%
%ADD13C,1.350000*%
%ADD14RoundRect,0.150000X0.587500X0.150000X-0.587500X0.150000X-0.587500X-0.150000X0.587500X-0.150000X0*%
%ADD15RoundRect,0.150000X0.247487X0.035355X0.035355X0.247487X-0.247487X-0.035355X-0.035355X-0.247487X0*%
%ADD16RoundRect,0.100000X0.130000X0.100000X-0.130000X0.100000X-0.130000X-0.100000X0.130000X-0.100000X0*%
%ADD17RoundRect,0.150000X0.150000X0.200000X-0.150000X0.200000X-0.150000X-0.200000X0.150000X-0.200000X0*%
%ADD18RoundRect,0.100000X-0.130000X-0.100000X0.130000X-0.100000X0.130000X0.100000X-0.130000X0.100000X0*%
%ADD19RoundRect,0.140000X-0.170000X0.140000X-0.170000X-0.140000X0.170000X-0.140000X0.170000X0.140000X0*%
%ADD20RoundRect,0.100000X-0.021213X-0.162635X0.162635X0.021213X0.021213X0.162635X-0.162635X-0.021213X0*%
%ADD21R,1.700000X0.700000*%
%ADD22RoundRect,0.100000X-0.162635X0.021213X0.021213X-0.162635X0.162635X-0.021213X-0.021213X0.162635X0*%
%ADD23RoundRect,0.102000X0.530330X0.176777X0.176777X0.530330X-0.530330X-0.176777X-0.176777X-0.530330X0*%
%ADD24RoundRect,0.102000X1.025305X0.176777X0.176777X1.025305X-1.025305X-0.176777X-0.176777X-1.025305X0*%
%ADD25RoundRect,0.100000X0.100000X-0.130000X0.100000X0.130000X-0.100000X0.130000X-0.100000X-0.130000X0*%
%ADD26RoundRect,0.100000X-0.100000X0.130000X-0.100000X-0.130000X0.100000X-0.130000X0.100000X0.130000X0*%
%ADD27RoundRect,0.150000X-1.250000X-0.350000X1.250000X-0.350000X1.250000X0.350000X-1.250000X0.350000X0*%
%ADD28RoundRect,0.140000X0.170000X-0.140000X0.170000X0.140000X-0.170000X0.140000X-0.170000X-0.140000X0*%
%ADD29RoundRect,0.140000X-0.140000X-0.170000X0.140000X-0.170000X0.140000X0.170000X-0.140000X0.170000X0*%
%ADD30RoundRect,0.102000X-0.176777X0.530330X-0.530330X0.176777X0.176777X-0.530330X0.530330X-0.176777X0*%
%ADD31RoundRect,0.102000X-0.176777X1.025305X-1.025305X0.176777X0.176777X-1.025305X1.025305X-0.176777X0*%
%ADD32RoundRect,0.100000X0.162635X-0.021213X-0.021213X0.162635X-0.162635X0.021213X0.021213X-0.162635X0*%
%ADD33RoundRect,0.055000X0.055000X0.335000X-0.055000X0.335000X-0.055000X-0.335000X0.055000X-0.335000X0*%
%ADD34RoundRect,0.055000X-0.335000X0.055000X-0.335000X-0.055000X0.335000X-0.055000X0.335000X0.055000X0*%
%ADD35C,0.600000*%
%ADD36R,1.133333X1.133333*%
%ADD37RoundRect,0.150000X-0.150000X-0.200000X0.150000X-0.200000X0.150000X0.200000X-0.150000X0.200000X0*%
%ADD38R,0.300000X1.000000*%
%ADD39R,2.000000X1.300000*%
%ADD40R,1.000000X0.300000*%
%ADD41R,1.300000X2.000000*%
%ADD42RoundRect,0.150000X-0.150000X0.587500X-0.150000X-0.587500X0.150000X-0.587500X0.150000X0.587500X0*%
%ADD43RoundRect,0.150000X0.200000X-0.150000X0.200000X0.150000X-0.200000X0.150000X-0.200000X-0.150000X0*%
%ADD44RoundRect,0.250000X-0.450000X-0.350000X0.450000X-0.350000X0.450000X0.350000X-0.450000X0.350000X0*%
G04 APERTURE END LIST*
D10*
X74217659Y-71967427D02*
X74745074Y-71954755D01*
X71263322Y-72158198D02*
X71693088Y-72122345D01*
X55356903Y-28565901D02*
X55356902Y-34985301D01*
X65740221Y-72923065D02*
X65962821Y-72887073D01*
X86340377Y-72887073D02*
X86966379Y-72975266D01*
X55356902Y-34985301D02*
G75*
G02*
X52356901Y-37985302I-3000002J1D01*
G01*
X43017730Y-40197164D02*
G75*
G02*
X27395951Y-46807085I-12866380J8643104D01*
G01*
X52356901Y-37985297D02*
X47160456Y-37985297D01*
X81617245Y-72221923D02*
X83226802Y-72405521D01*
X19151600Y-53695600D02*
G75*
G02*
X27395950Y-46807088I7000000J0D01*
G01*
X19151600Y-53695600D02*
X19151599Y-61033898D01*
X86966379Y-72975266D02*
X87190892Y-72997126D01*
X64887424Y-73013914D02*
X65112306Y-72997126D01*
X31151601Y-73033901D02*
X64255488Y-73033901D01*
X75760000Y-71945641D02*
X77458230Y-71948823D01*
X74745074Y-71954755D02*
X75760000Y-71945641D01*
X94427052Y-22565901D02*
G75*
G02*
X100427099Y-28565911I48J-5999999D01*
G01*
X87822198Y-73031358D02*
X88047710Y-73033901D01*
X43017730Y-40197164D02*
G75*
G02*
X47160456Y-37985296I4150470J-2788136D01*
G01*
X88047710Y-73033901D02*
X121151599Y-73033901D01*
X65962821Y-72887073D02*
X66576998Y-72781968D01*
X133151599Y-61033901D02*
G75*
G02*
X121151599Y-73033899I-11999999J1D01*
G01*
X84789414Y-72632632D02*
X85416189Y-72730982D01*
X80471397Y-72108036D02*
X80691968Y-72127926D01*
X77937192Y-71965333D02*
X78898186Y-72012458D01*
X66576998Y-72781968D02*
X68548466Y-72477439D01*
X64255488Y-73033901D02*
X64887424Y-73013914D01*
X94427052Y-22565901D02*
X61356901Y-22565901D01*
X124907246Y-46807085D02*
G75*
G02*
X109285455Y-40197173I-2755346J15253185D01*
G01*
X55356903Y-28565901D02*
G75*
G02*
X61356901Y-22565903I5999997J1D01*
G01*
X31151601Y-73033901D02*
G75*
G02*
X19151599Y-61033898I-1J12000001D01*
G01*
X77458230Y-71948823D02*
X77937192Y-71965333D01*
X124907246Y-46807085D02*
G75*
G02*
X133151604Y-53695592I1244354J-6888515D01*
G01*
X83226802Y-72405521D02*
X84789414Y-72632632D01*
X87190892Y-72997126D02*
X87822198Y-73031358D01*
X105127930Y-37985297D02*
X103427066Y-37985297D01*
X71693088Y-72122345D02*
X72625343Y-72058342D01*
X65112306Y-72997126D02*
X65740221Y-72923065D01*
X103427066Y-37985297D02*
G75*
G02*
X100427103Y-34985296I34J2999997D01*
G01*
X68548466Y-72477439D02*
X71263322Y-72158198D01*
X85416189Y-72730982D02*
X86340377Y-72887073D01*
X78898186Y-72012458D02*
X80471397Y-72108036D01*
X100427065Y-34985296D02*
X100427066Y-28565911D01*
X80691968Y-72127926D02*
X81617245Y-72221923D01*
X72625343Y-72058342D02*
X74217659Y-71967427D01*
X133151599Y-61033901D02*
X133151599Y-53695592D01*
X52356901Y-37985302D02*
X52356901Y-37985297D01*
X105127930Y-37985297D02*
G75*
G02*
X109285467Y-40197164I7070J-5000003D01*
G01*
D11*
%TO.C,T4*%
X122885200Y-69113400D03*
%TD*%
D12*
%TO.C,J8*%
X91967800Y-46634400D03*
D13*
X93967801Y-46634400D03*
X95967800Y-46634400D03*
X97967800Y-46634400D03*
%TD*%
D11*
%TO.C,T1*%
X30403800Y-69443600D03*
%TD*%
%TO.C,T3*%
X125247400Y-69113400D03*
%TD*%
%TO.C,T2*%
X28016200Y-69443600D03*
%TD*%
D14*
%TO.C,Q1*%
X32535099Y-58663800D03*
X32535099Y-60563800D03*
X30660098Y-59613800D03*
%TD*%
D15*
%TO.C,D5*%
X130365825Y-61150825D03*
X131355775Y-62140775D03*
%TD*%
D16*
%TO.C,R21*%
X101660000Y-71070000D03*
X101020000Y-71070000D03*
%TD*%
D17*
%TO.C,D4*%
X28687800Y-61696600D03*
X30087800Y-61696600D03*
%TD*%
D18*
%TO.C,C12*%
X29601200Y-60579000D03*
X30241200Y-60579000D03*
%TD*%
%TO.C,R31*%
X91430000Y-44470000D03*
X92070000Y-44470000D03*
%TD*%
D19*
%TO.C,C40*%
X65190000Y-49450927D03*
X65190000Y-50410927D03*
%TD*%
D20*
%TO.C,C37*%
X79199526Y-43533274D03*
X79652074Y-43080726D03*
%TD*%
D21*
%TO.C,L1*%
X63510000Y-49180000D03*
X63510000Y-50580000D03*
%TD*%
D22*
%TO.C,R22*%
X55473726Y-66113726D03*
X55926274Y-66566274D03*
%TD*%
D18*
%TO.C,R16*%
X36910000Y-62730000D03*
X37550000Y-62730000D03*
%TD*%
D23*
%TO.C,J1*%
X129882983Y-63312703D03*
X129317297Y-62747017D03*
D24*
X129423363Y-65610800D03*
X127019200Y-63206637D03*
%TD*%
D16*
%TO.C,C31*%
X66817200Y-52857400D03*
X66177200Y-52857400D03*
%TD*%
D25*
%TO.C,C19*%
X71932800Y-40883800D03*
X71932800Y-40243800D03*
%TD*%
D18*
%TO.C,R1*%
X81493400Y-46685200D03*
X82133400Y-46685200D03*
%TD*%
D16*
%TO.C,C34*%
X66156800Y-47117000D03*
X65516800Y-47117000D03*
%TD*%
D19*
%TO.C,C2*%
X82042000Y-47526000D03*
X82042000Y-48486000D03*
%TD*%
D18*
%TO.C,R2*%
X91430000Y-43670000D03*
X92070000Y-43670000D03*
%TD*%
D26*
%TO.C,R13*%
X58110000Y-46890000D03*
X58110000Y-47530000D03*
%TD*%
D18*
%TO.C,R24*%
X85520000Y-50090000D03*
X86160000Y-50090000D03*
%TD*%
D27*
%TO.C,SW3*%
X113175078Y-70046612D03*
X118975078Y-70046612D03*
X113175078Y-66046612D03*
X118975078Y-66046612D03*
%TD*%
D18*
%TO.C,C10*%
X124241600Y-58013600D03*
X124881600Y-58013600D03*
%TD*%
D16*
%TO.C,C35*%
X66157743Y-46365007D03*
X65517743Y-46365007D03*
%TD*%
D27*
%TO.C,SW4*%
X33404922Y-70046612D03*
X39204922Y-70046612D03*
X33404922Y-66046612D03*
X39204922Y-66046612D03*
%TD*%
D26*
%TO.C,C32*%
X67614800Y-52893000D03*
X67614800Y-53533000D03*
%TD*%
%TO.C,C30*%
X72542400Y-53883600D03*
X72542400Y-54523600D03*
%TD*%
D16*
%TO.C,R28*%
X28210000Y-56210000D03*
X27570000Y-56210000D03*
%TD*%
D18*
%TO.C,R29*%
X124200000Y-53950000D03*
X124840000Y-53950000D03*
%TD*%
D25*
%TO.C,R7*%
X33959800Y-59248000D03*
X33959800Y-58608000D03*
%TD*%
D20*
%TO.C,C38*%
X80266326Y-45616074D03*
X80718874Y-45163526D03*
%TD*%
D26*
%TO.C,C13*%
X124891800Y-58811200D03*
X124891800Y-59451200D03*
%TD*%
D16*
%TO.C,C33*%
X66131400Y-44780200D03*
X65491400Y-44780200D03*
%TD*%
D28*
%TO.C,C1*%
X82042000Y-45844400D03*
X82042000Y-44884400D03*
%TD*%
D29*
%TO.C,C23*%
X78742600Y-47777400D03*
X79702600Y-47777400D03*
%TD*%
D25*
%TO.C,R6*%
X124891800Y-57241400D03*
X124891800Y-56601400D03*
%TD*%
D18*
%TO.C,R3*%
X63360000Y-47470000D03*
X64000000Y-47470000D03*
%TD*%
D16*
%TO.C,C11*%
X30266601Y-58648600D03*
X29626601Y-58648600D03*
%TD*%
D30*
%TO.C,J2*%
X23012703Y-62817017D03*
X22447017Y-63382703D03*
D31*
X25310800Y-63276637D03*
X22906637Y-65680800D03*
%TD*%
D32*
%TO.C,C36*%
X69212674Y-39977274D03*
X68760126Y-39524726D03*
%TD*%
D16*
%TO.C,C14*%
X121782800Y-61645800D03*
X121142800Y-61645800D03*
%TD*%
D26*
%TO.C,R23*%
X75560000Y-57195000D03*
X75560000Y-57835000D03*
%TD*%
D33*
%TO.C,U2*%
X68336667Y-41976833D03*
X68736667Y-41976834D03*
X69136667Y-41976833D03*
X69536667Y-41976833D03*
X69936667Y-41976834D03*
X70336667Y-41976833D03*
X70736667Y-41976833D03*
X71136667Y-41976833D03*
X71536667Y-41976834D03*
X71936667Y-41976833D03*
X72336667Y-41976833D03*
X72736667Y-41976834D03*
X73136667Y-41976833D03*
X73536667Y-41976833D03*
X73936667Y-41976833D03*
X74336667Y-41976834D03*
X74736667Y-41976833D03*
X75136667Y-41976833D03*
X75536667Y-41976834D03*
X75936667Y-41976833D03*
D34*
X77033167Y-43073333D03*
X77033166Y-43473333D03*
X77033167Y-43873333D03*
X77033167Y-44273333D03*
X77033166Y-44673333D03*
X77033167Y-45073333D03*
X77033167Y-45473333D03*
X77033167Y-45873333D03*
X77033166Y-46273333D03*
X77033167Y-46673333D03*
X77033167Y-47073333D03*
X77033166Y-47473333D03*
X77033167Y-47873333D03*
X77033167Y-48273333D03*
X77033167Y-48673333D03*
X77033166Y-49073333D03*
X77033167Y-49473333D03*
X77033167Y-49873333D03*
X77033166Y-50273333D03*
X77033167Y-50673333D03*
D33*
X75936667Y-51769833D03*
X75536667Y-51769832D03*
X75136667Y-51769833D03*
X74736667Y-51769833D03*
X74336667Y-51769832D03*
X73936667Y-51769833D03*
X73536667Y-51769833D03*
X73136667Y-51769833D03*
X72736667Y-51769832D03*
X72336667Y-51769833D03*
X71936667Y-51769833D03*
X71536667Y-51769832D03*
X71136667Y-51769833D03*
X70736667Y-51769833D03*
X70336667Y-51769833D03*
X69936667Y-51769832D03*
X69536667Y-51769833D03*
X69136667Y-51769833D03*
X68736667Y-51769832D03*
X68336667Y-51769833D03*
D34*
X67240167Y-50673333D03*
X67240168Y-50273333D03*
X67240167Y-49873333D03*
X67240167Y-49473333D03*
X67240168Y-49073333D03*
X67240167Y-48673333D03*
X67240167Y-48273333D03*
X67240167Y-47873333D03*
X67240168Y-47473333D03*
X67240167Y-47073333D03*
X67240167Y-46673333D03*
X67240168Y-46273333D03*
X67240167Y-45873333D03*
X67240167Y-45473333D03*
X67240167Y-45073333D03*
X67240168Y-44673333D03*
X67240167Y-44273333D03*
X67240167Y-43873333D03*
X67240168Y-43473333D03*
X67240167Y-43073333D03*
D35*
X73270000Y-45740000D03*
D36*
X73270000Y-45740000D03*
D35*
X71003334Y-45740000D03*
D36*
X71003334Y-45740000D03*
D35*
X72136667Y-45740001D03*
D36*
X72136667Y-45740001D03*
D35*
X73269999Y-46873333D03*
D36*
X73269999Y-46873333D03*
D35*
X72136667Y-46873333D03*
D36*
X72136667Y-46873333D03*
D35*
X71003335Y-46873333D03*
D36*
X71003335Y-46873333D03*
D35*
X72136667Y-48006665D03*
D36*
X72136667Y-48006665D03*
D35*
X73270000Y-48006666D03*
D36*
X73270000Y-48006666D03*
D35*
X71003334Y-48006666D03*
D36*
X71003334Y-48006666D03*
%TD*%
D26*
%TO.C,R30*%
X56070000Y-46880000D03*
X56070000Y-47520000D03*
%TD*%
D37*
%TO.C,D2*%
X125363200Y-62077600D03*
X123963200Y-62077600D03*
%TD*%
D38*
%TO.C,J9*%
X68569999Y-68140000D03*
X69070000Y-68140000D03*
X69570000Y-68140000D03*
X70070000Y-68140001D03*
X70570000Y-68140000D03*
X71070000Y-68140000D03*
X71570000Y-68140000D03*
X72070000Y-68140000D03*
X72570000Y-68140001D03*
X73070000Y-68140000D03*
X73570000Y-68140000D03*
X74070000Y-68140000D03*
X74570000Y-68140000D03*
X75070000Y-68140001D03*
X75570000Y-68140000D03*
X76070000Y-68140000D03*
X76570001Y-68140000D03*
D39*
X66270000Y-65440000D03*
X78870000Y-65440000D03*
%TD*%
D40*
%TO.C,J5*%
X62780000Y-68800000D03*
X62780000Y-68300000D03*
X62780000Y-67800000D03*
X62780000Y-67300000D03*
X62780000Y-66800000D03*
X62780000Y-66300000D03*
X62780000Y-65800000D03*
X62780000Y-65300000D03*
D41*
X60080000Y-71099999D03*
X60080000Y-63000001D03*
%TD*%
D18*
%TO.C,R4*%
X63360000Y-48170000D03*
X64000000Y-48170000D03*
%TD*%
D26*
%TO.C,R12*%
X58820000Y-46890000D03*
X58820000Y-47530000D03*
%TD*%
D29*
%TO.C,C41*%
X65077400Y-51765200D03*
X66037400Y-51765200D03*
%TD*%
D22*
%TO.C,R27*%
X59933726Y-46223726D03*
X60386274Y-46676274D03*
%TD*%
D26*
%TO.C,C29*%
X71780400Y-53883600D03*
X71780400Y-54523600D03*
%TD*%
D42*
%TO.C,Q2*%
X121833600Y-59387500D03*
X123733600Y-59387500D03*
X122783600Y-61262501D03*
%TD*%
D18*
%TO.C,R11*%
X63561000Y-52095400D03*
X64201000Y-52095400D03*
%TD*%
D25*
%TO.C,R5*%
X33959800Y-60721200D03*
X33959800Y-60081200D03*
%TD*%
D40*
%TO.C,J6*%
X24714200Y-56570003D03*
X24714200Y-56070001D03*
X24714200Y-55570002D03*
X24714200Y-55070003D03*
X24714200Y-54570001D03*
D41*
X22014201Y-58870000D03*
X22014201Y-52270004D03*
%TD*%
D40*
%TO.C,J4*%
X127652801Y-54570001D03*
X127652801Y-55070003D03*
X127652801Y-55570002D03*
X127652801Y-56070001D03*
X127652801Y-56570003D03*
D41*
X130352800Y-52270004D03*
X130352800Y-58870000D03*
%TD*%
D20*
%TO.C,R26*%
X58973726Y-48646274D03*
X59426274Y-48193726D03*
%TD*%
D19*
%TO.C,C39*%
X66110494Y-49450927D03*
X66110494Y-50410927D03*
%TD*%
D26*
%TO.C,R14*%
X57400000Y-46890000D03*
X57400000Y-47530000D03*
%TD*%
D17*
%TO.C,D1*%
X28687800Y-57531000D03*
X30087800Y-57531000D03*
%TD*%
D26*
%TO.C,R10*%
X124891800Y-60284400D03*
X124891800Y-60924400D03*
%TD*%
D25*
%TO.C,R9*%
X27711400Y-57851000D03*
X27711400Y-57211000D03*
%TD*%
D16*
%TO.C,R25*%
X53260000Y-47190000D03*
X52620000Y-47190000D03*
%TD*%
D43*
%TO.C,D6*%
X119989600Y-61860200D03*
X119989600Y-63260200D03*
%TD*%
D16*
%TO.C,R8*%
X124099595Y-57259242D03*
X123459595Y-57259242D03*
%TD*%
D38*
%TO.C,J3*%
X92480000Y-71050000D03*
X92980000Y-71050000D03*
X93480000Y-71050000D03*
X93980000Y-71050000D03*
X94480000Y-71050000D03*
X94980000Y-71050000D03*
X95480000Y-71050000D03*
X95980000Y-71050000D03*
D39*
X90180001Y-68350000D03*
X98279999Y-68350000D03*
%TD*%
D44*
%TO.C,Y1*%
X84066200Y-46020000D03*
X86266200Y-46020000D03*
X86266200Y-47720000D03*
X84066200Y-47720000D03*
%TD*%
D43*
%TO.C,D3*%
X28422600Y-58939200D03*
X28422600Y-60339200D03*
%TD*%
D26*
%TO.C,C9*%
X34721799Y-60081200D03*
X34721799Y-60721200D03*
%TD*%
M02*
