%TF.GenerationSoftware,KiCad,Pcbnew,9.0.6-rc2*%
%TF.CreationDate,2026-01-05T07:07:08-08:00*%
%TF.ProjectId,FPC_Trigger_Board,4650435f-5472-4696-9767-65725f426f61,rev?*%
%TF.SameCoordinates,Original*%
%TF.FileFunction,Glue,Top*%
%TF.FilePolarity,Positive*%
%FSLAX46Y46*%
G04 Gerber Fmt 4.6, Leading zero omitted, Abs format (unit mm)*
G04 Created by KiCad (PCBNEW 9.0.6-rc2) date 2026-01-05 07:07:08*
%MOMM*%
%LPD*%
G01*
G04 APERTURE LIST*
%ADD10C,0.000000*%
G04 APERTURE END LIST*
D10*
G36*
X277595083Y-137996600D02*
G01*
X257077684Y-138116600D01*
X257077684Y-131385600D01*
X277595084Y-131265600D01*
X277595083Y-137996600D01*
G37*
G36*
X157700999Y-141386000D02*
G01*
X153535400Y-141386000D01*
X153535400Y-129321000D01*
X157701000Y-129321000D01*
X157700999Y-141386000D01*
G37*
G36*
X267570200Y-137922600D02*
G01*
X274860000Y-137922600D01*
X274860000Y-162937400D01*
X267570200Y-162937400D01*
X267570200Y-137922600D01*
G37*
G36*
X162273000Y-131962601D02*
G01*
X162263000Y-139223600D01*
X157665600Y-139223600D01*
X157675600Y-131962600D01*
X162273000Y-131962601D01*
G37*
G36*
X177944800Y-138122172D02*
G01*
X157507400Y-138252172D01*
X157507399Y-131521172D01*
X177944800Y-131391172D01*
X177944800Y-138122172D01*
G37*
G36*
X160190200Y-137790000D02*
G01*
X167480000Y-137790000D01*
X167480000Y-162974800D01*
X160190200Y-162974800D01*
X160190200Y-137790000D01*
G37*
G36*
X277321483Y-139384735D02*
G01*
X272724084Y-139384735D01*
X272724084Y-132003735D01*
X277321484Y-132003735D01*
X277321483Y-139384735D01*
G37*
G36*
X277296084Y-129328200D02*
G01*
X281461684Y-129328200D01*
X281461684Y-141393201D01*
X277296084Y-141393201D01*
X277296084Y-129328200D01*
G37*
M02*
