%TF.GenerationSoftware,KiCad,Pcbnew,9.0.6-rc2*%
%TF.CreationDate,2025-12-12T00:50:13-08:00*%
%TF.ProjectId,FPC_Trigger_Board,4650435f-5472-4696-9767-65725f426f61,rev?*%
%TF.SameCoordinates,Original*%
%TF.FileFunction,Glue,Top*%
%TF.FilePolarity,Positive*%
%FSLAX46Y46*%
G04 Gerber Fmt 4.6, Leading zero omitted, Abs format (unit mm)*
G04 Created by KiCad (PCBNEW 9.0.6-rc2) date 2025-12-12 00:50:13*
%MOMM*%
%LPD*%
G01*
G04 APERTURE LIST*
%ADD10C,0.000000*%
G04 APERTURE END LIST*
D10*
G36*
X270191849Y-144017051D02*
G01*
X258154450Y-144037051D01*
X258154450Y-137306051D01*
X270191850Y-137286051D01*
X270191849Y-144017051D01*
G37*
G36*
X158967449Y-147313651D02*
G01*
X154801850Y-147313651D01*
X154801850Y-135248651D01*
X158967450Y-135248651D01*
X158967449Y-147313651D01*
G37*
G36*
X268646966Y-145233051D02*
G01*
X275936766Y-145233051D01*
X275936766Y-164407851D01*
X268646966Y-164407851D01*
X268646966Y-145233051D01*
G37*
G36*
X163539450Y-137890252D02*
G01*
X163539450Y-144621251D01*
X158942050Y-144621251D01*
X158942050Y-137890251D01*
X163539450Y-137890252D01*
G37*
G36*
X179211250Y-144049823D02*
G01*
X167163850Y-144069823D01*
X167163849Y-137338823D01*
X179211250Y-137318823D01*
X179211250Y-144049823D01*
G37*
G36*
X161456650Y-145257651D02*
G01*
X168746450Y-145257651D01*
X168746450Y-164382451D01*
X161456650Y-164382451D01*
X161456650Y-145257651D01*
G37*
G36*
X278398249Y-144655186D02*
G01*
X273800850Y-144655186D01*
X273800850Y-137924186D01*
X278398250Y-137924186D01*
X278398249Y-144655186D01*
G37*
G36*
X278372850Y-135248651D02*
G01*
X282538450Y-135248651D01*
X282538450Y-147313652D01*
X278372850Y-147313652D01*
X278372850Y-135248651D01*
G37*
M02*
