%TF.GenerationSoftware,KiCad,Pcbnew,9.0.6-rc2*%
%TF.CreationDate,2025-12-12T00:50:13-08:00*%
%TF.ProjectId,FPC_Trigger_Board,4650435f-5472-4696-9767-65725f426f61,rev?*%
%TF.SameCoordinates,Original*%
%TF.FileFunction,Legend,Bot*%
%TF.FilePolarity,Positive*%
%FSLAX46Y46*%
G04 Gerber Fmt 4.6, Leading zero omitted, Abs format (unit mm)*
G04 Created by KiCad (PCBNEW 9.0.6-rc2) date 2025-12-12 00:50:13*
%MOMM*%
%LPD*%
G01*
G04 APERTURE LIST*
%ADD10C,0.120000*%
%ADD11C,0.150000*%
G04 APERTURE END LIST*
D10*
X218708250Y-142957551D02*
X218708250Y-142933551D01*
X218708250Y-142453551D02*
X218708250Y-142429551D01*
X218708250Y-141949551D02*
X218708250Y-141925551D01*
X218708250Y-141445551D02*
X218708250Y-141421551D01*
X218708250Y-140941551D02*
X218708250Y-140917551D01*
X218708250Y-140437551D02*
X218708250Y-140413551D01*
X218708250Y-139933551D02*
X218708250Y-139909551D01*
X218708250Y-139429551D02*
X218708250Y-139405551D01*
X218708250Y-138925551D02*
X218708250Y-138901551D01*
X218708250Y-138421551D02*
X218708250Y-138397551D01*
X218708250Y-137917551D02*
X218708250Y-137893551D01*
X218708250Y-137413551D02*
X218708250Y-137389551D01*
X218708250Y-136909551D02*
X218708250Y-136885551D01*
X218708250Y-136405551D02*
X218708250Y-136381551D01*
X218708250Y-135901551D02*
X218708250Y-135877551D01*
X218708250Y-135397551D02*
X218708250Y-135373551D01*
X218708250Y-142716251D02*
X218708250Y-142692251D01*
X218708250Y-142212251D02*
X218708250Y-142188251D01*
X218708250Y-141708251D02*
X218708250Y-141684251D01*
X218708250Y-141204251D02*
X218708250Y-141180251D01*
X218708250Y-140700251D02*
X218708250Y-140676251D01*
X218708250Y-140196251D02*
X218708250Y-140172251D01*
X218708250Y-139692251D02*
X218708250Y-139668251D01*
X218708250Y-139188251D02*
X218708250Y-139164251D01*
X218708250Y-138684251D02*
X218708250Y-138660251D01*
X218708250Y-138180251D02*
X218708250Y-138156251D01*
X218708250Y-137676251D02*
X218708250Y-137652251D01*
X218708250Y-137172251D02*
X218708250Y-137148251D01*
X218708250Y-136668251D02*
X218708250Y-136644251D01*
X218708250Y-136164251D02*
X218708250Y-136140251D01*
X218708250Y-135660251D02*
X218708250Y-135636251D01*
X218708250Y-135156251D02*
X218708250Y-135132251D01*
D11*
X273944720Y-153446543D02*
X274754243Y-153446543D01*
X274754243Y-153446543D02*
X274849481Y-153494162D01*
X274849481Y-153494162D02*
X274897101Y-153541781D01*
X274897101Y-153541781D02*
X274944720Y-153637019D01*
X274944720Y-153637019D02*
X274944720Y-153827495D01*
X274944720Y-153827495D02*
X274897101Y-153922733D01*
X274897101Y-153922733D02*
X274849481Y-153970352D01*
X274849481Y-153970352D02*
X274754243Y-154017971D01*
X274754243Y-154017971D02*
X273944720Y-154017971D01*
X274944720Y-155017971D02*
X274944720Y-154446543D01*
X274944720Y-154732257D02*
X273944720Y-154732257D01*
X273944720Y-154732257D02*
X274087577Y-154637019D01*
X274087577Y-154637019D02*
X274182815Y-154541781D01*
X274182815Y-154541781D02*
X274230434Y-154446543D01*
X159565916Y-144218831D02*
X159613535Y-144266451D01*
X159613535Y-144266451D02*
X159756392Y-144314070D01*
X159756392Y-144314070D02*
X159851630Y-144314070D01*
X159851630Y-144314070D02*
X159994487Y-144266451D01*
X159994487Y-144266451D02*
X160089725Y-144171212D01*
X160089725Y-144171212D02*
X160137344Y-144075974D01*
X160137344Y-144075974D02*
X160184963Y-143885498D01*
X160184963Y-143885498D02*
X160184963Y-143742641D01*
X160184963Y-143742641D02*
X160137344Y-143552165D01*
X160137344Y-143552165D02*
X160089725Y-143456927D01*
X160089725Y-143456927D02*
X159994487Y-143361689D01*
X159994487Y-143361689D02*
X159851630Y-143314070D01*
X159851630Y-143314070D02*
X159756392Y-143314070D01*
X159756392Y-143314070D02*
X159613535Y-143361689D01*
X159613535Y-143361689D02*
X159565916Y-143409308D01*
X158708773Y-143647403D02*
X158708773Y-144314070D01*
X158946868Y-143266451D02*
X159184963Y-143980736D01*
X159184963Y-143980736D02*
X158565916Y-143980736D01*
X162339919Y-153446543D02*
X163149442Y-153446543D01*
X163149442Y-153446543D02*
X163244680Y-153494162D01*
X163244680Y-153494162D02*
X163292300Y-153541781D01*
X163292300Y-153541781D02*
X163339919Y-153637019D01*
X163339919Y-153637019D02*
X163339919Y-153827495D01*
X163339919Y-153827495D02*
X163292300Y-153922733D01*
X163292300Y-153922733D02*
X163244680Y-153970352D01*
X163244680Y-153970352D02*
X163149442Y-154017971D01*
X163149442Y-154017971D02*
X162339919Y-154017971D01*
X162339919Y-154398924D02*
X162339919Y-155017971D01*
X162339919Y-155017971D02*
X162720871Y-154684638D01*
X162720871Y-154684638D02*
X162720871Y-154827495D01*
X162720871Y-154827495D02*
X162768490Y-154922733D01*
X162768490Y-154922733D02*
X162816109Y-154970352D01*
X162816109Y-154970352D02*
X162911347Y-155017971D01*
X162911347Y-155017971D02*
X163149442Y-155017971D01*
X163149442Y-155017971D02*
X163244680Y-154970352D01*
X163244680Y-154970352D02*
X163292300Y-154922733D01*
X163292300Y-154922733D02*
X163339919Y-154827495D01*
X163339919Y-154827495D02*
X163339919Y-154541781D01*
X163339919Y-154541781D02*
X163292300Y-154446543D01*
X163292300Y-154446543D02*
X163244680Y-154398924D01*
X167316666Y-158189580D02*
X167364285Y-158237200D01*
X167364285Y-158237200D02*
X167507142Y-158284819D01*
X167507142Y-158284819D02*
X167602380Y-158284819D01*
X167602380Y-158284819D02*
X167745237Y-158237200D01*
X167745237Y-158237200D02*
X167840475Y-158141961D01*
X167840475Y-158141961D02*
X167888094Y-158046723D01*
X167888094Y-158046723D02*
X167935713Y-157856247D01*
X167935713Y-157856247D02*
X167935713Y-157713390D01*
X167935713Y-157713390D02*
X167888094Y-157522914D01*
X167888094Y-157522914D02*
X167840475Y-157427676D01*
X167840475Y-157427676D02*
X167745237Y-157332438D01*
X167745237Y-157332438D02*
X167602380Y-157284819D01*
X167602380Y-157284819D02*
X167507142Y-157284819D01*
X167507142Y-157284819D02*
X167364285Y-157332438D01*
X167364285Y-157332438D02*
X167316666Y-157380057D01*
X166983332Y-157284819D02*
X166364285Y-157284819D01*
X166364285Y-157284819D02*
X166697618Y-157665771D01*
X166697618Y-157665771D02*
X166554761Y-157665771D01*
X166554761Y-157665771D02*
X166459523Y-157713390D01*
X166459523Y-157713390D02*
X166411904Y-157761009D01*
X166411904Y-157761009D02*
X166364285Y-157856247D01*
X166364285Y-157856247D02*
X166364285Y-158094342D01*
X166364285Y-158094342D02*
X166411904Y-158189580D01*
X166411904Y-158189580D02*
X166459523Y-158237200D01*
X166459523Y-158237200D02*
X166554761Y-158284819D01*
X166554761Y-158284819D02*
X166840475Y-158284819D01*
X166840475Y-158284819D02*
X166935713Y-158237200D01*
X166935713Y-158237200D02*
X166983332Y-158189580D01*
X275934466Y-144453780D02*
X275982085Y-144501400D01*
X275982085Y-144501400D02*
X276124942Y-144549019D01*
X276124942Y-144549019D02*
X276220180Y-144549019D01*
X276220180Y-144549019D02*
X276363037Y-144501400D01*
X276363037Y-144501400D02*
X276458275Y-144406161D01*
X276458275Y-144406161D02*
X276505894Y-144310923D01*
X276505894Y-144310923D02*
X276553513Y-144120447D01*
X276553513Y-144120447D02*
X276553513Y-143977590D01*
X276553513Y-143977590D02*
X276505894Y-143787114D01*
X276505894Y-143787114D02*
X276458275Y-143691876D01*
X276458275Y-143691876D02*
X276363037Y-143596638D01*
X276363037Y-143596638D02*
X276220180Y-143549019D01*
X276220180Y-143549019D02*
X276124942Y-143549019D01*
X276124942Y-143549019D02*
X275982085Y-143596638D01*
X275982085Y-143596638D02*
X275934466Y-143644257D01*
X275553513Y-143644257D02*
X275505894Y-143596638D01*
X275505894Y-143596638D02*
X275410656Y-143549019D01*
X275410656Y-143549019D02*
X275172561Y-143549019D01*
X275172561Y-143549019D02*
X275077323Y-143596638D01*
X275077323Y-143596638D02*
X275029704Y-143644257D01*
X275029704Y-143644257D02*
X274982085Y-143739495D01*
X274982085Y-143739495D02*
X274982085Y-143834733D01*
X274982085Y-143834733D02*
X275029704Y-143977590D01*
X275029704Y-143977590D02*
X275601132Y-144549019D01*
X275601132Y-144549019D02*
X274982085Y-144549019D01*
X273656666Y-151839580D02*
X273704285Y-151887200D01*
X273704285Y-151887200D02*
X273847142Y-151934819D01*
X273847142Y-151934819D02*
X273942380Y-151934819D01*
X273942380Y-151934819D02*
X274085237Y-151887200D01*
X274085237Y-151887200D02*
X274180475Y-151791961D01*
X274180475Y-151791961D02*
X274228094Y-151696723D01*
X274228094Y-151696723D02*
X274275713Y-151506247D01*
X274275713Y-151506247D02*
X274275713Y-151363390D01*
X274275713Y-151363390D02*
X274228094Y-151172914D01*
X274228094Y-151172914D02*
X274180475Y-151077676D01*
X274180475Y-151077676D02*
X274085237Y-150982438D01*
X274085237Y-150982438D02*
X273942380Y-150934819D01*
X273942380Y-150934819D02*
X273847142Y-150934819D01*
X273847142Y-150934819D02*
X273704285Y-150982438D01*
X273704285Y-150982438D02*
X273656666Y-151030057D01*
X272704285Y-151934819D02*
X273275713Y-151934819D01*
X272989999Y-151934819D02*
X272989999Y-150934819D01*
X272989999Y-150934819D02*
X273085237Y-151077676D01*
X273085237Y-151077676D02*
X273180475Y-151172914D01*
X273180475Y-151172914D02*
X273275713Y-151220533D01*
X158834819Y-140038095D02*
X159644342Y-140038095D01*
X159644342Y-140038095D02*
X159739580Y-140085714D01*
X159739580Y-140085714D02*
X159787200Y-140133333D01*
X159787200Y-140133333D02*
X159834819Y-140228571D01*
X159834819Y-140228571D02*
X159834819Y-140419047D01*
X159834819Y-140419047D02*
X159787200Y-140514285D01*
X159787200Y-140514285D02*
X159739580Y-140561904D01*
X159739580Y-140561904D02*
X159644342Y-140609523D01*
X159644342Y-140609523D02*
X158834819Y-140609523D01*
X159168152Y-141514285D02*
X159834819Y-141514285D01*
X158787200Y-141276190D02*
X159501485Y-141038095D01*
X159501485Y-141038095D02*
X159501485Y-141657142D01*
X277558319Y-140480743D02*
X278367842Y-140480743D01*
X278367842Y-140480743D02*
X278463080Y-140528362D01*
X278463080Y-140528362D02*
X278510700Y-140575981D01*
X278510700Y-140575981D02*
X278558319Y-140671219D01*
X278558319Y-140671219D02*
X278558319Y-140861695D01*
X278558319Y-140861695D02*
X278510700Y-140956933D01*
X278510700Y-140956933D02*
X278463080Y-141004552D01*
X278463080Y-141004552D02*
X278367842Y-141052171D01*
X278367842Y-141052171D02*
X277558319Y-141052171D01*
X277653557Y-141480743D02*
X277605938Y-141528362D01*
X277605938Y-141528362D02*
X277558319Y-141623600D01*
X277558319Y-141623600D02*
X277558319Y-141861695D01*
X277558319Y-141861695D02*
X277605938Y-141956933D01*
X277605938Y-141956933D02*
X277653557Y-142004552D01*
X277653557Y-142004552D02*
X277748795Y-142052171D01*
X277748795Y-142052171D02*
X277844033Y-142052171D01*
X277844033Y-142052171D02*
X277986890Y-142004552D01*
X277986890Y-142004552D02*
X278558319Y-141433124D01*
X278558319Y-141433124D02*
X278558319Y-142052171D01*
D10*
%TO.C,U1*%
X270529901Y-153298448D02*
X270529901Y-155118448D01*
X270529901Y-155118448D02*
X270579901Y-155118448D01*
X270579901Y-153298448D02*
X270529901Y-153298448D01*
X272479901Y-153298448D02*
X271699901Y-153298448D01*
X273599901Y-155118448D02*
X273649901Y-155118448D01*
X273649901Y-153298448D02*
X273599901Y-153298448D01*
X273649901Y-155118448D02*
X273649901Y-153298448D01*
X273929901Y-155898448D02*
X273599901Y-155658448D01*
X273929901Y-155418448D01*
X273929901Y-155898448D01*
G36*
X273929901Y-155898448D02*
G01*
X273599901Y-155658448D01*
X273929901Y-155418448D01*
X273929901Y-155898448D01*
G37*
%TO.C,U3*%
X163725100Y-153298448D02*
X163725100Y-155118448D01*
X163725100Y-155118448D02*
X163775100Y-155118448D01*
X163775100Y-153298448D02*
X163725100Y-153298448D01*
X164895100Y-155118448D02*
X165675100Y-155118448D01*
X166795100Y-155118448D02*
X166845100Y-155118448D01*
X166845100Y-153298448D02*
X166795100Y-153298448D01*
X166845100Y-155118448D02*
X166845100Y-153298448D01*
X163775100Y-152758448D02*
X163445100Y-152998448D01*
X163445100Y-152518448D01*
X163775100Y-152758448D01*
G36*
X163775100Y-152758448D02*
G01*
X163445100Y-152998448D01*
X163445100Y-152518448D01*
X163775100Y-152758448D01*
G37*
%TO.C,U4*%
X155311501Y-140332648D02*
X155311501Y-142152648D01*
X155311501Y-142152648D02*
X155361501Y-142152648D01*
X155361501Y-140332648D02*
X155311501Y-140332648D01*
X156481501Y-142152648D02*
X157261501Y-142152648D01*
X158381501Y-142152648D02*
X158431501Y-142152648D01*
X158431501Y-140332648D02*
X158381501Y-140332648D01*
X158431501Y-142152648D02*
X158431501Y-140332648D01*
X155361501Y-139792648D02*
X155031501Y-140032648D01*
X155031501Y-139552648D01*
X155361501Y-139792648D01*
G36*
X155361501Y-139792648D02*
G01*
X155031501Y-140032648D01*
X155031501Y-139552648D01*
X155361501Y-139792648D01*
G37*
%TO.C,U2*%
X278943500Y-140332648D02*
X278943500Y-142152648D01*
X278943500Y-142152648D02*
X278993500Y-142152648D01*
X278993500Y-140332648D02*
X278943500Y-140332648D01*
X280113500Y-142152648D02*
X280893500Y-142152648D01*
X282013500Y-142152648D02*
X282063500Y-142152648D01*
X282063500Y-140332648D02*
X282013500Y-140332648D01*
X282063500Y-142152648D02*
X282063500Y-140332648D01*
X278993500Y-139792648D02*
X278663500Y-140032648D01*
X278663500Y-139552648D01*
X278993500Y-139792648D01*
G36*
X278993500Y-139792648D02*
G01*
X278663500Y-140032648D01*
X278663500Y-139552648D01*
X278993500Y-139792648D01*
G37*
%TD*%
M02*
