%TF.GenerationSoftware,KiCad,Pcbnew,9.0.6-rc2*%
%TF.CreationDate,2025-11-03T16:18:09-08:00*%
%TF.ProjectId,FPC_Trigger_Board,4650435f-5472-4696-9767-65725f426f61,rev?*%
%TF.SameCoordinates,Original*%
%TF.FileFunction,Legend,Bot*%
%TF.FilePolarity,Positive*%
%FSLAX46Y46*%
G04 Gerber Fmt 4.6, Leading zero omitted, Abs format (unit mm)*
G04 Created by KiCad (PCBNEW 9.0.6-rc2) date 2025-11-03 16:18:09*
%MOMM*%
%LPD*%
G01*
G04 APERTURE LIST*
%ADD10C,0.120000*%
%ADD11C,0.150000*%
G04 APERTURE END LIST*
D10*
X218708250Y-142957551D02*
X218708250Y-142933551D01*
X218708250Y-142453551D02*
X218708250Y-142429551D01*
X218708250Y-141949551D02*
X218708250Y-141925551D01*
X218708250Y-141445551D02*
X218708250Y-141421551D01*
X218708250Y-140941551D02*
X218708250Y-140917551D01*
X218708250Y-140437551D02*
X218708250Y-140413551D01*
X218708250Y-139933551D02*
X218708250Y-139909551D01*
X218708250Y-139429551D02*
X218708250Y-139405551D01*
X218708250Y-138925551D02*
X218708250Y-138901551D01*
X218708250Y-138421551D02*
X218708250Y-138397551D01*
X218708250Y-137917551D02*
X218708250Y-137893551D01*
X218708250Y-137413551D02*
X218708250Y-137389551D01*
X218708250Y-136909551D02*
X218708250Y-136885551D01*
X218708250Y-136405551D02*
X218708250Y-136381551D01*
X218708250Y-135901551D02*
X218708250Y-135877551D01*
X218708250Y-135397551D02*
X218708250Y-135373551D01*
X218708250Y-142716251D02*
X218708250Y-142692251D01*
X218708250Y-142212251D02*
X218708250Y-142188251D01*
X218708250Y-141708251D02*
X218708250Y-141684251D01*
X218708250Y-141204251D02*
X218708250Y-141180251D01*
X218708250Y-140700251D02*
X218708250Y-140676251D01*
X218708250Y-140196251D02*
X218708250Y-140172251D01*
X218708250Y-139692251D02*
X218708250Y-139668251D01*
X218708250Y-139188251D02*
X218708250Y-139164251D01*
X218708250Y-138684251D02*
X218708250Y-138660251D01*
X218708250Y-138180251D02*
X218708250Y-138156251D01*
X218708250Y-137676251D02*
X218708250Y-137652251D01*
X218708250Y-137172251D02*
X218708250Y-137148251D01*
X218708250Y-136668251D02*
X218708250Y-136644251D01*
X218708250Y-136164251D02*
X218708250Y-136140251D01*
X218708250Y-135660251D02*
X218708250Y-135636251D01*
X218708250Y-135156251D02*
X218708250Y-135132251D01*
D11*
X269144720Y-158446543D02*
X269954243Y-158446543D01*
X269954243Y-158446543D02*
X270049481Y-158494162D01*
X270049481Y-158494162D02*
X270097101Y-158541781D01*
X270097101Y-158541781D02*
X270144720Y-158637019D01*
X270144720Y-158637019D02*
X270144720Y-158827495D01*
X270144720Y-158827495D02*
X270097101Y-158922733D01*
X270097101Y-158922733D02*
X270049481Y-158970352D01*
X270049481Y-158970352D02*
X269954243Y-159017971D01*
X269954243Y-159017971D02*
X269144720Y-159017971D01*
X270144720Y-160017971D02*
X270144720Y-159446543D01*
X270144720Y-159732257D02*
X269144720Y-159732257D01*
X269144720Y-159732257D02*
X269287577Y-159637019D01*
X269287577Y-159637019D02*
X269382815Y-159541781D01*
X269382815Y-159541781D02*
X269430434Y-159446543D01*
X159565916Y-144218831D02*
X159613535Y-144266451D01*
X159613535Y-144266451D02*
X159756392Y-144314070D01*
X159756392Y-144314070D02*
X159851630Y-144314070D01*
X159851630Y-144314070D02*
X159994487Y-144266451D01*
X159994487Y-144266451D02*
X160089725Y-144171212D01*
X160089725Y-144171212D02*
X160137344Y-144075974D01*
X160137344Y-144075974D02*
X160184963Y-143885498D01*
X160184963Y-143885498D02*
X160184963Y-143742641D01*
X160184963Y-143742641D02*
X160137344Y-143552165D01*
X160137344Y-143552165D02*
X160089725Y-143456927D01*
X160089725Y-143456927D02*
X159994487Y-143361689D01*
X159994487Y-143361689D02*
X159851630Y-143314070D01*
X159851630Y-143314070D02*
X159756392Y-143314070D01*
X159756392Y-143314070D02*
X159613535Y-143361689D01*
X159613535Y-143361689D02*
X159565916Y-143409308D01*
X158708773Y-143647403D02*
X158708773Y-144314070D01*
X158946868Y-143266451D02*
X159184963Y-143980736D01*
X159184963Y-143980736D02*
X158565916Y-143980736D01*
X158726320Y-140480743D02*
X159535843Y-140480743D01*
X159535843Y-140480743D02*
X159631081Y-140528362D01*
X159631081Y-140528362D02*
X159678701Y-140575981D01*
X159678701Y-140575981D02*
X159726320Y-140671219D01*
X159726320Y-140671219D02*
X159726320Y-140861695D01*
X159726320Y-140861695D02*
X159678701Y-140956933D01*
X159678701Y-140956933D02*
X159631081Y-141004552D01*
X159631081Y-141004552D02*
X159535843Y-141052171D01*
X159535843Y-141052171D02*
X158726320Y-141052171D01*
X159059653Y-141956933D02*
X159726320Y-141956933D01*
X158678701Y-141718838D02*
X159392986Y-141480743D01*
X159392986Y-141480743D02*
X159392986Y-142099790D01*
X162339919Y-158446543D02*
X163149442Y-158446543D01*
X163149442Y-158446543D02*
X163244680Y-158494162D01*
X163244680Y-158494162D02*
X163292300Y-158541781D01*
X163292300Y-158541781D02*
X163339919Y-158637019D01*
X163339919Y-158637019D02*
X163339919Y-158827495D01*
X163339919Y-158827495D02*
X163292300Y-158922733D01*
X163292300Y-158922733D02*
X163244680Y-158970352D01*
X163244680Y-158970352D02*
X163149442Y-159017971D01*
X163149442Y-159017971D02*
X162339919Y-159017971D01*
X162339919Y-159398924D02*
X162339919Y-160017971D01*
X162339919Y-160017971D02*
X162720871Y-159684638D01*
X162720871Y-159684638D02*
X162720871Y-159827495D01*
X162720871Y-159827495D02*
X162768490Y-159922733D01*
X162768490Y-159922733D02*
X162816109Y-159970352D01*
X162816109Y-159970352D02*
X162911347Y-160017971D01*
X162911347Y-160017971D02*
X163149442Y-160017971D01*
X163149442Y-160017971D02*
X163244680Y-159970352D01*
X163244680Y-159970352D02*
X163292300Y-159922733D01*
X163292300Y-159922733D02*
X163339919Y-159827495D01*
X163339919Y-159827495D02*
X163339919Y-159541781D01*
X163339919Y-159541781D02*
X163292300Y-159446543D01*
X163292300Y-159446543D02*
X163244680Y-159398924D01*
X162994916Y-155852031D02*
X163042535Y-155899651D01*
X163042535Y-155899651D02*
X163185392Y-155947270D01*
X163185392Y-155947270D02*
X163280630Y-155947270D01*
X163280630Y-155947270D02*
X163423487Y-155899651D01*
X163423487Y-155899651D02*
X163518725Y-155804412D01*
X163518725Y-155804412D02*
X163566344Y-155709174D01*
X163566344Y-155709174D02*
X163613963Y-155518698D01*
X163613963Y-155518698D02*
X163613963Y-155375841D01*
X163613963Y-155375841D02*
X163566344Y-155185365D01*
X163566344Y-155185365D02*
X163518725Y-155090127D01*
X163518725Y-155090127D02*
X163423487Y-154994889D01*
X163423487Y-154994889D02*
X163280630Y-154947270D01*
X163280630Y-154947270D02*
X163185392Y-154947270D01*
X163185392Y-154947270D02*
X163042535Y-154994889D01*
X163042535Y-154994889D02*
X162994916Y-155042508D01*
X162661582Y-154947270D02*
X162042535Y-154947270D01*
X162042535Y-154947270D02*
X162375868Y-155328222D01*
X162375868Y-155328222D02*
X162233011Y-155328222D01*
X162233011Y-155328222D02*
X162137773Y-155375841D01*
X162137773Y-155375841D02*
X162090154Y-155423460D01*
X162090154Y-155423460D02*
X162042535Y-155518698D01*
X162042535Y-155518698D02*
X162042535Y-155756793D01*
X162042535Y-155756793D02*
X162090154Y-155852031D01*
X162090154Y-155852031D02*
X162137773Y-155899651D01*
X162137773Y-155899651D02*
X162233011Y-155947270D01*
X162233011Y-155947270D02*
X162518725Y-155947270D01*
X162518725Y-155947270D02*
X162613963Y-155899651D01*
X162613963Y-155899651D02*
X162661582Y-155852031D01*
X275934466Y-144453780D02*
X275982085Y-144501400D01*
X275982085Y-144501400D02*
X276124942Y-144549019D01*
X276124942Y-144549019D02*
X276220180Y-144549019D01*
X276220180Y-144549019D02*
X276363037Y-144501400D01*
X276363037Y-144501400D02*
X276458275Y-144406161D01*
X276458275Y-144406161D02*
X276505894Y-144310923D01*
X276505894Y-144310923D02*
X276553513Y-144120447D01*
X276553513Y-144120447D02*
X276553513Y-143977590D01*
X276553513Y-143977590D02*
X276505894Y-143787114D01*
X276505894Y-143787114D02*
X276458275Y-143691876D01*
X276458275Y-143691876D02*
X276363037Y-143596638D01*
X276363037Y-143596638D02*
X276220180Y-143549019D01*
X276220180Y-143549019D02*
X276124942Y-143549019D01*
X276124942Y-143549019D02*
X275982085Y-143596638D01*
X275982085Y-143596638D02*
X275934466Y-143644257D01*
X275553513Y-143644257D02*
X275505894Y-143596638D01*
X275505894Y-143596638D02*
X275410656Y-143549019D01*
X275410656Y-143549019D02*
X275172561Y-143549019D01*
X275172561Y-143549019D02*
X275077323Y-143596638D01*
X275077323Y-143596638D02*
X275029704Y-143644257D01*
X275029704Y-143644257D02*
X274982085Y-143739495D01*
X274982085Y-143739495D02*
X274982085Y-143834733D01*
X274982085Y-143834733D02*
X275029704Y-143977590D01*
X275029704Y-143977590D02*
X275601132Y-144549019D01*
X275601132Y-144549019D02*
X274982085Y-144549019D01*
X277548269Y-139947746D02*
X278357792Y-139947746D01*
X278357792Y-139947746D02*
X278453030Y-139995365D01*
X278453030Y-139995365D02*
X278500650Y-140042984D01*
X278500650Y-140042984D02*
X278548269Y-140138222D01*
X278548269Y-140138222D02*
X278548269Y-140328698D01*
X278548269Y-140328698D02*
X278500650Y-140423936D01*
X278500650Y-140423936D02*
X278453030Y-140471555D01*
X278453030Y-140471555D02*
X278357792Y-140519174D01*
X278357792Y-140519174D02*
X277548269Y-140519174D01*
X277643507Y-140947746D02*
X277595888Y-140995365D01*
X277595888Y-140995365D02*
X277548269Y-141090603D01*
X277548269Y-141090603D02*
X277548269Y-141328698D01*
X277548269Y-141328698D02*
X277595888Y-141423936D01*
X277595888Y-141423936D02*
X277643507Y-141471555D01*
X277643507Y-141471555D02*
X277738745Y-141519174D01*
X277738745Y-141519174D02*
X277833983Y-141519174D01*
X277833983Y-141519174D02*
X277976840Y-141471555D01*
X277976840Y-141471555D02*
X278548269Y-140900127D01*
X278548269Y-140900127D02*
X278548269Y-141519174D01*
X270742580Y-154519333D02*
X270790200Y-154471714D01*
X270790200Y-154471714D02*
X270837819Y-154328857D01*
X270837819Y-154328857D02*
X270837819Y-154233619D01*
X270837819Y-154233619D02*
X270790200Y-154090762D01*
X270790200Y-154090762D02*
X270694961Y-153995524D01*
X270694961Y-153995524D02*
X270599723Y-153947905D01*
X270599723Y-153947905D02*
X270409247Y-153900286D01*
X270409247Y-153900286D02*
X270266390Y-153900286D01*
X270266390Y-153900286D02*
X270075914Y-153947905D01*
X270075914Y-153947905D02*
X269980676Y-153995524D01*
X269980676Y-153995524D02*
X269885438Y-154090762D01*
X269885438Y-154090762D02*
X269837819Y-154233619D01*
X269837819Y-154233619D02*
X269837819Y-154328857D01*
X269837819Y-154328857D02*
X269885438Y-154471714D01*
X269885438Y-154471714D02*
X269933057Y-154519333D01*
X270837819Y-155471714D02*
X270837819Y-154900286D01*
X270837819Y-155186000D02*
X269837819Y-155186000D01*
X269837819Y-155186000D02*
X269980676Y-155090762D01*
X269980676Y-155090762D02*
X270075914Y-154995524D01*
X270075914Y-154995524D02*
X270123533Y-154900286D01*
D10*
%TO.C,U1*%
X270529901Y-158298448D02*
X270529901Y-160118448D01*
X270529901Y-160118448D02*
X270579901Y-160118448D01*
X270579901Y-158298448D02*
X270529901Y-158298448D01*
X271699901Y-160118448D02*
X272479901Y-160118448D01*
X273599901Y-160118448D02*
X273649901Y-160118448D01*
X273649901Y-158298448D02*
X273599901Y-158298448D01*
X273649901Y-160118448D02*
X273649901Y-158298448D01*
X270579901Y-157758448D02*
X270249901Y-157998448D01*
X270249901Y-157518448D01*
X270579901Y-157758448D01*
G36*
X270579901Y-157758448D02*
G01*
X270249901Y-157998448D01*
X270249901Y-157518448D01*
X270579901Y-157758448D01*
G37*
%TO.C,U4*%
X155311501Y-140332648D02*
X155311501Y-142152648D01*
X155311501Y-142152648D02*
X155361501Y-142152648D01*
X155361501Y-140332648D02*
X155311501Y-140332648D01*
X157261501Y-140332648D02*
X156481501Y-140332648D01*
X158381501Y-142152648D02*
X158431501Y-142152648D01*
X158431501Y-140332648D02*
X158381501Y-140332648D01*
X158431501Y-142152648D02*
X158431501Y-140332648D01*
X158711501Y-142932648D02*
X158381501Y-142692648D01*
X158711501Y-142452648D01*
X158711501Y-142932648D01*
G36*
X158711501Y-142932648D02*
G01*
X158381501Y-142692648D01*
X158711501Y-142452648D01*
X158711501Y-142932648D01*
G37*
%TO.C,U3*%
X163725100Y-158298448D02*
X163725100Y-160118448D01*
X163725100Y-160118448D02*
X163775100Y-160118448D01*
X163775100Y-158298448D02*
X163725100Y-158298448D01*
X164895100Y-160118448D02*
X165675100Y-160118448D01*
X166795100Y-160118448D02*
X166845100Y-160118448D01*
X166845100Y-158298448D02*
X166795100Y-158298448D01*
X166845100Y-160118448D02*
X166845100Y-158298448D01*
X163775100Y-157758448D02*
X163445100Y-157998448D01*
X163445100Y-157518448D01*
X163775100Y-157758448D01*
G36*
X163775100Y-157758448D02*
G01*
X163445100Y-157998448D01*
X163445100Y-157518448D01*
X163775100Y-157758448D01*
G37*
%TO.C,U2*%
X278943500Y-140332648D02*
X278943500Y-142152648D01*
X278943500Y-142152648D02*
X278993500Y-142152648D01*
X278993500Y-140332648D02*
X278943500Y-140332648D01*
X280893500Y-140332648D02*
X280113500Y-140332648D01*
X282013500Y-142152648D02*
X282063500Y-142152648D01*
X282063500Y-140332648D02*
X282013500Y-140332648D01*
X282063500Y-142152648D02*
X282063500Y-140332648D01*
X282343500Y-142932648D02*
X282013500Y-142692648D01*
X282343500Y-142452648D01*
X282343500Y-142932648D01*
G36*
X282343500Y-142932648D02*
G01*
X282013500Y-142692648D01*
X282343500Y-142452648D01*
X282343500Y-142932648D01*
G37*
%TD*%
M02*
