M48
; DRILL file {KiCad 9.0.6-rc2} date 2025-12-12T00:50:16-0800
; FORMAT={-:-/ absolute / metric / decimal}
; #@! TF.CreationDate,2025-12-12T00:50:16-08:00
; #@! TF.GenerationSoftware,Kicad,Pcbnew,9.0.6-rc2
; #@! TF.FileFunction,Plated,1,2,PTH
FMAT,2
METRIC
; #@! TA.AperFunction,Plated,PTH,ViaDrill
T1C0.300
%
G90
G05
T1
X156.13Y-138.74
X160.923Y-141.903
X162.24Y-144.4
X162.88Y-139.33
X163.82Y-161.3
X163.9Y-141.13
X164.174Y-143.732
X164.33Y-145.74
X164.82Y-141.74
X164.92Y-143.4
X165.82Y-162.35
X166.56Y-148.74
X259.983Y-138.347
X271.15Y-161.02
X271.362Y-140.71
X271.42Y-145.43
X272.201Y-147.568
X272.836Y-145.586
X273.13Y-162.23
X273.135Y-144.449
X274.004Y-143.453
X274.614Y-143.986
X276.442Y-142.869
X276.454Y-140.335
M30
