%TF.GenerationSoftware,KiCad,Pcbnew,9.0.6-rc2*%
%TF.CreationDate,2025-12-12T00:50:13-08:00*%
%TF.ProjectId,FPC_Trigger_Board,4650435f-5472-4696-9767-65725f426f61,rev?*%
%TF.SameCoordinates,Original*%
%TF.FileFunction,Legend,Top*%
%TF.FilePolarity,Positive*%
%FSLAX46Y46*%
G04 Gerber Fmt 4.6, Leading zero omitted, Abs format (unit mm)*
G04 Created by KiCad (PCBNEW 9.0.6-rc2) date 2025-12-12 00:50:13*
%MOMM*%
%LPD*%
G01*
G04 APERTURE LIST*
%ADD10C,0.120000*%
%ADD11C,0.150000*%
G04 APERTURE END LIST*
D10*
X218708250Y-142703551D02*
X218708250Y-142679551D01*
X218708250Y-142199551D02*
X218708250Y-142175551D01*
X218708250Y-141695551D02*
X218708250Y-141671551D01*
X218708250Y-141191551D02*
X218708250Y-141167551D01*
X218708250Y-140687551D02*
X218708250Y-140663551D01*
X218708250Y-140183551D02*
X218708250Y-140159551D01*
X218708250Y-139679551D02*
X218708250Y-139655551D01*
X218708250Y-139175551D02*
X218708250Y-139151551D01*
X218708250Y-138671551D02*
X218708250Y-138647551D01*
X218708250Y-138167551D02*
X218708250Y-138143551D01*
X218708250Y-137663551D02*
X218708250Y-137639551D01*
X218708250Y-137159551D02*
X218708250Y-137135551D01*
X218708250Y-136655551D02*
X218708250Y-136631551D01*
X218708250Y-136151551D02*
X218708250Y-136127551D01*
X218708250Y-135647551D02*
X218708250Y-135623551D01*
X218708250Y-135143551D02*
X218708250Y-135119551D01*
X218708250Y-142944851D02*
X218708250Y-142920851D01*
X218708250Y-142440851D02*
X218708250Y-142416851D01*
X218708250Y-141936851D02*
X218708250Y-141912851D01*
X218708250Y-141432851D02*
X218708250Y-141408851D01*
X218708250Y-140928851D02*
X218708250Y-140904851D01*
X218708250Y-140424851D02*
X218708250Y-140400851D01*
X218708250Y-139920851D02*
X218708250Y-139896851D01*
X218708250Y-139416851D02*
X218708250Y-139392851D01*
X218708250Y-138912851D02*
X218708250Y-138888851D01*
X218708250Y-138408851D02*
X218708250Y-138384851D01*
X218708250Y-137904851D02*
X218708250Y-137880851D01*
X218708250Y-137400851D02*
X218708250Y-137376851D01*
X218708250Y-136896851D02*
X218708250Y-136872851D01*
X218708250Y-136392851D02*
X218708250Y-136368851D01*
X218708250Y-135888851D02*
X218708250Y-135864851D01*
X218708250Y-135384851D02*
X218708250Y-135360851D01*
D11*
X181059257Y-142967071D02*
X180725924Y-142490880D01*
X180487829Y-142967071D02*
X180487829Y-141967071D01*
X180487829Y-141967071D02*
X180868781Y-141967071D01*
X180868781Y-141967071D02*
X180964019Y-142014690D01*
X180964019Y-142014690D02*
X181011638Y-142062309D01*
X181011638Y-142062309D02*
X181059257Y-142157547D01*
X181059257Y-142157547D02*
X181059257Y-142300404D01*
X181059257Y-142300404D02*
X181011638Y-142395642D01*
X181011638Y-142395642D02*
X180964019Y-142443261D01*
X180964019Y-142443261D02*
X180868781Y-142490880D01*
X180868781Y-142490880D02*
X180487829Y-142490880D01*
X181487829Y-142967071D02*
X181487829Y-141967071D01*
X182487828Y-142014690D02*
X182392590Y-141967071D01*
X182392590Y-141967071D02*
X182249733Y-141967071D01*
X182249733Y-141967071D02*
X182106876Y-142014690D01*
X182106876Y-142014690D02*
X182011638Y-142109928D01*
X182011638Y-142109928D02*
X181964019Y-142205166D01*
X181964019Y-142205166D02*
X181916400Y-142395642D01*
X181916400Y-142395642D02*
X181916400Y-142538499D01*
X181916400Y-142538499D02*
X181964019Y-142728975D01*
X181964019Y-142728975D02*
X182011638Y-142824213D01*
X182011638Y-142824213D02*
X182106876Y-142919452D01*
X182106876Y-142919452D02*
X182249733Y-142967071D01*
X182249733Y-142967071D02*
X182344971Y-142967071D01*
X182344971Y-142967071D02*
X182487828Y-142919452D01*
X182487828Y-142919452D02*
X182535447Y-142871832D01*
X182535447Y-142871832D02*
X182535447Y-142538499D01*
X182535447Y-142538499D02*
X182344971Y-142538499D01*
X182964019Y-142967071D02*
X182964019Y-141967071D01*
X182964019Y-142443261D02*
X183535447Y-142443261D01*
X183535447Y-142967071D02*
X183535447Y-141967071D01*
X183868781Y-141967071D02*
X184440209Y-141967071D01*
X184154495Y-142967071D02*
X184154495Y-141967071D01*
X185392591Y-141967071D02*
X185964019Y-141967071D01*
X185678305Y-142967071D02*
X185678305Y-141967071D01*
X186868781Y-142967071D02*
X186535448Y-142490880D01*
X186297353Y-142967071D02*
X186297353Y-141967071D01*
X186297353Y-141967071D02*
X186678305Y-141967071D01*
X186678305Y-141967071D02*
X186773543Y-142014690D01*
X186773543Y-142014690D02*
X186821162Y-142062309D01*
X186821162Y-142062309D02*
X186868781Y-142157547D01*
X186868781Y-142157547D02*
X186868781Y-142300404D01*
X186868781Y-142300404D02*
X186821162Y-142395642D01*
X186821162Y-142395642D02*
X186773543Y-142443261D01*
X186773543Y-142443261D02*
X186678305Y-142490880D01*
X186678305Y-142490880D02*
X186297353Y-142490880D01*
X187297353Y-142967071D02*
X187297353Y-141967071D01*
X188297352Y-142014690D02*
X188202114Y-141967071D01*
X188202114Y-141967071D02*
X188059257Y-141967071D01*
X188059257Y-141967071D02*
X187916400Y-142014690D01*
X187916400Y-142014690D02*
X187821162Y-142109928D01*
X187821162Y-142109928D02*
X187773543Y-142205166D01*
X187773543Y-142205166D02*
X187725924Y-142395642D01*
X187725924Y-142395642D02*
X187725924Y-142538499D01*
X187725924Y-142538499D02*
X187773543Y-142728975D01*
X187773543Y-142728975D02*
X187821162Y-142824213D01*
X187821162Y-142824213D02*
X187916400Y-142919452D01*
X187916400Y-142919452D02*
X188059257Y-142967071D01*
X188059257Y-142967071D02*
X188154495Y-142967071D01*
X188154495Y-142967071D02*
X188297352Y-142919452D01*
X188297352Y-142919452D02*
X188344971Y-142871832D01*
X188344971Y-142871832D02*
X188344971Y-142538499D01*
X188344971Y-142538499D02*
X188154495Y-142538499D01*
X189297352Y-142014690D02*
X189202114Y-141967071D01*
X189202114Y-141967071D02*
X189059257Y-141967071D01*
X189059257Y-141967071D02*
X188916400Y-142014690D01*
X188916400Y-142014690D02*
X188821162Y-142109928D01*
X188821162Y-142109928D02*
X188773543Y-142205166D01*
X188773543Y-142205166D02*
X188725924Y-142395642D01*
X188725924Y-142395642D02*
X188725924Y-142538499D01*
X188725924Y-142538499D02*
X188773543Y-142728975D01*
X188773543Y-142728975D02*
X188821162Y-142824213D01*
X188821162Y-142824213D02*
X188916400Y-142919452D01*
X188916400Y-142919452D02*
X189059257Y-142967071D01*
X189059257Y-142967071D02*
X189154495Y-142967071D01*
X189154495Y-142967071D02*
X189297352Y-142919452D01*
X189297352Y-142919452D02*
X189344971Y-142871832D01*
X189344971Y-142871832D02*
X189344971Y-142538499D01*
X189344971Y-142538499D02*
X189154495Y-142538499D01*
X189773543Y-142443261D02*
X190106876Y-142443261D01*
X190249733Y-142967071D02*
X189773543Y-142967071D01*
X189773543Y-142967071D02*
X189773543Y-141967071D01*
X189773543Y-141967071D02*
X190249733Y-141967071D01*
X191249733Y-142967071D02*
X190916400Y-142490880D01*
X190678305Y-142967071D02*
X190678305Y-141967071D01*
X190678305Y-141967071D02*
X191059257Y-141967071D01*
X191059257Y-141967071D02*
X191154495Y-142014690D01*
X191154495Y-142014690D02*
X191202114Y-142062309D01*
X191202114Y-142062309D02*
X191249733Y-142157547D01*
X191249733Y-142157547D02*
X191249733Y-142300404D01*
X191249733Y-142300404D02*
X191202114Y-142395642D01*
X191202114Y-142395642D02*
X191154495Y-142443261D01*
X191154495Y-142443261D02*
X191059257Y-142490880D01*
X191059257Y-142490880D02*
X190678305Y-142490880D01*
X247740619Y-142941670D02*
X247264429Y-142941670D01*
X247264429Y-142941670D02*
X247264429Y-141941670D01*
X248073953Y-142417860D02*
X248407286Y-142417860D01*
X248550143Y-142941670D02*
X248073953Y-142941670D01*
X248073953Y-142941670D02*
X248073953Y-141941670D01*
X248073953Y-141941670D02*
X248550143Y-141941670D01*
X249312048Y-142417860D02*
X248978715Y-142417860D01*
X248978715Y-142941670D02*
X248978715Y-141941670D01*
X248978715Y-141941670D02*
X249454905Y-141941670D01*
X249693001Y-141941670D02*
X250264429Y-141941670D01*
X249978715Y-142941670D02*
X249978715Y-141941670D01*
X251216811Y-141941670D02*
X251788239Y-141941670D01*
X251502525Y-142941670D02*
X251502525Y-141941670D01*
X252693001Y-142941670D02*
X252359668Y-142465479D01*
X252121573Y-142941670D02*
X252121573Y-141941670D01*
X252121573Y-141941670D02*
X252502525Y-141941670D01*
X252502525Y-141941670D02*
X252597763Y-141989289D01*
X252597763Y-141989289D02*
X252645382Y-142036908D01*
X252645382Y-142036908D02*
X252693001Y-142132146D01*
X252693001Y-142132146D02*
X252693001Y-142275003D01*
X252693001Y-142275003D02*
X252645382Y-142370241D01*
X252645382Y-142370241D02*
X252597763Y-142417860D01*
X252597763Y-142417860D02*
X252502525Y-142465479D01*
X252502525Y-142465479D02*
X252121573Y-142465479D01*
X253121573Y-142941670D02*
X253121573Y-141941670D01*
X254121572Y-141989289D02*
X254026334Y-141941670D01*
X254026334Y-141941670D02*
X253883477Y-141941670D01*
X253883477Y-141941670D02*
X253740620Y-141989289D01*
X253740620Y-141989289D02*
X253645382Y-142084527D01*
X253645382Y-142084527D02*
X253597763Y-142179765D01*
X253597763Y-142179765D02*
X253550144Y-142370241D01*
X253550144Y-142370241D02*
X253550144Y-142513098D01*
X253550144Y-142513098D02*
X253597763Y-142703574D01*
X253597763Y-142703574D02*
X253645382Y-142798812D01*
X253645382Y-142798812D02*
X253740620Y-142894051D01*
X253740620Y-142894051D02*
X253883477Y-142941670D01*
X253883477Y-142941670D02*
X253978715Y-142941670D01*
X253978715Y-142941670D02*
X254121572Y-142894051D01*
X254121572Y-142894051D02*
X254169191Y-142846431D01*
X254169191Y-142846431D02*
X254169191Y-142513098D01*
X254169191Y-142513098D02*
X253978715Y-142513098D01*
X255121572Y-141989289D02*
X255026334Y-141941670D01*
X255026334Y-141941670D02*
X254883477Y-141941670D01*
X254883477Y-141941670D02*
X254740620Y-141989289D01*
X254740620Y-141989289D02*
X254645382Y-142084527D01*
X254645382Y-142084527D02*
X254597763Y-142179765D01*
X254597763Y-142179765D02*
X254550144Y-142370241D01*
X254550144Y-142370241D02*
X254550144Y-142513098D01*
X254550144Y-142513098D02*
X254597763Y-142703574D01*
X254597763Y-142703574D02*
X254645382Y-142798812D01*
X254645382Y-142798812D02*
X254740620Y-142894051D01*
X254740620Y-142894051D02*
X254883477Y-142941670D01*
X254883477Y-142941670D02*
X254978715Y-142941670D01*
X254978715Y-142941670D02*
X255121572Y-142894051D01*
X255121572Y-142894051D02*
X255169191Y-142846431D01*
X255169191Y-142846431D02*
X255169191Y-142513098D01*
X255169191Y-142513098D02*
X254978715Y-142513098D01*
X255597763Y-142417860D02*
X255931096Y-142417860D01*
X256073953Y-142941670D02*
X255597763Y-142941670D01*
X255597763Y-142941670D02*
X255597763Y-141941670D01*
X255597763Y-141941670D02*
X256073953Y-141941670D01*
X257073953Y-142941670D02*
X256740620Y-142465479D01*
X256502525Y-142941670D02*
X256502525Y-141941670D01*
X256502525Y-141941670D02*
X256883477Y-141941670D01*
X256883477Y-141941670D02*
X256978715Y-141989289D01*
X256978715Y-141989289D02*
X257026334Y-142036908D01*
X257026334Y-142036908D02*
X257073953Y-142132146D01*
X257073953Y-142132146D02*
X257073953Y-142275003D01*
X257073953Y-142275003D02*
X257026334Y-142370241D01*
X257026334Y-142370241D02*
X256978715Y-142417860D01*
X256978715Y-142417860D02*
X256883477Y-142465479D01*
X256883477Y-142465479D02*
X256502525Y-142465479D01*
M02*
