%TF.GenerationSoftware,KiCad,Pcbnew,9.0.6-rc2*%
%TF.CreationDate,2026-01-05T07:07:09-08:00*%
%TF.ProjectId,FPC_Trigger_Board,4650435f-5472-4696-9767-65725f426f61,rev?*%
%TF.SameCoordinates,Original*%
%TF.FileFunction,Legend,Bot*%
%TF.FilePolarity,Positive*%
%FSLAX46Y46*%
G04 Gerber Fmt 4.6, Leading zero omitted, Abs format (unit mm)*
G04 Created by KiCad (PCBNEW 9.0.6-rc2) date 2026-01-05 07:07:09*
%MOMM*%
%LPD*%
G01*
G04 APERTURE LIST*
%ADD10C,0.120000*%
%ADD11C,0.150000*%
G04 APERTURE END LIST*
D10*
X217498250Y-137017551D02*
X217498250Y-136993551D01*
X217498250Y-136513551D02*
X217498250Y-136489551D01*
X217498250Y-136009551D02*
X217498250Y-135985551D01*
X217498250Y-135505551D02*
X217498250Y-135481551D01*
X217498250Y-135001551D02*
X217498250Y-134977551D01*
X217498250Y-134497551D02*
X217498250Y-134473551D01*
X217498250Y-133993551D02*
X217498250Y-133969551D01*
X217498250Y-133489551D02*
X217498250Y-133465551D01*
X217498250Y-132985551D02*
X217498250Y-132961551D01*
X217498250Y-132481551D02*
X217498250Y-132457551D01*
X217498250Y-131977551D02*
X217498250Y-131953551D01*
X217498250Y-131473551D02*
X217498250Y-131449551D01*
X217498250Y-130969551D02*
X217498250Y-130945551D01*
X217498250Y-130465551D02*
X217498250Y-130441551D01*
X217498250Y-129961551D02*
X217498250Y-129937551D01*
X217498250Y-129457551D02*
X217498250Y-129433551D01*
X217498250Y-136776251D02*
X217498250Y-136752251D01*
X217498250Y-136272251D02*
X217498250Y-136248251D01*
X217498250Y-135768251D02*
X217498250Y-135744251D01*
X217498250Y-135264251D02*
X217498250Y-135240251D01*
X217498250Y-134760251D02*
X217498250Y-134736251D01*
X217498250Y-134256251D02*
X217498250Y-134232251D01*
X217498250Y-133752251D02*
X217498250Y-133728251D01*
X217498250Y-133248251D02*
X217498250Y-133224251D01*
X217498250Y-132744251D02*
X217498250Y-132720251D01*
X217498250Y-132240251D02*
X217498250Y-132216251D01*
X217498250Y-131736251D02*
X217498250Y-131712251D01*
X217498250Y-131232251D02*
X217498250Y-131208251D01*
X217498250Y-130728251D02*
X217498250Y-130704251D01*
X217498250Y-130224251D02*
X217498250Y-130200251D01*
X217498250Y-129720251D02*
X217498250Y-129696251D01*
X217498250Y-129216251D02*
X217498250Y-129192251D01*
D11*
X272734720Y-157506543D02*
X273544243Y-157506543D01*
X273544243Y-157506543D02*
X273639481Y-157554162D01*
X273639481Y-157554162D02*
X273687101Y-157601781D01*
X273687101Y-157601781D02*
X273734720Y-157697019D01*
X273734720Y-157697019D02*
X273734720Y-157887495D01*
X273734720Y-157887495D02*
X273687101Y-157982733D01*
X273687101Y-157982733D02*
X273639481Y-158030352D01*
X273639481Y-158030352D02*
X273544243Y-158077971D01*
X273544243Y-158077971D02*
X272734720Y-158077971D01*
X273734720Y-159077971D02*
X273734720Y-158506543D01*
X273734720Y-158792257D02*
X272734720Y-158792257D01*
X272734720Y-158792257D02*
X272877577Y-158697019D01*
X272877577Y-158697019D02*
X272972815Y-158601781D01*
X272972815Y-158601781D02*
X273020434Y-158506543D01*
X163356666Y-138469580D02*
X163404285Y-138517200D01*
X163404285Y-138517200D02*
X163547142Y-138564819D01*
X163547142Y-138564819D02*
X163642380Y-138564819D01*
X163642380Y-138564819D02*
X163785237Y-138517200D01*
X163785237Y-138517200D02*
X163880475Y-138421961D01*
X163880475Y-138421961D02*
X163928094Y-138326723D01*
X163928094Y-138326723D02*
X163975713Y-138136247D01*
X163975713Y-138136247D02*
X163975713Y-137993390D01*
X163975713Y-137993390D02*
X163928094Y-137802914D01*
X163928094Y-137802914D02*
X163880475Y-137707676D01*
X163880475Y-137707676D02*
X163785237Y-137612438D01*
X163785237Y-137612438D02*
X163642380Y-137564819D01*
X163642380Y-137564819D02*
X163547142Y-137564819D01*
X163547142Y-137564819D02*
X163404285Y-137612438D01*
X163404285Y-137612438D02*
X163356666Y-137660057D01*
X162499523Y-137898152D02*
X162499523Y-138564819D01*
X162737618Y-137517200D02*
X162975713Y-138231485D01*
X162975713Y-138231485D02*
X162356666Y-138231485D01*
X161129919Y-157506543D02*
X161939442Y-157506543D01*
X161939442Y-157506543D02*
X162034680Y-157554162D01*
X162034680Y-157554162D02*
X162082300Y-157601781D01*
X162082300Y-157601781D02*
X162129919Y-157697019D01*
X162129919Y-157697019D02*
X162129919Y-157887495D01*
X162129919Y-157887495D02*
X162082300Y-157982733D01*
X162082300Y-157982733D02*
X162034680Y-158030352D01*
X162034680Y-158030352D02*
X161939442Y-158077971D01*
X161939442Y-158077971D02*
X161129919Y-158077971D01*
X161129919Y-158458924D02*
X161129919Y-159077971D01*
X161129919Y-159077971D02*
X161510871Y-158744638D01*
X161510871Y-158744638D02*
X161510871Y-158887495D01*
X161510871Y-158887495D02*
X161558490Y-158982733D01*
X161558490Y-158982733D02*
X161606109Y-159030352D01*
X161606109Y-159030352D02*
X161701347Y-159077971D01*
X161701347Y-159077971D02*
X161939442Y-159077971D01*
X161939442Y-159077971D02*
X162034680Y-159030352D01*
X162034680Y-159030352D02*
X162082300Y-158982733D01*
X162082300Y-158982733D02*
X162129919Y-158887495D01*
X162129919Y-158887495D02*
X162129919Y-158601781D01*
X162129919Y-158601781D02*
X162082300Y-158506543D01*
X162082300Y-158506543D02*
X162034680Y-158458924D01*
X166326666Y-162309580D02*
X166374285Y-162357200D01*
X166374285Y-162357200D02*
X166517142Y-162404819D01*
X166517142Y-162404819D02*
X166612380Y-162404819D01*
X166612380Y-162404819D02*
X166755237Y-162357200D01*
X166755237Y-162357200D02*
X166850475Y-162261961D01*
X166850475Y-162261961D02*
X166898094Y-162166723D01*
X166898094Y-162166723D02*
X166945713Y-161976247D01*
X166945713Y-161976247D02*
X166945713Y-161833390D01*
X166945713Y-161833390D02*
X166898094Y-161642914D01*
X166898094Y-161642914D02*
X166850475Y-161547676D01*
X166850475Y-161547676D02*
X166755237Y-161452438D01*
X166755237Y-161452438D02*
X166612380Y-161404819D01*
X166612380Y-161404819D02*
X166517142Y-161404819D01*
X166517142Y-161404819D02*
X166374285Y-161452438D01*
X166374285Y-161452438D02*
X166326666Y-161500057D01*
X165993332Y-161404819D02*
X165374285Y-161404819D01*
X165374285Y-161404819D02*
X165707618Y-161785771D01*
X165707618Y-161785771D02*
X165564761Y-161785771D01*
X165564761Y-161785771D02*
X165469523Y-161833390D01*
X165469523Y-161833390D02*
X165421904Y-161881009D01*
X165421904Y-161881009D02*
X165374285Y-161976247D01*
X165374285Y-161976247D02*
X165374285Y-162214342D01*
X165374285Y-162214342D02*
X165421904Y-162309580D01*
X165421904Y-162309580D02*
X165469523Y-162357200D01*
X165469523Y-162357200D02*
X165564761Y-162404819D01*
X165564761Y-162404819D02*
X165850475Y-162404819D01*
X165850475Y-162404819D02*
X165945713Y-162357200D01*
X165945713Y-162357200D02*
X165993332Y-162309580D01*
X271326666Y-139259580D02*
X271374285Y-139307200D01*
X271374285Y-139307200D02*
X271517142Y-139354819D01*
X271517142Y-139354819D02*
X271612380Y-139354819D01*
X271612380Y-139354819D02*
X271755237Y-139307200D01*
X271755237Y-139307200D02*
X271850475Y-139211961D01*
X271850475Y-139211961D02*
X271898094Y-139116723D01*
X271898094Y-139116723D02*
X271945713Y-138926247D01*
X271945713Y-138926247D02*
X271945713Y-138783390D01*
X271945713Y-138783390D02*
X271898094Y-138592914D01*
X271898094Y-138592914D02*
X271850475Y-138497676D01*
X271850475Y-138497676D02*
X271755237Y-138402438D01*
X271755237Y-138402438D02*
X271612380Y-138354819D01*
X271612380Y-138354819D02*
X271517142Y-138354819D01*
X271517142Y-138354819D02*
X271374285Y-138402438D01*
X271374285Y-138402438D02*
X271326666Y-138450057D01*
X270945713Y-138450057D02*
X270898094Y-138402438D01*
X270898094Y-138402438D02*
X270802856Y-138354819D01*
X270802856Y-138354819D02*
X270564761Y-138354819D01*
X270564761Y-138354819D02*
X270469523Y-138402438D01*
X270469523Y-138402438D02*
X270421904Y-138450057D01*
X270421904Y-138450057D02*
X270374285Y-138545295D01*
X270374285Y-138545295D02*
X270374285Y-138640533D01*
X270374285Y-138640533D02*
X270421904Y-138783390D01*
X270421904Y-138783390D02*
X270993332Y-139354819D01*
X270993332Y-139354819D02*
X270374285Y-139354819D01*
X269789580Y-153303333D02*
X269837200Y-153255714D01*
X269837200Y-153255714D02*
X269884819Y-153112857D01*
X269884819Y-153112857D02*
X269884819Y-153017619D01*
X269884819Y-153017619D02*
X269837200Y-152874762D01*
X269837200Y-152874762D02*
X269741961Y-152779524D01*
X269741961Y-152779524D02*
X269646723Y-152731905D01*
X269646723Y-152731905D02*
X269456247Y-152684286D01*
X269456247Y-152684286D02*
X269313390Y-152684286D01*
X269313390Y-152684286D02*
X269122914Y-152731905D01*
X269122914Y-152731905D02*
X269027676Y-152779524D01*
X269027676Y-152779524D02*
X268932438Y-152874762D01*
X268932438Y-152874762D02*
X268884819Y-153017619D01*
X268884819Y-153017619D02*
X268884819Y-153112857D01*
X268884819Y-153112857D02*
X268932438Y-153255714D01*
X268932438Y-153255714D02*
X268980057Y-153303333D01*
X269884819Y-154255714D02*
X269884819Y-153684286D01*
X269884819Y-153970000D02*
X268884819Y-153970000D01*
X268884819Y-153970000D02*
X269027676Y-153874762D01*
X269027676Y-153874762D02*
X269122914Y-153779524D01*
X269122914Y-153779524D02*
X269170533Y-153684286D01*
X166514819Y-132488095D02*
X167324342Y-132488095D01*
X167324342Y-132488095D02*
X167419580Y-132535714D01*
X167419580Y-132535714D02*
X167467200Y-132583333D01*
X167467200Y-132583333D02*
X167514819Y-132678571D01*
X167514819Y-132678571D02*
X167514819Y-132869047D01*
X167514819Y-132869047D02*
X167467200Y-132964285D01*
X167467200Y-132964285D02*
X167419580Y-133011904D01*
X167419580Y-133011904D02*
X167324342Y-133059523D01*
X167324342Y-133059523D02*
X166514819Y-133059523D01*
X166848152Y-133964285D02*
X167514819Y-133964285D01*
X166467200Y-133726190D02*
X167181485Y-133488095D01*
X167181485Y-133488095D02*
X167181485Y-134107142D01*
X267373319Y-134540743D02*
X268182842Y-134540743D01*
X268182842Y-134540743D02*
X268278080Y-134588362D01*
X268278080Y-134588362D02*
X268325700Y-134635981D01*
X268325700Y-134635981D02*
X268373319Y-134731219D01*
X268373319Y-134731219D02*
X268373319Y-134921695D01*
X268373319Y-134921695D02*
X268325700Y-135016933D01*
X268325700Y-135016933D02*
X268278080Y-135064552D01*
X268278080Y-135064552D02*
X268182842Y-135112171D01*
X268182842Y-135112171D02*
X267373319Y-135112171D01*
X267468557Y-135540743D02*
X267420938Y-135588362D01*
X267420938Y-135588362D02*
X267373319Y-135683600D01*
X267373319Y-135683600D02*
X267373319Y-135921695D01*
X267373319Y-135921695D02*
X267420938Y-136016933D01*
X267420938Y-136016933D02*
X267468557Y-136064552D01*
X267468557Y-136064552D02*
X267563795Y-136112171D01*
X267563795Y-136112171D02*
X267659033Y-136112171D01*
X267659033Y-136112171D02*
X267801890Y-136064552D01*
X267801890Y-136064552D02*
X268373319Y-135493124D01*
X268373319Y-135493124D02*
X268373319Y-136112171D01*
D10*
%TO.C,U1*%
X269319901Y-157358448D02*
X269319901Y-159178448D01*
X269319901Y-159178448D02*
X269369901Y-159178448D01*
X269369901Y-157358448D02*
X269319901Y-157358448D01*
X271269901Y-157358448D02*
X270489901Y-157358448D01*
X272389901Y-159178448D02*
X272439901Y-159178448D01*
X272439901Y-157358448D02*
X272389901Y-157358448D01*
X272439901Y-159178448D02*
X272439901Y-157358448D01*
X272719901Y-159958448D02*
X272389901Y-159718448D01*
X272719901Y-159478448D01*
X272719901Y-159958448D01*
G36*
X272719901Y-159958448D02*
G01*
X272389901Y-159718448D01*
X272719901Y-159478448D01*
X272719901Y-159958448D01*
G37*
%TO.C,U3*%
X162515100Y-157358448D02*
X162515100Y-159178448D01*
X162515100Y-159178448D02*
X162565100Y-159178448D01*
X162565100Y-157358448D02*
X162515100Y-157358448D01*
X163685100Y-159178448D02*
X164465100Y-159178448D01*
X165585100Y-159178448D02*
X165635100Y-159178448D01*
X165635100Y-157358448D02*
X165585100Y-157358448D01*
X165635100Y-159178448D02*
X165635100Y-157358448D01*
X162565100Y-156818448D02*
X162235100Y-157058448D01*
X162235100Y-156578448D01*
X162565100Y-156818448D01*
G36*
X162565100Y-156818448D02*
G01*
X162235100Y-157058448D01*
X162235100Y-156578448D01*
X162565100Y-156818448D01*
G37*
%TO.C,U4*%
X163076501Y-134392648D02*
X163076501Y-136212648D01*
X163076501Y-136212648D02*
X163126501Y-136212648D01*
X163126501Y-134392648D02*
X163076501Y-134392648D01*
X164246501Y-136212648D02*
X165026501Y-136212648D01*
X166146501Y-136212648D02*
X166196501Y-136212648D01*
X166196501Y-134392648D02*
X166146501Y-134392648D01*
X166196501Y-136212648D02*
X166196501Y-134392648D01*
X163126501Y-133852648D02*
X162796501Y-134092648D01*
X162796501Y-133612648D01*
X163126501Y-133852648D01*
G36*
X163126501Y-133852648D02*
G01*
X162796501Y-134092648D01*
X162796501Y-133612648D01*
X163126501Y-133852648D01*
G37*
%TO.C,U2*%
X268758500Y-134392648D02*
X268758500Y-136212648D01*
X268758500Y-136212648D02*
X268808500Y-136212648D01*
X268808500Y-134392648D02*
X268758500Y-134392648D01*
X269928500Y-136212648D02*
X270708500Y-136212648D01*
X271828500Y-136212648D02*
X271878500Y-136212648D01*
X271878500Y-134392648D02*
X271828500Y-134392648D01*
X271878500Y-136212648D02*
X271878500Y-134392648D01*
X268808500Y-133852648D02*
X268478500Y-134092648D01*
X268478500Y-133612648D01*
X268808500Y-133852648D01*
G36*
X268808500Y-133852648D02*
G01*
X268478500Y-134092648D01*
X268478500Y-133612648D01*
X268808500Y-133852648D01*
G37*
%TD*%
M02*
