%TF.GenerationSoftware,KiCad,Pcbnew,9.0.6-rc2*%
%TF.CreationDate,2025-12-12T00:50:13-08:00*%
%TF.ProjectId,FPC_Trigger_Board,4650435f-5472-4696-9767-65725f426f61,rev?*%
%TF.SameCoordinates,Original*%
%TF.FileFunction,Soldermask,Bot*%
%TF.FilePolarity,Negative*%
%FSLAX46Y46*%
G04 Gerber Fmt 4.6, Leading zero omitted, Abs format (unit mm)*
G04 Created by KiCad (PCBNEW 9.0.6-rc2) date 2025-12-12 00:50:13*
%MOMM*%
%LPD*%
G01*
G04 APERTURE LIST*
G04 Aperture macros list*
%AMRoundRect*
0 Rectangle with rounded corners*
0 $1 Rounding radius*
0 $2 $3 $4 $5 $6 $7 $8 $9 X,Y pos of 4 corners*
0 Add a 4 corners polygon primitive as box body*
4,1,4,$2,$3,$4,$5,$6,$7,$8,$9,$2,$3,0*
0 Add four circle primitives for the rounded corners*
1,1,$1+$1,$2,$3*
1,1,$1+$1,$4,$5*
1,1,$1+$1,$6,$7*
1,1,$1+$1,$8,$9*
0 Add four rect primitives between the rounded corners*
20,1,$1+$1,$2,$3,$4,$5,0*
20,1,$1+$1,$4,$5,$6,$7,0*
20,1,$1+$1,$6,$7,$8,$9,0*
20,1,$1+$1,$8,$9,$2,$3,0*%
G04 Aperture macros list end*
%ADD10C,0.000000*%
%ADD11RoundRect,0.015000X-0.135000X1.985000X-0.135000X-1.985000X0.135000X-1.985000X0.135000X1.985000X0*%
%ADD12RoundRect,0.137500X0.137500X-0.525000X0.137500X0.525000X-0.137500X0.525000X-0.137500X-0.525000X0*%
%ADD13RoundRect,0.100000X-0.130000X-0.100000X0.130000X-0.100000X0.130000X0.100000X-0.130000X0.100000X0*%
%ADD14RoundRect,0.137500X-0.137500X0.525000X-0.137500X-0.525000X0.137500X-0.525000X0.137500X0.525000X0*%
%ADD15RoundRect,0.100000X0.130000X0.100000X-0.130000X0.100000X-0.130000X-0.100000X0.130000X-0.100000X0*%
G04 APERTURE END LIST*
D10*
%TO.C,J2*%
G36*
X218187499Y-134557251D02*
G01*
X215187499Y-134557251D01*
X215187499Y-130557251D01*
X218187499Y-130557251D01*
X218187499Y-134557251D01*
G37*
%TO.C,J1*%
G36*
X222187501Y-134557250D02*
G01*
X219187501Y-134557250D01*
X219187501Y-130557250D01*
X222187501Y-130557250D01*
X222187501Y-134557250D01*
G37*
%TD*%
D11*
%TO.C,J2*%
X215687499Y-132557251D03*
X216187500Y-132557251D03*
X216687499Y-132557251D03*
X217187498Y-132557251D03*
X217687499Y-132557251D03*
%TD*%
%TO.C,J1*%
X219687501Y-132557250D03*
X220187502Y-132557250D03*
X220687501Y-132557250D03*
X221187500Y-132557250D03*
X221687501Y-132557250D03*
%TD*%
D12*
%TO.C,U1*%
X271189901Y-153070948D03*
X272989901Y-153070948D03*
X272989901Y-155345948D03*
X272089901Y-155345948D03*
X271189901Y-155345948D03*
%TD*%
D13*
%TO.C,C4*%
X157352050Y-143732251D03*
X157992050Y-143732251D03*
%TD*%
D14*
%TO.C,U3*%
X166185100Y-155345948D03*
X164385100Y-155345948D03*
X164385100Y-153070948D03*
X165285100Y-153070948D03*
X166185100Y-153070948D03*
%TD*%
D15*
%TO.C,C3*%
X167210000Y-156690000D03*
X166570000Y-156690000D03*
%TD*%
D13*
%TO.C,C2*%
X277113050Y-143681450D03*
X277753050Y-143681450D03*
%TD*%
D15*
%TO.C,C1*%
X271860000Y-151750000D03*
X271220000Y-151750000D03*
%TD*%
D14*
%TO.C,U4*%
X157771501Y-142380148D03*
X155971501Y-142380148D03*
X155971501Y-140105148D03*
X156871501Y-140105148D03*
X157771501Y-140105148D03*
%TD*%
%TO.C,U2*%
X281403500Y-142380148D03*
X279603500Y-142380148D03*
X279603500Y-140105148D03*
X280503500Y-140105148D03*
X281403500Y-140105148D03*
%TD*%
M02*
