M48
; DRILL file {KiCad 9.0.6-rc2} date 2026-01-05T07:07:11-0800
; FORMAT={-:-/ absolute / metric / decimal}
; #@! TF.CreationDate,2026-01-05T07:07:11-08:00
; #@! TF.GenerationSoftware,Kicad,Pcbnew,9.0.6-rc2
; #@! TF.FileFunction,Plated,1,2,PTH
FMAT,2
METRIC
; #@! TA.AperFunction,Plated,PTH,ViaDrill
T1C0.300
%
G90
G05
T1
X154.92Y-132.8
X155.81Y-137.0
X161.02Y-132.76
X161.6Y-161.81
X162.35Y-135.3
X162.61Y-155.36
X163.12Y-139.8
X163.15Y-141.48
X164.43Y-151.9
X164.69Y-136.0
X165.35Y-142.8
X166.87Y-136.75
X166.89Y-134.73
X168.61Y-135.27
X258.773Y-132.407
X266.71Y-134.87
X268.2Y-136.3
X268.74Y-160.99
X270.29Y-152.31
X270.991Y-141.628
X272.39Y-132.78
X273.15Y-161.29
X275.232Y-136.929
X280.01Y-133.36
X280.12Y-137.21
M30
