%TF.GenerationSoftware,KiCad,Pcbnew,9.0.6-rc2*%
%TF.CreationDate,2026-01-05T07:07:08-08:00*%
%TF.ProjectId,FPC_Trigger_Board,4650435f-5472-4696-9767-65725f426f61,rev?*%
%TF.SameCoordinates,Original*%
%TF.FileFunction,Legend,Top*%
%TF.FilePolarity,Positive*%
%FSLAX46Y46*%
G04 Gerber Fmt 4.6, Leading zero omitted, Abs format (unit mm)*
G04 Created by KiCad (PCBNEW 9.0.6-rc2) date 2026-01-05 07:07:08*
%MOMM*%
%LPD*%
G01*
G04 APERTURE LIST*
%ADD10C,0.120000*%
%ADD11C,0.150000*%
G04 APERTURE END LIST*
D10*
X217498250Y-136763551D02*
X217498250Y-136739551D01*
X217498250Y-136259551D02*
X217498250Y-136235551D01*
X217498250Y-135755551D02*
X217498250Y-135731551D01*
X217498250Y-135251551D02*
X217498250Y-135227551D01*
X217498250Y-134747551D02*
X217498250Y-134723551D01*
X217498250Y-134243551D02*
X217498250Y-134219551D01*
X217498250Y-133739551D02*
X217498250Y-133715551D01*
X217498250Y-133235551D02*
X217498250Y-133211551D01*
X217498250Y-132731551D02*
X217498250Y-132707551D01*
X217498250Y-132227551D02*
X217498250Y-132203551D01*
X217498250Y-131723551D02*
X217498250Y-131699551D01*
X217498250Y-131219551D02*
X217498250Y-131195551D01*
X217498250Y-130715551D02*
X217498250Y-130691551D01*
X217498250Y-130211551D02*
X217498250Y-130187551D01*
X217498250Y-129707551D02*
X217498250Y-129683551D01*
X217498250Y-129203551D02*
X217498250Y-129179551D01*
X217498250Y-137004851D02*
X217498250Y-136980851D01*
X217498250Y-136500851D02*
X217498250Y-136476851D01*
X217498250Y-135996851D02*
X217498250Y-135972851D01*
X217498250Y-135492851D02*
X217498250Y-135468851D01*
X217498250Y-134988851D02*
X217498250Y-134964851D01*
X217498250Y-134484851D02*
X217498250Y-134460851D01*
X217498250Y-133980851D02*
X217498250Y-133956851D01*
X217498250Y-133476851D02*
X217498250Y-133452851D01*
X217498250Y-132972851D02*
X217498250Y-132948851D01*
X217498250Y-132468851D02*
X217498250Y-132444851D01*
X217498250Y-131964851D02*
X217498250Y-131940851D01*
X217498250Y-131460851D02*
X217498250Y-131436851D01*
X217498250Y-130956851D02*
X217498250Y-130932851D01*
X217498250Y-130452851D02*
X217498250Y-130428851D01*
X217498250Y-129948851D02*
X217498250Y-129924851D01*
X217498250Y-129444851D02*
X217498250Y-129420851D01*
D11*
X179849257Y-137027071D02*
X179515924Y-136550880D01*
X179277829Y-137027071D02*
X179277829Y-136027071D01*
X179277829Y-136027071D02*
X179658781Y-136027071D01*
X179658781Y-136027071D02*
X179754019Y-136074690D01*
X179754019Y-136074690D02*
X179801638Y-136122309D01*
X179801638Y-136122309D02*
X179849257Y-136217547D01*
X179849257Y-136217547D02*
X179849257Y-136360404D01*
X179849257Y-136360404D02*
X179801638Y-136455642D01*
X179801638Y-136455642D02*
X179754019Y-136503261D01*
X179754019Y-136503261D02*
X179658781Y-136550880D01*
X179658781Y-136550880D02*
X179277829Y-136550880D01*
X180277829Y-137027071D02*
X180277829Y-136027071D01*
X181277828Y-136074690D02*
X181182590Y-136027071D01*
X181182590Y-136027071D02*
X181039733Y-136027071D01*
X181039733Y-136027071D02*
X180896876Y-136074690D01*
X180896876Y-136074690D02*
X180801638Y-136169928D01*
X180801638Y-136169928D02*
X180754019Y-136265166D01*
X180754019Y-136265166D02*
X180706400Y-136455642D01*
X180706400Y-136455642D02*
X180706400Y-136598499D01*
X180706400Y-136598499D02*
X180754019Y-136788975D01*
X180754019Y-136788975D02*
X180801638Y-136884213D01*
X180801638Y-136884213D02*
X180896876Y-136979452D01*
X180896876Y-136979452D02*
X181039733Y-137027071D01*
X181039733Y-137027071D02*
X181134971Y-137027071D01*
X181134971Y-137027071D02*
X181277828Y-136979452D01*
X181277828Y-136979452D02*
X181325447Y-136931832D01*
X181325447Y-136931832D02*
X181325447Y-136598499D01*
X181325447Y-136598499D02*
X181134971Y-136598499D01*
X181754019Y-137027071D02*
X181754019Y-136027071D01*
X181754019Y-136503261D02*
X182325447Y-136503261D01*
X182325447Y-137027071D02*
X182325447Y-136027071D01*
X182658781Y-136027071D02*
X183230209Y-136027071D01*
X182944495Y-137027071D02*
X182944495Y-136027071D01*
X184182591Y-136027071D02*
X184754019Y-136027071D01*
X184468305Y-137027071D02*
X184468305Y-136027071D01*
X185658781Y-137027071D02*
X185325448Y-136550880D01*
X185087353Y-137027071D02*
X185087353Y-136027071D01*
X185087353Y-136027071D02*
X185468305Y-136027071D01*
X185468305Y-136027071D02*
X185563543Y-136074690D01*
X185563543Y-136074690D02*
X185611162Y-136122309D01*
X185611162Y-136122309D02*
X185658781Y-136217547D01*
X185658781Y-136217547D02*
X185658781Y-136360404D01*
X185658781Y-136360404D02*
X185611162Y-136455642D01*
X185611162Y-136455642D02*
X185563543Y-136503261D01*
X185563543Y-136503261D02*
X185468305Y-136550880D01*
X185468305Y-136550880D02*
X185087353Y-136550880D01*
X186087353Y-137027071D02*
X186087353Y-136027071D01*
X187087352Y-136074690D02*
X186992114Y-136027071D01*
X186992114Y-136027071D02*
X186849257Y-136027071D01*
X186849257Y-136027071D02*
X186706400Y-136074690D01*
X186706400Y-136074690D02*
X186611162Y-136169928D01*
X186611162Y-136169928D02*
X186563543Y-136265166D01*
X186563543Y-136265166D02*
X186515924Y-136455642D01*
X186515924Y-136455642D02*
X186515924Y-136598499D01*
X186515924Y-136598499D02*
X186563543Y-136788975D01*
X186563543Y-136788975D02*
X186611162Y-136884213D01*
X186611162Y-136884213D02*
X186706400Y-136979452D01*
X186706400Y-136979452D02*
X186849257Y-137027071D01*
X186849257Y-137027071D02*
X186944495Y-137027071D01*
X186944495Y-137027071D02*
X187087352Y-136979452D01*
X187087352Y-136979452D02*
X187134971Y-136931832D01*
X187134971Y-136931832D02*
X187134971Y-136598499D01*
X187134971Y-136598499D02*
X186944495Y-136598499D01*
X188087352Y-136074690D02*
X187992114Y-136027071D01*
X187992114Y-136027071D02*
X187849257Y-136027071D01*
X187849257Y-136027071D02*
X187706400Y-136074690D01*
X187706400Y-136074690D02*
X187611162Y-136169928D01*
X187611162Y-136169928D02*
X187563543Y-136265166D01*
X187563543Y-136265166D02*
X187515924Y-136455642D01*
X187515924Y-136455642D02*
X187515924Y-136598499D01*
X187515924Y-136598499D02*
X187563543Y-136788975D01*
X187563543Y-136788975D02*
X187611162Y-136884213D01*
X187611162Y-136884213D02*
X187706400Y-136979452D01*
X187706400Y-136979452D02*
X187849257Y-137027071D01*
X187849257Y-137027071D02*
X187944495Y-137027071D01*
X187944495Y-137027071D02*
X188087352Y-136979452D01*
X188087352Y-136979452D02*
X188134971Y-136931832D01*
X188134971Y-136931832D02*
X188134971Y-136598499D01*
X188134971Y-136598499D02*
X187944495Y-136598499D01*
X188563543Y-136503261D02*
X188896876Y-136503261D01*
X189039733Y-137027071D02*
X188563543Y-137027071D01*
X188563543Y-137027071D02*
X188563543Y-136027071D01*
X188563543Y-136027071D02*
X189039733Y-136027071D01*
X190039733Y-137027071D02*
X189706400Y-136550880D01*
X189468305Y-137027071D02*
X189468305Y-136027071D01*
X189468305Y-136027071D02*
X189849257Y-136027071D01*
X189849257Y-136027071D02*
X189944495Y-136074690D01*
X189944495Y-136074690D02*
X189992114Y-136122309D01*
X189992114Y-136122309D02*
X190039733Y-136217547D01*
X190039733Y-136217547D02*
X190039733Y-136360404D01*
X190039733Y-136360404D02*
X189992114Y-136455642D01*
X189992114Y-136455642D02*
X189944495Y-136503261D01*
X189944495Y-136503261D02*
X189849257Y-136550880D01*
X189849257Y-136550880D02*
X189468305Y-136550880D01*
X246530619Y-137001670D02*
X246054429Y-137001670D01*
X246054429Y-137001670D02*
X246054429Y-136001670D01*
X246863953Y-136477860D02*
X247197286Y-136477860D01*
X247340143Y-137001670D02*
X246863953Y-137001670D01*
X246863953Y-137001670D02*
X246863953Y-136001670D01*
X246863953Y-136001670D02*
X247340143Y-136001670D01*
X248102048Y-136477860D02*
X247768715Y-136477860D01*
X247768715Y-137001670D02*
X247768715Y-136001670D01*
X247768715Y-136001670D02*
X248244905Y-136001670D01*
X248483001Y-136001670D02*
X249054429Y-136001670D01*
X248768715Y-137001670D02*
X248768715Y-136001670D01*
X250006811Y-136001670D02*
X250578239Y-136001670D01*
X250292525Y-137001670D02*
X250292525Y-136001670D01*
X251483001Y-137001670D02*
X251149668Y-136525479D01*
X250911573Y-137001670D02*
X250911573Y-136001670D01*
X250911573Y-136001670D02*
X251292525Y-136001670D01*
X251292525Y-136001670D02*
X251387763Y-136049289D01*
X251387763Y-136049289D02*
X251435382Y-136096908D01*
X251435382Y-136096908D02*
X251483001Y-136192146D01*
X251483001Y-136192146D02*
X251483001Y-136335003D01*
X251483001Y-136335003D02*
X251435382Y-136430241D01*
X251435382Y-136430241D02*
X251387763Y-136477860D01*
X251387763Y-136477860D02*
X251292525Y-136525479D01*
X251292525Y-136525479D02*
X250911573Y-136525479D01*
X251911573Y-137001670D02*
X251911573Y-136001670D01*
X252911572Y-136049289D02*
X252816334Y-136001670D01*
X252816334Y-136001670D02*
X252673477Y-136001670D01*
X252673477Y-136001670D02*
X252530620Y-136049289D01*
X252530620Y-136049289D02*
X252435382Y-136144527D01*
X252435382Y-136144527D02*
X252387763Y-136239765D01*
X252387763Y-136239765D02*
X252340144Y-136430241D01*
X252340144Y-136430241D02*
X252340144Y-136573098D01*
X252340144Y-136573098D02*
X252387763Y-136763574D01*
X252387763Y-136763574D02*
X252435382Y-136858812D01*
X252435382Y-136858812D02*
X252530620Y-136954051D01*
X252530620Y-136954051D02*
X252673477Y-137001670D01*
X252673477Y-137001670D02*
X252768715Y-137001670D01*
X252768715Y-137001670D02*
X252911572Y-136954051D01*
X252911572Y-136954051D02*
X252959191Y-136906431D01*
X252959191Y-136906431D02*
X252959191Y-136573098D01*
X252959191Y-136573098D02*
X252768715Y-136573098D01*
X253911572Y-136049289D02*
X253816334Y-136001670D01*
X253816334Y-136001670D02*
X253673477Y-136001670D01*
X253673477Y-136001670D02*
X253530620Y-136049289D01*
X253530620Y-136049289D02*
X253435382Y-136144527D01*
X253435382Y-136144527D02*
X253387763Y-136239765D01*
X253387763Y-136239765D02*
X253340144Y-136430241D01*
X253340144Y-136430241D02*
X253340144Y-136573098D01*
X253340144Y-136573098D02*
X253387763Y-136763574D01*
X253387763Y-136763574D02*
X253435382Y-136858812D01*
X253435382Y-136858812D02*
X253530620Y-136954051D01*
X253530620Y-136954051D02*
X253673477Y-137001670D01*
X253673477Y-137001670D02*
X253768715Y-137001670D01*
X253768715Y-137001670D02*
X253911572Y-136954051D01*
X253911572Y-136954051D02*
X253959191Y-136906431D01*
X253959191Y-136906431D02*
X253959191Y-136573098D01*
X253959191Y-136573098D02*
X253768715Y-136573098D01*
X254387763Y-136477860D02*
X254721096Y-136477860D01*
X254863953Y-137001670D02*
X254387763Y-137001670D01*
X254387763Y-137001670D02*
X254387763Y-136001670D01*
X254387763Y-136001670D02*
X254863953Y-136001670D01*
X255863953Y-137001670D02*
X255530620Y-136525479D01*
X255292525Y-137001670D02*
X255292525Y-136001670D01*
X255292525Y-136001670D02*
X255673477Y-136001670D01*
X255673477Y-136001670D02*
X255768715Y-136049289D01*
X255768715Y-136049289D02*
X255816334Y-136096908D01*
X255816334Y-136096908D02*
X255863953Y-136192146D01*
X255863953Y-136192146D02*
X255863953Y-136335003D01*
X255863953Y-136335003D02*
X255816334Y-136430241D01*
X255816334Y-136430241D02*
X255768715Y-136477860D01*
X255768715Y-136477860D02*
X255673477Y-136525479D01*
X255673477Y-136525479D02*
X255292525Y-136525479D01*
M02*
